<svg width="20" height="20" viewBox="0 0 20 20" fill="none" >
<path fill-rule="evenodd" clip-rule="evenodd" d="M5.07765 0.400391C5.57471 0.400391 5.97765 0.803334 5.97765 1.30039V1.90508H9.09844V1.30039C9.09844 0.803334 9.50138 0.400391 9.99844 0.400391C10.4955 0.400391 10.8984 0.803334 10.8984 1.30039V1.90508H13.8984V1.30039C13.8984 0.803334 14.3014 0.400391 14.7984 0.400391C15.2955 0.400391 15.6984 0.803334 15.6984 1.30039V1.90508H16.2984C18.121 1.90508 19.5984 3.38254 19.5984 5.20508V8.91758C19.5984 9.41464 19.1955 9.81758 18.6984 9.81758C18.2014 9.81758 17.7984 9.41464 17.7984 8.91758V5.20508C17.7984 4.37665 17.1269 3.70508 16.2984 3.70508H15.6984V4.30207C15.6984 4.79912 15.2955 5.20207 14.7984 5.20207C14.3014 5.20207 13.8984 4.79912 13.8984 4.30207V3.70508H10.8984V4.30207C10.8984 4.79912 10.4955 5.20207 9.99844 5.20207C9.50138 5.20207 9.09844 4.79912 9.09844 4.30207V3.70508H5.97765V4.30207C5.97765 4.79912 5.57471 5.20207 5.07765 5.20207C4.5806 5.20207 4.17765 4.79912 4.17765 4.30207V3.70508H3.69844C2.87001 3.70508 2.19844 4.37665 2.19844 5.20508V16.3051C2.19844 17.1335 2.87001 17.8051 3.69844 17.8051H8.91094C9.40799 17.8051 9.81094 18.208 9.81094 18.7051C9.81094 19.2021 9.40799 19.6051 8.91094 19.6051H3.69844C1.8759 19.6051 0.398438 18.1276 0.398438 16.3051V5.20508C0.398438 3.38254 1.8759 1.90508 3.69844 1.90508H4.17765V1.30039C4.17765 0.803334 4.5806 0.400391 5.07765 0.400391ZM5.94244 8.26508C5.94244 8.729 5.56636 9.10508 5.10244 9.10508C4.63852 9.10508 4.26244 8.729 4.26244 8.26508C4.26244 7.80116 4.63852 7.42508 5.10244 7.42508C5.56636 7.42508 5.94244 7.80116 5.94244 8.26508ZM8.34244 9.10508C8.80635 9.10508 9.18244 8.729 9.18244 8.26508C9.18244 7.80116 8.80635 7.42508 8.34244 7.42508C7.87852 7.42508 7.50244 7.80116 7.50244 8.26508C7.50244 8.729 7.87852 9.10508 8.34244 9.10508ZM5.94244 11.5411C5.94244 12.005 5.56636 12.3811 5.10244 12.3811C4.63852 12.3811 4.26244 12.005 4.26244 11.5411C4.26244 11.0772 4.63852 10.7011 5.10244 10.7011C5.56636 10.7011 5.94244 11.0772 5.94244 11.5411ZM8.34244 12.3811C8.80635 12.3811 9.18244 12.005 9.18244 11.5411C9.18244 11.0772 8.80635 10.7011 8.34244 10.7011C7.87852 10.7011 7.50244 11.0772 7.50244 11.5411C7.50244 12.005 7.87852 12.3811 8.34244 12.3811ZM5.94244 14.7931C5.94244 15.257 5.56636 15.6331 5.10244 15.6331C4.63852 15.6331 4.26244 15.257 4.26244 14.7931C4.26244 14.3292 4.63852 13.9531 5.10244 13.9531C5.56636 13.9531 5.94244 14.3292 5.94244 14.7931ZM8.34244 15.6331C8.80635 15.6331 9.18244 15.257 9.18244 14.7931C9.18244 14.3292 8.80635 13.9531 8.34244 13.9531C7.87852 13.9531 7.50244 14.3292 7.50244 14.7931C7.50244 15.257 7.87852 15.6331 8.34244 15.6331ZM12.4584 8.26508C12.4584 8.729 12.0824 9.10508 11.6184 9.10508C11.1545 9.10508 10.7784 8.729 10.7784 8.26508C10.7784 7.80116 11.1545 7.42508 11.6184 7.42508C12.0824 7.42508 12.4584 7.80116 12.4584 8.26508ZM14.8584 9.10508C15.3224 9.10508 15.6984 8.729 15.6984 8.26508C15.6984 7.80116 15.3224 7.42508 14.8584 7.42508C14.3945 7.42508 14.0184 7.80116 14.0184 8.26508C14.0184 8.729 14.3945 9.10508 14.8584 9.10508Z" fill="#2A71F9"/>
<path fill-rule="evenodd" clip-rule="evenodd" d="M17.8 14.8059C17.8 16.4627 16.4569 17.8059 14.8 17.8059C13.1431 17.8059 11.8 16.4627 11.8 14.8059C11.8 13.149 13.1431 11.8059 14.8 11.8059C16.4569 11.8059 17.8 13.149 17.8 14.8059ZM19.6 14.8059C19.6 17.4568 17.451 19.6059 14.8 19.6059C12.149 19.6059 10 17.4568 10 14.8059C10 12.1549 12.149 10.0059 14.8 10.0059C17.451 10.0059 19.6 12.1549 19.6 14.8059ZM15.04 13.6059C15.04 13.2745 14.7714 13.0059 14.44 13.0059C14.1086 13.0059 13.84 13.2745 13.84 13.6059V15.4059C13.84 15.7372 14.1086 16.0059 14.44 16.0059H15.88C16.2114 16.0059 16.48 15.7372 16.48 15.4059C16.48 15.0745 16.2114 14.8059 15.88 14.8059H15.04V13.6059Z" fill="#2A71F9"/>
</svg>
