<svg width="50" height="50" viewBox="0 0 50 50" fill="none" xmlns="http://www.w3.org/2000/svg">
<circle cx="25" cy="25" r="25" fill="#FFD4A9" fill-opacity="0.51"/>
<path d="M32.4375 26H29.25V36.6875H32.4375V26Z" fill="#64C37D"/>
<path d="M26.5938 27.125H23.4062V30.5H26.5938V27.125Z" fill="#FF5023"/>
<path d="M39.3438 20.9375V23.1875H37.2188V20.9375C37.2196 20.6394 37.3318 20.3538 37.5309 20.143C37.73 19.9322 37.9997 19.8134 38.2812 19.8125C38.5624 19.8147 38.8314 19.9339 39.0302 20.1444C39.2291 20.3549 39.3417 20.6398 39.3438 20.9375Z" fill="#D80027"/>
<path d="M40.4062 14.1875V15.3125L25 18.6875L9.59375 15.3125V14.1875L25 9.6875L40.4062 14.1875Z" fill="#7CB5EC"/>
<path d="M35.0938 16.4766V24.3122C35.0938 25.9828 32.4375 27.4059 28.6816 27.9797C27.462 28.1622 26.2317 28.2525 25 28.2497C19.4272 28.2497 14.9062 26.4891 14.9062 24.3122V16.4766L25 18.6872L35.0938 16.4766Z" fill="#1FC974"/>
<path d="M15.9688 26.0742C16.9887 26.8673 18.6781 27.5086 20.75 27.8855V40.0636H15.9688V26.0742Z" fill="#9BFBFF"/>
<path d="M26.5938 32.1875V39.5L25.5312 38.375L25 38.9375L24.4688 38.375L23.4062 39.5V32.1875H26.5938Z" fill="#FF5023"/>
<path d="M26.5938 30.5H23.4062V32.1875H26.5938V30.5Z" fill="#E0E0E2"/>
<path d="M26.5938 39.5V40.0625L25 42.3125L23.4062 40.0625V39.5L24.4688 38.375L25 38.9375L25.5312 38.375L26.5938 39.5Z" fill="#2D2D30"/>
<path d="M32.4375 36.6875L30.8438 40.0625L29.25 36.6875H32.4375Z" fill="#00665A"/>
<path d="M40.5497 13.648L25.1434 9.14804C25.0497 9.11992 24.9503 9.11992 24.8566 9.14804L9.45031 13.648C9.33897 13.6811 9.24086 13.7517 9.17087 13.8492C9.10088 13.9466 9.06283 14.0656 9.0625 14.188V15.313C9.06248 15.4427 9.10476 15.5684 9.18221 15.6689C9.25966 15.7693 9.36751 15.8384 9.4875 15.8643L14.375 16.933V24.313C14.3939 24.7173 14.4993 25.1117 14.6834 25.4664C14.8675 25.8212 15.1253 26.1269 15.4375 26.3605V40.063C15.4375 40.2122 15.4935 40.3553 15.5931 40.4608C15.6927 40.5663 15.8279 40.6255 15.9688 40.6255H20.75C20.8909 40.6255 21.026 40.5663 21.1257 40.4608C21.2253 40.3553 21.2812 40.2122 21.2812 40.063V28.5374C21.8019 28.6162 22.3384 28.678 22.875 28.723V40.063C22.8744 40.1849 22.9117 40.3035 22.9813 40.4005L24.575 42.6505C24.6245 42.7204 24.6887 42.7771 24.7624 42.8162C24.8362 42.8552 24.9175 42.8755 25 42.8755C25.0825 42.8755 25.1638 42.8552 25.2376 42.8162C25.3113 42.7771 25.3755 42.7204 25.425 42.6505L27.0187 40.4005C27.0883 40.3035 27.1256 40.1849 27.125 40.063V28.723C27.6616 28.678 28.1981 28.6162 28.7188 28.5374V36.688C28.7192 36.7761 28.7393 36.8628 28.7772 36.9412L30.3709 40.3162C30.4155 40.4083 30.4832 40.4856 30.5667 40.5396C30.6501 40.5936 30.746 40.6222 30.8438 40.6222C30.9415 40.6222 31.0374 40.5936 31.1208 40.5396C31.2043 40.4856 31.272 40.4083 31.3166 40.3162L32.9103 36.9412C32.9482 36.8628 32.9683 36.7761 32.9688 36.688V27.3562C34.5784 26.6137 35.625 25.5899 35.625 24.313V16.933L37.75 16.4718V19.3518C37.4404 19.4685 37.1723 19.6835 36.9822 19.9673C36.7921 20.2511 36.6892 20.5901 36.6875 20.938V23.188C36.6875 23.3372 36.7435 23.4803 36.8431 23.5858C36.9427 23.6913 37.0779 23.7505 37.2188 23.7505H39.3438C39.4846 23.7505 39.6198 23.6913 39.7194 23.5858C39.819 23.4803 39.875 23.3372 39.875 23.188V20.938C39.8733 20.5901 39.7704 20.2511 39.5803 19.9673C39.3902 19.6835 39.1221 19.4685 38.8125 19.3518V16.2355L40.5125 15.8643C40.6325 15.8384 40.7403 15.7693 40.8178 15.6689C40.8952 15.5684 40.9375 15.4427 40.9375 15.313V14.188C40.9372 14.0656 40.8991 13.9466 40.8291 13.8492C40.7591 13.7517 40.661 13.6811 40.5497 13.648ZM20.2188 39.5005H16.5V37.2505H18.625V36.1255H16.5V33.313H17.5625V32.188H16.5V29.3755H18.625V28.2505H16.5V27.0862C17.6781 27.6887 18.9297 28.1147 20.2188 28.3518V39.5005ZM26.0625 39.8774L25 41.3737L23.9375 39.8774V39.7312L24.4688 39.1687L24.6228 39.3374C24.7231 39.4428 24.8587 39.5019 25 39.5019C25.1413 39.5019 25.2769 39.4428 25.3772 39.3374L25.5312 39.1687L26.0625 39.7312V39.8774ZM26.0625 38.1449L25.9084 37.9762C25.8081 37.8708 25.6726 37.8116 25.5312 37.8116C25.3899 37.8116 25.2544 37.8708 25.1541 37.9762L25 38.1449L24.8459 37.9762C24.7456 37.8708 24.6101 37.8116 24.4688 37.8116C24.3274 37.8116 24.1919 37.8708 24.0916 37.9762L23.9375 38.1449V32.7505H26.0625V38.1449ZM26.0625 31.6255H23.9375V31.063H26.0625V31.6255ZM26.0625 29.938H23.9375V28.7905C24.2934 28.8074 24.6441 28.813 25 28.813C25.3559 28.813 25.7066 28.8074 26.0625 28.7905V29.938ZM30.8438 38.803L30.1106 37.2505H31.5769L30.8438 38.803ZM31.9062 36.1255H29.7812V28.3518C30.5008 28.2106 31.2107 28.0189 31.9062 27.778V36.1255ZM34.5625 24.313C34.5625 25.9105 30.6366 27.688 25 27.688C19.3634 27.688 15.4375 25.9105 15.4375 24.313V17.1693L24.8937 19.2393C24.9639 19.2543 25.0361 19.2543 25.1063 19.2393L34.5625 17.1693V24.313ZM38.8125 22.6255H37.75V20.938C37.75 20.7889 37.806 20.6458 37.9056 20.5403C38.0052 20.4348 38.1404 20.3755 38.2812 20.3755C38.4221 20.3755 38.5573 20.4348 38.6569 20.5403C38.7565 20.6458 38.8125 20.7889 38.8125 20.938V22.6255ZM39.875 14.8574L38.8125 15.088V14.7505H37.75V15.3187L25 18.1143L10.125 14.8574V14.6155L25 10.273L39.875 14.6155V14.8574Z" fill="black"/>
<path d="M31.375 28.8125H30.3125V35H31.375V28.8125Z" fill="black"/>
</svg>
