<svg width="50" height="50" viewBox="0 0 50 50" fill="none" xmlns="http://www.w3.org/2000/svg">
<circle cx="25" cy="25" r="25" fill="#FFD4A9" fill-opacity="0.51"/>
<g clip-path="url(#clip0_661_18863)">
<path d="M24.6249 10.8828C24.1577 10.4301 23.6031 10.0711 22.9927 9.82613C22.3823 9.58116 21.7281 9.45508 21.0674 9.45508C20.4067 9.45508 19.7524 9.58116 19.142 9.82613C18.5316 10.0711 17.977 10.4301 17.5099 10.8828C17.0427 11.3353 16.672 11.8726 16.4192 12.4639C16.1663 13.0553 16.0361 13.689 16.0361 14.3291C16.0361 14.9692 16.1663 15.6029 16.4192 16.1943C16.672 16.7856 17.0427 17.3229 17.5099 17.7754L24.1161 24.1758C24.3505 24.4029 24.6684 24.5304 24.9999 24.5304C25.3313 24.5304 25.6492 24.4029 25.8836 24.1758L32.4905 17.7754C32.9577 17.3229 33.3284 16.7856 33.5812 16.1943C33.8341 15.6029 33.9643 14.9692 33.9643 14.3291C33.9643 13.689 33.8341 13.0553 33.5812 12.4639C33.3284 11.8726 32.9577 11.3353 32.4905 10.8828C32.0234 10.4301 31.4687 10.0711 30.8583 9.82613C30.2479 9.58116 29.5937 9.45508 28.933 9.45508C28.2723 9.45508 27.6181 9.58116 27.0077 9.82613C26.3973 10.0711 25.8427 10.4301 25.3755 10.8828C25.2759 10.9791 25.1409 11.0332 25.0002 11.0332C24.8595 11.0332 24.7245 10.9791 24.6249 10.8828Z" fill="#E4222E"/>
<path d="M32.4906 10.8813C31.9113 10.3193 31.1988 9.90311 30.4153 9.66913C29.6318 9.43516 28.8011 9.39046 27.9956 9.53894C28.9888 9.71984 29.9022 10.1878 30.6156 10.8813C31.0829 11.3338 31.4535 11.8711 31.7064 12.4624C31.9592 13.0537 32.0894 13.6875 32.0894 14.3276C32.0894 14.9677 31.9592 15.6014 31.7064 16.1928C31.4535 16.7841 31.0829 17.3214 30.6156 17.7739L24.0625 24.1229L24.1163 24.1743C24.3507 24.4013 24.6685 24.5289 25 24.5289C25.3315 24.5289 25.6493 24.4013 25.8838 24.1743L32.4906 17.7739C32.9579 17.3214 33.3285 16.7841 33.5814 16.1928C33.8342 15.6014 33.9644 14.9677 33.9644 14.3276C33.9644 13.6875 33.8342 13.0537 33.5814 12.4624C33.3285 11.8711 32.9579 11.3338 32.4906 10.8813Z" fill="#C0232C"/>
<path d="M40.5316 37.4319V40.0003H29.6797V37.4313C29.6798 37.0225 29.8154 36.6245 30.0665 36.296C30.3177 35.9675 30.6711 35.7257 31.0747 35.6064L32.0328 35.323L32.0491 35.3182L32.4753 35.1929L33.0878 35.0112C33.2898 34.9519 33.4668 34.8311 33.5924 34.6668C33.718 34.5025 33.7857 34.3033 33.7853 34.0988V33.6641H36.3991V34.0921C36.3991 34.2965 36.4669 34.4955 36.5925 34.6598C36.7181 34.824 36.8948 34.9449 37.0966 35.0046L38.1022 35.3013L38.1528 35.3164L39.1359 35.6064C39.5398 35.7256 39.8934 35.9674 40.1447 36.2961C40.3959 36.6247 40.5316 37.0229 40.5316 37.4319Z" fill="#F69531"/>
<path d="M39.1353 35.6064L38.1522 35.3164L38.1016 35.3013L37.0959 35.0046C36.8941 34.9449 36.7174 34.824 36.5919 34.6598C36.4663 34.4955 36.3985 34.2965 36.3984 34.0921V33.6641H34.5234V34.0921C34.5235 34.2965 34.5913 34.4955 34.7169 34.6598C34.8424 34.824 35.0191 34.9449 35.2209 35.0046L36.2266 35.3013L36.2772 35.3164L37.2603 35.6064C37.664 35.7256 38.0176 35.9673 38.2688 36.2958C38.5201 36.6244 38.6558 37.0224 38.6559 37.4313V39.9997H40.5309V37.4313C40.5308 37.0224 40.3951 36.6244 40.1438 36.2958C39.8926 35.9673 39.539 35.7256 39.1353 35.6064Z" fill="#F48A31"/>
<path d="M38.1015 35.3019V35.317C37.9315 35.4811 36.8077 36.5279 35.094 36.4208C33.6002 36.3251 32.6871 35.4181 32.4746 35.1929L33.0871 35.0112C33.289 34.9517 33.4657 34.8308 33.5913 34.6665C33.7169 34.5022 33.7847 34.3032 33.7846 34.0988V33.6641H36.3984V34.0921C36.3982 34.2436 36.4355 34.3928 36.5071 34.5275C36.5672 34.6412 36.6503 34.742 36.7514 34.824C36.8526 34.9059 36.9697 34.9674 37.0959 35.0046L38.1015 35.3019Z" fill="#FDD8AE"/>
<path d="M37.2134 31.2603H32.9965L32.6065 29.6552C32.5473 29.4142 32.5453 29.1633 32.6005 28.9214C32.6557 28.6795 32.7667 28.4529 32.9252 28.2585C33.0837 28.0641 33.2856 27.907 33.5157 27.799C33.7459 27.6909 33.9983 27.6348 34.254 27.6348H34.2796C34.6803 27.6396 34.9509 27.7056 35.3896 27.7916C35.6128 27.8352 35.8715 27.8824 36.1634 27.9296C36.3926 27.9665 36.6116 28.0486 36.8067 28.1708C37.0019 28.293 37.1691 28.4526 37.2979 28.6399C37.4268 28.8272 37.5147 29.0381 37.556 29.2596C37.5974 29.4811 37.5914 29.7085 37.5384 29.9277L37.2134 31.2603Z" fill="#57565C"/>
<path d="M36.163 27.9297C35.8711 27.8824 35.6123 27.8352 35.3892 27.7916C34.9517 27.7056 34.6798 27.6396 34.2792 27.6348H34.2536C34.1196 27.6341 33.9859 27.6487 33.8555 27.6784C34.0367 27.7068 34.2211 27.7462 34.4517 27.7916C34.6823 27.837 34.9336 27.8824 35.2255 27.9297C35.4547 27.9666 35.6736 28.0486 35.8688 28.1708C36.064 28.293 36.2311 28.4527 36.36 28.6399C36.4889 28.8272 36.5768 29.0382 36.6181 29.2597C36.6595 29.4812 36.6535 29.7085 36.6005 29.9277C36.4926 30.3717 36.3846 30.8157 36.2767 31.2597H37.2142C37.3221 30.8157 37.4301 30.3717 37.538 29.9277C37.591 29.7085 37.597 29.4812 37.5556 29.2597C37.5143 29.0382 37.4264 28.8272 37.2975 28.6399C37.1686 28.4527 37.0015 28.293 36.8063 28.1708C36.6111 28.0486 36.3922 27.9666 36.163 27.9297Z" fill="#3C3B41"/>
<path d="M36.5075 34.5275C36.1193 34.8641 35.6159 35.0492 35.0949 35.0467C34.5738 35.0443 34.0723 34.8545 33.6875 34.5141C33.7521 34.3846 33.7857 34.2426 33.7856 34.0988V33.6641H36.3994V34.0921C36.399 34.2435 36.4361 34.3928 36.5075 34.5275Z" fill="#FBBF7D"/>
<path d="M37.2087 32.1014C37.2135 32.372 37.1627 32.6407 37.0591 32.892C36.9556 33.1433 36.8014 33.3722 36.6056 33.5651C36.4098 33.7581 36.1763 33.9114 35.9187 34.016C35.6611 34.1207 35.3846 34.1745 35.1053 34.1745C34.826 34.1745 34.5494 34.1207 34.2918 34.016C34.0343 33.9114 33.8007 33.7581 33.6049 33.5651C33.4091 33.3722 33.255 33.1433 33.1514 32.892C33.0479 32.6407 32.997 32.372 33.0018 32.1014V31.2943C32.9712 30.865 33.0643 30.592 33.2462 30.4345C33.5987 30.1288 34.0768 30.4345 34.5075 30.1209C34.9381 29.8073 35.2781 29.7068 35.7193 30.0234C36.1887 30.3607 36.625 30.1088 36.9643 30.4345C37.0981 30.5629 37.2393 30.8033 37.2087 31.2943V32.1014Z" fill="#FDD8AE"/>
<path d="M36.9642 30.4326C36.6248 30.1069 36.1886 30.3588 35.7192 30.0215C35.3542 29.7594 35.0523 29.7872 34.7192 29.9797C34.7398 29.9931 34.7605 30.0064 34.7817 30.0215C35.2511 30.3588 35.6873 30.1069 36.0267 30.4326C36.1605 30.561 36.3017 30.8014 36.2711 31.2924V32.0995C36.2711 32.561 36.1094 33.0088 35.8125 33.3696C35.5156 33.7305 35.1011 33.9831 34.6367 34.086C34.9448 34.1544 35.2649 34.1546 35.5731 34.0866C35.8813 34.0185 36.1697 33.8841 36.4168 33.6932C36.664 33.5023 36.8635 33.2599 37.0006 32.9839C37.1377 32.708 37.2088 32.4057 37.2086 32.0995V31.293C37.2392 30.802 37.098 30.5616 36.9642 30.4326Z" fill="#FBBF7D"/>
<path d="M16.219 26.6073C17.0012 26.6073 17.6352 25.993 17.6352 25.2353C17.6352 24.4775 17.0012 23.8633 16.219 23.8633C15.4368 23.8633 14.8027 24.4775 14.8027 25.2353C14.8027 25.993 15.4368 26.6073 16.219 26.6073Z" fill="#57565C"/>
<path d="M16.2188 23.8633C16.0591 23.8632 15.9007 23.8892 15.75 23.9402C16.027 24.0344 16.2669 24.2096 16.4366 24.4416C16.6063 24.6736 16.6975 24.9509 16.6975 25.2353C16.6975 25.5196 16.6063 25.797 16.4366 26.029C16.2669 26.261 16.027 26.4362 15.75 26.5304C15.9444 26.5962 16.1514 26.6202 16.3564 26.6006C16.5614 26.5811 16.7595 26.5184 16.937 26.417C17.1144 26.3157 17.2669 26.178 17.3837 26.0137C17.5006 25.8493 17.5791 25.6623 17.6136 25.4656C17.6482 25.2688 17.6381 25.0672 17.5839 24.8746C17.5298 24.6821 17.4329 24.5033 17.3001 24.3508C17.1673 24.1982 17.0017 24.0756 16.815 23.9914C16.6282 23.9072 16.4247 23.8635 16.2188 23.8633Z" fill="#3C3B41"/>
<path d="M18.8408 29.5862C18.6708 31.0357 17.3476 32.065 15.972 31.9433C14.7576 31.8361 13.732 30.8535 13.597 29.5862C13.5424 29.3634 13.4883 29.1402 13.4345 28.9166C13.3359 28.5115 13.3343 28.0899 13.43 27.6841C13.5257 27.2784 13.7161 26.8992 13.9866 26.5758C14.2571 26.2524 14.6004 25.9934 14.9903 25.8185C15.3802 25.6437 15.8062 25.5577 16.2358 25.5671H16.3283C16.7475 25.576 17.1595 25.6756 17.5339 25.8586C17.9083 26.0417 18.2357 26.3035 18.4921 26.625C18.7486 26.9464 18.9276 27.3194 19.016 27.7165C19.1045 28.1136 19.1001 28.5249 19.0033 28.9202L18.8408 29.5862Z" fill="#57565C"/>
<path d="M16.3259 25.5689H16.2334C16.0694 25.5657 15.9055 25.576 15.7434 25.5998C16.1283 25.6554 16.4972 25.7878 16.8266 25.9886C17.156 26.1894 17.4388 26.4543 17.6571 26.7665C17.8754 27.0786 18.0244 27.4313 18.0948 27.8021C18.1652 28.1729 18.1553 28.5539 18.0659 28.9208L17.9034 29.5868C17.7621 30.7905 16.8259 31.706 15.7246 31.9094C15.8073 31.925 15.8907 31.9365 15.9746 31.9439C17.3496 32.065 18.6734 31.0357 18.8434 29.5868L19.0059 28.9208C19.1026 28.5252 19.1066 28.1137 19.0178 27.7163C18.929 27.319 18.7495 26.946 18.4926 26.6246C18.2356 26.3032 17.9076 26.0415 17.5327 25.8589C17.1578 25.6762 16.7454 25.5772 16.3259 25.5689Z" fill="#3C3B41"/>
<path d="M22.9688 36.9154V39.9997H9.46875V36.9148C9.4688 36.4062 9.63749 35.911 9.94996 35.5022C10.2624 35.0935 10.7022 34.7927 11.2044 34.6443L12.3956 34.292L13 34.1139L13.7106 33.9045C13.9617 33.8304 14.1816 33.6802 14.3378 33.4759C14.494 33.2716 14.5782 33.024 14.5781 32.7698V32.2285H17.8281V32.7613C17.8282 33.0155 17.9126 33.263 18.0687 33.4672C18.2249 33.6715 18.4447 33.8218 18.6956 33.896L20.0081 34.2841L20.1362 34.3216L21.2306 34.6449C21.7333 34.7929 22.1736 35.0935 22.4865 35.5023C22.7995 35.9111 22.9685 36.4065 22.9688 36.9154Z" fill="#FECC30"/>
<path d="M20.01 34.2841C19.7987 34.4881 18.4 35.7935 16.2681 35.6573C14.375 35.5362 13.2319 34.3646 13 34.1139L13.7106 33.9045C13.9617 33.8304 14.1816 33.6802 14.3378 33.4759C14.494 33.2716 14.5782 33.024 14.5781 32.7698V32.2285H17.8281V32.7613C17.8282 33.0155 17.9126 33.263 18.0687 33.4672C18.2249 33.6715 18.4447 33.8218 18.6956 33.896L20.01 34.2841Z" fill="#FDD8AE"/>
<path d="M19.8897 34.3948C19.2883 34.9213 18.568 35.3038 17.7865 35.5119C18.0991 35.0978 18.5419 34.7932 19.0484 34.6437L19.8897 34.3948ZM18.7503 30.9261C18.5403 31.9463 17.6122 33.7894 16.284 33.7936C14.8609 33.7991 13.9322 31.9064 13.774 30.8214C13.5865 29.5432 14.4328 28.6417 15.6778 27.9551C15.6422 27.9745 16.124 28.434 16.1778 28.477C16.4859 28.7319 16.9128 28.8808 17.339 28.945C17.699 28.9995 18.1515 29.0056 18.3759 29.2823C18.7609 29.7588 18.8678 30.3558 18.7503 30.9261Z" fill="#FDD8AE"/>
<path d="M18.3746 29.2823C18.149 29.0038 17.6978 28.9995 17.3378 28.945C16.9115 28.8808 16.4846 28.7319 16.1765 28.477C16.1246 28.434 15.6428 27.9745 15.6765 27.9551C15.4699 28.0684 15.2699 28.1925 15.0771 28.3268C15.1546 28.4019 15.2203 28.4625 15.2371 28.477C15.5453 28.7319 15.9721 28.8808 16.3984 28.945C16.7584 28.9995 17.2109 29.0056 17.4353 29.2823C17.8221 29.7588 17.929 30.3558 17.8103 30.9261C17.6228 31.8264 16.8803 33.3655 15.7965 33.7191C15.9531 33.7688 16.1168 33.7939 16.2815 33.7936C17.6096 33.7894 18.5378 31.9463 18.7478 30.9261C18.8671 30.3558 18.7603 29.7588 18.3746 29.2823Z" fill="#FBBF7D"/>
<path d="M27.453 29.0609L27.383 29.3128L22.6249 29.0609L22.178 27.0629C21.8899 25.7829 22.8124 24.5441 24.0624 24.5508H24.0918C24.5499 24.5569 24.8605 24.6386 25.363 24.7458C25.6186 24.8003 25.9149 24.859 26.2486 24.9177C27.3574 25.1127 28.0799 26.2498 27.8224 27.4001C27.6995 27.9548 27.5764 28.5084 27.453 29.0609Z" fill="#57565C"/>
<path d="M26.2503 24.9177C25.9166 24.8572 25.6203 24.8002 25.3647 24.7457C24.8647 24.6386 24.5522 24.5568 24.0934 24.5508H24.0628C23.9287 24.5504 23.795 24.5644 23.6641 24.5926C23.8978 24.6277 24.1284 24.6822 24.4259 24.7457C24.6816 24.8002 24.9778 24.859 25.3116 24.9177C26.4203 25.1127 27.1428 26.2497 26.8853 27.4001C26.7603 27.9527 26.6368 28.5053 26.5147 29.0579L26.4584 29.2607L27.3822 29.3098L27.4522 29.0579C27.5772 28.5057 27.7007 27.9531 27.8228 27.4001C28.0816 26.2552 27.3591 25.1127 26.2503 24.9177Z" fill="#3C3B41"/>
<path d="M22.9688 36.9161V40.0004H17.3125V36.9155C17.3126 36.4068 17.4812 35.9117 17.7937 35.5029C18.1062 35.0941 18.5459 34.7934 19.0481 34.645L20.1381 34.3223L21.2325 34.6456C21.7348 34.7939 22.1747 35.0946 22.4873 35.5034C22.7999 35.9121 22.9687 36.4074 22.9688 36.9161Z" fill="#F8BE32"/>
<path d="M19.8893 34.3965C19.2879 34.9229 18.5676 35.3055 17.7861 35.5136C18.0987 35.0995 18.5415 34.7948 19.048 34.6453L19.8893 34.3965Z" fill="#FBBF7D"/>
<path d="M32.6878 36.9162V40.0004H29.6797V37.4314C29.6798 37.0226 29.8154 36.6247 30.0665 36.2961C30.3177 35.9676 30.6711 35.7259 31.0747 35.6066L32.0328 35.3232L32.0491 35.3184C32.4603 35.7551 32.6882 36.325 32.6878 36.9162Z" fill="#F48A31"/>
<path d="M31.75 36.9157V40H18.25V36.9151C18.2501 36.4065 18.4187 35.9113 18.7312 35.5025C19.0437 35.0937 19.4834 34.793 19.9856 34.6446L21.1381 34.3037L21.1769 34.2922L22.4894 33.9047C22.7052 33.8414 22.8986 33.7213 23.0481 33.5578C23.055 33.5505 23.0619 33.5433 23.0681 33.5354C23.2547 33.3213 23.357 33.0502 23.3569 32.7701C23.4044 32.3923 23.4523 32.0142 23.5006 31.636C23.6621 31.154 23.9811 30.736 24.4094 30.4451C24.6594 30.2798 25.2844 29.8693 25.8619 30.1121C26.3656 30.324 26.6744 30.9597 26.5788 31.6736C26.5925 32.1192 26.6037 32.4782 26.6087 32.7634C26.6083 33.0445 26.7114 33.3165 26.8994 33.5305L26.9225 33.5566C27.0716 33.7171 27.263 33.8352 27.4762 33.8981L28.7887 34.2862L28.82 34.2952L30.0112 34.647C30.5137 34.7948 30.9539 35.095 31.267 35.5035C31.58 35.9119 31.7493 36.407 31.75 36.9157Z" fill="#1CABE1"/>
<path d="M30.0134 34.6449L28.8221 34.2931L28.7909 34.284L27.4784 33.8959C27.2651 33.833 27.0737 33.715 26.9246 33.5545L26.9015 33.5284C26.7135 33.3143 26.6104 33.0424 26.6109 32.7613C26.6059 32.4779 26.5946 32.1189 26.5809 31.6714C26.674 30.96 26.3677 30.3219 25.864 30.1099C25.2859 29.8678 24.664 30.2771 24.4121 30.4423C24.6496 30.7451 24.769 31.1925 24.7059 31.6714C24.7196 32.1171 24.7309 32.4761 24.7359 32.7613C24.7354 33.0424 24.8385 33.3143 25.0265 33.5284L25.0496 33.5545C25.1987 33.715 25.3901 33.833 25.6034 33.8959L26.9159 34.284L26.9471 34.2931L28.1384 34.6449C28.6407 34.7932 29.0806 35.0939 29.3931 35.5027C29.7057 35.9114 29.8745 36.4067 29.8746 36.9154V39.9997H31.7496V36.9154C31.7495 36.4067 31.5807 35.9114 31.2681 35.5027C30.9556 35.0939 30.5157 34.7932 30.0134 34.6449Z" fill="#199AD5"/>
<path d="M27.4771 33.8961L25.0584 34.9563L21.1777 34.2903L22.4902 33.9028C22.7413 33.8288 22.9612 33.6785 23.1174 33.4742C23.2736 33.2699 23.3578 33.0224 23.3577 32.7681C23.3677 32.6906 23.3771 32.6137 23.3871 32.5362C23.4246 32.2335 23.4634 31.935 23.5015 31.6341C23.663 31.1521 23.9819 30.734 24.4102 30.4431C24.6602 30.2778 25.2852 29.8673 25.8627 30.1101C26.3665 30.322 26.6752 30.9578 26.5796 31.6716C26.5902 32.0131 26.599 32.3037 26.6052 32.5483C26.6052 32.6234 26.6084 32.6936 26.6096 32.7596C26.6097 33.0138 26.694 33.2613 26.8502 33.4655C27.0064 33.6698 27.2261 33.8201 27.4771 33.8943V33.8961Z" fill="#FDD8AE"/>
<path d="M26.6048 32.5522C26.1811 33.0863 25.6186 33.4719 25.0005 33.4719C24.3823 33.4719 23.813 33.0802 23.3867 32.5401C23.4242 32.2374 23.463 31.9389 23.5011 31.638C23.6626 31.156 23.9815 30.7379 24.4098 30.447C24.6598 30.2817 25.2848 29.8712 25.8623 30.114C26.3661 30.3259 26.6748 30.9617 26.5792 31.6755C26.5898 32.0146 26.5986 32.3052 26.6048 32.5522Z" fill="#FBBF7D"/>
<path d="M27.3786 29.625C27.3786 30.8196 26.3161 32.5621 25.0005 32.5621C23.6849 32.5621 22.6255 30.8196 22.6255 29.625V28.7682C22.5911 28.3129 22.6974 28.0229 22.9024 27.8558C23.3005 27.5319 23.8399 27.8558 24.3274 27.5234C24.8149 27.191 25.1986 27.0838 25.6968 27.4199C26.228 27.7777 26.7211 27.5107 27.1043 27.8558C27.2555 27.9926 27.4168 28.2475 27.3811 28.7682L27.3786 29.625Z" fill="#FDD8AE"/>
<path d="M27.1022 27.8556C26.7191 27.5105 26.2272 27.7775 25.6947 27.4196C25.306 27.1575 24.9804 27.169 24.6285 27.3428C24.6729 27.366 24.7158 27.3917 24.7572 27.4196C25.2885 27.7775 25.7816 27.5105 26.1647 27.8556C26.316 27.9924 26.4772 28.2473 26.4416 28.768V29.6248C26.4416 30.6728 25.621 32.1435 24.5322 32.4874C24.6834 32.5363 24.8416 32.5614 25.001 32.5619C26.3135 32.5619 27.3791 30.8194 27.3791 29.6248V28.768C27.4129 28.2473 27.2535 27.9924 27.1022 27.8556Z" fill="#FBBF7D"/>
<path d="M24.9571 34.6804L23.2471 36.0124C23.159 36.081 23.047 36.114 22.9345 36.1044C22.822 36.0948 22.7176 36.0434 22.6433 35.961L21.1377 34.3032L21.1764 34.2917L22.4889 33.9042C22.7048 33.8409 22.8982 33.7208 23.0477 33.5572L24.9571 34.6804ZM28.8221 34.2941L27.3121 35.9628C27.2377 36.0449 27.1334 36.0961 27.0211 36.1056C26.9087 36.1151 26.7969 36.0821 26.7089 36.0136L24.9989 34.6816L26.9221 33.5566C27.0711 33.7172 27.2626 33.8352 27.4758 33.8981L28.7883 34.2862L28.8221 34.2941Z" fill="#1481C4"/>
<path d="M25.4688 35.1338V39.9394C25.4689 39.9597 25.4674 39.9799 25.4644 39.9999H24.5356C24.5326 39.9799 24.5311 39.9597 24.5313 39.9394V35.1338C24.5313 35.0134 24.5806 34.8979 24.6686 34.8127C24.7565 34.7275 24.8757 34.6797 25 34.6797C25.1243 34.6797 25.2436 34.7275 25.3315 34.8127C25.4194 34.8979 25.4688 35.0134 25.4688 35.1338Z" fill="#1481C4"/>
<path d="M28.1552 15.8837H26.3996C26.3321 15.8835 26.2673 15.8574 26.2197 15.8111C26.172 15.7648 26.1452 15.7021 26.1452 15.6366V13.9359C26.1452 13.9035 26.1386 13.8715 26.1258 13.8416C26.113 13.8117 26.0943 13.7845 26.0707 13.7616C26.0471 13.7387 26.019 13.7206 25.9882 13.7082C25.9573 13.6958 25.9242 13.6895 25.8908 13.6895H24.1096C24.0421 13.6895 23.9774 13.7154 23.9297 13.7616C23.882 13.8078 23.8552 13.8705 23.8552 13.9359V15.6366C23.8552 15.7021 23.8284 15.7648 23.7807 15.8111C23.733 15.8574 23.6683 15.8835 23.6008 15.8837H21.8452C21.7777 15.8837 21.713 15.9096 21.6653 15.9558C21.6176 16.0021 21.5908 16.0647 21.5908 16.1301V17.8557C21.5908 17.921 21.6176 17.9837 21.6653 18.0299C21.713 18.0761 21.7777 18.1021 21.8452 18.1021H23.6008C23.6683 18.1021 23.733 18.1281 23.7807 18.1743C23.8284 18.2205 23.8552 18.2832 23.8552 18.3485V20.0493C23.8552 20.1147 23.882 20.1773 23.9297 20.2235C23.9774 20.2698 24.0421 20.2957 24.1096 20.2957H25.8908C25.9583 20.2957 26.023 20.2698 26.0707 20.2235C26.1184 20.1773 26.1452 20.1147 26.1452 20.0493V18.3485C26.1452 18.2832 26.172 18.2205 26.2197 18.1743C26.2674 18.1281 26.3321 18.1021 26.3996 18.1021H28.1552C28.2227 18.1021 28.2874 18.0761 28.3351 18.0299C28.3828 17.9837 28.4096 17.921 28.4096 17.8557V16.1301C28.4096 16.0647 28.3828 16.0021 28.3351 15.9558C28.2874 15.9096 28.2227 15.8837 28.1552 15.8837Z" fill="white"/>
<path d="M28.1555 15.8837H26.3998C26.3323 15.8835 26.2676 15.8574 26.2199 15.8111C26.1723 15.7648 26.1455 15.7021 26.1455 15.6366V13.9359C26.1455 13.9035 26.1389 13.8715 26.1261 13.8416C26.1133 13.8117 26.0946 13.7845 26.071 13.7616C26.0473 13.7387 26.0193 13.7206 25.9884 13.7082C25.9576 13.6958 25.9245 13.6895 25.8911 13.6895H24.1098C24.0424 13.6895 23.9777 13.7154 23.93 13.7616C23.8823 13.8078 23.8555 13.8705 23.8555 13.9359V14.5977H24.9536C25.0211 14.5977 25.0858 14.6236 25.1335 14.6698C25.1812 14.716 25.208 14.7787 25.208 14.8441V16.5448C25.208 16.6103 25.2347 16.673 25.2824 16.7193C25.3301 16.7656 25.3948 16.7917 25.4623 16.7919H27.218C27.2854 16.7919 27.3501 16.8178 27.3978 16.8641C27.4455 16.9103 27.4723 16.9729 27.4723 17.0383V18.1021H28.1555C28.2229 18.1021 28.2876 18.0761 28.3353 18.0299C28.383 17.9837 28.4098 17.921 28.4098 17.8557V16.1301C28.4098 16.0647 28.383 16.0021 28.3353 15.9558C28.2876 15.9096 28.2229 15.8837 28.1555 15.8837Z" fill="#E1E1E3"/>
</g>
<defs>
<clipPath id="clip0_661_18863">
<rect width="32" height="31" fill="white" transform="translate(9 9)"/>
</clipPath>
</defs>
</svg>
