<svg width="36" height="33" viewBox="0 0 36 33" fill="none" xmlns="http://www.w3.org/2000/svg">
<path d="M34.6483 27.8381C35.8614 28.9533 35.8614 30.6881 34.6483 31.8033C34.0418 32.3609 33.3005 32.6087 32.4918 32.6087C31.6831 32.6087 30.9418 32.3609 30.3353 31.8033L18.0027 20.4652L5.67009 31.8033C5.06357 32.3609 4.32227 32.6087 3.51357 32.6087C2.70487 32.6087 1.96357 32.3609 1.35705 31.8033C0.144005 30.6881 0.144005 28.9533 1.35705 27.8381L13.6897 16.5L1.35705 5.16198C0.144005 4.04677 0.144005 2.31198 1.35705 1.19676C2.57009 0.0815472 4.45705 0.0815472 5.67009 1.19676L18.0027 12.5348L30.3353 1.19676C31.5484 0.0815472 33.4353 0.0815472 34.6483 1.19676C35.8614 2.31198 35.8614 4.04677 34.6483 5.16198L22.3157 16.5L34.6483 27.8381Z" fill="black"/>
</svg>
