<svg width="240" height="240" viewBox="0 0 240 240" fill="none" >
<g filter="url(#filter0_d_2965_43464)">
<circle cx="120" cy="116" r="100" fill="white"/>
</g>
<g clip-path="url(#clip0_2965_43464)">
<path d="M119.998 166C147.612 166 169.998 143.614 169.998 116C169.998 88.3858 147.612 66 119.998 66C92.3838 66 69.998 88.3858 69.998 116C69.998 143.614 92.3838 166 119.998 166Z" fill="#E6C156"/>
<path d="M128.236 95.1741C123.761 95.1741 120.152 98.7636 120.025 103.268H120.034C121.225 103.964 124.332 104.282 126.998 104.247C129.665 104.216 131.938 103.947 131.938 103.947C133.373 103.712 133.632 105.909 132.184 106.014C132.184 106.014 129.819 106.297 127.027 106.332C124.773 106.362 122.282 106.297 120.305 105.637C121.238 109.207 124.411 111.837 128.236 111.837C138.007 111.837 144.177 104.039 145.875 101.759C142.869 101.732 140.3 100.67 138.088 99.1428C135.248 97.1845 132.546 95.1699 128.236 95.1699V95.1741ZM90.8379 111.332V130.466H100.15V111.332H90.8379ZM102.234 114.124V127.77L122.307 134.568C123.973 134.985 126.1 134.676 127.471 133.755C127.496 133.735 127.523 133.724 127.552 133.71L147.78 122.716L148.263 122.439C148.639 122.238 148.926 121.903 149.067 121.501C149.209 121.098 149.194 120.658 149.025 120.266C148.64 119.355 148.213 119.237 147.767 119.17C147.501 119.13 147.229 119.146 146.969 119.218L132.427 125.957C132.29 126.029 132.139 126.069 131.984 126.076C131.607 126.191 131.217 126.253 130.823 126.259H116.338V124.176H130.823C131.136 124.176 131.427 124.114 131.69 124.005H131.698C132.49 123.678 133.03 122.922 133.03 122.02C133.03 120.811 132.071 119.861 130.823 119.861H120.265L119.994 119.237C119.905 119.032 119.794 118.851 119.63 118.557C119.233 117.839 118.735 117.183 118.15 116.608C116.512 115.009 114.31 114.12 112.021 114.132H102.236L102.234 114.124Z" fill="white"/>
</g>
<defs>
<filter id="filter0_d_2965_43464" x="0" y="0" width="240" height="240" filterUnits="userSpaceOnUse" color-interpolation-filters="sRGB">
<feFlood flood-opacity="0" result="BackgroundImageFix"/>
<feColorMatrix in="SourceAlpha" type="matrix" values="0 0 0 0 0 0 0 0 0 0 0 0 0 0 0 0 0 0 127 0" result="hardAlpha"/>
<feOffset dy="4"/>
<feGaussianBlur stdDeviation="10"/>
<feComposite in2="hardAlpha" operator="out"/>
<feColorMatrix type="matrix" values="0 0 0 0 0 0 0 0 0 0 0 0 0 0 0 0 0 0 0.15 0"/>
<feBlend mode="normal" in2="BackgroundImageFix" result="effect1_dropShadow_2965_43464"/>
<feBlend mode="normal" in="SourceGraphic" in2="effect1_dropShadow_2965_43464" result="shape"/>
</filter>
<clipPath id="clip0_2965_43464">
<rect width="100" height="100" fill="white" transform="translate(70 66)"/>
</clipPath>
</defs>
</svg>
