<svg width="43" height="43" viewBox="0 0 43 43" fill="none" xmlns="http://www.w3.org/2000/svg">
<path d="M21.5 0.0625C9.66152 0.0625 0.0625 9.66152 0.0625 21.5C0.0625 33.3385 9.66152 42.9375 21.5 42.9375C33.3385 42.9375 42.9375 33.3385 42.9375 21.5C42.9375 9.66152 33.3385 0.0625 21.5 0.0625ZM29.4146 29.6443L26.2564 29.63L21.5 23.9596L16.7483 29.6252L13.5854 29.6395C13.3748 29.6395 13.2025 29.4721 13.2025 29.2567C13.2025 29.1658 13.236 29.0797 13.2935 29.0079L19.5189 21.5909L13.2935 14.1787C13.2356 14.1086 13.2036 14.0208 13.2025 13.9299C13.2025 13.7193 13.3748 13.5471 13.5854 13.5471L16.7483 13.5614L21.5 19.2318L26.2517 13.5662L29.4099 13.5519C29.6204 13.5519 29.7927 13.7193 29.7927 13.9347C29.7927 14.0256 29.7592 14.1117 29.7018 14.1835L23.4858 21.5957L29.7065 29.0127C29.764 29.0845 29.7975 29.1706 29.7975 29.2615C29.7975 29.4721 29.6252 29.6443 29.4146 29.6443Z" fill="#666666"/>
</svg>
