<svg width="12" height="12" viewBox="0 0 12 12" fill="none" xmlns="http://www.w3.org/2000/svg">
<g clip-path="url(#clip0_1617_60163)">
<path d="M11.9965 0H0.00351563C0.001574 0 0 0.001574 0 0.00351563V11.9965C0 11.9984 0.001574 12 0.00351563 12H11.9965C11.9984 12 12 11.9984 12 11.9965V0.00351563C12 0.001574 11.9984 0 11.9965 0Z" fill="#C80A0A"/>
<path d="M9.68037 7.07812C9.46943 6.84375 9.00068 6.72656 8.36787 6.72656C7.99287 6.72656 7.59443 6.77344 7.12568 6.84375C6.62936 6.37887 6.21705 5.83177 5.90693 5.22656C6.1413 4.52344 6.30537 3.84375 6.30537 3.32812C6.30537 2.92969 6.16474 2.29688 5.60224 2.29688C5.43818 2.29688 5.29755 2.39062 5.2038 2.53125C4.96943 2.95312 5.06318 3.89062 5.50849 4.875C5.1832 5.81562 4.79159 6.73198 4.33662 7.61719C3.09443 8.13281 2.27412 8.69531 2.2038 9.14062C2.15693 9.35156 2.29755 9.70312 2.78974 9.70312C3.5163 9.70312 4.31318 8.64844 4.92255 7.57031C5.62601 7.32842 6.34683 7.14038 7.0788 7.00781C7.96943 7.78125 8.74287 7.89844 9.11787 7.89844C9.86787 7.89844 9.93818 7.35938 9.68037 7.07812ZM5.32099 2.60156C5.50849 2.32031 5.93037 2.41406 5.93037 2.97656C5.93037 3.35156 5.81318 3.96094 5.5788 4.66406C5.15693 3.67969 5.15693 2.90625 5.32099 2.60156ZM2.34443 9.16406C2.41474 8.78906 3.11787 8.27344 4.21943 7.82812C3.61005 8.85938 3.00068 9.51562 2.62568 9.51562C2.3913 9.51562 2.32099 9.30469 2.34443 9.16406ZM6.96162 6.86719C6.30122 6.99025 5.65096 7.16261 5.0163 7.38281C5.3632 6.75668 5.64589 6.09708 5.86005 5.41406C6.16811 5.94055 6.53791 6.42838 6.96162 6.86719ZM7.2663 6.96094C8.0163 6.84375 8.64912 6.86719 8.93037 6.91406C9.61005 7.05469 9.37568 7.875 8.62568 7.6875C8.08662 7.57031 7.6413 7.26562 7.2663 6.96094Z" fill="white"/>
</g>
<defs>
<clipPath id="clip0_1617_60163">
<rect width="12" height="12" rx="6" fill="white"/>
</clipPath>
</defs>
</svg>
