<svg width="240" height="240" viewBox="0 0 240 240" fill="none" xmlns="http://www.w3.org/2000/svg">
<g filter="url(#filter0_d_2965_43462)">
<circle cx="120" cy="116" r="100" fill="white"/>
</g>
<g clip-path="url(#clip0_2965_43462)">
<path d="M120 166C147.614 166 170 143.614 170 116C170 88.3859 147.614 66 120 66C92.3858 66 70 88.3859 70 116C70 143.614 92.3858 166 120 166Z" fill="#E6C156"/>
<path d="M152.291 93.084H87.708V138.917H152.291V93.084Z" fill="#E9EDED"/>
<path d="M87.708 93.084H152.258V98.2923H87.708V93.084Z" fill="#34485C"/>
<path d="M149.166 94.1426V97.2531M145 94.1446V97.2531M140.833 94.1446V97.2531" stroke="#435E78" stroke-linecap="square" stroke-linejoin="round"/>
<path d="M91.875 103.5H148.125V134.75H91.875V103.5Z" fill="#C5CAFF"/>
<path d="M92.916 126.417H98.091L108.524 116.001L116.868 120.167L129.276 111.834L139.791 116.001H147.083M98.1243 127.459V133.709M108.541 117.042V133.709M116.874 121.209V133.709" stroke="#4BBFEB" stroke-linecap="square"/>
<path d="M129.375 112.875V130.119" stroke="#4BBFEB" stroke-width="2"/>
<path d="M139.791 117.043V133.71" stroke="#4BBFEB" stroke-linecap="square"/>
<path d="M116.779 121.979C117.929 121.979 118.862 121.046 118.862 119.896C118.862 118.745 117.929 117.812 116.779 117.812C115.628 117.812 114.695 118.745 114.695 119.896C114.695 121.046 115.628 121.979 116.779 121.979Z" fill="#F05542"/>
<path d="M98.0599 128.358C99.2105 128.358 100.143 127.425 100.143 126.275C100.143 125.124 99.2105 124.191 98.0599 124.191C96.9093 124.191 95.9766 125.124 95.9766 126.275C95.9766 127.425 96.9093 128.358 98.0599 128.358Z" fill="#F05542"/>
<path d="M120.521 118.778L129.277 113.072L140.989 117.239" stroke="#4BBFEB" stroke-width="2"/>
<path d="M129.333 119.745C131.88 119.745 133.945 117.68 133.945 115.132C133.945 112.585 131.88 110.52 129.333 110.52C126.785 110.52 124.72 112.585 124.72 115.132C124.72 117.68 126.785 119.745 129.333 119.745Z" fill="#E6C156"/>
<path d="M108.525 118.262C109.675 118.262 110.608 117.33 110.608 116.179C110.608 115.028 109.675 114.096 108.525 114.096C107.374 114.096 106.441 115.028 106.441 116.179C106.441 117.33 107.374 118.262 108.525 118.262Z" fill="#E6C156"/>
<path d="M121.435 128.996L113.264 143.146C113.127 143.383 113.037 143.645 113.001 143.916C112.965 144.187 112.983 144.463 113.054 144.727C113.125 144.992 113.247 145.24 113.414 145.457C113.581 145.674 113.789 145.856 114.027 145.992C114.263 146.129 114.525 146.219 114.796 146.255C115.068 146.291 115.343 146.272 115.608 146.202C115.872 146.131 116.12 146.009 116.337 145.842C116.554 145.675 116.736 145.467 116.872 145.229L125.043 131.081" fill="#F05542"/>
<path d="M121.425 129.021L120.188 131.169C121 131.859 122.533 132.909 123.833 133.19L125.071 131.107L121.425 129.021Z" fill="#E54141"/>
<path d="M131.155 103.498C133.375 103.558 135.551 104.124 137.519 105.153C139.486 106.182 141.193 107.647 142.508 109.435C143.824 111.223 144.714 113.289 145.11 115.473C145.507 117.658 145.399 119.904 144.796 122.041C144.193 124.177 143.11 126.148 141.629 127.803C140.149 129.457 138.31 130.752 136.254 131.589C134.197 132.425 131.976 132.781 129.761 132.629C127.546 132.477 125.395 131.821 123.472 130.712C120.661 129.091 118.471 126.578 117.248 123.572C116.026 120.566 115.841 117.238 116.723 114.115C117.604 110.992 119.502 108.252 122.117 106.329C124.731 104.406 127.911 103.409 131.155 103.498ZM131.937 108.771C130.102 108.544 128.242 108.861 126.587 109.683C124.932 110.505 123.554 111.795 122.626 113.393C121.387 115.553 121.054 118.115 121.701 120.52C122.348 122.924 123.922 124.973 126.078 126.218C128.237 127.458 130.8 127.791 133.204 127.144C135.608 126.498 137.658 124.924 138.903 122.768C139.517 121.705 139.915 120.53 140.073 119.312C140.232 118.094 140.149 116.857 139.828 115.672C139.508 114.486 138.956 113.376 138.205 112.404C137.455 111.432 136.519 110.618 135.453 110.008C134.332 109.362 133.145 108.921 131.937 108.771Z" fill="#34485C"/>
<path opacity="0.341" d="M130.767 127.455C135.944 127.455 140.142 123.258 140.142 118.08C140.142 112.902 135.944 108.705 130.767 108.705C125.589 108.705 121.392 112.902 121.392 118.08C121.392 123.258 125.589 127.455 130.767 127.455Z" fill="white"/>
<path d="M135.515 112.547C136.666 113.535 137.481 114.857 137.846 116.33" stroke="white" stroke-width="1.00013" stroke-linecap="round" stroke-linejoin="round"/>
</g>
<defs>
<filter id="filter0_d_2965_43462" x="0" y="0" width="240" height="240" filterUnits="userSpaceOnUse" color-interpolation-filters="sRGB">
<feFlood flood-opacity="0" result="BackgroundImageFix"/>
<feColorMatrix in="SourceAlpha" type="matrix" values="0 0 0 0 0 0 0 0 0 0 0 0 0 0 0 0 0 0 127 0" result="hardAlpha"/>
<feOffset dy="4"/>
<feGaussianBlur stdDeviation="10"/>
<feComposite in2="hardAlpha" operator="out"/>
<feColorMatrix type="matrix" values="0 0 0 0 0 0 0 0 0 0 0 0 0 0 0 0 0 0 0.15 0"/>
<feBlend mode="normal" in2="BackgroundImageFix" result="effect1_dropShadow_2965_43462"/>
<feBlend mode="normal" in="SourceGraphic" in2="effect1_dropShadow_2965_43462" result="shape"/>
</filter>
<clipPath id="clip0_2965_43462">
<rect width="100" height="100" fill="white" transform="translate(70 66)"/>
</clipPath>
</defs>
</svg>
