<svg width="184" height="73" viewBox="0 0 184 73" fill="none" >
<path d="M39.8672 63.3203H39.3047C38.4505 60.8411 37.5234 58.2344 36.5234 55.5C36.0286 54.1458 35.7109 53.3542 35.5703 53.125C35.4974 53.0052 35.4036 52.9062 35.2891 52.8281C35.1172 52.7188 34.7344 52.5964 34.1406 52.4609V52C35.3438 52.0573 36.112 52.0859 36.4453 52.0859C36.888 52.0859 37.599 52.0573 38.5781 52V52.4609C37.9583 52.6172 37.5938 52.737 37.4844 52.8203C37.3802 52.9036 37.3281 53.0052 37.3281 53.125C37.3281 53.2344 37.4375 53.6146 37.6562 54.2656C38.625 57.2083 39.3802 59.3724 39.9219 60.7578L42.0625 55C41.7135 54.0469 41.4766 53.4635 41.3516 53.25C41.2318 53.0365 41.1068 52.8906 40.9766 52.8125C40.8464 52.7344 40.4766 52.6172 39.8672 52.4609V52C40.8359 52.0573 41.5859 52.0859 42.1172 52.0859C42.6745 52.0859 43.401 52.0573 44.2969 52V52.4609L44.0156 52.5312C43.5833 52.6146 43.3047 52.7057 43.1797 52.8047C43.1016 52.8724 43.0625 52.974 43.0625 53.1094C43.0625 53.1667 43.0677 53.2214 43.0781 53.2734C43.1094 53.4089 43.3984 54.2682 43.9453 55.8516L45.625 60.625C45.9844 59.6354 46.4167 58.3698 46.9219 56.8281L48.0859 53.2656C48.1016 53.1927 48.1094 53.1276 48.1094 53.0703C48.1094 52.9766 48.0807 52.9089 48.0234 52.8672C47.9661 52.8203 47.5781 52.6849 46.8594 52.4609V52C47.8281 52.0573 48.4609 52.0859 48.7578 52.0859C49.112 52.0859 49.7083 52.0573 50.5469 52V52.4609C49.9531 52.6172 49.5833 52.7526 49.4375 52.8672C49.3438 52.9453 49.2552 53.0755 49.1719 53.2578C49.0365 53.5547 48.4271 55.2292 47.3438 58.2812C47.3125 58.3594 46.7396 60.0391 45.625 63.3203H45.0859L43.1641 57.9688C42.9922 57.4896 42.763 56.888 42.4766 56.1641C41.7839 57.9505 40.9141 60.3359 39.8672 63.3203ZM54.5781 51.8125H55.0703C55.7734 53.6198 56.638 55.6693 57.6641 57.9609L59.4844 61.9375C59.5677 62.0781 59.6589 62.1823 59.7578 62.25C59.8255 62.2969 60.2083 62.4219 60.9062 62.625V63.0859C59.9583 63.0286 59.2604 63 58.8125 63C58.3542 63 57.5729 63.0286 56.4688 63.0859V62.625C57.099 62.4948 57.4661 62.3906 57.5703 62.3125C57.6745 62.2344 57.7266 62.1432 57.7266 62.0391C57.7266 61.9297 57.6719 61.7448 57.5625 61.4844L56.7812 59.5781C55.6719 59.5677 54.8646 59.5625 54.3594 59.5625L52.2109 59.5781L51.3984 61.5547C51.263 61.8724 51.1953 62.0703 51.1953 62.1484C51.1953 62.2161 51.2266 62.2734 51.2891 62.3203C51.3568 62.362 51.6615 62.4401 52.2031 62.5547C52.2604 62.5703 52.3411 62.5938 52.4453 62.625V63.0859C51.5547 63.0286 50.9271 63 50.5625 63C50.099 63 49.5052 63.0286 48.7812 63.0859V62.625C49.2552 62.5208 49.5807 62.4036 49.7578 62.2734C49.888 62.1745 50.0234 62.0078 50.1641 61.7734C50.4609 61.2578 51.2161 59.599 52.4297 56.7969L54.5781 51.8125ZM52.5156 58.7969C53.2396 58.8177 53.7578 58.8281 54.0703 58.8281C54.1641 58.8281 54.9635 58.8177 56.4688 58.7969L54.4922 54.1094L52.5156 58.7969ZM61.4219 52.4609V52C62.6979 52.0573 63.5625 52.0859 64.0156 52.0859C64.2969 52.0859 65.1953 52.0573 66.7109 52V52.4609C65.7734 52.6224 65.224 52.7292 65.0625 52.7812C64.9479 52.8177 64.8646 52.875 64.8125 52.9531C64.7344 53.0625 64.6901 53.2891 64.6797 53.6328C64.6693 53.9766 64.6641 55.9036 64.6641 59.4141C64.6641 60.1068 64.6719 61.0312 64.6875 62.1875H68.1328C68.6484 62.1875 68.9844 62.1562 69.1406 62.0938C69.2969 62.0312 69.4583 61.8932 69.625 61.6797C69.7917 61.4661 70.1042 60.9297 70.5625 60.0703H71.2266L70.6016 61.8125C70.4922 62.1354 70.3594 62.5599 70.2031 63.0859C68.0469 63.0286 66.1693 63 64.5703 63C63.4401 63 62.3906 63.0286 61.4219 63.0859V62.625C62.2188 62.4792 62.6875 62.3802 62.8281 62.3281C62.9688 62.2708 63.0625 62.1953 63.1094 62.1016C63.1615 62.0078 63.1875 61.7344 63.1875 61.2812L63.2266 56.4922L63.2031 53.4062C63.2031 53.1406 63.1641 52.974 63.0859 52.9062C62.9661 52.8021 62.5807 52.6927 61.9297 52.5781C61.8151 52.5573 61.6458 52.5182 61.4219 52.4609ZM71.9219 52.4609V52C73.1979 52.0573 74.0625 52.0859 74.5156 52.0859C74.7969 52.0859 75.6953 52.0573 77.2109 52V52.4609C76.2734 52.6224 75.724 52.7292 75.5625 52.7812C75.4479 52.8177 75.3646 52.875 75.3125 52.9531C75.2344 53.0625 75.1901 53.2891 75.1797 53.6328C75.1693 53.9766 75.1641 55.9036 75.1641 59.4141C75.1641 60.1068 75.1719 61.0312 75.1875 62.1875H78.6328C79.1484 62.1875 79.4844 62.1562 79.6406 62.0938C79.7969 62.0312 79.9583 61.8932 80.125 61.6797C80.2917 61.4661 80.6042 60.9297 81.0625 60.0703H81.7266L81.1016 61.8125C80.9922 62.1354 80.8594 62.5599 80.7031 63.0859C78.5469 63.0286 76.6693 63 75.0703 63C73.9401 63 72.8906 63.0286 71.9219 63.0859V62.625C72.7188 62.4792 73.1875 62.3802 73.3281 62.3281C73.4688 62.2708 73.5625 62.1953 73.6094 62.1016C73.6615 62.0078 73.6875 61.7344 73.6875 61.2812L73.7266 56.4922L73.7031 53.4062C73.7031 53.1406 73.6641 52.974 73.5859 52.9062C73.4661 52.8021 73.0807 52.6927 72.4297 52.5781C72.3151 52.5573 72.1458 52.5182 71.9219 52.4609ZM87.9219 51.8125H88.4141C89.1172 53.6198 89.9818 55.6693 91.0078 57.9609L92.8281 61.9375C92.9115 62.0781 93.0026 62.1823 93.1016 62.25C93.1693 62.2969 93.5521 62.4219 94.25 62.625V63.0859C93.3021 63.0286 92.6042 63 92.1562 63C91.6979 63 90.9167 63.0286 89.8125 63.0859V62.625C90.4427 62.4948 90.8099 62.3906 90.9141 62.3125C91.0182 62.2344 91.0703 62.1432 91.0703 62.0391C91.0703 61.9297 91.0156 61.7448 90.9062 61.4844L90.125 59.5781C89.0156 59.5677 88.2083 59.5625 87.7031 59.5625L85.5547 59.5781L84.7422 61.5547C84.6068 61.8724 84.5391 62.0703 84.5391 62.1484C84.5391 62.2161 84.5703 62.2734 84.6328 62.3203C84.7005 62.362 85.0052 62.4401 85.5469 62.5547C85.6042 62.5703 85.6849 62.5938 85.7891 62.625V63.0859C84.8984 63.0286 84.2708 63 83.9062 63C83.4427 63 82.849 63.0286 82.125 63.0859V62.625C82.599 62.5208 82.9245 62.4036 83.1016 62.2734C83.2318 62.1745 83.3672 62.0078 83.5078 61.7734C83.8047 61.2578 84.5599 59.599 85.7734 56.7969L87.9219 51.8125ZM85.8594 58.7969C86.5833 58.8177 87.1016 58.8281 87.4141 58.8281C87.5078 58.8281 88.3073 58.8177 89.8125 58.7969L87.8359 54.1094L85.8594 58.7969ZM94.3984 52.4609V52C95.0599 52.0573 95.5807 52.0859 95.9609 52.0859C96.2682 52.0859 96.8177 52.0573 97.6094 52L99.8281 54.7734C100.031 55.0182 101.599 56.9167 104.531 60.4688C104.536 59.7396 104.539 59.2109 104.539 58.8828C104.539 58.1068 104.516 56.6875 104.469 54.625C104.448 53.6615 104.422 53.138 104.391 53.0547C104.365 52.9714 104.305 52.8958 104.211 52.8281C104.122 52.7604 103.76 52.6667 103.125 52.5469C103.042 52.5312 102.919 52.5026 102.758 52.4609V52C103.685 52.0573 104.422 52.0859 104.969 52.0859C105.5 52.0859 106.234 52.0573 107.172 52V52.4609C107.031 52.4974 106.927 52.5208 106.859 52.5312C106.161 52.6771 105.773 52.7734 105.695 52.8203C105.638 52.8516 105.591 52.8984 105.555 52.9609C105.503 53.0443 105.466 53.2005 105.445 53.4297C105.44 53.5286 105.427 54.2396 105.406 55.5625C105.391 56.8802 105.383 58.1562 105.383 59.3906C105.383 60.849 105.409 62.0807 105.461 63.0859L104.953 63.3203L101.695 59.2734L97.4219 54.1328L97.4609 58.75C97.487 60.7708 97.5156 61.849 97.5469 61.9844C97.5677 62.0781 97.6146 62.1589 97.6875 62.2266C97.8021 62.3307 98.1901 62.4401 98.8516 62.5547C98.9297 62.5651 99.0469 62.5885 99.2031 62.625V63.0859C98.4062 63.0286 97.7344 63 97.1875 63C96.7292 63 95.9297 63.0286 94.7891 63.0859V62.625C94.9714 62.5833 95.1094 62.5521 95.2031 62.5312C95.8281 62.4219 96.1901 62.3203 96.2891 62.2266C96.3464 62.1797 96.388 62.099 96.4141 61.9844C96.4661 61.7448 96.5 60.8385 96.5156 59.2656C96.5417 57.0365 96.5547 55.7188 96.5547 55.3125C96.5547 54.0052 96.5365 53.2786 96.5 53.1328C96.4792 53.0286 96.4115 52.9427 96.2969 52.875C96.1823 52.8021 95.6901 52.6927 94.8203 52.5469C94.7266 52.5312 94.5859 52.5026 94.3984 52.4609ZM108.352 55.0469H107.75C107.849 54.1406 107.938 53.125 108.016 52C110.323 52.0573 111.969 52.0859 112.953 52.0859C113.771 52.0859 115.26 52.0573 117.422 52C117.49 53.1615 117.568 54.1771 117.656 55.0469H117.07C116.826 54.0938 116.667 53.5365 116.594 53.375C116.521 53.2083 116.414 53.0911 116.273 53.0234C116.138 52.9505 115.789 52.9141 115.227 52.9141H113.492C113.451 54.2995 113.43 56.013 113.43 58.0547C113.43 59.9505 113.451 61.2318 113.492 61.8984C113.503 62.0547 113.542 62.1615 113.609 62.2188C113.698 62.2917 114.128 62.4036 114.898 62.5547C114.971 62.5651 115.081 62.5885 115.227 62.625V63.0859C114.195 63.0286 113.276 63 112.469 63C111.703 63 110.919 63.0286 110.117 63.0859V62.625C110.299 62.5781 110.438 62.5469 110.531 62.5312C111.245 62.4115 111.656 62.3099 111.766 62.2266C111.812 62.1849 111.846 62.1276 111.867 62.0547C111.893 61.9766 111.914 61.3984 111.93 60.3203C111.951 58.6536 111.961 57.4193 111.961 56.6172C111.961 55.2161 111.951 53.9818 111.93 52.9141H110.07L109.734 52.9219C109.438 52.9219 109.242 52.9531 109.148 53.0156C109.003 53.1042 108.872 53.2917 108.758 53.5781C108.669 53.7969 108.534 54.2865 108.352 55.0469ZM123.391 52V52.4609C123.208 52.5026 123.073 52.5312 122.984 52.5469C122.292 52.6667 121.891 52.7812 121.781 52.8906C121.672 52.9948 121.617 53.2318 121.617 53.6016V53.875L121.586 57.0156L121.609 61.5781C121.609 61.9427 121.661 62.1745 121.766 62.2734C121.875 62.3724 122.242 62.4583 122.867 62.5312C122.987 62.5469 123.161 62.5781 123.391 62.625V63.0859C122.552 63.0286 121.745 63 120.969 63C120.167 63 119.286 63.0286 118.328 63.0859V62.625C118.479 62.5833 118.594 62.5573 118.672 62.5469C119.411 62.4271 119.833 62.3177 119.938 62.2188C120.047 62.1146 120.102 61.8568 120.102 61.4453L120.094 61.0547L120.109 58.1875C120.109 55.2396 120.104 53.6094 120.094 53.2969C120.083 53.125 120.026 52.9922 119.922 52.8984C119.823 52.8047 119.43 52.6927 118.742 52.5625C118.648 52.5417 118.51 52.5078 118.328 52.4609V52C119.458 52.0573 120.341 52.0859 120.977 52.0859C121.685 52.0859 122.49 52.0573 123.391 52ZM134.438 61.1875L134.766 61.7812C133.927 62.3073 133.122 62.6953 132.352 62.9453C131.581 63.1953 130.784 63.3203 129.961 63.3203C128.914 63.3203 127.964 63.0833 127.109 62.6094C126.255 62.1302 125.607 61.4557 125.164 60.5859C124.727 59.7109 124.508 58.7422 124.508 57.6797C124.508 55.9453 125.073 54.526 126.203 53.4219C127.339 52.3177 128.839 51.7656 130.703 51.7656C131.849 51.7656 133.125 52 134.531 52.4688C134.521 52.9271 134.516 53.2708 134.516 53.5C134.516 54.1667 134.555 54.8672 134.633 55.6016H133.977C133.784 54.6901 133.578 54.0625 133.359 53.7188C133.141 53.375 132.786 53.1016 132.297 52.8984C131.807 52.6901 131.203 52.5859 130.484 52.5859C128.974 52.5859 127.836 53.1224 127.07 54.1953C126.477 55.0339 126.18 56.0859 126.18 57.3516C126.18 58.862 126.596 60.0547 127.43 60.9297C128.268 61.7995 129.365 62.2344 130.719 62.2344C131.302 62.2344 131.87 62.1589 132.422 62.0078C132.974 61.8568 133.646 61.5833 134.438 61.1875ZM142.727 54.9844H142.133C141.997 54.3177 141.844 53.8307 141.672 53.5234C141.5 53.2161 141.237 52.9766 140.883 52.8047C140.534 52.6276 140.141 52.5391 139.703 52.5391C139.083 52.5391 138.589 52.7109 138.219 53.0547C137.854 53.3984 137.672 53.8151 137.672 54.3047C137.672 54.737 137.823 55.1146 138.125 55.4375C138.422 55.7604 139.146 56.1693 140.297 56.6641C141.453 57.1589 142.24 57.6693 142.656 58.1953C143.068 58.7266 143.273 59.3229 143.273 59.9844C143.273 60.5781 143.117 61.1302 142.805 61.6406C142.497 62.151 142.031 62.5599 141.406 62.8672C140.786 63.1693 140.117 63.3203 139.398 63.3203C138.909 63.3203 138.417 63.2734 137.922 63.1797C137.432 63.0859 136.844 62.9245 136.156 62.6953C136.229 61.9609 136.266 60.987 136.266 59.7734H136.867C137.039 60.5547 137.216 61.1016 137.398 61.4141C137.586 61.7266 137.867 61.9844 138.242 62.1875C138.617 62.3854 139.029 62.4844 139.477 62.4844C140.091 62.4844 140.63 62.3125 141.094 61.9688C141.557 61.625 141.789 61.1432 141.789 60.5234C141.789 60.0182 141.622 59.5703 141.289 59.1797C140.951 58.7943 140.216 58.3594 139.086 57.875C137.961 57.3854 137.208 56.9167 136.828 56.4688C136.448 56.026 136.258 55.4974 136.258 54.8828C136.258 54.3464 136.411 53.8359 136.719 53.3516C137.026 52.862 137.477 52.4766 138.07 52.1953C138.669 51.9089 139.289 51.7656 139.93 51.7656C140.701 51.7656 141.633 51.9505 142.727 52.3203C142.701 53.0807 142.688 53.5391 142.688 53.6953C142.688 54.013 142.701 54.4427 142.727 54.9844Z" fill="black"/>
<path d="M51.4182 69.2019V72.9464H51V69.2019H51.4182Z" fill="#1A2323"/>
<path d="M53.957 72.9528V69.2083H54.549C55.1753 70.0988 56.6 72.0899 56.8498 72.4969C56.8136 71.9841 56.8172 71.4143 56.8172 70.8021V69.2083H57.2335V72.9528H56.6905C56.1021 72.1095 54.6395 70.0076 54.3571 69.5908C54.3861 70.0532 54.3824 70.6409 54.3824 71.3198V72.9479L53.957 72.9528Z" fill="#1A2323"/>
<path d="M59.8544 71.9286C59.9739 72.4056 60.3323 72.6775 60.9803 72.6775C61.6936 72.6775 61.9687 72.3649 61.9687 71.9807C61.9687 71.5965 61.7624 71.3409 60.8826 71.1471C59.9558 70.9404 59.5919 70.6587 59.5919 70.128C59.5919 69.5972 60.0173 69.1511 60.9278 69.1511C61.88 69.1511 62.2765 69.6607 62.3308 70.128H61.8945C61.8076 69.7568 61.5433 69.4767 60.9097 69.4767C60.3504 69.4767 60.0408 69.7079 60.0408 70.0987C60.0408 70.4894 60.2979 70.6343 61.0491 70.8003C62.2312 71.0625 62.4195 71.4825 62.4195 71.94C62.4195 72.5163 61.9506 72.9917 60.9604 72.9917C59.9141 72.9917 59.5014 72.4593 59.4199 71.9221L59.8544 71.9286Z" fill="#1A2323"/>
<path d="M64.6406 69.2019H66.1721C66.9559 69.2019 67.4953 69.5943 67.4953 70.2683C67.4953 70.9683 66.9523 71.3607 66.1341 71.3607H65.0715V72.9529H64.6406V69.2019ZM65.0715 71.0253H66.1377C66.764 71.0253 67.0428 70.7355 67.0428 70.2797C67.0428 69.7913 66.6807 69.5389 66.1558 69.5389H65.0696L65.0715 71.0253Z" fill="#1A2323"/>
<path d="M70.0893 69.2019V72.9464H69.6621V69.2019H70.0893Z" fill="#1A2323"/>
<path d="M73.0561 71.2466V72.9528H72.6289V69.2083H74.1839C75.022 69.2083 75.4673 69.6153 75.4673 70.203C75.4799 70.4059 75.4113 70.6062 75.2738 70.7675C75.1363 70.9288 74.9391 71.0404 74.7179 71.0821C75.1071 71.1701 75.3967 71.4078 75.3967 72.059V72.2104C75.3967 72.4709 75.3786 72.8128 75.4528 72.9626H75.0293C74.9532 72.7997 74.9641 72.5051 74.9641 72.1697V72.0802C74.9641 71.5022 74.7831 71.2564 74.0029 71.2564L73.0561 71.2466ZM73.0561 70.9096H74.0173C74.707 70.9096 75.0202 70.6784 75.0202 70.2177C75.0202 69.7846 74.707 69.5387 74.0952 69.5387H73.0561V70.9096Z" fill="#1A2323"/>
<path d="M78.2218 69.2019V72.9464H77.791V69.2019H78.2218Z" fill="#1A2323"/>
<path d="M80.7617 72.9528V69.2083H81.3537C81.98 70.0988 83.4028 72.0899 83.6526 72.4969C83.6146 71.9841 83.6201 71.4143 83.6201 70.8021V69.2083H84.0364V72.9528H83.4825C82.8942 72.1095 81.4315 70.0076 81.1509 69.5908C81.1817 70.0532 81.1781 70.6409 81.1781 71.3198V72.9479L80.7617 72.9528Z" fill="#1A2323"/>
<path d="M89.8226 72.9532H89.4841C89.4454 72.7692 89.4296 72.5819 89.437 72.3948C89.2741 72.6569 88.932 73.0004 88.1138 73.0004C86.9136 73.0004 86.2891 72.1864 86.2891 71.1135C86.2891 69.9918 86.9588 69.1484 88.197 69.1484C89.1275 69.1484 89.7285 69.5945 89.8552 70.2767H89.4298C89.2669 69.7883 88.8867 69.4822 88.1844 69.4822C87.1743 69.4822 86.7362 70.1969 86.7362 71.094C86.7362 71.908 87.1634 72.6634 88.1482 72.6634C89.1329 72.6634 89.4063 72.0773 89.4063 71.3349V71.2942H88.1391V70.9539H89.8208L89.8226 72.9532Z" fill="#1A2323"/>
<path d="M95.0684 69.2019H96.4984C97.6552 69.2019 98.448 69.9199 98.448 71.0432C98.448 72.1666 97.6751 72.9529 96.4876 72.9529H95.0684V69.2019ZM95.4938 72.6208H96.4351C97.4832 72.6208 97.9919 71.9533 97.9919 71.0611C97.9919 70.2748 97.5321 69.5454 96.4369 69.5454H95.4938V72.6208Z" fill="#1A2323"/>
<path d="M103.217 71.1504H101.113V72.6156H103.419L103.361 72.9543H100.691V69.2097H103.316V69.55H101.113V70.8199H103.217V71.1504Z" fill="#1A2323"/>
<path d="M105.731 71.9286C105.852 72.4056 106.209 72.6775 106.857 72.6775C107.57 72.6775 107.846 72.3649 107.846 71.9807C107.846 71.5965 107.639 71.3409 106.759 71.1471C105.833 70.9404 105.469 70.6587 105.469 70.128C105.469 69.5972 105.894 69.1511 106.805 69.1511C107.757 69.1511 108.153 69.6607 108.209 70.128H107.769C107.684 69.7568 107.418 69.4767 106.785 69.4767C106.225 69.4767 105.916 69.7079 105.916 70.0987C105.916 70.4894 106.173 70.6343 106.924 70.8003C108.106 71.0625 108.294 71.4825 108.294 71.94C108.294 72.5163 107.826 72.9917 106.835 72.9917C105.789 72.9917 105.376 72.4593 105.295 71.9221L105.731 71.9286Z" fill="#1A2323"/>
<path d="M110.939 69.2019V72.9464H110.514V69.2019H110.939Z" fill="#1A2323"/>
<path d="M116.719 72.9532H116.379C116.34 72.7692 116.325 72.5819 116.334 72.3948C116.169 72.6569 115.827 73.0004 115.01 73.0004C113.81 73.0004 113.186 72.1864 113.186 71.1135C113.186 69.9918 113.854 69.1484 115.092 69.1484C116.022 69.1484 116.625 69.5945 116.75 70.2767H116.324C116.162 69.7883 115.781 69.4822 115.079 69.4822C114.071 69.4822 113.631 70.1969 113.631 71.094C113.631 71.908 114.056 72.6634 115.041 72.6634C116.026 72.6634 116.299 72.0773 116.299 71.3349V71.2942H115.032V70.9539H116.715L116.719 72.9532Z" fill="#1A2323"/>
<path d="M119.123 72.9528V69.2083H119.715C120.341 70.0988 121.766 72.0899 122.014 72.4969C121.976 71.9841 121.981 71.4143 121.981 70.8021V69.2083H122.398V72.9528H121.846C121.255 72.1095 119.795 70.0076 119.512 69.5908C119.543 70.0532 119.539 70.6409 119.539 71.3198V72.9479L119.123 72.9528Z" fill="#1A2323"/>
<path d="M124.562 70.3545C124.712 69.9142 124.803 69.4595 124.834 69H125.247C125.202 69.4635 125.086 69.9193 124.903 70.3545H124.562Z" fill="#1A2323"/>
<path d="M127.434 71.9286C127.556 72.4056 127.912 72.6775 128.56 72.6775C129.274 72.6775 129.549 72.3649 129.549 71.9807C129.549 71.5965 129.342 71.3409 128.463 71.1471C127.536 70.9404 127.172 70.6587 127.172 70.128C127.172 69.5972 127.597 69.1511 128.508 69.1511C129.46 69.1511 129.857 69.6607 129.913 70.128H129.475C129.389 69.7568 129.123 69.4767 128.49 69.4767C127.93 69.4767 127.621 69.7079 127.621 70.0987C127.621 70.4894 127.878 70.6343 128.629 70.8003C129.811 71.0625 130 71.4825 130 71.94C130 72.5163 129.531 72.9917 128.54 72.9917C127.494 72.9917 127.081 72.4593 127 71.9221L127.434 71.9286Z" fill="#1A2323"/>
<path d="M0 44.9975L5.75 44.8471L11.5 44.7368L23 44.5113L46 44.2306C53.6674 44.1103 61.3326 44.1354 69 44.0903L92 44L115 44.0852L126.5 44.1303L132.25 44.1604L138 44.2256L161 44.5063L172.5 44.7318L178.25 44.8471L184 44.9975L178.25 45.1529L172.5 45.2632L161 45.4887L138 45.7694L132.25 45.8396L126.5 45.8647L115 45.9098L92 46L69 45.9098C61.3326 45.8647 53.6674 45.9098 46 45.7644L23 45.4887L11.5 45.2682L5.75 45.1529L0 44.9975Z" fill="url(#paint0_radial_1670_45900)"/>
<path d="M76.6767 25.1662C75.9075 24.1815 75.3836 23.0417 74.9622 21.8796C74.5406 20.7144 74.2615 19.5071 74.1306 18.2814C74.1154 18.1276 74.1085 17.9738 74.096 17.82L74.0794 17.5886V17.3573L74.071 16.8932L74.0877 16.4304C74.0877 16.2753 74.1057 16.1215 74.1223 15.9677L74.1694 15.5049C74.2069 15.1973 74.2706 14.8936 74.3219 14.5847C74.5853 13.3702 75.0105 12.1925 75.5873 11.0799C76.1643 9.97211 76.8458 8.9161 77.6233 7.92474C78.402 6.93728 79.2518 6.00209 80.1666 5.12588C81.0763 4.24726 82.0369 3.41732 83.0439 2.6399C84.0511 1.86209 85.1048 1.14003 86.1997 0.477321L86.5587 0.261719L86.5753 0.667945C86.6446 2.37697 86.6821 4.086 86.7139 5.78845C86.7264 6.64165 86.7278 7.49748 86.7139 8.352C86.7084 8.77969 86.6964 9.20739 86.6779 9.63508C86.6585 10.0637 86.6349 10.4922 86.5753 10.9274C86.558 11.0413 86.5335 11.1541 86.5019 11.2652L86.4035 11.5702C86.3397 11.7736 86.2727 11.9782 86.2025 12.1842C86.0639 12.593 85.9045 12.9979 85.7216 13.3936C85.5361 13.79 85.3231 14.1743 85.084 14.5439C84.848 14.9155 84.5791 15.2673 84.2802 15.5956C83.6863 16.2487 82.963 16.7847 82.1513 17.1732C81.745 17.3628 81.3203 17.5147 80.8831 17.6268C80.4471 17.7342 80.0026 17.8081 79.554 17.8476C79.9981 17.788 80.4366 17.6948 80.8651 17.5689C81.2911 17.4401 81.7039 17.2752 82.0986 17.0759C82.8779 16.6695 83.5654 16.1219 84.1222 15.4642C84.6708 14.8008 85.1183 14.0675 85.4513 13.2858C85.6202 12.8957 85.7682 12.4977 85.8948 12.0935C85.96 11.891 86.021 11.6872 86.0806 11.4821L86.1734 11.1732C86.1966 11.0773 86.2147 10.9803 86.2275 10.8827C86.2746 10.4712 86.2884 10.0466 86.2982 9.62325C86.3079 9.19994 86.3092 8.77399 86.3065 8.34805C86.2995 7.49748 86.2815 6.63903 86.2621 5.79503C86.2219 4.086 86.1512 2.38749 86.0819 0.685032L86.4575 0.875656C85.3844 1.53369 84.352 2.24959 83.3654 3.01983C82.3731 3.78636 81.4242 4.60214 80.5228 5.46374C78.7293 7.18854 77.1202 9.10923 75.9781 11.2718C75.3966 12.3468 74.958 13.4861 74.6726 14.6636C74.6171 14.9607 74.5478 15.2552 74.5035 15.5536L74.448 16.0032C74.4286 16.1531 74.4092 16.3029 74.4037 16.4528L74.3787 16.905V17.3586V17.586L74.3898 17.8121C74.3981 17.9633 74.4023 18.1145 74.4148 18.2657C74.4453 18.568 74.4674 18.8704 74.5159 19.1701C74.5645 19.4699 74.6074 19.7696 74.6545 20.0694C74.7728 20.6661 74.9232 21.2567 75.105 21.8389C75.2901 22.4222 75.5104 22.995 75.7647 23.5545C76.0155 24.1173 76.3208 24.6569 76.6767 25.1662Z" fill="url(#paint1_radial_1670_45900)"/>
<path d="M86.4791 9.7085C87.2635 9.74969 88.0489 9.79614 88.8352 9.84785C89.6183 9.90043 90.4014 9.95302 91.1914 10.0122C91.9814 10.0713 92.7576 10.1279 93.5393 10.191C94.3209 10.2541 95.104 10.3145 95.8857 10.3829L96.1352 10.4053L96.0839 10.6366C95.9964 11.0306 95.8834 11.4192 95.7457 11.8001C95.3411 12.9402 94.751 14.0132 93.9966 14.9802C93.4852 15.6259 92.8816 16.2011 92.2032 16.6892C91.8612 16.9304 91.5008 17.147 91.1249 17.3373C91.0306 17.386 90.9322 17.4254 90.8366 17.4688C90.742 17.5146 90.6449 17.5555 90.5455 17.5911L89.9523 17.8067C89.1553 18.066 88.3309 18.2424 87.4936 18.3325L87.1818 18.3706C87.0778 18.3825 86.9739 18.3851 86.8685 18.393L86.2435 18.4351C85.8277 18.4416 85.4119 18.4587 84.9961 18.4351C84.5803 18.4114 84.1645 18.3996 83.7487 18.3733C83.3329 18.347 82.9171 18.2957 82.511 18.2418C81.6896 18.1367 80.8759 17.9834 80.0745 17.783C80.888 17.921 81.7099 18.0065 82.5304 18.0709C83.3505 18.1344 84.1734 18.1585 84.9961 18.1432C85.4119 18.1432 85.8152 18.1077 86.2241 18.0906L86.8339 18.0315C86.9351 18.0209 87.0362 18.0144 87.1374 17.9999L87.4396 17.9526C88.2426 17.8417 89.0319 17.655 89.7957 17.3952L90.3501 17.1796C90.4447 17.1444 90.5372 17.1045 90.6273 17.0599C90.716 17.0166 90.8075 16.9771 90.8934 16.9285C91.2458 16.7469 91.5835 16.5408 91.9038 16.3119C92.5406 15.8457 93.1079 15.3001 93.5905 14.6897C94.081 14.0775 94.4993 13.4162 94.8379 12.7177C95.1814 12.0234 95.4516 11.2986 95.6446 10.5538L95.8427 10.8075C95.0624 10.7287 94.2835 10.6432 93.5032 10.5564C92.7229 10.4697 91.944 10.3842 91.1651 10.2935C90.3861 10.2028 89.6058 10.1095 88.8283 10.0135C88.0508 9.91752 87.2566 9.81498 86.4791 9.7085Z" fill="url(#paint2_radial_1670_45900)"/>
<path d="M66.3228 10.0885C64.6346 10.2318 62.9451 10.3646 61.2542 10.4961C59.5634 10.6275 57.8752 10.7669 56.1843 10.8905L56.3091 10.7288C56.5476 11.5313 56.854 12.3143 57.2252 13.0701C57.5901 13.8287 58.0237 14.5558 58.5211 15.2432C59.0133 15.9284 59.5918 16.5539 60.2439 17.1061C60.5694 17.3772 60.9165 17.6242 61.282 17.8449C61.6489 18.0622 62.0341 18.2504 62.4337 18.4075C63.2369 18.7295 64.077 18.9615 64.9368 19.099C65.7979 19.2354 66.6714 19.2887 67.5438 19.2581C68.418 19.2289 69.288 19.1282 70.1439 18.9571C70.5722 18.8716 70.9977 18.7691 71.4162 18.6508C71.8319 18.5345 72.2404 18.3967 72.6401 18.238L72.7523 18.6928C71.7529 18.7173 70.7668 18.4711 69.9097 17.9829C69.0681 17.5065 68.3305 16.8818 67.7365 16.1424C67.1339 15.4131 66.6654 14.5927 66.3505 13.7156C66.1907 13.2712 66.0924 12.8089 66.058 12.3405C66.0511 12.221 66.0511 12.1011 66.058 11.9816L66.0719 11.6451C66.0844 11.4255 66.0858 11.2033 66.0872 10.9812C66.0941 9.19851 66.0082 7.40403 65.9222 5.6135C65.8363 3.82296 65.7393 2.03111 65.6256 0.241893L65.6104 0L65.8515 0.0683597C66.4554 0.246934 67.0402 0.479347 67.5979 0.762488C68.1523 1.04168 68.6862 1.35616 69.1959 1.70377C70.2105 2.39452 71.1644 3.16215 72.0482 3.99912C72.9367 4.82866 73.7724 5.70815 74.5693 6.60868C75.3663 7.50921 76.1244 8.44917 76.8257 9.422C76.087 8.47546 75.3011 7.56837 74.4793 6.68361C73.6574 5.79886 72.8022 4.94961 71.8972 4.14899C71.0003 3.34356 70.0413 2.60268 69.0282 1.93251C68.5236 1.59995 67.9957 1.30039 67.4482 1.03593C66.9066 0.769486 66.3389 0.553739 65.7531 0.391759L65.979 0.21823C66.1176 2.01008 66.2562 3.7993 66.3602 5.59247C66.4641 7.38563 66.5639 9.17748 66.5736 10.9825C66.5736 11.2086 66.5736 11.4347 66.5612 11.6635L66.5487 11.9987C66.5418 12.1029 66.5418 12.2074 66.5487 12.3116C66.5836 12.7392 66.6768 13.1608 66.8259 13.5657C67.1244 14.3908 67.5671 15.1623 68.1356 15.8479C68.6926 16.5366 69.3815 17.1195 70.1661 17.5662C70.9394 18.0125 71.8307 18.2405 72.7357 18.2235L74.0995 18.1749L72.8521 18.6784C72.4317 18.8444 72.0019 18.9879 71.5645 19.1082C71.1321 19.2309 70.6946 19.3352 70.252 19.4211C69.3678 19.5963 68.4689 19.6971 67.566 19.7222C66.6595 19.7481 65.7525 19.6864 64.8592 19.5381C63.9659 19.3878 63.0942 19.139 62.2619 18.7967C61.8414 18.6285 61.437 18.4261 61.0533 18.1919C60.6726 17.9563 60.312 17.6926 59.975 17.4032C59.3087 16.8178 58.7203 16.1573 58.2231 15.4365C57.7264 14.7256 57.2956 13.9752 56.9355 13.1937C56.5698 12.4159 56.2708 11.6114 56.0416 10.7879L56 10.6367L56.1663 10.6262C57.8572 10.5237 59.5509 10.4422 61.2445 10.3488C62.9382 10.2555 64.6305 10.1687 66.3228 10.0885Z" fill="url(#paint3_radial_1670_45900)"/>
<path d="M94.7659 23.9333V24.1108H94.6564C94.3752 24.1109 94.1004 24.1904 93.867 24.339C93.6335 24.4877 93.4519 24.6988 93.3452 24.9456L88.547 36.0201L88.1395 36.9627L88.037 36.7274L84.7258 29.0788L81.721 36.0188L81.3136 36.9627L81.211 36.7274L75.9831 24.6485C75.8445 24.3238 74.963 21.5762 74.963 21.5762C74.963 21.5762 76.489 24.3014 76.6276 24.6196L81.6171 35.7835L84.6205 28.8448L82.8007 24.638C82.7323 24.4822 82.6168 24.3492 82.4689 24.2556C82.3209 24.162 82.147 24.1121 81.9691 24.1121H81.8222V23.9346H83.9442V24.1121C83.8829 24.112 83.8227 24.1262 83.7686 24.1535C83.7146 24.1808 83.6686 24.2204 83.6345 24.2686C83.6005 24.3169 83.5796 24.3724 83.5737 24.4302C83.5677 24.488 83.5769 24.5462 83.6004 24.5998L85.0308 27.9035L86.4361 24.6643C86.4625 24.603 86.4726 24.5365 86.4655 24.4707C86.4584 24.4049 86.4343 24.3417 86.3954 24.2868C86.3566 24.2319 86.304 24.1868 86.2425 24.1557C86.181 24.1245 86.1123 24.1082 86.0425 24.1082H85.8083V23.9307H87.9302V24.1095H87.6447C87.4186 24.1093 87.1976 24.173 87.0098 24.2924C86.8219 24.4118 86.6758 24.5815 86.59 24.7799L85.1389 28.1336L88.4486 35.7821L93.2496 24.6919C93.2771 24.6274 93.2874 24.5574 93.2797 24.4882C93.2721 24.419 93.2465 24.3527 93.2055 24.2951C93.1644 24.2374 93.109 24.1902 93.0442 24.1576C92.9794 24.125 92.9072 24.108 92.8338 24.1082H92.6412V23.9307L94.7659 23.9333Z" fill="url(#paint4_radial_1670_45900)"/>
<path d="M90.7855 31.6914V31.7072C91.631 31.5928 94.5443 31.3877 96.3599 33.6265L96.0259 32.7063C96.037 32.7221 96.0439 32.7378 96.0536 32.7536L95.5311 31.3286L95.5172 31.2904L93.2027 24.9657L93.4799 24.1349L93.7862 24.0652C93.6656 24.2229 93.7584 24.2611 93.825 24.4451L98.1298 36.2308C98.1922 36.4026 98.3097 36.5516 98.4657 36.657C98.6218 36.7623 98.8087 36.8188 99.0002 36.8185V37.0012H96.827V36.8185C96.9059 36.8183 96.9836 36.8004 97.0537 36.766C97.1238 36.7317 97.1842 36.682 97.23 36.6211C97.2758 36.5602 97.3057 36.4898 97.317 36.4157C97.3284 36.3417 97.321 36.2661 97.2955 36.1953C95.696 31.8268 91.4577 31.7545 90.7231 31.8662" fill="url(#paint5_radial_1670_45900)"/>
<defs>
<radialGradient id="paint0_radial_1670_45900" cx="0" cy="0" r="1" gradientUnits="userSpaceOnUse" gradientTransform="translate(92 44.9975) scale(65.0538 149.318)">
<stop stop-color="#CE9C69"/>
<stop offset="1" stop-color="#AF763B"/>
</radialGradient>
<radialGradient id="paint1_radial_1670_45900" cx="0" cy="0" r="1" gradientUnits="userSpaceOnUse" gradientTransform="translate(80.3648 12.7797) scale(10.3768 9.84269)">
<stop stop-color="#CE9C69"/>
<stop offset="1" stop-color="#AF763B"/>
</radialGradient>
<radialGradient id="paint2_radial_1670_45900" cx="0" cy="0" r="1" gradientUnits="userSpaceOnUse" gradientTransform="translate(88.0924 14.0008) scale(6.62775 6.28659)">
<stop stop-color="#CE9C69"/>
<stop offset="1" stop-color="#AF763B"/>
</radialGradient>
<radialGradient id="paint3_radial_1670_45900" cx="0" cy="0" r="1" gradientUnits="userSpaceOnUse" gradientTransform="translate(66.4447 9.81771) scale(10.5237 9.98204)">
<stop stop-color="#CE9C69"/>
<stop offset="1" stop-color="#AF763B"/>
</radialGradient>
<radialGradient id="paint4_radial_1670_45900" cx="0" cy="0" r="1" gradientUnits="userSpaceOnUse" gradientTransform="translate(84.8658 29.2694) scale(9.04906 8.58326)">
<stop stop-color="#CE9C69"/>
<stop offset="1" stop-color="#AF763B"/>
</radialGradient>
<radialGradient id="paint5_radial_1670_45900" cx="0" cy="0" r="1" gradientUnits="userSpaceOnUse" gradientTransform="translate(94.8603 30.5266) scale(5.63954 5.34926)">
<stop stop-color="#CE9C69"/>
<stop offset="1" stop-color="#AF763B"/>
</radialGradient>
</defs>
</svg>
