<svg width="40" height="40" viewBox="0 0 40 40" fill="none" >
<path d="M10.6667 0H16L17.3333 2.66667L18.6667 0H21.3333V40H10.6667V0Z" fill="#D2813C"/>
<path d="M16.5833 35.7333C16.5833 34.6769 16.1636 33.6637 15.4167 32.9167L14.3333 31.8333C13.5864 31.0863 13.1667 30.0731 13.1667 29.0167V24.8167C13.1667 23.7602 13.5864 22.7471 14.3333 22L14.5 21.8333C15.2469 21.0863 15.6666 20.0731 15.6667 19.0167V11.9833C15.6666 10.9269 15.2469 9.91374 14.5 9.16667C13.753 8.4196 13.3334 7.40644 13.3333 6.35V0H10.6667V40H16.5833V35.7333Z" fill="#BC6829"/>
<path d="M18.3333 7C18.9735 7.64027 19.3332 8.50858 19.3333 9.414V17.9193C19.3332 18.8248 18.9735 19.6931 18.3333 20.3333L16.6667 22C16.0265 22.6403 15.6668 23.5086 15.6667 24.414V26.586C15.6668 27.4914 16.0265 28.3597 16.6667 29L18.1667 30.5C18.8069 31.1403 19.1665 32.0086 19.1667 32.914V40H21.3333V0H18.6667L17.3333 2.66667V4.586C17.3334 5.49142 17.6931 6.35974 18.3333 7Z" fill="#E0A05C"/>
<path d="M10.6667 40H5.33333L4 37.3333L2.66667 40H0V0H10.6667V40Z" fill="#D2813C"/>
<path d="M4.75 4.26667C4.75006 5.3231 5.16971 6.33626 5.91667 7.08333L7 8.16667C7.74695 8.91374 8.16661 9.9269 8.16667 10.9833V15.1833C8.16661 16.2398 7.74695 17.2529 7 18L6.83333 18.1667C6.08638 18.9137 5.66673 19.9269 5.66667 20.9833V28.0167C5.66673 29.0731 6.08638 30.0863 6.83333 30.8333C7.58029 31.5804 7.99994 32.5936 8 33.65V40H10.6667V0H4.75V4.26667Z" fill="#E0A05C"/>
<path d="M3 33C2.35981 32.3597 2.00011 31.4914 2 30.586V22.0807C2.00011 21.1752 2.35981 20.3069 3 19.6667L4.66667 18C5.30686 17.3597 5.66656 16.4914 5.66667 15.586V13.414C5.66656 12.5086 5.30686 11.6403 4.66667 11L3.16667 9.5C2.52647 8.85974 2.16677 7.99142 2.16667 7.086V0H0V40H2.66667L4 37.3333V35.414C3.99989 34.5086 3.64019 33.6403 3 33Z" fill="#BC6829"/>
<path d="M21.3333 0H26.6667L28 2.66667L29.3333 0H32V40H21.3333V0Z" fill="#D2813C"/>
<path d="M27.25 35.7333C27.2499 34.6769 26.8303 33.6637 26.0833 32.9167L25 31.8333C24.2531 31.0863 23.8334 30.0731 23.8333 29.0167V24.8167C23.8334 23.7602 24.2531 22.7471 25 22L25.1667 21.8333C25.9136 21.0863 26.3333 20.0731 26.3333 19.0167V11.9833C26.3333 10.9269 25.9136 9.91374 25.1667 9.16667C24.4197 8.4196 24.0001 7.40644 24 6.35V0H21.3333V40H27.25V35.7333Z" fill="#BC6829"/>
<path d="M29 7C29.6402 7.64027 29.9999 8.50858 30 9.414V17.9193C29.9999 18.8248 29.6402 19.6931 29 20.3333L27.3333 22C26.6931 22.6403 26.3334 23.5086 26.3333 24.414V26.586C26.3334 27.4914 26.6931 28.3597 27.3333 29L28.8333 30.5C29.4735 31.1403 29.8332 32.0086 29.8333 32.914V40H32V0H29.3333L28 2.66667V4.586C28.0001 5.49142 28.3598 6.35974 29 7Z" fill="#E0A05C"/>
<path d="M32 4.6665H40V9.99984H32V4.6665Z" fill="#BC6829"/>
<path d="M32 30H40V35.3333H32V30Z" fill="#BC6829"/>
<path d="M2.66666 0H3.99999V5.33333H2.66666V0Z" fill="#8D4E1F"/>
<path d="M3.99996 29.3332H2.66663V21.7638C2.23693 21.2767 1.99982 20.6494 1.99982 19.9998C1.99982 19.3502 2.23693 18.723 2.66663 18.2358V10.6665H3.99996V18.5092C3.99996 18.6029 3.98018 18.6956 3.94193 18.7812C3.90368 18.8668 3.84781 18.9433 3.77796 19.0058C3.63807 19.1309 3.52616 19.2841 3.44953 19.4554C3.37291 19.6267 3.3333 19.8122 3.3333 19.9998C3.3333 20.1875 3.37291 20.373 3.44953 20.5443C3.52616 20.7156 3.63807 20.8688 3.77796 20.9938C3.84781 21.0564 3.90368 21.1329 3.94193 21.2185C3.98018 21.3041 3.99996 21.3968 3.99996 21.4905V29.3332Z" fill="#8D4E1F"/>
<path d="M6.66668 21.3332C7.40306 21.3332 8.00001 20.7362 8.00001 19.9998C8.00001 19.2635 7.40306 18.6665 6.66668 18.6665C5.9303 18.6665 5.33334 19.2635 5.33334 19.9998C5.33334 20.7362 5.9303 21.3332 6.66668 21.3332Z" fill="#8D4E1F"/>
<path d="M6.66666 4.6665H7.99999V13.3332H6.66666V4.6665Z" fill="#8D4E1F"/>
<path d="M7.33328 32H8.66662V40H7.33328V32Z" fill="#8D4E1F"/>
<path d="M14.6666 13.3332C15.403 13.3332 15.9999 12.7362 15.9999 11.9998C15.9999 11.2635 15.403 10.6665 14.6666 10.6665C13.9302 10.6665 13.3333 11.2635 13.3333 11.9998C13.3333 12.7362 13.9302 13.3332 14.6666 13.3332Z" fill="#8D4E1F"/>
<path d="M13.3333 0H14.6666V6.66667H13.3333V0Z" fill="#8D4E1F"/>
<path d="M17.3333 17.3335H18.6666V26.6668H17.3333V17.3335Z" fill="#8D4E1F"/>
<path d="M12.6666 24.6665H14V33.9998H12.6666V24.6665Z" fill="#8D4E1F"/>
<path d="M15.3333 31.3335H16.6666V40.0002H15.3333V31.3335Z" fill="#8D4E1F"/>
<path d="M18 4.6665H19.3333V9.99984H18V4.6665Z" fill="#8D4E1F"/>
<path d="M14 15.3335H15.3333V20.6668H14V15.3335Z" fill="#8D4E1F"/>
<path d="M27.3333 30.6667C28.0697 30.6667 28.6666 30.0697 28.6666 29.3333C28.6666 28.597 28.0697 28 27.3333 28C26.5969 28 26 28.597 26 29.3333C26 30.0697 26.5969 30.6667 27.3333 30.6667Z" fill="#8D4E1F"/>
<path d="M24 32H25.3333V40H24V32Z" fill="#8D4E1F"/>
<path d="M27.3333 2.6665H28.6666V13.3332H27.3333V2.6665Z" fill="#8D4E1F"/>
<path d="M24 9.3335H25.3333V20.0002H24V9.3335Z" fill="#8D4E1F"/>
<path d="M28.6666 18.6665H30V25.3332H28.6666V18.6665Z" fill="#8D4E1F"/>
<path d="M28 33.3335H29.3333V36.0002H28V33.3335Z" fill="#8D4E1F"/>
</svg>
