<svg width="40" height="40" viewBox="0 0 40 40" fill="none" >
<path d="M25.3668 5.99344C25.3668 5.41812 24.9004 4.95172 24.3251 4.95172V2.70859C24.9004 2.70859 25.3668 2.24219 25.3668 1.66687C25.3668 1.09156 24.9004 0.625156 24.3251 0.625156C23.7498 0.625156 23.2834 1.09156 23.2834 1.66687H21.0403C21.0403 1.09156 20.5739 0.625156 19.9986 0.625156C19.4232 0.625156 18.9568 1.09156 18.9568 1.66687H16.7137C16.7137 1.09156 16.2473 0.625156 15.672 0.625156C15.0967 0.625156 14.6303 1.09156 14.6303 1.66687H12.3867C12.3867 1.09141 11.9203 0.625 11.345 0.625C10.7697 0.625 10.3032 1.09141 10.3032 1.66672H8.06012C8.06012 1.09141 7.59356 0.625 7.01825 0.625C6.44294 0.625 5.97653 1.09141 5.97653 1.66672H3.7334C3.7334 1.09141 3.267 0.625 2.69153 0.625C2.11606 0.625 1.64981 1.09141 1.64981 1.66672C1.64981 2.24203 2.11622 2.70844 2.69153 2.70844V4.95156C2.11622 4.95156 1.64981 5.41797 1.64981 5.99328C1.64981 6.56859 2.11622 7.03516 2.69153 7.03516V9.27828C2.11622 9.27828 1.64981 9.74469 1.64981 10.32C1.64981 10.8953 2.11622 11.3617 2.69153 11.3617V13.6048C2.11622 13.6048 1.64981 14.0712 1.64981 14.6466C1.64981 15.2219 2.11622 15.6883 2.69153 15.6883V17.9314C2.11622 17.9314 1.64981 18.3978 1.64981 18.9731C1.64981 19.5484 2.11622 20.0148 2.69153 20.0148V22.258C2.11622 22.258 1.64981 22.7244 1.64981 23.2997C1.64981 23.875 2.11622 24.3416 2.69153 24.3416C3.26684 24.3416 3.73325 23.875 3.73325 23.2997H5.97637C5.97637 23.875 6.44278 24.3416 7.01809 24.3416C7.5934 24.3416 8.05981 23.875 8.05981 23.2997H10.3029C10.3029 23.875 10.7693 24.3416 11.3447 24.3416C11.92 24.3416 12.3864 23.875 12.3864 23.2997H14.6295C14.6295 23.875 15.0959 24.3416 15.6712 24.3416C16.2465 24.3416 16.7129 23.875 16.7129 23.2997H18.9561C18.9561 23.875 19.4225 24.3416 19.9978 24.3416C20.5731 24.3416 21.0395 23.875 21.0395 23.2997H23.2826C23.2826 23.875 23.749 24.3416 24.3243 24.3416C24.8997 24.3416 25.3661 23.875 25.3661 23.2997C25.3661 22.7244 24.8997 22.258 24.3243 22.258V20.0148C24.8997 20.0148 25.3661 19.5484 25.3661 18.9731C25.3661 18.3978 24.8997 17.9314 24.3243 17.9314V15.6883C24.8997 15.6883 25.3661 15.2219 25.3661 14.6466C25.3661 14.0712 24.8997 13.6048 24.3243 13.6048V11.3619C24.8997 11.3619 25.3661 10.8955 25.3661 10.3202C25.3661 9.74484 24.8997 9.27844 24.3243 9.27844V7.03531C24.9004 7.03531 25.3668 6.56875 25.3668 5.99344Z" fill="#FF4397"/>
<path d="M4.37559 5.99301C4.37559 6.56941 4.84262 7.03488 5.41747 7.03488V9.2791C4.84247 9.2791 4.37559 9.74457 4.37559 10.321C4.37559 10.8958 4.84262 11.3614 5.41747 11.3614V13.6057C4.84247 13.6057 4.37559 14.0711 4.37559 14.6475C4.37559 15.2224 4.84262 15.6894 5.41747 15.6894V17.9322C4.84247 17.9322 4.37559 18.3977 4.37559 18.9741C4.37559 19.5489 4.84262 20.016 5.41747 20.016V22.2588C4.84247 22.2588 4.37559 22.7244 4.37559 23.3007H3.73215C3.73215 23.8755 3.26669 24.3425 2.69028 24.3425C2.11528 24.3425 1.64981 23.8755 1.64981 23.3007C1.64981 22.7243 2.11528 22.2588 2.69028 22.2588V20.016C2.11528 20.016 1.64981 19.5489 1.64981 18.9741C1.64981 18.3977 2.11528 17.9322 2.69028 17.9322V15.6894C2.11528 15.6894 1.64981 15.2224 1.64981 14.6475C1.64981 14.0711 2.11528 13.6057 2.69028 13.6057V11.3616C2.11528 11.3616 1.64981 10.8961 1.64981 10.3211C1.64981 9.74473 2.11528 9.27926 2.69028 9.27926V7.03488C2.11528 7.03488 1.64981 6.56941 1.64981 5.99301C1.64981 5.41816 2.11528 4.95254 2.69028 4.95254V2.70832C2.11528 2.70832 1.64981 2.2427 1.64981 1.66645C1.64981 1.09145 2.11528 0.625977 2.69028 0.625977C3.26669 0.625977 3.73215 1.0916 3.73215 1.66645H4.37559C4.37559 2.24285 4.84262 2.70832 5.41747 2.70832V4.95254C4.84262 4.95269 4.37559 5.41816 4.37559 5.99301Z" fill="#FF61B5"/>
<path d="M22.6411 18.9757C22.6411 18.3993 22.1743 17.9338 21.5993 17.9338V15.6896C22.1743 15.6896 22.6411 15.2241 22.6411 14.6477C22.6411 14.0727 22.1743 13.6072 21.5993 13.6072V11.363C22.1743 11.363 22.6411 10.8975 22.6411 10.3211C22.6411 9.74629 22.1743 9.27926 21.5993 9.27926V7.03644C22.1743 7.03644 22.6411 6.57098 22.6411 5.99457C22.6411 5.41957 22.1743 4.95269 21.5993 4.95269V2.70973C22.1743 2.70973 22.6411 2.2441 22.6411 1.66785H23.2846C23.2846 1.09285 23.75 0.625977 24.3264 0.625977C24.9013 0.625977 25.3669 1.09301 25.3669 1.66785C25.3669 2.24426 24.9014 2.70973 24.3264 2.70973V4.95254C24.9013 4.95254 25.3669 5.41957 25.3669 5.99441C25.3669 6.57082 24.9014 7.03629 24.3264 7.03629V9.2791C24.9013 9.2791 25.3669 9.74613 25.3669 10.321C25.3669 10.8974 24.9014 11.3629 24.3264 11.3629V13.6071C24.9013 13.6071 25.3669 14.0725 25.3669 14.6475C25.3669 15.2239 24.9014 15.6894 24.3264 15.6894V17.9336C24.9013 17.9336 25.3669 18.3991 25.3669 18.9755C25.3669 19.5505 24.9014 20.016 24.3264 20.016V22.2602C24.9013 22.2602 25.3669 22.7258 25.3669 23.3021C25.3669 23.8771 24.9014 24.3425 24.3264 24.3425C23.75 24.3425 23.2846 23.8769 23.2846 23.3021H22.6411C22.6411 22.7257 22.1743 22.2602 21.5993 22.2602V20.016C22.1741 20.0161 22.6411 19.5507 22.6411 18.9757Z" fill="#E12579"/>
<path d="M24.3251 24.6545C23.6859 24.6545 23.1487 24.2092 23.0073 23.6127H21.3164C21.175 24.2092 20.6378 24.6545 19.9984 24.6545C19.3592 24.6545 18.822 24.2092 18.6804 23.6127H16.9895C16.8481 24.2092 16.3109 24.6545 15.6715 24.6545C15.0323 24.6545 14.4951 24.2092 14.3536 23.6127H12.6628C12.5214 24.2092 11.9842 24.6545 11.3448 24.6545C10.7056 24.6545 10.1684 24.2092 10.027 23.6127H8.33606C8.19465 24.2092 7.65747 24.6545 7.01825 24.6545C6.37903 24.6545 5.84184 24.2092 5.70028 23.6127H4.0095C3.86809 24.2092 3.3309 24.6545 2.69153 24.6545C1.94481 24.6545 1.33731 24.0469 1.33731 23.3002C1.33731 22.6609 1.78247 22.1238 2.37903 21.9822V20.2914C1.78247 20.15 1.33731 19.6127 1.33731 18.9734C1.33731 18.3342 1.78247 17.797 2.37903 17.6555V15.9647C1.78247 15.8231 1.33731 15.2859 1.33731 14.6467C1.33731 14.0075 1.78247 13.4703 2.37903 13.3288V11.638C1.78247 11.4966 1.33731 10.9592 1.33731 10.32C1.33731 9.68078 1.78247 9.14359 2.37903 9.00219V7.31141C1.78247 7.16984 1.33731 6.63266 1.33731 5.99328C1.33731 5.35406 1.78247 4.81687 2.37903 4.67547V2.98484C1.78247 2.84328 1.33731 2.30609 1.33731 1.66672C1.33731 0.92 1.94481 0.3125 2.69153 0.3125C3.33075 0.3125 3.86794 0.757656 4.0095 1.35422H5.70044C5.84184 0.757656 6.37903 0.3125 7.01825 0.3125C7.65747 0.3125 8.19465 0.757656 8.33606 1.35422H10.027C10.1686 0.757656 10.7057 0.3125 11.345 0.3125C11.9842 0.3125 12.5214 0.757656 12.6629 1.35422H14.3539C14.4951 0.757656 15.0323 0.3125 15.6717 0.3125C16.3109 0.3125 16.8481 0.757656 16.9897 1.35422H18.6806C18.8218 0.757656 19.359 0.3125 19.9984 0.3125C20.6376 0.3125 21.1748 0.757656 21.3164 1.35422H23.0073C23.1486 0.757656 23.6857 0.3125 24.3251 0.3125C25.0718 0.3125 25.6793 0.92 25.6793 1.66672C25.6793 2.30609 25.2342 2.84313 24.6376 2.98484V4.67547C25.2342 4.81687 25.6793 5.35422 25.6793 5.99328C25.6793 6.63266 25.2342 7.16969 24.6376 7.31141V9.00219C25.2342 9.14359 25.6793 9.68094 25.6793 10.32C25.6793 10.9592 25.2342 11.4964 24.6376 11.638V13.3288C25.2342 13.4702 25.6793 14.0075 25.6793 14.6467C25.6793 15.2861 25.2342 15.8231 24.6376 15.9647V17.6555C25.2342 17.7969 25.6793 18.3342 25.6793 18.9734C25.6793 19.6127 25.2342 20.1498 24.6376 20.2914V21.9822C25.2342 22.1236 25.6793 22.6609 25.6793 23.3002C25.6793 24.0469 25.0718 24.6545 24.3251 24.6545ZM21.0401 22.9877H23.2832C23.4559 22.9877 23.5957 23.1277 23.5957 23.3002C23.5957 23.7023 23.9229 24.0295 24.325 24.0295C24.7272 24.0295 25.0542 23.7023 25.0542 23.3002C25.0542 22.8981 24.727 22.5709 24.325 22.5709C24.1525 22.5709 24.0125 22.4309 24.0125 22.2584V20.0153C24.0125 19.8428 24.1525 19.7028 24.325 19.7028C24.7272 19.7028 25.0542 19.3756 25.0542 18.9736C25.0542 18.5716 24.727 18.2444 24.325 18.2444C24.1525 18.2444 24.0125 18.1044 24.0125 17.9319V15.6887C24.0125 15.5161 24.1525 15.3762 24.325 15.3762C24.7272 15.3762 25.0542 15.0491 25.0542 14.6469C25.0542 14.2448 24.727 13.9177 24.325 13.9177C24.1525 13.9177 24.0125 13.7777 24.0125 13.6052V11.3619C24.0125 11.1894 24.1525 11.0494 24.325 11.0494C24.7272 11.0494 25.0542 10.7222 25.0542 10.3202C25.0542 9.91813 24.727 9.59094 24.325 9.59094C24.1525 9.59094 24.0125 9.45094 24.0125 9.27844V7.03516C24.0125 6.86266 24.1525 6.72266 24.325 6.72266C24.7272 6.72266 25.0542 6.39547 25.0542 5.99328C25.0542 5.59125 24.727 5.26406 24.325 5.26406C24.1525 5.26406 24.0125 5.12406 24.0125 4.95156V2.70859C24.0125 2.53609 24.1525 2.39609 24.325 2.39609C24.7272 2.39609 25.0542 2.06891 25.0542 1.66672C25.0542 1.26469 24.727 0.9375 24.325 0.9375C23.9228 0.9375 23.5957 1.26469 23.5957 1.66672C23.5957 1.83922 23.4559 1.97922 23.2832 1.97922H21.0401C20.8676 1.97922 20.7276 1.83922 20.7276 1.66672C20.7276 1.26469 20.4004 0.9375 19.9984 0.9375C19.5962 0.9375 19.2692 1.26469 19.2692 1.66672C19.2692 1.83922 19.1292 1.97922 18.9567 1.97922H16.7136C16.5411 1.97922 16.4011 1.83922 16.4011 1.66672C16.4011 1.26469 16.0739 0.9375 15.6718 0.9375C15.2698 0.9375 14.9425 1.26469 14.9425 1.66672C14.9425 1.83922 14.8025 1.97922 14.63 1.97922H12.3867C12.2142 1.97922 12.0742 1.83922 12.0742 1.66672C12.0742 1.26469 11.7472 0.9375 11.345 0.9375C10.9429 0.9375 10.6157 1.26469 10.6157 1.66672C10.6157 1.83922 10.4757 1.97922 10.3032 1.97922H8.05997C7.88747 1.97922 7.74747 1.83922 7.74747 1.66672C7.74747 1.26469 7.42044 0.9375 7.01825 0.9375C6.61606 0.9375 6.28903 1.26469 6.28903 1.66672C6.28903 1.83922 6.14903 1.97922 5.97653 1.97922H3.7334C3.5609 1.97922 3.4209 1.83922 3.4209 1.66672C3.4209 1.26469 3.09372 0.9375 2.69153 0.9375C2.28934 0.9375 1.96231 1.26469 1.96231 1.66672C1.96231 2.06891 2.2895 2.39609 2.69153 2.39609C2.86403 2.39609 3.00403 2.53594 3.00403 2.70859V4.95156C3.00403 5.12406 2.86403 5.26406 2.69153 5.26406C2.28934 5.26406 1.96231 5.59125 1.96231 5.99328C1.96231 6.39547 2.2895 6.72266 2.69153 6.72266C2.86403 6.72266 3.00403 6.86266 3.00403 7.03516V9.27828C3.00403 9.45078 2.86403 9.59078 2.69153 9.59078C2.28934 9.59078 1.96231 9.91797 1.96231 10.32C1.96231 10.722 2.2895 11.0492 2.69153 11.0492C2.86403 11.0492 3.00403 11.1892 3.00403 11.3617V13.605C3.00403 13.7775 2.86403 13.9175 2.69153 13.9175C2.28934 13.9175 1.96231 14.2447 1.96231 14.6467C1.96231 15.0489 2.2895 15.3761 2.69153 15.3761C2.86403 15.3761 3.00403 15.5159 3.00403 15.6886V17.9317C3.00403 18.1042 2.86403 18.2442 2.69153 18.2442C2.28934 18.2442 1.96231 18.5714 1.96231 18.9734C1.96231 19.3755 2.2895 19.7027 2.69153 19.7027C2.86403 19.7027 3.00403 19.8427 3.00403 20.0152V22.2583C3.00403 22.4308 2.86403 22.5708 2.69153 22.5708C2.28934 22.5708 1.96231 22.898 1.96231 23.3C1.96231 23.7022 2.2895 24.0294 2.69153 24.0294C3.09372 24.0294 3.42075 23.7022 3.42075 23.3C3.42075 23.1275 3.56075 22.9875 3.73325 22.9875H5.97637C6.14887 22.9875 6.28887 23.1275 6.28887 23.3C6.28887 23.7022 6.61606 24.0294 7.01809 24.0294C7.42012 24.0294 7.74731 23.7022 7.74731 23.3C7.74731 23.1275 7.88731 22.9875 8.05981 22.9875H10.3029C10.4754 22.9875 10.6154 23.1275 10.6154 23.3C10.6154 23.7022 10.9426 24.0294 11.3447 24.0294C11.7468 24.0294 12.0739 23.7022 12.0739 23.3C12.0739 23.1275 12.2139 22.9875 12.3864 22.9875H14.6295C14.802 22.9875 14.942 23.1275 14.942 23.3C14.942 23.7022 15.2692 24.0294 15.6714 24.0294C16.0736 24.0294 16.4006 23.7022 16.4006 23.3C16.4006 23.1275 16.5406 22.9875 16.7131 22.9875H18.9562C19.1287 22.9875 19.2687 23.1275 19.2687 23.3C19.2687 23.7022 19.5959 24.0294 19.9979 24.0294C20.4001 24.0294 20.7272 23.7022 20.7272 23.3C20.7276 23.1277 20.8676 22.9877 21.0401 22.9877Z" fill="#690589"/>
<path d="M38.3486 10.1832C38.3486 9.60791 37.8822 9.1415 37.3069 9.1415V6.89838C37.8822 6.89838 38.3486 6.43197 38.3486 5.85666C38.3486 5.28135 37.8822 4.81494 37.3069 4.81494C36.7316 4.81494 36.2652 5.28135 36.2652 5.85666H34.022C34.022 5.28135 33.5556 4.81494 32.9803 4.81494C32.405 4.81494 31.9386 5.28135 31.9386 5.85666H29.6955C29.6955 5.28135 29.2291 4.81494 28.6538 4.81494C28.0784 4.81494 27.612 5.28135 27.612 5.85666H25.3689C25.3689 5.28135 24.9025 4.81494 24.3272 4.81494C23.7519 4.81494 23.2855 5.28135 23.2855 5.85666H21.0424C21.0424 5.28135 20.5759 4.81494 20.0006 4.81494C19.4253 4.81494 18.9589 5.28135 18.9589 5.85666H16.7158C16.7158 5.28135 16.2494 4.81494 15.6741 4.81494C15.0988 4.81494 14.6324 5.28135 14.6324 5.85666C14.6324 6.43197 15.0988 6.89838 15.6741 6.89838V9.1415C15.0988 9.1415 14.6324 9.60791 14.6324 10.1832C14.6324 10.7585 15.0988 11.2251 15.6741 11.2251V13.4682C15.0988 13.4682 14.6324 13.9346 14.6324 14.5099C14.6324 15.0853 15.0988 15.5517 15.6741 15.5517V17.7948C15.0988 17.7948 14.6324 18.2612 14.6324 18.8365C14.6324 19.4118 15.0988 19.8782 15.6741 19.8782V22.1215C15.0988 22.1215 14.6324 22.5879 14.6324 23.1632C14.6324 23.7385 15.0988 24.2049 15.6741 24.2049V26.4481C15.0988 26.4481 14.6324 26.9145 14.6324 27.4898C14.6324 28.0651 15.0988 28.5317 15.6741 28.5317C16.2494 28.5317 16.7158 28.0651 16.7158 27.4898H18.9589C18.9589 28.0651 19.4253 28.5317 20.0006 28.5317C20.5759 28.5317 21.0424 28.0651 21.0424 27.4898H23.2855C23.2855 28.0651 23.7519 28.5317 24.3272 28.5317C24.9025 28.5317 25.3689 28.0651 25.3689 27.4898H27.612C27.612 28.0651 28.0784 28.5317 28.6538 28.5317C29.2291 28.5317 29.6955 28.0651 29.6955 27.4898H31.9386C31.9386 28.0651 32.405 28.5317 32.9803 28.5317C33.5556 28.5317 34.022 28.0651 34.022 27.4898H36.2652C36.2652 28.0651 36.7316 28.5317 37.3069 28.5317C37.8822 28.5317 38.3486 28.0651 38.3486 27.4898C38.3486 26.9145 37.8822 26.4481 37.3069 26.4481V24.2049C37.8822 24.2049 38.3486 23.7385 38.3486 23.1632C38.3486 22.5879 37.8822 22.1215 37.3069 22.1215V19.8784C37.8822 19.8784 38.3486 19.412 38.3486 18.8367C38.3486 18.2613 37.8822 17.7949 37.3069 17.7949V15.5517C37.8822 15.5517 38.3486 15.0853 38.3486 14.5099C38.3486 13.9346 37.8822 13.4682 37.3069 13.4682V11.2251C37.8822 11.2251 38.3486 10.7585 38.3486 10.1832Z" fill="#FCC24C"/>
<path d="M17.3581 10.1823C17.3581 10.7587 17.8251 11.2242 18.4 11.2242V13.4684C17.825 13.4684 17.3581 13.9339 17.3581 14.5103C17.3581 15.0851 17.8251 15.5507 18.4 15.5507V17.795C17.825 17.795 17.3581 18.2604 17.3581 18.8368C17.3581 19.4118 17.8251 19.8787 18.4 19.8787V22.1215C17.825 22.1215 17.3581 22.587 17.3581 23.1634C17.3581 23.7382 17.8251 24.2053 18.4 24.2053V26.4481C17.825 26.4481 17.3581 26.9137 17.3581 27.49H16.7147C16.7147 28.065 16.2492 28.5318 15.6728 28.5318C15.0978 28.5318 14.6323 28.0648 14.6323 27.49C14.6323 26.9136 15.0978 26.4481 15.6728 26.4481V24.2053C15.0978 24.2053 14.6323 23.7382 14.6323 23.1634C14.6323 22.587 15.0978 22.1215 15.6728 22.1215V19.8787C15.0978 19.8787 14.6323 19.4117 14.6323 18.8368C14.6323 18.2604 15.0978 17.795 15.6728 17.795V15.5509C15.0978 15.5509 14.6323 15.0854 14.6323 14.5104C14.6323 13.934 15.0978 13.4686 15.6728 13.4686V11.2243C15.0978 11.2243 14.6323 10.7589 14.6323 10.1825C14.6323 9.60746 15.0978 9.14199 15.6728 9.14199V6.89777C15.0978 6.89777 14.6323 6.4323 14.6323 5.8559C14.6323 5.2809 15.0978 4.81543 15.6728 4.81543C16.2492 4.81543 16.7147 5.28105 16.7147 5.8559H17.3581C17.3581 6.4323 17.8251 6.89777 18.4 6.89777V9.14199C17.825 9.14199 17.3581 9.60746 17.3581 10.1823Z" fill="#FCE06A"/>
<path d="M35.6237 23.1646C35.6237 22.5882 35.1568 22.1228 34.5818 22.1228V19.8785C35.1568 19.8785 35.6237 19.4131 35.6237 18.8367C35.6237 18.2618 35.1568 17.7962 34.5818 17.7962V15.5518C35.1568 15.5518 35.6237 15.0863 35.6237 14.5099C35.6237 13.9351 35.1568 13.4681 34.5818 13.4681V11.2253C35.1568 11.2253 35.6237 10.7598 35.6237 10.1834C35.6237 9.60854 35.1568 9.1415 34.5818 9.1415V6.89869C35.1568 6.89869 35.6237 6.43322 35.6237 5.85682H36.2671C36.2671 5.28182 36.7326 4.81494 37.309 4.81494C37.884 4.81494 38.3494 5.28197 38.3494 5.85682C38.3494 6.43322 37.884 6.89869 37.309 6.89869V9.1415C37.884 9.1415 38.3494 9.60854 38.3494 10.1834C38.3494 10.7598 37.884 11.2253 37.309 11.2253V13.4681C37.884 13.4681 38.3494 13.9351 38.3494 14.5099C38.3494 15.0863 37.884 15.5518 37.309 15.5518V17.796C37.884 17.796 38.3494 18.2615 38.3494 18.8365C38.3494 19.4129 37.884 19.8784 37.309 19.8784V22.1226C37.884 22.1226 38.3494 22.5881 38.3494 23.1645C38.3494 23.7395 37.884 24.2049 37.309 24.2049V26.4492C37.884 26.4492 38.3494 26.9146 38.3494 27.491C38.3494 28.066 37.884 28.5315 37.309 28.5315C36.7326 28.5315 36.2671 28.066 36.2671 27.491H35.6237C35.6237 26.9146 35.1568 26.4492 34.5818 26.4492V24.2049C35.1566 24.2049 35.6237 23.7395 35.6237 23.1646Z" fill="#DEA42E"/>
<path d="M37.3078 28.8445C36.6686 28.8445 36.1314 28.3992 35.99 27.8026H34.2991C34.1577 28.3992 33.6205 28.8445 32.9813 28.8445C32.342 28.8445 31.8049 28.3992 31.6634 27.8026H29.9725C29.8311 28.3992 29.2939 28.8445 28.6545 28.8445C28.0153 28.8445 27.4781 28.3992 27.3366 27.8026H25.6456C25.5042 28.3992 24.967 28.8445 24.3277 28.8445C23.6884 28.8445 23.1513 28.3992 23.0097 27.8026H21.3189C21.1775 28.3992 20.6403 28.8445 20.0009 28.8445C19.3617 28.8445 18.8245 28.3992 18.683 27.8026H16.992C16.8506 28.3992 16.3134 28.8445 15.6741 28.8445C14.9274 28.8445 14.3199 28.2368 14.3199 27.4901C14.3199 26.8509 14.765 26.3137 15.3616 26.1721V24.4813C14.765 24.3399 14.3199 23.8026 14.3199 23.1634C14.3199 22.524 14.765 21.987 15.3616 21.8453V20.1545C14.765 20.0131 14.3199 19.4757 14.3199 18.8365C14.3199 18.1973 14.765 17.6601 15.3616 17.5187V15.8279C14.765 15.6865 14.3199 15.1492 14.3199 14.5099C14.3199 13.8706 14.765 13.3335 15.3616 13.192V11.5013C14.765 11.3598 14.3199 10.8226 14.3199 10.1832C14.3199 9.544 14.765 9.00682 15.3616 8.86525V7.17463C14.765 7.03322 14.3199 6.49588 14.3199 5.85666C14.3199 5.10994 14.9274 4.50244 15.6741 4.50244C16.3133 4.50244 16.8505 4.9476 16.992 5.54416H18.683C18.8244 4.9476 19.3616 4.50244 20.0009 4.50244C20.6402 4.50244 21.1774 4.9476 21.3189 5.54416H23.0099C23.1513 4.9476 23.6884 4.50244 24.3278 4.50244C24.967 4.50244 25.5042 4.9476 25.6458 5.54416H27.3367C27.4781 4.9476 28.0153 4.50244 28.6547 4.50244C29.2939 4.50244 29.8311 4.9476 29.9727 5.54416H31.6636C31.805 4.9476 32.3422 4.50244 32.9814 4.50244C33.6206 4.50244 34.1578 4.9476 34.2992 5.54416H35.9902C36.1316 4.9476 36.6688 4.50244 37.308 4.50244C38.0547 4.50244 38.6622 5.10994 38.6622 5.85666C38.6622 6.49588 38.217 7.03307 37.6205 7.17463V8.86541C38.217 9.00682 38.6622 9.54416 38.6622 10.1834C38.6622 10.8228 38.217 11.3598 37.6205 11.5015V13.1921C38.217 13.3337 38.6622 13.8709 38.6622 14.5101C38.6622 15.1493 38.217 15.6865 37.6205 15.8281V17.5188C38.217 17.6603 38.6622 18.1976 38.6622 18.8367C38.6622 19.4759 38.217 20.0131 37.6205 20.1546V21.8454C38.217 21.987 38.6622 22.5242 38.6622 23.1635C38.6622 23.8028 38.217 24.3399 37.6205 24.4815V26.1723C38.217 26.3137 38.6622 26.851 38.6622 27.4903C38.662 28.237 38.0545 28.8445 37.3078 28.8445ZM34.0228 27.1778H36.2659C36.4386 27.1778 36.5784 27.3176 36.5784 27.4903C36.5784 27.8924 36.9056 28.2196 37.3077 28.2196C37.7099 28.2196 38.0369 27.8924 38.0369 27.4903C38.0369 27.0882 37.7097 26.761 37.3077 26.761C37.135 26.761 36.9952 26.6212 36.9952 26.4485V24.2054C36.9952 24.0328 37.135 23.8929 37.3077 23.8929C37.7099 23.8929 38.0369 23.5657 38.0369 23.1637C38.0369 22.7615 37.7097 22.4343 37.3077 22.4343C37.135 22.4343 36.9952 22.2943 36.9952 22.1218V19.8785C36.9952 19.7059 37.135 19.566 37.3077 19.566C37.7099 19.566 38.0369 19.2388 38.0369 18.8368C38.0369 18.4348 37.7097 18.1076 37.3077 18.1076C37.135 18.1076 36.9952 17.9676 36.9952 17.7951V15.5518C36.9952 15.3793 37.135 15.2393 37.3077 15.2393C37.7099 15.2393 38.0369 14.9121 38.0369 14.5101C38.0369 14.1079 37.7097 13.7807 37.3077 13.7807C37.135 13.7807 36.9952 13.6407 36.9952 13.4682V11.2253C36.9952 11.0528 37.135 10.9128 37.3077 10.9128C37.7099 10.9128 38.0369 10.5856 38.0369 10.1834C38.0369 9.78135 37.7097 9.45416 37.3077 9.45416C37.135 9.45416 36.9952 9.31416 36.9952 9.14166V6.89838C36.9952 6.72588 37.135 6.58588 37.3077 6.58588C37.7099 6.58588 38.0369 6.25869 38.0369 5.85666C38.0369 5.45463 37.7097 5.12744 37.3077 5.12744C36.9056 5.12744 36.5784 5.45463 36.5784 5.85666C36.5784 6.02916 36.4386 6.16916 36.2659 6.16916H34.0228C33.8502 6.16916 33.7103 6.02916 33.7103 5.85666C33.7103 5.45463 33.3831 5.12744 32.9811 5.12744C32.5789 5.12744 32.2519 5.45463 32.2519 5.85666C32.2519 6.02916 32.112 6.16916 31.9394 6.16916H29.6963C29.5236 6.16916 29.3838 6.02916 29.3838 5.85666C29.3838 5.45463 29.0566 5.12744 28.6545 5.12744C28.2525 5.12744 27.9252 5.45463 27.9252 5.85666C27.9252 6.02916 27.7853 6.16916 27.6127 6.16916H25.3695C25.1969 6.16916 25.057 6.02916 25.057 5.85666C25.057 5.45463 24.7299 5.12744 24.3278 5.12744C23.9258 5.12744 23.5984 5.45463 23.5984 5.85666C23.5984 6.02916 23.4586 6.16916 23.2859 6.16916H21.0428C20.8703 6.16916 20.7303 6.02916 20.7303 5.85666C20.7303 5.45463 20.4031 5.12744 20.0009 5.12744C19.5988 5.12744 19.2717 5.45463 19.2717 5.85666C19.2717 6.02916 19.1317 6.16916 18.9592 6.16916H16.7161C16.5436 6.16916 16.4036 6.02916 16.4036 5.85666C16.4036 5.45463 16.0764 5.12744 15.6744 5.12744C15.2722 5.12744 14.9452 5.45463 14.9452 5.85666C14.9452 6.25869 15.2724 6.58588 15.6744 6.58588C15.8469 6.58588 15.9869 6.72588 15.9869 6.89838V9.1415C15.9869 9.314 15.8469 9.454 15.6744 9.454C15.2722 9.454 14.9452 9.78119 14.9452 10.1832C14.9452 10.5854 15.2724 10.9126 15.6744 10.9126C15.8469 10.9126 15.9869 11.0526 15.9869 11.2251V13.4681C15.9869 13.6406 15.8469 13.7806 15.6744 13.7806C15.2722 13.7806 14.9452 14.1078 14.9452 14.5099C14.9452 14.912 15.2724 15.2392 15.6744 15.2392C15.8469 15.2392 15.9869 15.3792 15.9869 15.5517V17.7948C15.9869 17.9673 15.8469 18.1073 15.6744 18.1073C15.2722 18.1073 14.9452 18.4345 14.9452 18.8365C14.9452 19.2385 15.2724 19.5657 15.6744 19.5657C15.8469 19.5657 15.9869 19.7056 15.9869 19.8782V22.1213C15.9869 22.2938 15.8469 22.4338 15.6744 22.4338C15.2722 22.4338 14.9452 22.761 14.9452 23.1632C14.9452 23.5653 15.2724 23.8924 15.6744 23.8924C15.8469 23.8924 15.9869 24.0323 15.9869 24.2049V26.4481C15.9869 26.6207 15.8469 26.7606 15.6744 26.7606C15.2722 26.7606 14.9452 27.0878 14.9452 27.4898C14.9452 27.892 15.2724 28.2192 15.6744 28.2192C16.0766 28.2192 16.4036 27.892 16.4036 27.4898C16.4036 27.3171 16.5436 27.1773 16.7161 27.1773H18.9592C19.1317 27.1773 19.2717 27.3171 19.2717 27.4898C19.2717 27.892 19.5989 28.2192 20.0009 28.2192C20.403 28.2192 20.7303 27.892 20.7303 27.4898C20.7303 27.3171 20.8703 27.1773 21.0428 27.1773H23.2859C23.4586 27.1773 23.5984 27.3171 23.5984 27.4898C23.5984 27.892 23.9256 28.2192 24.3278 28.2192C24.73 28.2192 25.057 27.892 25.057 27.4898C25.057 27.3171 25.1969 27.1773 25.3695 27.1773H27.6127C27.7853 27.1773 27.9252 27.3171 27.9252 27.4898C27.9252 27.892 28.2524 28.2192 28.6545 28.2192C29.0567 28.2192 29.3838 27.892 29.3838 27.4898C29.3838 27.3171 29.5236 27.1773 29.6963 27.1773H31.9394C32.112 27.1773 32.2519 27.3171 32.2519 27.4898C32.2519 27.892 32.5791 28.2192 32.9811 28.2192C33.3831 28.2192 33.7103 27.892 33.7103 27.4898C33.7103 27.3176 33.8503 27.1778 34.0228 27.1778Z" fill="#690589"/>
<path d="M30.2564 21.0255C30.2564 20.4502 29.79 19.9838 29.2147 19.9838V17.7407C29.79 17.7407 30.2564 17.2743 30.2564 16.6989C30.2564 16.1236 29.79 15.6572 29.2147 15.6572C28.6394 15.6572 28.173 16.1236 28.173 16.6989H25.9298C25.9298 16.1236 25.4634 15.6572 24.8881 15.6572C24.3128 15.6572 23.8464 16.1236 23.8464 16.6989H21.6033C21.6033 16.1236 21.1369 15.6572 20.5616 15.6572C19.9862 15.6572 19.5198 16.1236 19.5198 16.6989H17.2767C17.2767 16.1236 16.8103 15.6572 16.235 15.6572C15.6597 15.6572 15.1933 16.1236 15.1933 16.6989H12.9497C12.9497 16.1236 12.4833 15.6572 11.908 15.6572C11.3326 15.6572 10.8662 16.1236 10.8662 16.6989H8.62296C8.62296 16.1236 8.15655 15.6572 7.58124 15.6572C7.00593 15.6572 6.53952 16.1236 6.53952 16.6989C6.53952 17.2743 7.00593 17.7407 7.58124 17.7407V19.9838C7.00593 19.9838 6.53952 20.4502 6.53952 21.0255C6.53952 21.6008 7.00593 22.0674 7.58124 22.0674V24.3105C7.00593 24.3105 6.53952 24.7769 6.53952 25.3522C6.53952 25.9275 7.00593 26.3939 7.58124 26.3939V28.6371C7.00593 28.6371 6.53952 29.1035 6.53952 29.6788C6.53952 30.2541 7.00593 30.7205 7.58124 30.7205V32.9638C7.00593 32.9638 6.53952 33.4302 6.53952 34.0055C6.53952 34.5808 7.00593 35.0472 7.58124 35.0472V37.2904C7.00593 37.2904 6.53952 37.7568 6.53952 38.3321C6.53952 38.9074 7.00593 39.3739 7.58124 39.3739C8.15655 39.3739 8.62296 38.9074 8.62296 38.3321H10.8661C10.8661 38.9074 11.3325 39.3739 11.9078 39.3739C12.4831 39.3739 12.9495 38.9074 12.9495 38.3321H15.1926C15.1926 38.9074 15.6591 39.3739 16.2344 39.3739C16.8097 39.3739 17.2761 38.9074 17.2761 38.3321H19.5192C19.5192 38.9074 19.9856 39.3739 20.5609 39.3739C21.1362 39.3739 21.6026 38.9074 21.6026 38.3321H23.8458C23.8458 38.9074 24.3122 39.3739 24.8875 39.3739C25.4628 39.3739 25.9292 38.9074 25.9292 38.3321H28.1723C28.1723 38.9074 28.6387 39.3739 29.2141 39.3739C29.7894 39.3739 30.2558 38.9074 30.2558 38.3321C30.2558 37.7568 29.7894 37.2904 29.2141 37.2904V35.0472C29.7894 35.0472 30.2558 34.5808 30.2558 34.0055C30.2558 33.4302 29.7894 32.9638 29.2141 32.9638V30.7205C29.7894 30.7205 30.2558 30.2541 30.2558 29.6788C30.2558 29.1035 29.7894 28.6371 29.2141 28.6371V26.3939C29.7894 26.3939 30.2558 25.9275 30.2558 25.3522C30.2558 24.7769 29.7894 24.3105 29.2141 24.3105V22.0674C29.79 22.0674 30.2564 21.6008 30.2564 21.0255Z" fill="#7BAC51"/>
<path d="M9.26989 21.0252C9.26989 21.6016 9.73677 22.0671 10.3118 22.0671V24.3113C9.73677 24.3113 9.26989 24.7768 9.26989 25.3532C9.26989 25.9282 9.73677 26.3937 10.3118 26.3937V28.6379C9.73677 28.6379 9.26989 29.1034 9.26989 29.6798C9.26989 30.2546 9.73677 30.7216 10.3118 30.7216V32.9645C9.73677 32.9645 9.26989 33.4299 9.26989 34.0063C9.26989 34.5813 9.73677 35.0482 10.3118 35.0482V37.291C9.73677 37.291 9.26989 37.7566 9.26989 38.3329H8.62646C8.62646 38.9079 8.16099 39.3748 7.58458 39.3748C7.00958 39.3748 6.54411 38.9077 6.54411 38.3329C6.54411 37.7565 7.00958 37.291 7.58458 37.291V35.0484C7.00958 35.0484 6.54411 34.5813 6.54411 34.0065C6.54411 33.4301 7.00958 32.9646 7.58458 32.9646V30.7218C7.00958 30.7218 6.54411 30.2548 6.54411 29.6799C6.54411 29.1035 7.00958 28.638 7.58458 28.638V26.3937C7.00958 26.3937 6.54411 25.9282 6.54411 25.3532C6.54411 24.7768 7.00958 24.3113 7.58458 24.3113V22.0671C7.00958 22.0671 6.54411 21.6016 6.54411 21.0252C6.54411 20.4502 7.00958 19.9848 7.58458 19.9848V17.7405C7.00958 17.7405 6.54411 17.2749 6.54411 16.6987C6.54411 16.1237 7.00958 15.6582 7.58458 15.6582C8.16099 15.6582 8.62646 16.1237 8.62646 16.6987H9.26989C9.26989 17.2751 9.73677 17.7405 10.3118 17.7405V19.9848C9.73677 19.9848 9.26989 20.4502 9.26989 21.0252Z" fill="#99CA6F"/>
<path d="M27.5308 34.0077C27.5308 33.4313 27.064 32.9659 26.489 32.9659V30.7216C27.064 30.7216 27.5308 30.2562 27.5308 29.6798C27.5308 29.1048 27.064 28.6393 26.489 28.6393V26.3951C27.064 26.3951 27.5308 25.9296 27.5308 25.3532C27.5308 24.7784 27.064 24.3113 26.489 24.3113V22.0685C27.064 22.0685 27.5308 21.603 27.5308 21.0266C27.5308 20.4518 27.064 19.9848 26.489 19.9848V17.742C27.064 17.742 27.5308 17.2763 27.5308 16.7001H28.1743C28.1743 16.1252 28.6397 15.6582 29.2162 15.6582C29.791 15.6582 30.2566 16.1252 30.2566 16.7001C30.2566 17.2765 29.7912 17.742 29.2162 17.742V19.9848C29.791 19.9848 30.2566 20.4518 30.2566 21.0266C30.2566 21.603 29.7912 22.0685 29.2162 22.0685V24.3113C29.791 24.3113 30.2566 24.7784 30.2566 25.3532C30.2566 25.9296 29.7912 26.3951 29.2162 26.3951V28.6393C29.791 28.6393 30.2566 29.1048 30.2566 29.6798C30.2566 30.2562 29.7912 30.7216 29.2162 30.7216V32.9659C29.791 32.9659 30.2566 33.4313 30.2566 34.0077C30.2566 34.5827 29.7912 35.0482 29.2162 35.0482V37.2924C29.791 37.2924 30.2566 37.7581 30.2566 38.3343C30.2566 38.9093 29.7912 39.3748 29.2162 39.3748C28.6397 39.3748 28.1743 38.9091 28.1743 38.3343H27.5308C27.5308 37.7579 27.064 37.2924 26.489 37.2924V35.0482C27.0638 35.048 27.5308 34.5826 27.5308 34.0077Z" fill="#5D8E33"/>
<path d="M29.215 39.6872C28.5758 39.6872 28.0386 39.2419 27.8972 38.6454H26.2062C26.0648 39.2419 25.5276 39.6872 24.8883 39.6872C24.2491 39.6872 23.7119 39.2419 23.5705 38.6454H21.8795C21.7381 39.2419 21.2009 39.6872 20.5616 39.6872C19.9223 39.6872 19.3851 39.2419 19.2436 38.6454H17.5526C17.4112 39.2419 16.8741 39.6872 16.2347 39.6872C15.5955 39.6872 15.0583 39.2419 14.9167 38.6454H13.2261C13.0847 39.2419 12.5475 39.6872 11.9081 39.6872C11.2687 39.6872 10.7317 39.2419 10.5901 38.6454H8.89936C8.75796 39.2419 8.22077 39.6872 7.5814 39.6872C6.83468 39.6872 6.22702 39.0796 6.22702 38.3329C6.22702 37.6936 6.67218 37.1564 7.2689 37.0149V35.3243C6.67233 35.1827 6.22702 34.6455 6.22702 34.0061C6.22702 33.3669 6.67218 32.8297 7.2689 32.6882V30.9974C6.67233 30.856 6.22702 30.3186 6.22702 29.6794C6.22702 29.04 6.67218 28.503 7.2689 28.3613V26.6707C6.67233 26.5291 6.22702 25.9919 6.22702 25.3525C6.22702 24.7133 6.67218 24.1761 7.2689 24.0346V22.3439C6.67233 22.2024 6.22702 21.6652 6.22702 21.0258C6.22702 20.3864 6.67218 19.8494 7.2689 19.7077V18.0171C6.67233 17.8757 6.22702 17.3383 6.22702 16.6991C6.22702 15.9524 6.83452 15.3447 7.5814 15.3447C8.22061 15.3447 8.7578 15.79 8.89936 16.3866H10.5903C10.7317 15.79 11.2689 15.3447 11.9083 15.3447C12.5476 15.3447 13.0847 15.79 13.2262 16.3866H14.9172C15.0586 15.79 15.5958 15.3447 16.2351 15.3447C16.8744 15.3447 17.4116 15.79 17.5531 16.3866H19.2441C19.3855 15.79 19.9226 15.3447 20.562 15.3447C21.2012 15.3447 21.7384 15.79 21.88 16.3866H23.5709C23.7123 15.79 24.2495 15.3447 24.8887 15.3447C25.528 15.3447 26.0651 15.79 26.2067 16.3866H27.8976C28.0391 15.79 28.5762 15.3447 29.2155 15.3447C29.9622 15.3447 30.5697 15.9524 30.5697 16.6991C30.5697 17.3383 30.1245 17.8755 29.528 18.0171V19.7077C30.1245 19.8493 30.5697 20.3864 30.5697 21.0258C30.5697 21.6652 30.1245 22.2022 29.528 22.3439V24.0346C30.1245 24.176 30.5697 24.7133 30.5697 25.3525C30.5697 25.9919 30.1245 26.5289 29.528 26.6707V28.3613C30.1245 28.5029 30.5697 29.04 30.5697 29.6794C30.5697 30.3186 30.1245 30.8558 29.528 30.9974V32.6882C30.1245 32.8296 30.5697 33.3669 30.5697 34.0061C30.5697 34.6455 30.1245 35.1825 29.528 35.3243V37.0149C30.1245 37.1563 30.5697 37.6936 30.5697 38.3329C30.5692 39.0796 29.9617 39.6872 29.215 39.6872ZM25.93 38.0204H28.1731C28.3456 38.0204 28.4856 38.1602 28.4856 38.3329C28.4856 38.735 28.8128 39.0622 29.2148 39.0622C29.617 39.0622 29.9441 38.735 29.9441 38.3329C29.9441 37.9308 29.6169 37.6036 29.2148 37.6036C29.0423 37.6036 28.9023 37.4638 28.9023 37.2911V35.0482C28.9023 34.8757 29.0423 34.7357 29.2148 34.7357C29.617 34.7357 29.9441 34.4085 29.9441 34.0063C29.9441 33.6043 29.6169 33.2771 29.2148 33.2771C29.0423 33.2771 28.9023 33.1372 28.9023 32.9646V30.7214C28.9023 30.5488 29.0423 30.4089 29.2148 30.4089C29.617 30.4089 29.9441 30.0818 29.9441 29.6797C29.9441 29.2775 29.6169 28.9504 29.2148 28.9504C29.0423 28.9504 28.9023 28.8104 28.9023 28.6379V26.3949C28.9023 26.2222 29.0423 26.0824 29.2148 26.0824C29.617 26.0824 29.9441 25.7552 29.9441 25.353C29.9441 24.951 29.6169 24.6238 29.2148 24.6238C29.0423 24.6238 28.9023 24.4839 28.9023 24.3113V22.0683C28.9023 21.8957 29.0423 21.7558 29.2148 21.7558C29.617 21.7558 29.9441 21.4286 29.9441 21.0264C29.9441 20.6243 29.6169 20.2971 29.2148 20.2971C29.0423 20.2971 28.9023 20.1571 28.9023 19.9846V17.7416C28.9023 17.5691 29.0423 17.4291 29.2148 17.4291C29.617 17.4291 29.9441 17.1019 29.9441 16.6999C29.9441 16.2977 29.6169 15.9705 29.2148 15.9705C28.8128 15.9705 28.4856 16.2977 28.4856 16.6999C28.4856 16.8724 28.3456 17.0124 28.1731 17.0124H25.93C25.7573 17.0124 25.6175 16.8724 25.6175 16.6999C25.6175 16.2977 25.2903 15.9705 24.8881 15.9705C24.4861 15.9705 24.1589 16.2977 24.1589 16.6999C24.1589 16.8724 24.0189 17.0124 23.8464 17.0124H21.6033C21.4306 17.0124 21.2908 16.8724 21.2908 16.6999C21.2908 16.2977 20.9636 15.9705 20.5616 15.9705C20.1594 15.9705 19.8322 16.2977 19.8322 16.6999C19.8322 16.8724 19.6922 17.0124 19.5197 17.0124H17.2766C17.1039 17.0124 16.9641 16.8724 16.9641 16.6999C16.9641 16.2977 16.6369 15.9705 16.2348 15.9705C15.8326 15.9705 15.5056 16.2977 15.5056 16.6999C15.5056 16.8724 15.3656 17.0124 15.1931 17.0124H12.95C12.7773 17.0124 12.6375 16.8724 12.6375 16.6999C12.6375 16.2977 12.3103 15.9705 11.9081 15.9705C11.5059 15.9705 11.1787 16.2977 11.1787 16.6999C11.1787 16.8724 11.0387 17.0124 10.8662 17.0124H8.62327C8.45077 17.0124 8.31077 16.8724 8.31077 16.6999C8.31077 16.2977 7.98358 15.9705 7.58155 15.9705C7.17952 15.9705 6.85218 16.2977 6.85218 16.6999C6.85218 17.1019 7.17936 17.4291 7.58155 17.4291C7.75405 17.4291 7.89405 17.5691 7.89405 17.7416V19.9846C7.89405 20.1571 7.75405 20.2971 7.58155 20.2971C7.17936 20.2971 6.85218 20.6243 6.85218 21.0264C6.85218 21.4286 7.17936 21.7558 7.58155 21.7558C7.75405 21.7558 7.89405 21.8957 7.89405 22.0683V24.3113C7.89405 24.4839 7.75405 24.6238 7.58155 24.6238C7.17936 24.6238 6.85218 24.951 6.85218 25.353C6.85218 25.7552 7.17936 26.0824 7.58155 26.0824C7.75405 26.0824 7.89405 26.2222 7.89405 26.3949V28.6379C7.89405 28.8104 7.75405 28.9504 7.58155 28.9504C7.17936 28.9504 6.85218 29.2775 6.85218 29.6797C6.85218 30.0818 7.17936 30.4089 7.58155 30.4089C7.75405 30.4089 7.89405 30.5488 7.89405 30.7214V32.9646C7.89405 33.1372 7.75405 33.2771 7.58155 33.2771C7.17936 33.2771 6.85218 33.6043 6.85218 34.0063C6.85218 34.4085 7.17936 34.7357 7.58155 34.7357C7.75405 34.7357 7.89405 34.8757 7.89405 35.0482V37.2911C7.89405 37.4638 7.75405 37.6036 7.58155 37.6036C7.17936 37.6036 6.85218 37.9308 6.85218 38.3329C6.85218 38.735 7.17936 39.0622 7.58155 39.0622C7.98374 39.0622 8.31077 38.735 8.31077 38.3329C8.31077 38.1602 8.45077 38.0204 8.62327 38.0204H10.8664C11.0389 38.0204 11.1789 38.1602 11.1789 38.3329C11.1789 38.735 11.5061 39.0622 11.9083 39.0622C12.3105 39.0622 12.6376 38.735 12.6376 38.3329C12.6376 38.1602 12.7775 38.0204 12.9501 38.0204H15.1933C15.3658 38.0204 15.5058 38.1602 15.5058 38.3329C15.5058 38.735 15.833 39.0622 16.235 39.0622C16.6372 39.0622 16.9642 38.735 16.9642 38.3329C16.9642 38.1602 17.1042 38.0204 17.2767 38.0204H19.5198C19.6923 38.0204 19.8323 38.1602 19.8323 38.3329C19.8323 38.735 20.1595 39.0622 20.5617 39.0622C20.9639 39.0622 21.2909 38.735 21.2909 38.3329C21.2909 38.1602 21.4308 38.0204 21.6034 38.0204H23.8466C24.0191 38.0204 24.1591 38.1602 24.1591 38.3329C24.1591 38.735 24.4862 39.0622 24.8883 39.0622C25.2905 39.0622 25.6176 38.735 25.6176 38.3329C25.6175 38.1604 25.7575 38.0204 25.93 38.0204Z" fill="#690589"/>
<path d="M5.4182 9.39893C5.2457 9.39893 5.1057 9.25893 5.1057 9.08643V7.21143C5.1057 7.03893 5.2457 6.89893 5.4182 6.89893C5.5907 6.89893 5.7307 7.03893 5.7307 7.21143V9.08643C5.7307 9.25908 5.5907 9.39893 5.4182 9.39893Z" fill="#690589"/>
</svg>
