<svg width="40" height="40" viewBox="0 0 40 40" fill="none" >
<g clip-path="url(#clip0_1619_86058)">
<path d="M25.4823 23.628H28.1045V0H13.5775V40H27.6137C27.8835 40 28.1045 39.7793 28.1045 39.5096V31.7668H25.4823C24.0891 31.7668 22.9557 29.9412 22.9557 27.6974C22.9557 25.4536 24.0891 23.628 25.4823 23.628Z" fill="#FFA05F"/>
<path d="M28.1043 39.5092V35.7993H13.5773V39.9997H27.6135C27.8833 39.9997 28.1043 39.779 28.1043 39.5092Z" fill="#9B5729"/>
<path d="M13.7173 0H0.490437C0.220659 0 0 0.220659 0 0.490809V39.5096C0 39.7793 0.220659 40 0.490437 40H13.7173V0Z" fill="#ABEBFF"/>
<path d="M48.285 0H28.1071V23.628H46.1636L46.2019 23.6303C47.5609 23.672 48.6671 25.4767 48.6794 27.6606H48.7754V0.490809C48.7754 0.220659 48.5548 0 48.285 0V0Z" fill="#99CE19"/>
<path d="M13.7173 35.7993H0V39.5092C0 39.779 0.220659 39.9997 0.490437 39.9997H13.7173V35.7993Z" fill="#5884CC"/>
<path d="M1.80993 39.5096V0.490809C1.80993 0.220659 2.03059 0 2.30036 0H0.490437C0.220659 0 0 0.220659 0 0.490809V39.5096C0 39.7793 0.220659 40 0.490437 40H2.30036C2.03059 40 1.80993 39.7793 1.80993 39.5096Z" fill="#76D8FF"/>
<path d="M1.80993 39.5092V35.7993H0V39.5092C0 39.779 0.220659 39.9997 0.490437 39.9997H2.30036C2.03059 39.9997 1.80993 39.779 1.80993 39.5092Z" fill="#2D69AC"/>
<path d="M13.5775 0H15.5273V35.7997H13.5775V0Z" fill="#FF812C"/>
<path d="M28.1071 0H29.8188V23.628H28.1071V0Z" fill="#81AA00"/>
<path d="M2.89338 3.85633C2.69914 3.85633 2.50973 3.77782 2.37317 3.64051C2.23586 3.50395 2.15735 3.31343 2.15735 3.1203C2.15735 2.92681 2.23586 2.73666 2.37317 2.6001C2.50973 2.46279 2.69914 2.38428 2.89338 2.38428C3.08687 2.38428 3.27702 2.46279 3.41358 2.6001C3.55089 2.73666 3.6294 2.92718 3.6294 3.1203C3.6294 3.31343 3.55089 3.50395 3.41358 3.64051C3.27702 3.77782 3.08687 3.85633 2.89338 3.85633Z" fill="white"/>
<path d="M2.89338 8.8617C2.69914 8.8617 2.50973 8.78319 2.37317 8.64588C2.23586 8.50932 2.15735 8.31992 2.15735 8.12568C2.15735 7.93218 2.23586 7.74203 2.37317 7.60547C2.50973 7.46816 2.69914 7.38965 2.89338 7.38965C3.08687 7.38965 3.27702 7.46816 3.41358 7.60547C3.55089 7.74203 3.6294 7.93255 3.6294 8.12568C3.6294 8.3188 3.55089 8.50932 3.41358 8.64588C3.27702 8.78319 3.08687 8.8617 2.89338 8.8617Z" fill="white"/>
<path d="M2.89338 13.8671C2.69914 13.8671 2.50973 13.7886 2.37317 13.6513C2.23586 13.5147 2.15735 13.3245 2.15735 13.131C2.15735 12.9368 2.23586 12.7474 2.37317 12.6112C2.50973 12.4735 2.69914 12.395 2.89338 12.395C3.08687 12.395 3.27702 12.4735 3.41358 12.6112C3.55089 12.7474 3.6294 12.9379 3.6294 13.131C3.6294 13.3245 3.55089 13.5139 3.41358 13.6513C3.27702 13.7886 3.08687 13.8671 2.89338 13.8671Z" fill="white"/>
<path d="M2.89338 18.871C2.69914 18.871 2.50973 18.7925 2.37317 18.6552C2.23586 18.5186 2.15735 18.3284 2.15735 18.1353C2.15735 17.9407 2.23586 17.7513 2.37317 17.6151C2.50973 17.4774 2.69914 17.3989 2.89338 17.3989C3.08687 17.3989 3.27702 17.4774 3.41358 17.6151C3.55089 17.7513 3.6294 17.9418 3.6294 18.1353C3.6294 18.3284 3.55089 18.5179 3.41358 18.6552C3.27702 18.7925 3.08687 18.871 2.89338 18.871Z" fill="white"/>
<path d="M2.89338 23.8764C2.69914 23.8764 2.50973 23.7978 2.37317 23.6605C2.23586 23.524 2.15735 23.3338 2.15735 23.1403C2.15735 22.9461 2.23586 22.7567 2.37317 22.6205C2.50973 22.4828 2.69914 22.4043 2.89338 22.4043C3.08687 22.4043 3.27702 22.4828 3.41358 22.6205C3.55089 22.7567 3.6294 22.9472 3.6294 23.1403C3.6294 23.3338 3.55089 23.524 3.41358 23.6605C3.27702 23.7978 3.08687 23.8764 2.89338 23.8764Z" fill="white"/>
<path d="M2.89338 28.8812C2.69914 28.8812 2.50973 28.8027 2.37317 28.6654C2.23586 28.5281 2.15735 28.3387 2.15735 28.1452C2.15735 27.951 2.23586 27.7616 2.37317 27.6243C2.50973 27.4877 2.69914 27.4092 2.89338 27.4092C3.08687 27.4092 3.27702 27.4877 3.41358 27.6243C3.55089 27.7616 3.6294 27.951 3.6294 28.1452C3.6294 28.3387 3.55089 28.5281 3.41358 28.6654C3.27702 28.8027 3.08687 28.8812 2.89338 28.8812Z" fill="white"/>
<path d="M2.89338 33.886C2.69914 33.886 2.50973 33.8075 2.37317 33.6698C2.23586 33.5325 2.15735 33.3431 2.15735 33.1496C2.15735 32.9554 2.23586 32.766 2.37317 32.6287C2.50973 32.4921 2.69914 32.4136 2.89338 32.4136C3.08687 32.4136 3.27702 32.4921 3.41358 32.6287C3.55089 32.766 3.6294 32.9554 3.6294 33.1496C3.6294 33.3431 3.55089 33.5325 3.41358 33.6698C3.27702 33.8071 3.08687 33.886 2.89338 33.886Z" fill="white"/>
<path d="M10.7438 3.85633C10.5496 3.85633 10.3602 3.77782 10.2236 3.64051C10.0863 3.50395 10.0078 3.31454 10.0078 3.1203C10.0078 2.92606 10.0863 2.73666 10.2236 2.6001C10.3602 2.46279 10.5496 2.38428 10.7438 2.38428C10.9381 2.38428 11.1275 2.46279 11.264 2.6001C11.4014 2.73666 11.4799 2.92718 11.4799 3.1203C11.4799 3.31343 11.4014 3.50395 11.264 3.64051C11.1275 3.77782 10.9381 3.85633 10.7438 3.85633Z" fill="white"/>
<path d="M10.7438 8.8617C10.5496 8.8617 10.3602 8.78319 10.2236 8.64588C10.0863 8.50932 10.0078 8.31992 10.0078 8.12568C10.0078 7.93144 10.0863 7.74203 10.2236 7.60547C10.3602 7.46816 10.5496 7.38965 10.7438 7.38965C10.9381 7.38965 11.1275 7.46816 11.264 7.60547C11.4014 7.74203 11.4799 7.93255 11.4799 8.12568C11.4799 8.3188 11.4014 8.50932 11.264 8.64588C11.1275 8.78319 10.9381 8.8617 10.7438 8.8617Z" fill="white"/>
<path d="M10.7438 13.8671C10.5496 13.8671 10.3602 13.7886 10.2236 13.6513C10.0863 13.5147 10.0078 13.3257 10.0078 13.131C10.0078 12.9368 10.0863 12.7474 10.2236 12.6112C10.3602 12.4735 10.5496 12.395 10.7438 12.395C10.9381 12.395 11.1275 12.4735 11.264 12.6112C11.4014 12.7474 11.4799 12.9379 11.4799 13.131C11.4799 13.3245 11.4014 13.5147 11.264 13.6513C11.1275 13.7886 10.9381 13.8671 10.7438 13.8671Z" fill="white"/>
<path d="M10.7438 18.871C10.5507 18.871 10.3602 18.7925 10.2236 18.6552C10.0863 18.5186 10.0078 18.3284 10.0078 18.1353C10.0078 17.9407 10.0863 17.7513 10.2236 17.6151C10.3602 17.4774 10.5496 17.3989 10.7438 17.3989C10.9381 17.3989 11.1275 17.4774 11.264 17.6151C11.4014 17.7513 11.4799 17.9418 11.4799 18.1353C11.4799 18.3284 11.4014 18.5179 11.264 18.6552C11.1275 18.7925 10.9373 18.871 10.7438 18.871Z" fill="white"/>
<path d="M10.7438 23.8764C10.5496 23.8764 10.3602 23.7978 10.2236 23.6605C10.0863 23.524 10.0078 23.3338 10.0078 23.1403C10.0078 22.9461 10.0863 22.7567 10.2236 22.6194C10.3602 22.4828 10.5496 22.4043 10.7438 22.4043C10.9381 22.4043 11.1275 22.4828 11.264 22.6194C11.4014 22.7567 11.4799 22.9472 11.4799 23.1403C11.4799 23.3338 11.4014 23.524 11.264 23.6605C11.1275 23.7978 10.9381 23.8764 10.7438 23.8764Z" fill="white"/>
<path d="M10.7438 28.8812C10.5496 28.8812 10.3602 28.8027 10.2236 28.6654C10.0863 28.5288 10.0078 28.3387 10.0078 28.1452C10.0078 27.951 10.0863 27.7616 10.2236 27.625C10.3602 27.4877 10.5496 27.4092 10.7438 27.4092C10.9381 27.4092 11.1275 27.4877 11.264 27.625C11.4014 27.7616 11.4799 27.9521 11.4799 28.1452C11.4799 28.3387 11.4014 28.5281 11.264 28.6654C11.1275 28.8027 10.9381 28.8812 10.7438 28.8812Z" fill="white"/>
<path d="M10.7438 33.886C10.5496 33.886 10.3602 33.8075 10.2236 33.6698C10.0863 33.5325 10.0078 33.3431 10.0078 33.1496C10.0078 32.9554 10.0863 32.766 10.2236 32.6287C10.3602 32.4921 10.5496 32.4136 10.7438 32.4136C10.9381 32.4136 11.1275 32.4921 11.264 32.6287C11.4014 32.766 11.4799 32.9554 11.4799 33.1496C11.4799 33.3431 11.4014 33.5325 11.264 33.6698C11.1275 33.8071 10.9381 33.886 10.7438 33.886Z" fill="white"/>
<path d="M6.82142 6.21278C6.62718 6.21278 6.43777 6.13426 6.30121 5.9977C6.1639 5.86039 6.08539 5.67099 6.08539 5.47675C6.08539 5.28325 6.1639 5.09385 6.30121 4.95654C6.43777 4.81924 6.62718 4.74072 6.82142 4.74072C7.01491 4.74072 7.20506 4.81924 7.34162 4.95654C7.47893 5.09385 7.55744 5.28363 7.55744 5.47675C7.55744 5.67099 7.47893 5.86039 7.34162 5.9977C7.20506 6.13426 7.01491 6.21278 6.82142 6.21278Z" fill="white"/>
<path d="M6.82142 11.2167C6.62718 11.2167 6.43777 11.1382 6.30121 11.0016C6.1639 10.8643 6.08539 10.6738 6.08539 10.4807C6.08539 10.2872 6.1639 10.0978 6.30121 9.96045C6.43777 9.82314 6.62718 9.74463 6.82142 9.74463C7.01491 9.74463 7.20506 9.82314 7.34162 9.96045C7.47893 10.0978 7.55744 10.2872 7.55744 10.4807C7.55744 10.6749 7.47893 10.8643 7.34162 11.0016C7.20506 11.1382 7.01491 11.2167 6.82142 11.2167Z" fill="white"/>
<path d="M6.82142 16.2216C6.62718 16.2216 6.43777 16.1431 6.30121 16.0065C6.1639 15.8692 6.08539 15.6787 6.08539 15.4855C6.08539 15.292 6.1639 15.1026 6.30121 14.9653C6.43777 14.828 6.62718 14.7495 6.82142 14.7495C7.01491 14.7495 7.20506 14.828 7.34162 14.9653C7.47893 15.1019 7.55744 15.292 7.55744 15.4855C7.55744 15.6798 7.47893 15.8692 7.34162 16.0065C7.20506 16.1431 7.01491 16.2216 6.82142 16.2216Z" fill="white"/>
<path d="M6.82142 21.2269C6.62718 21.2269 6.43777 21.1484 6.30121 21.0119C6.1639 20.8746 6.08539 20.684 6.08539 20.4909C6.08539 20.2974 6.1639 20.108 6.30121 19.9707C6.43777 19.8334 6.62718 19.7549 6.82142 19.7549C7.01491 19.7549 7.20506 19.8334 7.34162 19.9707C7.47893 20.1069 7.55744 20.2974 7.55744 20.4909C7.55744 20.6851 7.47893 20.8746 7.34162 21.0119C7.20506 21.1484 7.01491 21.2269 6.82142 21.2269Z" fill="white"/>
<path d="M6.82142 26.2313C6.62718 26.2313 6.43777 26.1528 6.30121 26.0155C6.1639 25.8789 6.08539 25.6884 6.08539 25.4953C6.08539 25.3018 6.1639 25.1124 6.30121 24.9751C6.43777 24.8378 6.62718 24.7593 6.82142 24.7593C7.01491 24.7593 7.20506 24.8378 7.34162 24.9751C7.47893 25.1117 7.55744 25.3018 7.55744 25.4953C7.55744 25.6884 7.47893 25.8789 7.34162 26.0155C7.20506 26.1528 7.01491 26.2313 6.82142 26.2313Z" fill="white"/>
<path d="M6.82142 31.2362C6.62718 31.2362 6.43777 31.1577 6.30121 31.0204C6.1639 30.8838 6.08539 30.6937 6.08539 30.5002C6.08539 30.3067 6.1639 30.1165 6.30121 29.98C6.43777 29.8427 6.62718 29.7642 6.82142 29.7642C7.01491 29.7642 7.20506 29.8427 7.34162 29.98C7.47893 30.1165 7.55744 30.3067 7.55744 30.5002C7.55744 30.6933 7.47893 30.8838 7.34162 31.0204C7.20506 31.1577 7.01491 31.2362 6.82142 31.2362Z" fill="white"/>
<path d="M17.0254 3.85633C16.8323 3.85633 16.6418 3.77782 16.5056 3.64051C16.3683 3.50395 16.2894 3.31454 16.2894 3.1203C16.2894 2.92606 16.3679 2.73666 16.5056 2.6001C16.6418 2.46279 16.8312 2.38428 17.0254 2.38428C17.2189 2.38428 17.4094 2.46279 17.5456 2.6001C17.6829 2.73666 17.7618 2.92718 17.7618 3.1203C17.7618 3.31343 17.6833 3.50395 17.5456 3.64051C17.4083 3.77782 17.2189 3.85633 17.0254 3.85633Z" fill="#FFCB00"/>
<path d="M17.0254 8.8617C16.8323 8.8617 16.6418 8.78319 16.5056 8.64588C16.3683 8.50932 16.2894 8.31917 16.2894 8.12568C16.2894 7.93218 16.3679 7.74203 16.5056 7.60547C16.6418 7.46816 16.8323 7.38965 17.0254 7.38965C17.2189 7.38965 17.4094 7.46816 17.5456 7.60547C17.6829 7.74203 17.7618 7.93255 17.7618 8.12568C17.7618 8.3188 17.6833 8.50932 17.5456 8.64588C17.4094 8.78319 17.2189 8.8617 17.0254 8.8617Z" fill="#FFCB00"/>
<path d="M17.0254 13.8671C16.8323 13.8671 16.6418 13.7886 16.5056 13.6513C16.3683 13.5147 16.2894 13.3257 16.2894 13.131C16.2894 12.9368 16.3679 12.7474 16.5056 12.6112C16.6418 12.4735 16.8312 12.395 17.0254 12.395C17.2189 12.395 17.4094 12.4735 17.5456 12.6112C17.6829 12.7474 17.7618 12.9379 17.7618 13.131C17.7618 13.3245 17.6833 13.5147 17.5456 13.6513C17.4083 13.7886 17.2189 13.8671 17.0254 13.8671Z" fill="#FFCB00"/>
<path d="M17.0254 18.871C16.8323 18.871 16.6418 18.7925 16.5056 18.6552C16.3683 18.5186 16.2894 18.3284 16.2894 18.1353C16.2894 17.9407 16.3679 17.7513 16.5056 17.6151C16.6418 17.4774 16.8323 17.3989 17.0254 17.3989C17.2189 17.3989 17.4094 17.4774 17.5456 17.6151C17.6829 17.7513 17.7618 17.9418 17.7618 18.1353C17.7618 18.3284 17.6833 18.5179 17.5456 18.6552C17.4094 18.7925 17.2189 18.871 17.0254 18.871Z" fill="#FFCB00"/>
<path d="M17.0254 23.8764C16.8323 23.8764 16.6418 23.7978 16.5056 23.6605C16.3683 23.5232 16.2894 23.3338 16.2894 23.1403C16.2894 22.9461 16.3679 22.7567 16.5056 22.6205C16.6418 22.4828 16.8312 22.4043 17.0254 22.4043C17.2189 22.4043 17.4094 22.4828 17.5456 22.6205C17.6829 22.7567 17.7618 22.9472 17.7618 23.1403C17.7618 23.3338 17.6833 23.5232 17.5456 23.6605C17.4083 23.7978 17.2189 23.8764 17.0254 23.8764Z" fill="#FFCB00"/>
<path d="M17.0254 28.8812C16.8312 28.8812 16.6418 28.8027 16.5056 28.6654C16.3683 28.5288 16.2894 28.3387 16.2894 28.1452C16.2894 27.951 16.3679 27.7616 16.5056 27.6243C16.6418 27.4877 16.8323 27.4092 17.0254 27.4092C17.2189 27.4092 17.4094 27.4877 17.5456 27.6243C17.6829 27.7616 17.7618 27.9521 17.7618 28.1452C17.7618 28.3387 17.6833 28.5281 17.5456 28.6654C17.4094 28.8027 17.2196 28.8812 17.0254 28.8812Z" fill="#FFCB00"/>
<path d="M17.0254 33.886C16.8323 33.886 16.6418 33.8075 16.5056 33.6698C16.3683 33.5325 16.2894 33.3431 16.2894 33.1496C16.2894 32.9554 16.3679 32.766 16.5056 32.6287C16.6418 32.4921 16.8312 32.4136 17.0254 32.4136C17.2189 32.4136 17.4094 32.4921 17.5456 32.6287C17.6829 32.766 17.7618 32.9554 17.7618 33.1496C17.7618 33.3431 17.6833 33.5325 17.5456 33.6698C17.4083 33.8071 17.2189 33.886 17.0254 33.886Z" fill="#FFCB00"/>
<path d="M24.8755 3.85633C24.6812 3.85633 24.4918 3.77782 24.3557 3.64051C24.218 3.50395 24.1398 3.31454 24.1398 3.1203C24.1398 2.92681 24.218 2.73666 24.3557 2.6001C24.4918 2.46279 24.6812 2.38428 24.8755 2.38428C25.069 2.38428 25.2595 2.46279 25.3957 2.6001C25.5334 2.73666 25.6119 2.92718 25.6119 3.1203C25.6119 3.31454 25.5334 3.50395 25.3957 3.64051C25.2595 3.77782 25.069 3.85633 24.8755 3.85633Z" fill="#FFCB00"/>
<path d="M24.8755 8.8617C24.6824 8.8617 24.4918 8.78319 24.3557 8.64588C24.218 8.50932 24.1398 8.31917 24.1398 8.12568C24.1398 7.93218 24.218 7.74203 24.3557 7.60547C24.4918 7.46816 24.6812 7.38965 24.8755 7.38965C25.069 7.38965 25.2595 7.46816 25.3957 7.60547C25.5334 7.74203 25.6119 7.93255 25.6119 8.12568C25.6119 8.3188 25.5334 8.50932 25.3957 8.64588C25.2584 8.78319 25.069 8.8617 24.8755 8.8617Z" fill="#FFCB00"/>
<path d="M24.8755 13.8671C24.6812 13.8671 24.4918 13.7886 24.3557 13.6513C24.218 13.5147 24.1398 13.3245 24.1398 13.131C24.1398 12.9368 24.218 12.7474 24.3557 12.6112C24.4918 12.4735 24.6812 12.395 24.8755 12.395C25.069 12.395 25.2595 12.4735 25.3957 12.6112C25.5334 12.7474 25.6119 12.9379 25.6119 13.131C25.6119 13.3245 25.5334 13.5139 25.3957 13.6513C25.2595 13.7886 25.069 13.8671 24.8755 13.8671Z" fill="#FFCB00"/>
<path d="M24.8755 18.871C24.6812 18.871 24.4918 18.7925 24.3557 18.6552C24.218 18.5186 24.1398 18.3284 24.1398 18.1353C24.1398 17.9407 24.218 17.7513 24.3557 17.6151C24.4918 17.4774 24.6812 17.3989 24.8755 17.3989C25.0701 17.3989 25.2595 17.4774 25.3957 17.6151C25.5334 17.7513 25.6119 17.9407 25.6119 18.1353C25.6119 18.3284 25.5334 18.5186 25.3957 18.6552C25.2595 18.7925 25.069 18.871 24.8755 18.871Z" fill="#FFCB00"/>
<path d="M24.6675 23.8455C24.9056 23.7149 25.1594 23.6401 25.4229 23.6304C25.543 23.4961 25.6119 23.3201 25.6119 23.1403C25.6119 22.9468 25.5334 22.7563 25.3957 22.619C25.2595 22.4828 25.0701 22.4043 24.8759 22.4043C24.6812 22.4043 24.4922 22.4828 24.3557 22.619C24.2183 22.7563 24.1398 22.9457 24.1398 23.1403C24.1398 23.3334 24.218 23.524 24.3557 23.6602C24.4424 23.7476 24.5503 23.8109 24.6675 23.8455Z" fill="#FFCB00"/>
<path d="M24.8755 33.886C24.6812 33.886 24.4918 33.8075 24.3557 33.6698C24.218 33.5325 24.1398 33.3431 24.1398 33.1496C24.1398 32.9554 24.218 32.766 24.3557 32.6287C24.4918 32.4921 24.6812 32.4136 24.8755 32.4136C25.0701 32.4136 25.2595 32.4921 25.3957 32.6287C25.5334 32.766 25.6119 32.9554 25.6119 33.1496C25.6119 33.3431 25.5334 33.5325 25.3957 33.6698C25.2595 33.8071 25.069 33.886 24.8755 33.886Z" fill="#FFCB00"/>
<path d="M20.9534 6.21278C20.7592 6.21278 20.5698 6.13426 20.4336 5.9977C20.2959 5.86039 20.2174 5.67099 20.2174 5.47675C20.2174 5.28325 20.2959 5.09311 20.4336 4.95654C20.5698 4.81924 20.7592 4.74072 20.9534 4.74072C21.1477 4.74072 21.3374 4.81924 21.4736 4.95654C21.6109 5.09385 21.6898 5.28363 21.6898 5.47675C21.6898 5.67099 21.6113 5.86039 21.4736 5.9977C21.3374 6.13426 21.1477 6.21278 20.9534 6.21278Z" fill="#FFCB00"/>
<path d="M20.9534 11.2167C20.7592 11.2167 20.5698 11.1382 20.4336 11.0016C20.2959 10.8643 20.2174 10.6749 20.2174 10.4807C20.2174 10.2872 20.2959 10.0966 20.4336 9.96045C20.5698 9.82314 20.7592 9.74463 20.9534 9.74463C21.1477 9.74463 21.3374 9.82314 21.4736 9.96045C21.6109 10.0978 21.6898 10.2872 21.6898 10.4807C21.6898 10.6749 21.6113 10.8643 21.4736 11.0016C21.3374 11.1382 21.1469 11.2167 20.9534 11.2167Z" fill="#FFCB00"/>
<path d="M20.9534 16.2216C20.7592 16.2216 20.5698 16.1431 20.4336 16.0065C20.2959 15.8692 20.2174 15.6798 20.2174 15.4855C20.2174 15.292 20.2959 15.1019 20.4336 14.9653C20.5698 14.828 20.7603 14.7495 20.9534 14.7495C21.1469 14.7495 21.3374 14.828 21.4736 14.9653C21.6109 15.1019 21.6898 15.292 21.6898 15.4855C21.6898 15.6798 21.6113 15.8692 21.4736 16.0065C21.3374 16.1431 21.1469 16.2216 20.9534 16.2216Z" fill="#FFCB00"/>
<path d="M20.9534 21.2269C20.7592 21.2269 20.5698 21.1484 20.4336 21.0107C20.2959 20.8746 20.2174 20.6851 20.2174 20.4909C20.2174 20.2974 20.2959 20.1069 20.4336 19.9707C20.5698 19.833 20.7592 19.7549 20.9534 19.7549C21.1477 19.7549 21.3374 19.833 21.4736 19.9707C21.6109 20.108 21.6898 20.2974 21.6898 20.4909C21.6898 20.6851 21.6113 20.8746 21.4736 21.0107C21.3374 21.1484 21.1469 21.2269 20.9534 21.2269Z" fill="#FFCB00"/>
<path d="M20.9534 26.2313C20.7592 26.2313 20.5698 26.1528 20.4336 26.0155C20.2959 25.8789 20.2174 25.6895 20.2174 25.4953C20.2174 25.3018 20.2959 25.1117 20.4336 24.9751C20.5698 24.8378 20.7592 24.7593 20.9534 24.7593C21.1469 24.7593 21.3374 24.8378 21.4736 24.9751C21.6109 25.1117 21.6898 25.3018 21.6898 25.4953C21.6898 25.6895 21.6113 25.8789 21.4736 26.0155C21.3374 26.1528 21.1469 26.2313 20.9534 26.2313Z" fill="#FFCB00"/>
<path d="M20.9534 31.2362C20.7592 31.2362 20.5698 31.1577 20.4336 31.0204C20.2959 30.8838 20.2174 30.6944 20.2174 30.5002C20.2174 30.3059 20.2959 30.1165 20.4336 29.98C20.5698 29.8427 20.7592 29.7642 20.9534 29.7642C21.1477 29.7642 21.3374 29.8427 21.4736 29.98C21.6109 30.1165 21.6898 30.3059 21.6898 30.5002C21.6898 30.6944 21.6113 30.8838 21.4736 31.0204C21.3374 31.1577 21.1477 31.2362 20.9534 31.2362Z" fill="#FFCB00"/>
<path d="M30.9612 3.85633C30.7678 3.85633 30.5772 3.77782 30.441 3.64051C30.3037 3.50395 30.2252 3.31454 30.2252 3.1203C30.2252 2.92606 30.3034 2.73666 30.441 2.6001C30.5772 2.46279 30.7666 2.38428 30.9612 2.38428C31.1555 2.38428 31.3449 2.46279 31.4811 2.6001C31.6188 2.73666 31.6969 2.92718 31.6969 3.1203C31.6969 3.31343 31.6188 3.50395 31.4811 3.64051C31.3449 3.77782 31.1544 3.85633 30.9612 3.85633Z" fill="white"/>
<path d="M30.9612 8.8617C30.7678 8.8617 30.5772 8.78319 30.441 8.64588C30.3037 8.50932 30.2252 8.31992 30.2252 8.12568C30.2252 7.93144 30.3034 7.74203 30.441 7.60547C30.5772 7.46816 30.7678 7.38965 30.9612 7.38965C31.1544 7.38965 31.3449 7.46816 31.4811 7.60547C31.6188 7.74203 31.6969 7.93255 31.6969 8.12568C31.6969 8.3188 31.6188 8.50932 31.4811 8.64588C31.3438 8.78319 31.1544 8.8617 30.9612 8.8617Z" fill="white"/>
<path d="M30.9612 13.8656C30.7678 13.8656 30.5772 13.7871 30.441 13.6498C30.3037 13.5132 30.2252 13.3242 30.2252 13.1296C30.2252 12.9353 30.3034 12.7459 30.441 12.6097C30.5772 12.4721 30.7666 12.3936 30.9612 12.3936C31.1555 12.3936 31.3449 12.4721 31.4811 12.6097C31.6188 12.7459 31.6969 12.9365 31.6969 13.1296C31.6969 13.3231 31.6188 13.5132 31.4811 13.6498C31.3449 13.7871 31.1544 13.8656 30.9612 13.8656Z" fill="white"/>
<path d="M30.9612 18.8705C30.7678 18.8705 30.5772 18.792 30.441 18.6547C30.3037 18.5181 30.2252 18.3291 30.2252 18.1348C30.2252 17.9402 30.3034 17.7508 30.441 17.6146C30.5772 17.477 30.7678 17.3984 30.9612 17.3984C31.1544 17.3984 31.3438 17.477 31.4811 17.6146C31.6188 17.7508 31.6969 17.9413 31.6969 18.1348C31.6969 18.328 31.6188 18.5181 31.4811 18.6547C31.3438 18.792 31.1544 18.8705 30.9612 18.8705Z" fill="white"/>
<path d="M31.5105 23.6282C31.6292 23.4949 31.6969 23.3193 31.6969 23.1403C31.6969 22.9461 31.6188 22.7567 31.4811 22.6205C31.3449 22.4828 31.1555 22.4043 30.9612 22.4043C30.7666 22.4043 30.5772 22.4828 30.441 22.6205C30.3037 22.7567 30.2252 22.9461 30.2252 23.1403C30.2252 23.3193 30.2929 23.4949 30.4116 23.6282H31.5105Z" fill="white"/>
<path d="M38.812 3.85633C38.6173 3.85633 38.4279 3.77782 38.2917 3.64051C38.1544 3.50395 38.0759 3.31454 38.0759 3.1203C38.0759 2.92681 38.1541 2.73666 38.2917 2.6001C38.4279 2.46279 38.6173 2.38428 38.812 2.38428C39.0051 2.38428 39.1956 2.46279 39.3318 2.6001C39.4695 2.73666 39.548 2.92718 39.548 3.1203C39.548 3.31343 39.4695 3.50395 39.3318 3.64051C39.1956 3.77782 39.0051 3.85633 38.812 3.85633Z" fill="white"/>
<path d="M38.8117 8.8617C38.6182 8.8617 38.4277 8.78319 38.2915 8.64588C38.1542 8.50932 38.0757 8.31917 38.0757 8.12568C38.0757 7.93218 38.1538 7.74203 38.2915 7.60547C38.4277 7.46816 38.6182 7.38965 38.8117 7.38965C39.0048 7.38965 39.1954 7.46816 39.3315 7.60547C39.4692 7.74203 39.5477 7.93255 39.5477 8.12568C39.5477 8.3188 39.4692 8.50932 39.3315 8.64588C39.1954 8.78319 39.0048 8.8617 38.8117 8.8617Z" fill="white"/>
<path d="M38.8117 13.8656C38.6182 13.8656 38.4277 13.7871 38.2915 13.6498C38.1542 13.5132 38.0757 13.3231 38.0757 13.1296C38.0757 12.9365 38.1538 12.7459 38.2915 12.6097C38.4277 12.4721 38.6182 12.3936 38.8117 12.3936C39.0048 12.3936 39.1942 12.4721 39.3315 12.6097C39.4692 12.7459 39.5477 12.9365 39.5477 13.1296C39.5477 13.3231 39.4692 13.5132 39.3315 13.6498C39.1942 13.7871 39.0048 13.8656 38.8117 13.8656Z" fill="white"/>
<path d="M38.812 18.8705C38.6173 18.8705 38.4279 18.792 38.2917 18.6547C38.1544 18.5181 38.0759 18.328 38.0759 18.1348C38.0759 17.9413 38.1541 17.7508 38.2917 17.6146C38.4279 17.477 38.6173 17.3984 38.812 17.3984C39.0051 17.3984 39.1956 17.477 39.3318 17.6146C39.4695 17.7508 39.548 17.9413 39.548 18.1348C39.548 18.328 39.4695 18.5181 39.3318 18.6547C39.1956 18.792 39.0051 18.8705 38.812 18.8705Z" fill="white"/>
<path d="M39.3609 23.6282C39.4796 23.4942 39.5477 23.3193 39.5477 23.1403C39.5477 22.9461 39.4692 22.7567 39.3315 22.6205C39.1954 22.4828 39.0048 22.4043 38.8117 22.4043C38.6182 22.4043 38.4277 22.4828 38.2915 22.6205C38.1542 22.7567 38.0757 22.9461 38.0757 23.1403C38.0757 23.3193 38.1434 23.4942 38.2621 23.6282H39.3609Z" fill="white"/>
<path d="M34.8893 6.21131C34.6958 6.21131 34.5053 6.1328 34.3691 5.99623C34.2318 5.85893 34.1533 5.66952 34.1533 5.47529C34.1533 5.28179 34.2314 5.09164 34.3691 4.95508C34.5053 4.81777 34.6958 4.73926 34.8893 4.73926C35.0835 4.73926 35.2729 4.81777 35.4091 4.95508C35.5468 5.09239 35.6253 5.28216 35.6253 5.47529C35.6253 5.66952 35.5468 5.85893 35.4091 5.99623C35.2729 6.1328 35.0824 6.21131 34.8893 6.21131Z" fill="white"/>
<path d="M34.8893 11.2167C34.6958 11.2167 34.5053 11.1382 34.3691 11.0016C34.2318 10.8643 34.1533 10.6749 34.1533 10.4807C34.1533 10.2872 34.2314 10.0966 34.3691 9.96045C34.5053 9.82314 34.6958 9.74463 34.8893 9.74463C35.0835 9.74463 35.2729 9.82314 35.4091 9.96045C35.5468 10.0978 35.6253 10.2872 35.6253 10.4807C35.6253 10.6738 35.5468 10.8643 35.4091 11.0016C35.2729 11.1382 35.0835 11.2167 34.8893 11.2167Z" fill="white"/>
<path d="M34.8893 16.2216C34.6958 16.2216 34.5064 16.1431 34.3691 16.0065C34.2318 15.8692 34.1533 15.6798 34.1533 15.4855C34.1533 15.292 34.2314 15.1019 34.3691 14.9653C34.5053 14.828 34.6958 14.7495 34.8893 14.7495C35.0835 14.7495 35.2729 14.828 35.4091 14.9653C35.5468 15.1026 35.6253 15.292 35.6253 15.4855C35.6253 15.6787 35.5468 15.8692 35.4091 16.0065C35.2718 16.1431 35.0824 16.2216 34.8893 16.2216Z" fill="white"/>
<path d="M34.8893 21.2255C34.6958 21.2255 34.5053 21.147 34.3691 21.0104C34.2318 20.8731 34.1533 20.6837 34.1533 20.4894C34.1533 20.2952 34.2314 20.1058 34.3691 19.9692C34.5053 19.8319 34.6958 19.7534 34.8893 19.7534C35.0824 19.7534 35.2729 19.8319 35.4091 19.9692C35.5468 20.1054 35.6253 20.2959 35.6253 20.4894C35.6253 20.6826 35.5468 20.8731 35.4091 21.0104C35.2729 21.147 35.0824 21.2255 34.8893 21.2255Z" fill="white"/>
<path d="M13.5773 35.7993H15.5271V39.9997H13.5773V35.7993Z" fill="#7F441C"/>
<path d="M46.2038 23.5354V23.5332C46.2038 23.5332 31.871 23.5332 27.047 23.5332L22.8622 27.7183C22.8689 30.009 24.04 31.8624 25.4837 31.8624H46.2038V31.8602C44.7782 31.8189 43.6303 29.9721 43.6303 27.6978C43.6303 25.4239 44.7782 23.5767 46.2038 23.5354Z" fill="#8A8C8E"/>
<path d="M32.6348 31.8624L40.9637 23.5332C39.8425 23.5332 38.6142 23.5332 37.3554 23.5332L29.0261 31.8624H32.6348Z" fill="#C7C8CA"/>
<path d="M30.4867 23.5332L23.5347 30.4856C24.0147 31.3307 24.7094 31.8624 25.4823 31.8624H25.7662L34.0954 23.5332C32.8306 23.5332 31.6016 23.5332 30.4867 23.5332Z" fill="#C7C8CA"/>
<path d="M43.6302 27.6978C43.6302 25.4239 44.7781 23.5767 46.2037 23.5354V23.5332C46.2037 23.5332 45.4475 23.5332 44.2252 23.5332L35.8959 31.8624H39.5046L43.6305 27.7361C43.6309 27.7231 43.6302 27.7108 43.6302 27.6978Z" fill="#C7C8CA"/>
<path d="M25.4841 23.5332C24.0359 23.5332 22.8622 25.3978 22.8622 27.6978C22.8622 27.7644 22.8634 27.8307 22.8652 27.8965L27.2285 23.5332C26.1468 23.5332 25.4871 23.5332 25.4841 23.5332Z" fill="#C7C8CA"/>
</g>
<defs>
<clipPath id="clip0_1619_86058">
<rect width="40" height="40" fill="white"/>
</clipPath>
</defs>
</svg>
