<svg width="32" height="32" viewBox="0 0 32 32" fill="none" xmlns="http://www.w3.org/2000/svg">
<g clip-path="url(#clip0_622_14019)">
<path d="M16 3C14.6155 3 13.2622 3.41054 12.111 4.17971C10.9599 4.94888 10.0627 6.04213 9.53285 7.32122C9.00303 8.6003 8.86441 10.0078 9.13451 11.3656C9.4046 12.7235 10.0713 13.9708 11.0503 14.9497C12.0292 15.9287 13.2765 16.5954 14.6344 16.8655C15.9922 17.1356 17.3997 16.997 18.6788 16.4672C19.9579 15.9373 21.0511 15.0401 21.8203 13.889C22.5895 12.7378 23 11.3845 23 10C23 8.14348 22.2625 6.36301 20.9497 5.05025C19.637 3.7375 17.8565 3 16 3ZM16 16.09C14.8027 16.09 13.6323 15.7353 12.6364 15.0708C11.6405 14.4062 10.8638 13.4615 10.4042 12.3559C9.94469 11.2504 9.82294 10.0334 10.0543 8.85874C10.2857 7.68404 10.8599 6.60421 11.7044 5.75553C12.549 4.90684 13.6259 4.32733 14.7995 4.09012C15.973 3.85292 17.1905 3.96865 18.2984 4.42273C19.4062 4.8768 20.3547 5.64885 21.0242 6.64146C21.6936 7.63407 22.0541 8.80274 22.06 10C22.064 10.7983 21.9101 11.5896 21.6074 12.3283C21.3046 13.067 20.8588 13.7386 20.2957 14.3045C19.7326 14.8704 19.0632 15.3194 18.326 15.6259C17.5888 15.9323 16.7983 16.09 16 16.09Z" fill="#2B2E63"/>
<path d="M19.0902 24.67C22.3602 19.74 26.0002 13.45 26.0002 10C26.0002 7.34784 24.9467 4.8043 23.0713 2.92893C21.1959 1.05357 18.6524 0 16.0002 0C13.3481 0 10.8045 1.05357 8.92917 2.92893C7.05381 4.8043 6.00024 7.34784 6.00024 10C6.00024 13.42 9.67024 19.71 12.9402 24.64C9.16024 24.99 5.12024 26.12 5.12024 28.23C5.09024 30.69 10.7102 32 16.0002 32C21.2902 32 26.9102 30.69 26.9102 28.26C26.9102 26.15 22.8702 25 19.0902 24.67ZM6.94024 10C6.94024 7.59714 7.89477 5.29269 9.59385 3.59361C11.2929 1.89453 13.5974 0.94 16.0002 0.94C18.4031 0.94 20.7075 1.89453 22.4066 3.59361C24.1057 5.29269 25.0602 7.59714 25.0602 10C25.0602 13.51 20.5302 20.77 17.8302 24.78C17.0502 26 16.3902 26.9 16.0002 27.44L15.8402 27.22C15.4502 26.66 14.8402 25.83 14.1902 24.83C11.4702 20.8 6.94024 13.54 6.94024 10ZM16.0002 31C9.84024 31 6.06024 29.39 6.06024 28.23C6.06024 27.07 8.91024 25.91 13.5302 25.55C13.7102 25.82 13.8802 26.08 14.0502 26.32L14.2602 26.62L14.4502 26.88C14.4502 26.97 14.5602 27.05 14.6102 27.13C15.2002 27.97 15.6102 28.48 15.6102 28.49C15.6571 28.5484 15.7165 28.5955 15.784 28.6279C15.8515 28.6603 15.9254 28.6771 16.0002 28.6771C16.0751 28.6771 16.149 28.6603 16.2165 28.6279C16.284 28.5955 16.3434 28.5484 16.3902 28.49C16.3902 28.49 17.0002 27.69 18.0002 26.35L18.5202 25.59C23.1402 25.95 25.9902 27.25 25.9902 28.27C25.9902 29.29 22.1602 31 16.0002 31Z" fill="#2B2E63"/>
<path d="M16.0004 1C13.6079 0.999948 11.3125 1.94624 9.61516 3.63236C7.9178 5.31849 6.95627 7.60755 6.94043 10C6.94043 13.51 11.4704 20.77 14.1704 24.78C14.8504 25.78 15.4304 26.61 15.8204 27.17L15.9804 27.39C16.3704 26.85 17.0304 25.92 17.8104 24.76C20.5104 20.76 25.0404 13.49 25.0404 9.98C25.0194 7.59449 24.0583 5.31355 22.3658 3.6323C20.6733 1.95104 18.386 1.00517 16.0004 1ZM16.0004 17.1C14.616 17.1 13.2626 16.6895 12.1114 15.9203C10.9603 15.1511 10.0631 14.0579 9.53327 12.7788C9.00346 11.4997 8.86484 10.0922 9.13493 8.73437C9.40503 7.3765 10.0717 6.12922 11.0507 5.15025C12.0297 4.17128 13.2769 3.5046 14.6348 3.2345C15.9927 2.96441 17.4001 3.10303 18.6792 3.63284C19.9583 4.16266 21.0515 5.05986 21.8207 6.21101C22.5899 7.36215 23.0004 8.71553 23.0004 10.1C22.9925 11.9513 22.2515 13.7241 20.9396 15.0304C19.6277 16.3366 17.8518 17.07 16.0004 17.07V17.1Z" fill="#F26E61"/>
<path d="M16.0001 4C14.799 4.00006 13.625 4.35704 12.6272 5.02561C11.6294 5.69418 10.8528 6.64419 10.3959 7.75501C9.93906 8.86583 9.82261 10.0874 10.0613 11.2645C10.3001 12.4416 10.8832 13.5213 11.7367 14.3663C12.5903 15.2114 13.6756 15.7838 14.8551 16.0108C16.0345 16.2378 17.2549 16.1092 18.3611 15.6413C19.4673 15.1734 20.4095 14.3874 21.0681 13.3829C21.7267 12.3785 22.072 11.201 22.0601 10C22.0443 8.40321 21.3989 6.87719 20.2641 5.75367C19.1294 4.63014 17.597 3.99992 16.0001 4ZM20.1201 10.58H19.3901V13.16C19.3901 13.29 19.3385 13.4146 19.2466 13.5065C19.1547 13.5984 19.0301 13.65 18.9001 13.65H16.7701C16.6402 13.65 16.5155 13.5984 16.4237 13.5065C16.3318 13.4146 16.2801 13.29 16.2801 13.16V11.6H15.7101V13.14C15.7115 13.2039 15.7 13.2674 15.6765 13.3268C15.653 13.3862 15.6178 13.4403 15.5731 13.4859C15.5284 13.5315 15.4751 13.5678 15.4162 13.5925C15.3573 13.6173 15.294 13.63 15.2301 13.63H13.1001C12.9702 13.63 12.8455 13.5784 12.7537 13.4865C12.6618 13.3946 12.6101 13.27 12.6101 13.14V10.56H11.8801C11.784 10.5597 11.69 10.5311 11.61 10.4777C11.53 10.4244 11.4674 10.3486 11.4301 10.26C11.3957 10.1704 11.3877 10.0728 11.4072 9.97883C11.4267 9.88485 11.4729 9.79846 11.5401 9.73L15.6601 5.61C15.7047 5.56525 15.7577 5.52975 15.8161 5.50552C15.8744 5.48129 15.937 5.46882 16.0001 5.46882C16.0633 5.46882 16.1259 5.48129 16.1842 5.50552C16.2426 5.52975 16.2955 5.56525 16.3401 5.61L18.1901 7.46V7C18.1901 6.93612 18.2029 6.87287 18.2276 6.81397C18.2524 6.75507 18.2886 6.70171 18.3342 6.657C18.3799 6.6123 18.434 6.57715 18.4934 6.55363C18.5528 6.5301 18.6163 6.51867 18.6801 6.52C18.7435 6.51864 18.8066 6.53012 18.8654 6.55376C18.9243 6.5774 18.9777 6.6127 19.0226 6.65755C19.0674 6.7024 19.1027 6.75586 19.1264 6.81471C19.15 6.87356 19.1615 6.93659 19.1601 7V8.43L20.4601 9.73C20.5274 9.79846 20.5736 9.88485 20.5931 9.97883C20.6126 10.0728 20.6046 10.1704 20.5701 10.26C20.5328 10.3486 20.4703 10.4244 20.3903 10.4777C20.3103 10.5311 20.2163 10.5597 20.1201 10.56V10.58Z" fill="#D7E9F2"/>
<path d="M25.9396 28.26C25.9396 29.42 22.1596 31 15.9996 31C9.83957 31 6.05957 29.39 6.05957 28.23C6.05957 27.07 8.90957 25.91 13.5296 25.55C13.7096 25.82 13.8796 26.08 14.0496 26.32L14.2596 26.6201L14.4496 26.88C14.4496 26.97 14.5596 27.05 14.6096 27.13C15.1996 27.97 15.6096 28.48 15.6096 28.49C15.6564 28.5484 15.7158 28.5956 15.7833 28.628C15.8508 28.6603 15.9247 28.6772 15.9996 28.6772C16.0744 28.6772 16.1484 28.6603 16.2159 28.628C16.2834 28.5956 16.3427 28.5484 16.3896 28.49C16.3896 28.49 16.9996 27.6901 17.9996 26.35L18.5196 25.59C23.0896 25.94 25.9396 27.24 25.9396 28.26Z" fill="#51BF9F"/>
<path d="M16.0004 1C13.6079 0.999948 11.3125 1.94624 9.61516 3.63236C7.9178 5.31849 6.95627 7.60755 6.94043 10C6.94043 13.51 11.4704 20.77 14.1704 24.78C14.8504 25.78 15.4304 26.61 15.8204 27.17L15.9804 27.39C16.3704 26.85 17.0304 25.92 17.8104 24.76C20.5104 20.76 25.0404 13.49 25.0404 9.98C25.0194 7.59449 24.0583 5.31355 22.3658 3.6323C20.6733 1.95104 18.386 1.00517 16.0004 1ZM17.4104 24.55C16.8504 25.39 16.3604 26.1 16.0004 26.61L14.6104 24.61C10.0004 17.78 7.44043 12.5 7.44043 10C7.44043 7.72975 8.34228 5.55248 9.9476 3.94717C11.5529 2.34185 13.7302 1.44 16.0004 1.44C18.2707 1.44 20.448 2.34185 22.0533 3.94717C23.6586 5.55248 24.5604 7.72975 24.5604 10C24.5604 12.5 22.0004 17.78 17.4104 24.52V24.55Z" fill="#E15E5A"/>
<path d="M16.0001 4C14.799 4.00006 13.625 4.35704 12.6272 5.02561C11.6294 5.69418 10.8528 6.64419 10.3959 7.75501C9.93906 8.86583 9.82261 10.0874 10.0613 11.2645C10.3001 12.4416 10.8832 13.5213 11.7367 14.3663C12.5903 15.2114 13.6756 15.7838 14.8551 16.0108C16.0345 16.2378 17.2549 16.1092 18.3611 15.6413C19.4673 15.1734 20.4095 14.3874 21.0681 13.3829C21.7267 12.3785 22.072 11.201 22.0601 10C22.0443 8.40321 21.3989 6.87719 20.2641 5.75367C19.1294 4.63014 17.597 3.99992 16.0001 4ZM16.0001 15.61C14.9026 15.61 13.8296 15.2851 12.9164 14.6763C12.0032 14.0676 11.2906 13.2022 10.8683 12.1891C10.4461 11.1761 10.3331 10.0607 10.5436 8.98356C10.7541 7.90641 11.2787 6.91566 12.0513 6.13612C12.8239 5.35659 13.8099 4.82315 14.8851 4.603C15.9603 4.38285 17.0767 4.48585 18.0934 4.89902C19.1102 5.31218 19.982 6.01704 20.5989 6.92477C21.2158 7.83251 21.5503 8.90252 21.5601 10C21.5641 10.7327 21.4232 11.4589 21.1455 12.1369C20.8679 12.815 20.459 13.4314 19.9423 13.9509C19.4256 14.4704 18.8113 14.8826 18.1348 15.1639C17.4583 15.4452 16.7328 15.59 16.0001 15.59V15.61Z" fill="#B7DAE7"/>
<path d="M25.9396 28.26C25.9396 29.42 22.1596 31 15.9996 31C9.83957 31 6.05957 29.39 6.05957 28.23C6.05957 27.07 8.90957 25.91 13.5296 25.55C13.6296 25.7 13.7196 25.85 13.8196 25.98C9.24957 26.41 6.55957 27.8 6.55957 28.23C6.55957 28.66 9.55957 30.5 15.9996 30.5C22.4396 30.5 25.4396 28.76 25.4396 28.23C25.4396 27.7 22.7496 26.44 18.1796 26L18.4696 25.57C23.0896 25.94 25.9396 27.24 25.9396 28.26Z" fill="#3DA580"/>
<path d="M20.4598 9.72993L19.1598 8.42993V6.99993C19.1612 6.93652 19.1497 6.87349 19.1261 6.81464C19.1024 6.75579 19.0671 6.70233 19.0223 6.65748C18.9774 6.61263 18.924 6.57733 18.8651 6.55369C18.8063 6.53005 18.7432 6.51856 18.6798 6.51993C18.616 6.5186 18.5525 6.53003 18.4931 6.55356C18.4337 6.57708 18.3796 6.61223 18.3339 6.65693C18.2883 6.70164 18.2521 6.755 18.2273 6.8139C18.2026 6.8728 18.1898 6.93604 18.1898 6.99993V7.50993L16.3398 5.60993C16.2952 5.56518 16.2423 5.52967 16.1839 5.50545C16.1256 5.48122 16.063 5.46875 15.9998 5.46875C15.9367 5.46875 15.8741 5.48122 15.8158 5.50545C15.7574 5.52967 15.7044 5.56518 15.6598 5.60993L11.5398 9.72993C11.4726 9.79839 11.4264 9.88477 11.4069 9.97876C11.3874 10.0727 11.3954 10.1703 11.4298 10.2599C11.4671 10.3486 11.5297 10.4243 11.6097 10.4776C11.6897 10.531 11.7837 10.5596 11.8798 10.5599H12.6098V13.1399C12.6098 13.2699 12.6615 13.3945 12.7534 13.4864C12.8453 13.5783 12.9699 13.6299 13.0998 13.6299H15.2298C15.2937 13.6299 15.357 13.6172 15.4159 13.5925C15.4748 13.5677 15.5281 13.5315 15.5728 13.4858C15.6175 13.4402 15.6527 13.3861 15.6762 13.3267C15.6997 13.2673 15.7112 13.2038 15.7098 13.1399V11.5999H16.2798V13.1399C16.2798 13.2699 16.3315 13.3945 16.4234 13.4864C16.5153 13.5783 16.6399 13.6299 16.7698 13.6299H18.8998C19.0298 13.6299 19.1544 13.5783 19.2463 13.4864C19.3382 13.3945 19.3898 13.2699 19.3898 13.1399V10.5599H20.1198C20.216 10.5596 20.31 10.531 20.39 10.4776C20.47 10.4243 20.5325 10.3486 20.5698 10.2599C20.6043 10.1703 20.6123 10.0727 20.5928 9.97876C20.5733 9.88477 20.5271 9.79839 20.4598 9.72993ZM18.8998 9.58993C18.7716 9.59255 18.6495 9.64532 18.5598 9.73693C18.4701 9.82855 18.4198 9.95169 18.4198 10.0799V12.6599H17.2498V11.1099C17.2512 11.0465 17.2397 10.9835 17.2161 10.9246C17.1924 10.8658 17.1571 10.8123 17.1123 10.7675C17.0674 10.7226 17.014 10.6873 16.9551 10.6637C16.8963 10.64 16.8332 10.6286 16.7698 10.6299H15.2298C15.166 10.6286 15.1025 10.64 15.0431 10.6636C14.9837 10.6871 14.9296 10.7222 14.8839 10.7669C14.8383 10.8116 14.8021 10.865 14.7773 10.9239C14.7526 10.9828 14.7398 11.046 14.7398 11.1099V12.6599H13.5798V10.0799C13.5799 9.95169 13.5296 9.82855 13.4399 9.73693C13.3501 9.64532 13.2281 9.59255 13.0998 9.58993L15.9998 6.63993L18.9498 9.63993L18.8998 9.58993Z" fill="#2B2E63"/>
<path d="M18.9996 9.58989H18.8996C18.7714 9.59251 18.6493 9.64529 18.5596 9.7369C18.4698 9.82851 18.4196 9.95165 18.4196 10.0799V12.6599H17.2496V11.1099C17.251 11.0465 17.2395 10.9835 17.2159 10.9246C17.1922 10.8658 17.1569 10.8123 17.1121 10.7674C17.0672 10.7226 17.0138 10.6873 16.9549 10.6637C16.896 10.64 16.833 10.6285 16.7696 10.6299H15.2296C15.1657 10.6286 15.1022 10.64 15.0428 10.6635C14.9835 10.687 14.9294 10.7222 14.8837 10.7669C14.8381 10.8116 14.8018 10.865 14.7771 10.9239C14.7523 10.9828 14.7396 11.046 14.7396 11.1099V12.6599H13.5796V10.0799C13.5796 9.95165 13.5294 9.82851 13.4396 9.7369C13.3499 9.64529 13.2278 9.59251 13.0996 9.58989L15.9996 6.63989L18.9996 9.58989Z" fill="#FFDC7C"/>
<path d="M15.9998 6.63989L13.0498 9.63989C13.178 9.64251 13.3001 9.69529 13.3898 9.7869C13.4796 9.87851 13.5298 10.0017 13.5298 10.1299V12.7099H14.6898V11.1099C14.6898 11.046 14.7025 10.9828 14.7273 10.9239C14.752 10.865 14.7883 10.8116 14.8339 10.7669C14.8795 10.7222 14.9336 10.687 14.993 10.6635C15.0524 10.64 15.1159 10.6286 15.1798 10.6299H16.7198C16.7832 10.6285 16.8462 10.64 16.9051 10.6637C16.9639 10.6873 17.0174 10.7226 17.0623 10.7674C17.1071 10.8123 17.1424 10.8658 17.166 10.9246C17.1897 10.9835 17.2012 11.0465 17.1998 11.1099V12.6599H18.3698V10.0799C18.3698 9.95165 18.42 9.82851 18.5098 9.7369C18.5995 9.64529 18.7216 9.59251 18.8498 9.58989H18.9998L15.9998 6.63989ZM18.1698 10.0799V12.4099H17.4998V11.1099C17.4998 11.014 17.4809 10.9191 17.4442 10.8305C17.4075 10.742 17.3538 10.6615 17.286 10.5937C17.2182 10.5259 17.1377 10.4721 17.0492 10.4355C16.9606 10.3988 16.8657 10.3799 16.7698 10.3799H15.2298C15.0353 10.3799 14.8485 10.4565 14.71 10.5931C14.5716 10.7297 14.4924 10.9154 14.4898 11.1099V12.4099H13.8298V10.0799C13.832 9.96201 13.8048 9.84543 13.7507 9.74067C13.6966 9.63592 13.6172 9.5463 13.5198 9.47989L15.9998 6.99989L18.4798 9.47989C18.3824 9.5463 18.303 9.63592 18.2489 9.74067C18.1948 9.84543 18.1676 9.96201 18.1698 10.0799Z" fill="#ECC25D"/>
</g>
<defs>
<clipPath id="clip0_622_14019">
<rect width="32" height="32" fill="white"/>
</clipPath>
</defs>
</svg>
