<svg width="32" height="19" viewBox="0 0 32 19" fill="none" xmlns="http://www.w3.org/2000/svg">
<g clip-path="url(#clip0_622_14011)">
<path fill-rule="evenodd" clip-rule="evenodd" d="M0 2.002C0 0.89725 0.9552 0 2.1336 0H29.8667C31.0424 0 32 0.89625 32 2.002V3.75H0V2.002Z" fill="#227FBB"/>
<path fill-rule="evenodd" clip-rule="evenodd" d="M0 16.998C0 18.1037 0.9576 19 2.1336 19H29.8667C31.0451 19 32.0003 18.1025 32.0003 16.998V15.25H0V16.998Z" fill="#E87E04"/>
<path fill-rule="evenodd" clip-rule="evenodd" d="M0 3.75H32V15.25H0V3.75Z" fill="#F4F4F4"/>
<path fill-rule="evenodd" clip-rule="evenodd" d="M22.3295 5.58425C21.8807 5.423 21.1778 5.25 20.3002 5.25C18.0626 5.25 16.4866 6.329 16.473 7.8755C16.4604 9.01875 17.5983 9.6565 18.457 10.037C19.3386 10.427 19.6348 10.6758 19.6306 11.0238C19.6252 11.5573 18.9266 11.8007 18.2759 11.8007C17.3698 11.8007 16.8882 11.6803 16.1444 11.3833L15.8527 11.2568L15.5348 13.0378C16.0636 13.2598 17.0418 13.4522 18.0572 13.4622C20.4375 13.4622 21.9826 12.3955 22.0002 10.744C22.0087 9.839 21.4055 9.15025 20.0991 8.5825C19.3076 8.2145 18.8228 7.96875 18.8282 7.59625C18.8282 7.2655 19.2383 6.91175 20.1247 6.91175C20.8652 6.90075 21.4015 7.0555 21.8196 7.21675L22.0223 7.3085L22.3295 5.58425ZM28.1359 5.39575H26.386C25.8442 5.39575 25.4386 5.5375 25.2004 6.05575L21.8378 13.3465H24.2154C24.2154 13.3465 24.6042 12.3665 24.6919 12.151C24.9519 12.151 27.2618 12.1545 27.5919 12.1545C27.6596 12.433 27.8674 13.3465 27.8674 13.3465H29.9687L28.1359 5.39575ZM25.3439 10.5238C25.5308 10.0655 26.2458 8.29975 26.2458 8.29975C26.2324 8.321 26.4316 7.83925 26.546 7.5405L26.6991 8.2265L27.2234 10.5238H25.3436H25.3439ZM11.8535 13.344L13.2692 5.38825H15.5335L14.117 13.344H11.8535ZM9.9543 5.394L7.7375 10.8193L7.50123 9.71675C7.0887 8.446 5.80257 7.06875 4.36523 6.37925L6.39243 13.3372L8.78817 13.3348L12.353 5.394H9.9543Z" fill="#227FBB"/>
<path fill-rule="evenodd" clip-rule="evenodd" d="M5.68053 5.38916H2.02907L2 5.55466C4.8408 6.21316 6.72027 7.80466 7.50053 9.71666L6.70667 6.06066C6.5696 5.55691 6.172 5.40666 5.68 5.38916" fill="#E87E04"/>
</g>
<defs>
<clipPath id="clip0_622_14011">
<rect width="32" height="19" fill="white"/>
</clipPath>
</defs>
</svg>
