<svg width="36" height="36" viewBox="0 0 36 36" fill="none" xmlns="http://www.w3.org/2000/svg">
<path d="M21.824 10.232H14.184C12.008 10.232 10.232 12 10.232 14.184V21.824C10.232 24 12 25.776 14.184 25.776H21.824C24 25.776 25.776 24.008 25.776 21.824V14.184C25.768 12 24 10.232 21.824 10.232ZM18 23.112C15.184 23.112 12.888 20.816 12.888 18C12.888 15.184 15.184 12.888 18 12.888C20.816 12.888 23.112 15.184 23.112 18C23.112 20.816 20.816 23.112 18 23.112ZM23.368 13.456C22.888 13.456 22.504 13.072 22.504 12.592C22.504 12.112 22.888 11.728 23.368 11.728C23.848 11.728 24.232 12.112 24.232 12.592C24.232 13.072 23.848 13.456 23.368 13.456Z" fill="white"/>
<path d="M21.1075 18.0378C21.1281 16.3235 19.7551 14.9171 18.0408 14.8966C16.3265 14.876 14.9201 16.249 14.8995 17.9633C14.8789 19.6776 16.252 21.084 17.9663 21.1046C19.6806 21.1251 21.0869 19.7521 21.1075 18.0378Z" fill="white"/>
<path d="M18 0C8.056 0 0 8.056 0 18C0 27.944 8.056 36 18 36C27.944 36 36 27.944 36 18C36 8.056 27.944 0 18 0ZM28 21.824C28 25.232 25.232 28 21.824 28H14.184C10.776 28 8.008 25.232 8.008 21.824V14.184C8.008 10.776 10.776 8.008 14.184 8.008H21.824C25.232 8.008 28 10.776 28 14.184V21.824Z" fill="white"/>
</svg>
