<svg width="36" height="36" viewBox="0 0 36 36" fill="none" >
<path d="M18 0C8.056 0 0 8.056 0 18C0 27.944 8.056 36 18 36C27.944 36 36 27.944 36 18C36 8.056 27.944 0 18 0ZM12.904 28H8.12V14.624H12.904V28ZM10.512 12.784C9.192 12.784 8.12 11.712 8.12 10.392C8.12 9.072 9.192 8 10.512 8C11.832 8 12.904 9.072 12.904 10.392C12.904 11.712 11.832 12.784 10.512 12.784ZM27.888 28H23.944C23.944 28 23.968 20.2 23.984 19.96C24.008 19.72 23.768 17.752 21.752 17.752C19.736 17.752 19.104 19.192 19.104 20.288V28H15.368V14.624H19.064V16.48C19.064 16.48 19.632 14.608 23.048 14.608C25.864 14.608 27.88 15.704 27.88 18.72C27.888 20.392 27.888 28 27.888 28Z" fill="white"/>
</svg>
