<svg width="22" height="15" viewBox="0 0 22 15" fill="none" xmlns="http://www.w3.org/2000/svg">
<path d="M0 1.76297V1.25C0 0.918479 0.144866 0.600537 0.402728 0.366117C0.660591 0.131696 1.01033 0 1.375 0L20.625 0C20.9897 0 21.3394 0.131696 21.5973 0.366117C21.8551 0.600537 22 0.918479 22 1.25V1.76297L11 8.01297L0 1.76297ZM11.3644 9.28016C11.2551 9.34217 11.1288 9.37505 11 9.37505C10.8712 9.37505 10.7449 9.34217 10.6356 9.28016L0 3.23703V13.75C0 14.0815 0.144866 14.3995 0.402728 14.6339C0.660591 14.8683 1.01033 15 1.375 15H20.625C20.9897 15 21.3394 14.8683 21.5973 14.6339C21.8551 14.3995 22 14.0815 22 13.75V3.23703L11.3644 9.28016Z" fill="white"/>
</svg>
