<svg width="24" height="22" viewBox="0 0 24 22" fill="none" xmlns="http://www.w3.org/2000/svg">
<path d="M22.5 9.49993H4.71L10.155 2.95992C10.4096 2.6536 10.5321 2.25868 10.4955 1.86204C10.459 1.4654 10.2663 1.09953 9.96 0.844925C9.65368 0.590317 9.25875 0.467825 8.86211 0.504394C8.46548 0.540964 8.09961 0.7336 7.845 1.03993L0.345 10.0399C0.294541 10.1115 0.249419 10.1867 0.21 10.2649C0.21 10.3399 0.21 10.3849 0.105 10.4599C0.0370105 10.6319 0.00141168 10.815 0 10.9999C0.00141168 11.1849 0.0370105 11.3679 0.105 11.5399C0.105 11.6149 0.105 11.6599 0.21 11.7349C0.249419 11.8131 0.294541 11.8883 0.345 11.9599L7.845 20.9599C7.98603 21.1292 8.16264 21.2654 8.36227 21.3588C8.5619 21.4521 8.77963 21.5003 9 21.4999C9.35048 21.5006 9.69013 21.3785 9.96 21.1549C10.1119 21.029 10.2374 20.8743 10.3295 20.6998C10.4215 20.5253 10.4782 20.3343 10.4963 20.1379C10.5144 19.9414 10.4936 19.7433 10.435 19.5549C10.3765 19.3665 10.2813 19.1915 10.155 19.0399L4.71 12.4999H22.5C22.8978 12.4999 23.2794 12.3419 23.5607 12.0606C23.842 11.7793 24 11.3977 24 10.9999C24 10.6021 23.842 10.2206 23.5607 9.93927C23.2794 9.65796 22.8978 9.49993 22.5 9.49993Z" fill="black"/>
</svg>
