<svg width="40" height="40" viewBox="0 0 35 32" fill="none" xmlns="http://www.w3.org/2000/svg">
<path d="M17.4735 29.3325V32.0003L0 18.5884V15.9399L17.4735 29.3325Z" fill="#8FC105"/>
<path d="M17.4771 29.3321V31.9998L34.9512 18.5879V15.9395L17.4771 29.3321Z" fill="#4DA004"/>
<path d="M0 15.9399L17.4735 29.3325L35 15.9399L17.5 2.54785L0 15.9399Z" fill="#A7DD12"/>
<path d="M0 15.9399L17.4735 29.3325L35 15.9399" fill="#98D80B"/>
<path d="M17.1527 7.96321L18.7752 1.70508L16.334 7.35868L17.1527 7.96321Z" fill="#4DA004"/>
<path d="M17.1345 7.98677L17.9535 7.37012L18.7571 1.72949L17.1345 7.98677Z" fill="#2F9106"/>
<path d="M15.1909 7.37398L16.813 1.1167L14.3719 6.76987L15.1909 7.37398Z" fill="#4DA004"/>
<path d="M15.191 7.37398L16.0096 6.75691L16.8131 1.1167L15.191 7.37398Z" fill="#2F9106"/>
<path d="M15.803 7.81323L17.6356 0.746582L14.8782 7.13121L15.803 7.81323Z" fill="#4DA004"/>
<path d="M15.783 7.83797L16.708 7.14095L17.6155 0.770996L15.783 7.83797Z" fill="#2F9106"/>
<path d="M16.5657 8.39924L18.7434 0L15.4665 7.58827L16.5657 8.39924Z" fill="#4DA004"/>
<path d="M16.5462 8.42403L17.6457 7.59595L18.724 0.0249023L16.5462 8.42403Z" fill="#2F9106"/>
<path d="M19.3275 9.64052L20.9499 3.38281L18.5084 9.03599L19.3275 9.64052Z" fill="#6AC414"/>
<path d="M19.3275 9.64052L20.1465 9.02302L20.95 3.38281L19.3275 9.64052Z" fill="#4BB70B"/>
<path d="M17.3838 9.02724L19.0064 2.76953L16.5649 8.42313L17.3838 9.02724Z" fill="#6AC414"/>
<path d="M17.384 9.02724L18.203 8.41016L19.0065 2.76953L17.384 9.02724Z" fill="#4BB70B"/>
<path d="M17.9662 9.47133L19.7984 2.40479L17.0414 8.78931L17.9662 9.47133Z" fill="#6AC414"/>
<path d="M17.9685 9.47133L18.8934 8.77464L19.8008 2.40479L17.9685 9.47133Z" fill="#4BB70B"/>
<path d="M18.7404 10.0769L20.9179 1.67773L17.6409 9.2659L18.7404 10.0769Z" fill="#6AC414"/>
<path d="M18.7393 10.0769L19.8384 9.24793L20.9168 1.67773L18.7393 10.0769Z" fill="#4BB70B"/>
<path d="M20.7196 10.6652L22.3421 4.4082L19.9009 10.061L20.7196 10.6652Z" fill="#4DA004"/>
<path d="M20.7014 10.6889L21.5204 10.0718L22.3239 4.43164L20.7014 10.6889Z" fill="#2F9106"/>
<path d="M18.7578 10.0766L20.38 3.81885L17.9388 9.47245L18.7578 10.0766Z" fill="#4DA004"/>
<path d="M18.7579 10.0766L19.5765 9.45948L20.3801 3.81885L18.7579 10.0766Z" fill="#2F9106"/>
<path d="M19.3699 10.5154L21.2025 3.44873L18.4451 9.83336L19.3699 10.5154Z" fill="#4DA004"/>
<path d="M19.3499 10.5397L20.2749 9.843L21.1824 3.47314L19.3499 10.5397Z" fill="#2F9106"/>
<path d="M20.1326 11.1017L22.3103 2.70215L19.0334 10.2904L20.1326 11.1017Z" fill="#4DA004"/>
<path d="M20.1132 11.1254L21.2127 10.2969L22.291 2.72656L20.1132 11.1254Z" fill="#2F9106"/>
<path d="M22.8944 12.3427L24.5168 6.08496L22.0753 11.7386L22.8944 12.3427Z" fill="#6AC414"/>
<path d="M22.8944 12.3427L23.7134 11.7256L24.5169 6.08496L22.8944 12.3427Z" fill="#4BB70B"/>
<path d="M20.9507 11.729L22.5733 5.47168L20.1318 11.1244L20.9507 11.729Z" fill="#6AC414"/>
<path d="M20.9509 11.729L21.7699 11.1115L22.5734 5.47168L20.9509 11.729Z" fill="#4BB70B"/>
<path d="M21.5332 12.1739L23.3653 5.10693L20.6084 11.4915L21.5332 12.1739Z" fill="#6AC414"/>
<path d="M21.5354 12.1739L22.4602 11.4768L23.3676 5.10693L21.5354 12.1739Z" fill="#4BB70B"/>
<path d="M22.3073 12.7785L24.4848 4.37891L21.2078 11.9671L22.3073 12.7785Z" fill="#6AC414"/>
<path d="M22.3062 12.7785L23.4053 11.95L24.4836 4.37891L22.3062 12.7785Z" fill="#4BB70B"/>
<path d="M24.2865 13.3671L25.909 7.10938L23.4678 12.763L24.2865 13.3671Z" fill="#4DA004"/>
<path d="M24.2683 13.3915L25.0873 12.7743L25.8905 7.13379L24.2683 13.3915Z" fill="#2F9106"/>
<path d="M22.3247 12.7782L23.9469 6.52051L21.5056 12.1737L22.3247 12.7782Z" fill="#4DA004"/>
<path d="M22.3248 12.7782L23.1434 12.1607L23.947 6.52051L22.3248 12.7782Z" fill="#2F9106"/>
<path d="M22.9368 13.218L24.7694 6.15186L22.012 12.5365L22.9368 13.218Z" fill="#4DA004"/>
<path d="M22.9168 13.2418L23.8418 12.5447L24.7493 6.1748L22.9168 13.2418Z" fill="#2F9106"/>
<path d="M23.6998 13.8034L25.8772 5.4043L22.6003 12.9925L23.6998 13.8034Z" fill="#4DA004"/>
<path d="M23.6801 13.8284L24.7795 12.9998L25.8579 5.42871L23.6801 13.8284Z" fill="#2F9106"/>
<path d="M26.4613 15.0448L28.0837 8.78711L25.6422 14.4407L26.4613 15.0448Z" fill="#6AC414"/>
<path d="M26.4613 15.0448L27.2803 14.4273L28.0838 8.78711L26.4613 15.0448Z" fill="#4BB70B"/>
<path d="M24.5176 14.4311L26.1402 8.17383L23.6987 13.8274L24.5176 14.4311Z" fill="#6AC414"/>
<path d="M24.5178 14.4311L25.3368 13.814L26.1403 8.17383L24.5178 14.4311Z" fill="#4BB70B"/>
<path d="M25.0997 14.8752L26.9323 7.80859L24.1752 14.1932L25.0997 14.8752Z" fill="#6AC414"/>
<path d="M25.0986 14.8752L26.0237 14.1781L26.9312 7.80859L25.0986 14.8752Z" fill="#4BB70B"/>
<path d="M25.8742 15.4813L28.0517 7.08203L24.7747 14.6703L25.8742 15.4813Z" fill="#6AC414"/>
<path d="M25.873 15.4813L26.9722 14.6523L28.0505 7.08203L25.873 15.4813Z" fill="#4BB70B"/>
<path d="M27.8534 16.0694L29.4759 9.8125L27.0347 15.4657L27.8534 16.0694Z" fill="#4DA004"/>
<path d="M27.8352 16.0938L28.6539 15.4761L29.4574 9.83594L27.8352 16.0938Z" fill="#2F9106"/>
<path d="M25.8913 15.4804L27.5138 9.22266L25.0726 14.8763L25.8913 15.4804Z" fill="#4DA004"/>
<path d="M25.8917 15.4804L26.7106 14.8632L27.5142 9.22266L25.8917 15.4804Z" fill="#2F9106"/>
<path d="M26.5037 15.9195L28.3363 8.85254L25.5789 15.2371L26.5037 15.9195Z" fill="#4DA004"/>
<path d="M26.4837 15.9436L27.4088 15.2469L28.3162 8.87695L26.4837 15.9436Z" fill="#2F9106"/>
<path d="M27.2667 16.5051L29.4441 8.10596L26.1672 15.6941L27.2667 16.5051Z" fill="#4DA004"/>
<path d="M27.2469 16.53L28.3464 15.7011L29.4247 8.13086L27.2469 16.53Z" fill="#2F9106"/>
<path d="M30.0282 17.7466L31.6507 11.4893L29.2091 17.1424L30.0282 17.7466Z" fill="#6AC414"/>
<path d="M30.0282 17.7466L30.8472 17.1295L31.6508 11.4893L30.0282 17.7466Z" fill="#4BB70B"/>
<path d="M28.0845 17.1333L29.7071 10.876L27.2656 16.5292L28.0845 17.1333Z" fill="#6AC414"/>
<path d="M28.0847 17.1333L28.9037 16.5161L29.7072 10.876L28.0847 17.1333Z" fill="#4BB70B"/>
<path d="M28.6666 17.5777L30.4992 10.5107L27.7421 16.8954L28.6666 17.5777Z" fill="#6AC414"/>
<path d="M28.6655 17.5777L29.5906 16.8807L30.4981 10.5107L28.6655 17.5777Z" fill="#4BB70B"/>
<path d="M29.4411 18.1824L31.6186 9.78271L28.3416 17.371L29.4411 18.1824Z" fill="#6AC414"/>
<path d="M29.44 18.1824L30.5391 17.3538L31.6175 9.78271L29.44 18.1824Z" fill="#4BB70B"/>
<path d="M15.7193 9.03815L17.3417 2.78076L14.9006 8.43436L15.7193 9.03815Z" fill="#4DA004"/>
<path d="M15.7011 9.06294L16.5201 8.44587L17.3236 2.80566L15.7011 9.06294Z" fill="#2F9106"/>
<path d="M13.7536 8.45009L15.3758 2.19238L12.9347 7.84556L13.7536 8.45009Z" fill="#4DA004"/>
<path d="M13.7538 8.45009L14.5725 7.83259L15.376 2.19238L13.7538 8.45009Z" fill="#2F9106"/>
<path d="M14.3695 8.88924L16.2021 1.82227L13.4448 8.20689L14.3695 8.88924Z" fill="#4DA004"/>
<path d="M14.3495 8.91414L15.2747 8.21702L16.1821 1.84717L14.3495 8.91414Z" fill="#2F9106"/>
<path d="M15.1322 9.4753L17.31 1.07617L14.033 8.66444L15.1322 9.4753Z" fill="#4DA004"/>
<path d="M15.1128 9.50025L16.2122 8.67132L17.2905 1.10059L15.1128 9.50025Z" fill="#2F9106"/>
<path d="M17.8939 10.7167L19.5164 4.45898L17.075 10.1126L17.8939 10.7167Z" fill="#6AC414"/>
<path d="M17.8941 10.7167L18.713 10.0992L19.5166 4.45898L17.8941 10.7167Z" fill="#4BB70B"/>
<path d="M15.9467 10.1026L17.5692 3.8457L15.1277 9.49888L15.9467 10.1026Z" fill="#6AC414"/>
<path d="M15.9468 10.1026L16.7658 9.48548L17.5693 3.8457L15.9468 10.1026Z" fill="#4BB70B"/>
<path d="M16.5328 10.547L18.365 3.48047L15.608 9.86499L16.5328 10.547Z" fill="#6AC414"/>
<path d="M16.5314 10.547L17.4562 9.85032L18.3636 3.48047L16.5314 10.547Z" fill="#4BB70B"/>
<path d="M17.3068 11.1521L19.4843 2.75293L16.2074 10.3411L17.3068 11.1521Z" fill="#6AC414"/>
<path d="M17.3058 11.1521L18.405 10.3236L19.4833 2.75293L17.3058 11.1521Z" fill="#4BB70B"/>
<path d="M19.2862 11.7402L20.9087 5.48291L18.4674 11.1361L19.2862 11.7402Z" fill="#4DA004"/>
<path d="M19.268 11.7655L20.087 11.148L20.8902 5.50781L19.268 11.7655Z" fill="#2F9106"/>
<path d="M17.3205 11.1529L18.9427 4.896L16.5016 10.5492L17.3205 11.1529Z" fill="#4DA004"/>
<path d="M17.3207 11.1529L18.1394 10.5358L18.9429 4.896L17.3207 11.1529Z" fill="#2F9106"/>
<path d="M17.9364 11.591L19.769 4.52441L17.0117 10.909L17.9364 11.591Z" fill="#4DA004"/>
<path d="M17.9164 11.6154L18.8416 10.9187L19.749 4.54883L17.9164 11.6154Z" fill="#2F9106"/>
<path d="M18.6994 12.177L20.8772 3.77832L17.5999 11.3665L18.6994 12.177Z" fill="#4DA004"/>
<path d="M18.6797 12.202L19.7791 11.3735L20.8574 3.80273L18.6797 12.202Z" fill="#2F9106"/>
<path d="M21.4608 13.418L23.0833 7.16113L20.6418 12.8143L21.4608 13.418Z" fill="#6AC414"/>
<path d="M21.461 13.418L22.2799 12.8009L23.0835 7.16113L21.461 13.418Z" fill="#4BB70B"/>
<path d="M19.5136 12.8056L21.1362 6.54785L18.6946 12.2015L19.5136 12.8056Z" fill="#6AC414"/>
<path d="M19.5137 12.8056L20.3327 12.1885L21.1362 6.54785L19.5137 12.8056Z" fill="#4BB70B"/>
<path d="M20.0994 13.2497L21.932 6.18262L19.1749 12.5672L20.0994 13.2497Z" fill="#6AC414"/>
<path d="M20.0982 13.2497L21.0234 12.5526L21.9308 6.18262L20.0982 13.2497Z" fill="#4BB70B"/>
<path d="M20.8737 13.8543L23.0512 5.45459L19.7743 13.0429L20.8737 13.8543Z" fill="#6AC414"/>
<path d="M20.8727 13.8543L21.9719 13.0253L23.0502 5.45459L20.8727 13.8543Z" fill="#4BB70B"/>
<path d="M22.8531 14.4423L24.4756 8.18506L22.0344 13.8387L22.8531 14.4423Z" fill="#4DA004"/>
<path d="M22.8349 14.4669L23.6539 13.8497L24.4571 8.20996L22.8349 14.4669Z" fill="#2F9106"/>
<path d="M20.8871 13.8544L22.5096 7.59668L20.0685 13.2503L20.8871 13.8544Z" fill="#4DA004"/>
<path d="M20.8876 13.8544L21.7066 13.2368L22.5101 7.59668L20.8876 13.8544Z" fill="#2F9106"/>
<path d="M21.5033 14.2935L23.3359 7.22656L20.5786 13.6111L21.5033 14.2935Z" fill="#4DA004"/>
<path d="M21.4833 14.3176L22.4085 13.6205L23.3159 7.25098L21.4833 14.3176Z" fill="#2F9106"/>
<path d="M22.2663 14.8791L24.4438 6.47998L21.1668 14.0681L22.2663 14.8791Z" fill="#4DA004"/>
<path d="M22.2466 14.9041L23.346 14.075L24.4243 6.50439L22.2466 14.9041Z" fill="#2F9106"/>
<path d="M25.0277 16.1211L26.6503 9.86328L24.2088 15.5169L25.0277 16.1211Z" fill="#6AC414"/>
<path d="M25.0279 16.1211L25.8468 15.5035L26.6504 9.86328L25.0279 16.1211Z" fill="#4BB70B"/>
<path d="M23.0805 15.5069L24.7031 9.25L22.2615 14.9032L23.0805 15.5069Z" fill="#6AC414"/>
<path d="M23.0806 15.5069L23.8996 14.8901L24.7031 9.25L23.0806 15.5069Z" fill="#4BB70B"/>
<path d="M23.6663 15.9514L25.4988 8.88477L22.7418 15.2694L23.6663 15.9514Z" fill="#6AC414"/>
<path d="M23.6652 15.9514L24.5903 15.2547L25.4977 8.88477L23.6652 15.9514Z" fill="#4BB70B"/>
<path d="M24.4406 16.557L26.6181 8.1582L23.3412 15.7465L24.4406 16.557Z" fill="#6AC414"/>
<path d="M24.4396 16.557L25.5388 15.7288L26.6171 8.1582L24.4396 16.557Z" fill="#4BB70B"/>
<path d="M26.42 17.146L28.0425 10.8887L25.6013 16.5418L26.42 17.146Z" fill="#4DA004"/>
<path d="M26.4018 17.1693L27.2205 16.5518L28.024 10.9116L26.4018 17.1693Z" fill="#2F9106"/>
<path d="M24.454 16.5568L26.0765 10.2998L23.6354 15.953L24.454 16.5568Z" fill="#4DA004"/>
<path d="M24.4545 16.5568L25.2735 15.9396L26.077 10.2998L24.4545 16.5568Z" fill="#2F9106"/>
<path d="M25.0703 16.9948L26.9029 9.92822L24.1455 16.3127L25.0703 16.9948Z" fill="#4DA004"/>
<path d="M25.0502 17.0197L25.9754 16.3227L26.8828 9.95312L25.0502 17.0197Z" fill="#2F9106"/>
<path d="M25.8332 17.5809L28.0107 9.18213L24.7337 16.7704L25.8332 17.5809Z" fill="#4DA004"/>
<path d="M25.8135 17.6057L26.913 16.7772L27.9912 9.20654L25.8135 17.6057Z" fill="#2F9106"/>
<path d="M28.5946 18.8224L30.2171 12.5654L27.7757 18.2186L28.5946 18.8224Z" fill="#6AC414"/>
<path d="M28.5948 18.8224L29.4138 18.2056L30.2173 12.5654L28.5948 18.8224Z" fill="#4BB70B"/>
<path d="M26.6473 18.21L28.2699 11.9521L25.8284 17.6057L26.6473 18.21Z" fill="#6AC414"/>
<path d="M26.6475 18.21L27.4665 17.5928L28.27 11.9521L26.6475 18.21Z" fill="#4BB70B"/>
<path d="M27.2332 18.6534L29.0658 11.5864L26.3087 17.9711L27.2332 18.6534Z" fill="#6AC414"/>
<path d="M27.2321 18.6534L28.1572 17.9564L29.0646 11.5864L27.2321 18.6534Z" fill="#4BB70B"/>
<path d="M28.0075 19.259L30.185 10.8599L26.9081 18.4481L28.0075 19.259Z" fill="#6AC414"/>
<path d="M28.0065 19.259L29.1057 18.4305L30.184 10.8599L28.0065 19.259Z" fill="#4BB70B"/>
<path d="M14.282 10.1149L15.9045 3.85791L13.4634 9.51108L14.282 10.1149Z" fill="#4DA004"/>
<path d="M14.2639 10.1391L15.0829 9.52162L15.8863 3.88184L14.2639 10.1391Z" fill="#2F9106"/>
<path d="M12.3202 9.52584L13.9424 3.26855L11.5012 8.92215L12.3202 9.52584Z" fill="#4DA004"/>
<path d="M12.3203 9.52584L13.1391 8.90876L13.9425 3.26855L12.3203 9.52584Z" fill="#2F9106"/>
<path d="M12.9361 9.96541L14.7687 2.89844L12.0113 9.28307L12.9361 9.96541Z" fill="#4DA004"/>
<path d="M12.9161 9.9894L13.8412 9.29228L14.7486 2.92285L12.9161 9.9894Z" fill="#2F9106"/>
<path d="M13.6987 10.5505L15.8765 2.15137L12.5996 9.73964L13.6987 10.5505Z" fill="#4DA004"/>
<path d="M13.6793 10.5755L14.7788 9.747L15.8571 2.17627L13.6793 10.5755Z" fill="#2F9106"/>
<path d="M16.4567 11.7919L18.0793 5.53467L15.6378 11.1883L16.4567 11.7919Z" fill="#6AC414"/>
<path d="M16.4569 11.7919L17.2759 11.1753L18.0794 5.53467L16.4569 11.7919Z" fill="#4BB70B"/>
<path d="M14.5132 11.1792L16.1357 4.92188L13.6942 10.575L14.5132 11.1792Z" fill="#6AC414"/>
<path d="M14.5133 11.1792L15.3324 10.5621L16.1359 4.92188L14.5133 11.1792Z" fill="#4BB70B"/>
<path d="M15.0993 11.6237L16.9315 4.55664L14.1745 10.9413L15.0993 11.6237Z" fill="#6AC414"/>
<path d="M15.0979 11.6237L16.0227 10.9266L16.9301 4.55664L15.0979 11.6237Z" fill="#4BB70B"/>
<path d="M15.8697 12.2274L18.0472 3.82812L14.7702 11.4164L15.8697 12.2274Z" fill="#6AC414"/>
<path d="M15.8723 12.2274L16.9715 11.3993L18.0498 3.82812L15.8723 12.2274Z" fill="#4BB70B"/>
<path d="M17.8489 12.8168L19.4715 6.55908L17.0303 12.2127L17.8489 12.8168Z" fill="#4DA004"/>
<path d="M17.8308 12.8414L18.6497 12.2242L19.453 6.58398L17.8308 12.8414Z" fill="#2F9106"/>
<path d="M15.8871 12.229L17.5093 5.97168L15.0681 11.6249L15.8871 12.229Z" fill="#4DA004"/>
<path d="M15.8872 12.229L16.7059 11.6118L17.5094 5.97168L15.8872 12.229Z" fill="#2F9106"/>
<path d="M16.503 12.6681L18.3356 5.60156L15.5782 11.9861L16.503 12.6681Z" fill="#4DA004"/>
<path d="M16.483 12.6921L17.4081 11.995L18.3156 5.625L16.483 12.6921Z" fill="#2F9106"/>
<path d="M17.2622 13.2526L19.4397 4.85352L16.1628 12.4417L17.2622 13.2526Z" fill="#4DA004"/>
<path d="M17.2462 13.2777L18.3457 12.4495L19.424 4.87842L17.2462 13.2777Z" fill="#2F9106"/>
<path d="M20.0236 14.4941L21.6461 8.23682L19.2047 13.89L20.0236 14.4941Z" fill="#6AC414"/>
<path d="M20.0238 14.4941L20.8428 13.8769L21.6463 8.23682L20.0238 14.4941Z" fill="#4BB70B"/>
<path d="M18.0801 13.8813L19.7026 7.62402L17.2611 13.2776L18.0801 13.8813Z" fill="#6AC414"/>
<path d="M18.0802 13.8813L18.8993 13.2645L19.7028 7.62402L18.0802 13.8813Z" fill="#4BB70B"/>
<path d="M18.6658 14.325L20.4984 7.2583L17.7414 13.6429L18.6658 14.325Z" fill="#6AC414"/>
<path d="M18.6648 14.325L19.59 13.6283L20.4974 7.2583L18.6648 14.325Z" fill="#4BB70B"/>
<path d="M19.4366 14.9306L21.6141 6.53174L18.3371 14.12L19.4366 14.9306Z" fill="#6AC414"/>
<path d="M19.4392 14.9306L20.5384 14.1019L21.6167 6.53174L19.4392 14.9306Z" fill="#4BB70B"/>
<path d="M21.4158 15.5195L23.0383 9.26221L20.5972 14.9154L21.4158 15.5195Z" fill="#4DA004"/>
<path d="M21.3977 15.543L22.2167 14.9259L23.0199 9.28564L21.3977 15.543Z" fill="#2F9106"/>
<path d="M19.4537 14.9297L21.0762 8.67236L18.635 14.326L19.4537 14.9297Z" fill="#4DA004"/>
<path d="M19.4541 14.9297L20.2731 14.313L21.0766 8.67236L19.4541 14.9297Z" fill="#2F9106"/>
<path d="M20.0699 15.3692L21.9025 8.30225L19.1451 14.6868L20.0699 15.3692Z" fill="#4DA004"/>
<path d="M20.0499 15.3937L20.9749 14.6971L21.8824 8.32715L20.0499 15.3937Z" fill="#2F9106"/>
<path d="M20.8291 15.9552L23.0065 7.55566L19.7296 15.1438L20.8291 15.9552Z" fill="#4DA004"/>
<path d="M20.8131 15.9793L21.9126 15.1508L22.9909 7.58057L20.8131 15.9793Z" fill="#2F9106"/>
<path d="M23.5906 17.1964L25.2131 10.939L22.7716 16.5926L23.5906 17.1964Z" fill="#6AC414"/>
<path d="M23.5907 17.1964L24.4096 16.5796L25.2131 10.939L23.5907 17.1964Z" fill="#4BB70B"/>
<path d="M21.647 16.5835L23.2695 10.3257L20.828 15.9789L21.647 16.5835Z" fill="#6AC414"/>
<path d="M21.6471 16.5835L22.4662 15.9659L23.2697 10.3257L21.6471 16.5835Z" fill="#4BB70B"/>
<path d="M22.2327 17.0274L24.0653 9.96045L21.3083 16.3451L22.2327 17.0274Z" fill="#6AC414"/>
<path d="M22.2317 17.0274L23.1568 16.3304L24.0643 9.96045L22.2317 17.0274Z" fill="#4BB70B"/>
<path d="M23.0035 17.6316L25.181 9.23242L21.904 16.8207L23.0035 17.6316Z" fill="#6AC414"/>
<path d="M23.0061 17.6316L24.1053 16.8035L25.1836 9.23242L23.0061 17.6316Z" fill="#4BB70B"/>
<path d="M24.9827 18.2216L26.6052 11.9639L24.1641 17.617L24.9827 18.2216Z" fill="#4DA004"/>
<path d="M24.9646 18.2451L25.7832 17.6284L26.5868 11.9878L24.9646 18.2451Z" fill="#2F9106"/>
<path d="M23.0206 17.6318L24.6431 11.3745L22.2019 17.0277L23.0206 17.6318Z" fill="#4DA004"/>
<path d="M23.021 17.6318L23.84 17.0147L24.6435 11.3745L23.021 17.6318Z" fill="#2F9106"/>
<path d="M23.6368 18.0719L25.4694 11.0054L22.712 17.3899L23.6368 18.0719Z" fill="#4DA004"/>
<path d="M23.6168 18.0963L24.5418 17.3993L25.4493 11.0293L23.6168 18.0963Z" fill="#2F9106"/>
<path d="M24.396 18.6571L26.5735 10.2578L23.2966 17.8461L24.396 18.6571Z" fill="#4DA004"/>
<path d="M24.38 18.6818L25.4795 17.8538L26.5578 10.2827L24.38 18.6818Z" fill="#2F9106"/>
<path d="M27.1575 19.8983L28.78 13.6406L26.3385 19.2938L27.1575 19.8983Z" fill="#6AC414"/>
<path d="M27.1576 19.8983L27.9765 19.2808L28.78 13.6406L27.1576 19.8983Z" fill="#4BB70B"/>
<path d="M25.2139 19.2855L26.8364 13.0278L24.3949 18.6814L25.2139 19.2855Z" fill="#6AC414"/>
<path d="M25.214 19.2855L26.0331 18.6685L26.8366 13.0278L25.214 19.2855Z" fill="#4BB70B"/>
<path d="M25.7997 19.7291L27.6322 12.6626L24.8752 19.0472L25.7997 19.7291Z" fill="#6AC414"/>
<path d="M25.7987 19.7291L26.7237 19.0326L27.6312 12.6626L25.7987 19.7291Z" fill="#4BB70B"/>
<path d="M26.5704 20.3352L28.7479 11.936L25.4709 19.5242L26.5704 20.3352Z" fill="#6AC414"/>
<path d="M26.573 20.3352L27.6722 19.5062L28.7505 11.936L26.573 20.3352Z" fill="#4BB70B"/>
<path d="M12.8486 11.1903L14.4711 4.93262L12.0299 10.5858L12.8486 11.1903Z" fill="#4DA004"/>
<path d="M12.8304 11.2147L13.6494 10.5976L14.4526 4.95703L12.8304 11.2147Z" fill="#2F9106"/>
<path d="M10.8868 10.6026L12.509 4.3457L10.0677 9.99888L10.8868 10.6026Z" fill="#4DA004"/>
<path d="M10.8869 10.6026L11.7055 9.98591L12.5091 4.3457L10.8869 10.6026Z" fill="#2F9106"/>
<path d="M11.4989 11.0407L13.3314 3.97412L10.5741 10.3587L11.4989 11.0407Z" fill="#4DA004"/>
<path d="M11.4826 11.0652L12.4077 10.3685L13.3152 3.99854L11.4826 11.0652Z" fill="#2F9106"/>
<path d="M12.2616 11.6267L14.439 3.22754L11.1624 10.8157L12.2616 11.6267Z" fill="#4DA004"/>
<path d="M12.2421 11.6513L13.3416 10.8231L14.42 3.25244L12.2421 11.6513Z" fill="#2F9106"/>
<path d="M15.0233 12.8681L16.6459 6.61084L14.2043 12.264L15.0233 12.8681Z" fill="#6AC414"/>
<path d="M15.0234 12.8681L15.8424 12.2509L16.646 6.61084L15.0234 12.8681Z" fill="#4BB70B"/>
<path d="M13.0798 12.2557L14.7023 5.99756L12.2608 11.6512L13.0798 12.2557Z" fill="#6AC414"/>
<path d="M13.0799 12.2557L13.8988 11.6382L14.7024 5.99756L13.0799 12.2557Z" fill="#4BB70B"/>
<path d="M13.6618 12.6994L15.4944 5.63232L12.7373 12.017L13.6618 12.6994Z" fill="#6AC414"/>
<path d="M13.6644 12.6994L14.5896 12.0023L15.497 5.63232L13.6644 12.6994Z" fill="#4BB70B"/>
<path d="M14.4363 13.3049L16.6138 4.90527L13.3368 12.4935L14.4363 13.3049Z" fill="#6AC414"/>
<path d="M14.4351 13.3049L15.5343 12.4759L16.6126 4.90527L14.4351 13.3049Z" fill="#4BB70B"/>
<path d="M16.4155 13.893L18.038 7.63574L15.5968 13.2889L16.4155 13.893Z" fill="#4DA004"/>
<path d="M16.3973 13.9166L17.2164 13.2994L18.0195 7.65918L16.3973 13.9166Z" fill="#2F9106"/>
<path d="M14.4533 13.3046L16.0758 7.04639L13.6347 12.7L14.4533 13.3046Z" fill="#4DA004"/>
<path d="M14.4538 13.3046L15.2727 12.687L16.0763 7.04639L14.4538 13.3046Z" fill="#2F9106"/>
<path d="M15.0658 13.7432L16.8983 6.67627L14.141 13.0608L15.0658 13.7432Z" fill="#4DA004"/>
<path d="M15.0495 13.7678L15.9746 13.0706L16.882 6.70068L15.0495 13.7678Z" fill="#2F9106"/>
<path d="M15.8288 14.3292L18.0063 5.92969L14.7293 13.5179L15.8288 14.3292Z" fill="#4DA004"/>
<path d="M15.809 14.3537L16.9084 13.5252L17.9868 5.95459L15.809 14.3537Z" fill="#2F9106"/>
<path d="M18.5903 15.5707L20.2128 9.3125L17.7712 14.9661L18.5903 15.5707Z" fill="#6AC414"/>
<path d="M18.5903 15.5707L19.4093 14.9531L20.2128 9.3125L18.5903 15.5707Z" fill="#4BB70B"/>
<path d="M16.6467 14.9566L18.2692 8.69922L15.8277 14.3524L16.6467 14.9566Z" fill="#6AC414"/>
<path d="M16.6468 14.9566L17.4657 14.3394L18.2693 8.69922L16.6468 14.9566Z" fill="#4BB70B"/>
<path d="M17.2287 15.401L19.0613 8.33447L16.3042 14.7191L17.2287 15.401Z" fill="#6AC414"/>
<path d="M17.2313 15.401L18.1565 14.7044L19.0639 8.33447L17.2313 15.401Z" fill="#4BB70B"/>
<path d="M18.0032 16.0066L20.1807 7.60742L16.9037 15.1957L18.0032 16.0066Z" fill="#6AC414"/>
<path d="M18.0021 16.0066L19.1012 15.178L20.1795 7.60742L18.0021 16.0066Z" fill="#4BB70B"/>
<path d="M19.9825 16.5952L21.6049 10.3379L19.1637 15.9911L19.9825 16.5952Z" fill="#4DA004"/>
<path d="M19.9642 16.619L20.7829 16.002L21.5864 10.3613L19.9642 16.619Z" fill="#2F9106"/>
<path d="M18.0202 16.0068L19.6427 9.74951L17.2015 15.4027L18.0202 16.0068Z" fill="#4DA004"/>
<path d="M18.0207 16.0068L18.8396 15.3897L19.6432 9.74951L18.0207 16.0068Z" fill="#2F9106"/>
<path d="M18.6327 16.4459L20.4652 9.37939L17.7079 15.7639L18.6327 16.4459Z" fill="#4DA004"/>
<path d="M18.6164 16.4694L19.5415 15.7728L20.449 9.40283L18.6164 16.4694Z" fill="#2F9106"/>
<path d="M19.3957 17.0311L21.5732 8.63184L18.2962 16.2201L19.3957 17.0311Z" fill="#4DA004"/>
<path d="M19.3759 17.0554L20.4754 16.2269L21.5537 8.65625L19.3759 17.0554Z" fill="#2F9106"/>
<path d="M22.1571 18.2719L23.7796 12.0146L21.3381 17.6678L22.1571 18.2719Z" fill="#6AC414"/>
<path d="M22.1572 18.2719L22.9762 17.6549L23.7798 12.0146L22.1572 18.2719Z" fill="#4BB70B"/>
<path d="M20.2136 17.6591L21.8361 11.4014L19.3945 17.055L20.2136 17.6591Z" fill="#6AC414"/>
<path d="M20.2137 17.6591L21.0326 17.0416L21.8362 11.4014L20.2137 17.6591Z" fill="#4BB70B"/>
<path d="M20.7956 18.1032L22.6282 11.0366L19.8711 17.4212L20.7956 18.1032Z" fill="#6AC414"/>
<path d="M20.7982 18.1032L21.7234 17.4066L22.6308 11.0366L20.7982 18.1032Z" fill="#4BB70B"/>
<path d="M21.57 18.7091L23.7475 10.3096L20.4706 17.8977L21.57 18.7091Z" fill="#6AC414"/>
<path d="M21.5689 18.7091L22.6681 17.8802L23.7464 10.3096L21.5689 18.7091Z" fill="#4BB70B"/>
<path d="M23.5497 19.2973L25.1722 13.04L22.7306 18.6936L23.5497 19.2973Z" fill="#4DA004"/>
<path d="M23.5311 19.3208L24.3499 18.7037L25.1533 13.0635L23.5311 19.3208Z" fill="#2F9106"/>
<path d="M21.5871 18.7083L23.2096 12.4502L20.7684 18.1038L21.5871 18.7083Z" fill="#4DA004"/>
<path d="M21.5876 18.7083L22.4066 18.0908L23.2101 12.4502L21.5876 18.7083Z" fill="#2F9106"/>
<path d="M22.1996 19.1486L24.0321 12.0815L21.2748 18.4662L22.1996 19.1486Z" fill="#4DA004"/>
<path d="M22.1833 19.1715L23.1084 18.4745L24.0159 12.1045L22.1833 19.1715Z" fill="#2F9106"/>
<path d="M22.9626 19.7332L25.1401 11.334L21.8631 18.9223L22.9626 19.7332Z" fill="#4DA004"/>
<path d="M22.9428 19.758L24.0423 18.929L25.1206 11.3584L22.9428 19.758Z" fill="#2F9106"/>
<path d="M25.724 20.9745L27.3465 14.7168L24.905 20.37L25.724 20.9745Z" fill="#6AC414"/>
<path d="M25.7241 20.9745L26.5431 20.357L27.3467 14.7168L25.7241 20.9745Z" fill="#4BB70B"/>
<path d="M23.7805 20.3618L25.403 14.105L22.9615 19.7582L23.7805 20.3618Z" fill="#6AC414"/>
<path d="M23.7806 20.3618L24.5995 19.7448L25.4031 14.105L23.7806 20.3618Z" fill="#4BB70B"/>
<path d="M24.3625 20.8048L26.1951 13.7383L23.438 20.1228L24.3625 20.8048Z" fill="#6AC414"/>
<path d="M24.3651 20.8048L25.2903 20.1078L26.1977 13.7383L24.3651 20.8048Z" fill="#4BB70B"/>
<path d="M25.1369 21.4108L27.3144 13.0117L24.0375 20.5999L25.1369 21.4108Z" fill="#6AC414"/>
<path d="M25.1358 21.4108L26.235 20.5823L27.3133 13.0117L25.1358 21.4108Z" fill="#4BB70B"/>
<path d="M11.4152 12.2665L13.0377 6.00879L10.5965 11.6624L11.4152 12.2665Z" fill="#4DA004"/>
<path d="M11.3968 12.291L12.2158 11.6738L13.019 6.0332L11.3968 12.291Z" fill="#2F9106"/>
<path d="M9.45324 11.6777L11.0755 5.41992L8.63428 11.0735L9.45324 11.6777Z" fill="#4DA004"/>
<path d="M9.4534 11.6777L10.2721 11.0601L11.0756 5.41992L9.4534 11.6777Z" fill="#2F9106"/>
<path d="M10.0655 12.1178L11.898 5.05127L9.14064 11.4358L10.0655 12.1178Z" fill="#4DA004"/>
<path d="M10.0491 12.1418L10.9743 11.4447L11.8817 5.07471L10.0491 12.1418Z" fill="#2F9106"/>
<path d="M10.8283 12.7028L13.0057 4.30371L9.72876 11.8923L10.8283 12.7028Z" fill="#4DA004"/>
<path d="M10.8087 12.7277L11.9082 11.8992L12.9865 4.32812L10.8087 12.7277Z" fill="#2F9106"/>
<path d="M13.5898 13.9439L15.2123 7.68652L12.7708 13.3397L13.5898 13.9439Z" fill="#6AC414"/>
<path d="M13.59 13.9439L14.409 13.3263L15.2125 7.68652L13.59 13.9439Z" fill="#4BB70B"/>
<path d="M11.6463 13.3306L13.2688 7.07324L10.8273 12.7268L11.6463 13.3306Z" fill="#6AC414"/>
<path d="M11.6464 13.3306L12.4655 12.7134L13.269 7.07324L11.6464 13.3306Z" fill="#4BB70B"/>
<path d="M12.2284 13.7746L14.0609 6.70801L11.3039 13.0926L12.2284 13.7746Z" fill="#6AC414"/>
<path d="M12.231 13.7746L13.1561 13.078L14.0635 6.70801L12.231 13.7746Z" fill="#4BB70B"/>
<path d="M13.0028 14.3806L15.1802 5.98145L11.9033 13.5697L13.0028 14.3806Z" fill="#6AC414"/>
<path d="M13.0017 14.3806L14.1008 13.5516L15.1791 5.98145L13.0017 14.3806Z" fill="#4BB70B"/>
<path d="M14.9821 14.9688L16.6046 8.71191L14.1633 14.3651L14.9821 14.9688Z" fill="#4DA004"/>
<path d="M14.9638 14.9931L15.7824 14.3756L16.5859 8.73535L14.9638 14.9931Z" fill="#2F9106"/>
<path d="M13.0198 14.3808L14.6423 8.12354L12.2012 13.7767L13.0198 14.3808Z" fill="#4DA004"/>
<path d="M13.0203 14.3808L13.8394 13.7637L14.6428 8.12354L13.0203 14.3808Z" fill="#2F9106"/>
<path d="M13.6324 14.8189L15.4649 7.75195L12.7076 14.1365L13.6324 14.8189Z" fill="#4DA004"/>
<path d="M13.616 14.8434L14.5412 14.1468L15.4486 7.77686L13.616 14.8434Z" fill="#2F9106"/>
<path d="M14.3952 15.4051L16.5726 7.00586L13.2957 14.5941L14.3952 15.4051Z" fill="#4DA004"/>
<path d="M14.3756 15.4294L15.4751 14.6005L16.5534 7.03027L14.3756 15.4294Z" fill="#2F9106"/>
<path d="M17.1567 16.646L18.7792 10.3887L16.3377 16.0423L17.1567 16.646Z" fill="#6AC414"/>
<path d="M17.1569 16.646L17.9759 16.0289L18.7794 10.3887L17.1569 16.646Z" fill="#4BB70B"/>
<path d="M15.2132 16.0328L16.8357 9.77539L14.3942 15.4286L15.2132 16.0328Z" fill="#6AC414"/>
<path d="M15.2133 16.0328L16.0324 15.4156L16.8358 9.77539L15.2133 16.0328Z" fill="#4BB70B"/>
<path d="M15.7953 16.4771L17.6278 9.41016L14.8708 15.7948L15.7953 16.4771Z" fill="#6AC414"/>
<path d="M15.7979 16.4771L16.723 15.7801L17.6304 9.41016L15.7979 16.4771Z" fill="#4BB70B"/>
<path d="M16.5697 17.0822L18.7471 8.68262L15.4702 16.2709L16.5697 17.0822Z" fill="#6AC414"/>
<path d="M16.5686 17.0822L17.6677 16.2537L18.746 8.68262L16.5686 17.0822Z" fill="#4BB70B"/>
<path d="M18.5489 17.6703L20.1714 11.4126L17.7302 17.0662L18.5489 17.6703Z" fill="#4DA004"/>
<path d="M18.5308 17.6948L19.3494 17.0777L20.153 11.4375L18.5308 17.6948Z" fill="#2F9106"/>
<path d="M16.5867 17.083L18.2093 10.8257L15.7681 16.4789L16.5867 17.083Z" fill="#4DA004"/>
<path d="M16.5872 17.083L17.4062 16.4655L18.2097 10.8257L16.5872 17.083Z" fill="#2F9106"/>
<path d="M17.1993 17.5222L19.0318 10.4556L16.2744 16.8402L17.1993 17.5222Z" fill="#4DA004"/>
<path d="M17.1829 17.5455L18.1081 16.8485L19.0155 10.4785L17.1829 17.5455Z" fill="#2F9106"/>
<path d="M17.9621 18.1063L20.1396 9.70752L16.8627 17.2958L17.9621 18.1063Z" fill="#4DA004"/>
<path d="M17.9425 18.132L19.042 17.3035L20.1203 9.73242L17.9425 18.132Z" fill="#2F9106"/>
<path d="M20.7236 19.3481L22.3461 13.0908L19.9046 18.744L20.7236 19.3481Z" fill="#6AC414"/>
<path d="M20.7238 19.3481L21.5428 18.7306L22.3463 13.0908L20.7238 19.3481Z" fill="#4BB70B"/>
<path d="M18.7801 18.7348L20.4026 12.4775L17.9611 18.1311L18.7801 18.7348Z" fill="#6AC414"/>
<path d="M18.7802 18.7348L19.5992 18.1182L20.4027 12.4775L18.7802 18.7348Z" fill="#4BB70B"/>
<path d="M19.3621 19.1789L21.1947 12.1123L18.4377 18.4968L19.3621 19.1789Z" fill="#6AC414"/>
<path d="M19.3648 19.1789L20.2899 18.4823L21.1973 12.1123L19.3648 19.1789Z" fill="#4BB70B"/>
<path d="M20.1364 19.7844L22.3138 11.3857L19.0369 18.9739L20.1364 19.7844Z" fill="#6AC414"/>
<path d="M20.1355 19.7844L21.2347 18.9559L22.3129 11.3857L20.1355 19.7844Z" fill="#4BB70B"/>
<path d="M22.1161 20.3732L23.7386 14.1162L21.2971 19.7694L22.1161 20.3732Z" fill="#4DA004"/>
<path d="M22.0977 20.3969L22.9163 19.7794L23.7199 14.1396L22.0977 20.3969Z" fill="#2F9106"/>
<path d="M20.1537 19.7846L21.7762 13.5273L19.335 19.1809L20.1537 19.7846Z" fill="#4DA004"/>
<path d="M20.1541 19.7846L20.9731 19.1676L21.7765 13.5273L20.1541 19.7846Z" fill="#2F9106"/>
<path d="M20.7662 20.2228L22.5987 13.1558L19.8413 19.5404L20.7662 20.2228Z" fill="#4DA004"/>
<path d="M20.7498 20.2472L21.6749 19.5501L22.5823 13.1807L20.7498 20.2472Z" fill="#2F9106"/>
<path d="M21.529 20.8089L23.7065 12.4097L20.4296 19.9979L21.529 20.8089Z" fill="#4DA004"/>
<path d="M21.5094 20.8332L22.6089 20.0043L23.6872 12.4341L21.5094 20.8332Z" fill="#2F9106"/>
<path d="M24.2905 22.0502L25.913 15.793L23.4715 21.4466L24.2905 22.0502Z" fill="#6AC414"/>
<path d="M24.2907 22.0502L25.1097 21.4336L25.9132 15.793L24.2907 22.0502Z" fill="#4BB70B"/>
<path d="M22.3469 21.437L23.9695 15.1797L21.528 20.8329L22.3469 21.437Z" fill="#6AC414"/>
<path d="M22.3471 21.437L23.1662 20.8199L23.9697 15.1797L22.3471 21.437Z" fill="#4BB70B"/>
<path d="M22.929 21.8814L24.7616 14.8145L22.0046 21.199L22.929 21.8814Z" fill="#6AC414"/>
<path d="M22.9317 21.8814L23.8568 21.1843L24.7642 14.8145L22.9317 21.8814Z" fill="#4BB70B"/>
<path d="M23.7035 22.4865L25.881 14.0874L22.604 21.6756L23.7035 22.4865Z" fill="#6AC414"/>
<path d="M23.7024 22.4865L24.8016 21.6585L25.8799 14.0874L23.7024 22.4865Z" fill="#4BB70B"/>
<path d="M9.98164 13.3418L11.6042 7.08447L9.16299 12.7381L9.98164 13.3418Z" fill="#4DA004"/>
<path d="M9.96349 13.3662L10.7825 12.7492L11.5857 7.10938L9.96349 13.3662Z" fill="#2F9106"/>
<path d="M8.01953 12.7539L9.64206 6.49609L7.20081 12.1497L8.01953 12.7539Z" fill="#4DA004"/>
<path d="M8.01622 12.7539L8.83519 12.1363L9.63875 6.49609L8.01622 12.7539Z" fill="#2F9106"/>
<path d="M8.63202 13.1929L10.4646 6.12598L7.7072 12.5105L8.63202 13.1929Z" fill="#4DA004"/>
<path d="M8.61194 13.2174L9.53708 12.5203L10.4445 6.15039L8.61194 13.2174Z" fill="#2F9106"/>
<path d="M9.39496 13.7786L11.5724 5.37939L8.29547 12.9677L9.39496 13.7786Z" fill="#4DA004"/>
<path d="M9.37521 13.8039L10.4747 12.9749L11.553 5.4043L9.37521 13.8039Z" fill="#2F9106"/>
<path d="M12.1564 15.0199L13.7789 8.76221L11.3374 14.4158L12.1564 15.0199Z" fill="#6AC414"/>
<path d="M12.1565 15.0199L12.9755 14.4028L13.779 8.76221L12.1565 15.0199Z" fill="#4BB70B"/>
<path d="M10.2092 14.4064L11.8316 8.14941L9.39011 13.8026L10.2092 14.4064Z" fill="#6AC414"/>
<path d="M10.2092 14.4064L11.0282 13.7896L11.8317 8.14941L10.2092 14.4064Z" fill="#4BB70B"/>
<path d="M10.7949 14.8507L12.6275 7.78418L9.87041 14.1688L10.7949 14.8507Z" fill="#6AC414"/>
<path d="M10.7938 14.8507L11.7189 14.1541L12.6263 7.78418L10.7938 14.8507Z" fill="#4BB70B"/>
<path d="M11.5693 15.4563L13.7468 7.05762L10.4698 14.6459L11.5693 15.4563Z" fill="#6AC414"/>
<path d="M11.5682 15.4563L12.6674 14.6282L13.7457 7.05762L11.5682 15.4563Z" fill="#4BB70B"/>
<path d="M13.5485 16.0439L15.1711 9.78662L12.7299 15.4398L13.5485 16.0439Z" fill="#4DA004"/>
<path d="M13.5304 16.0692L14.349 15.4517L15.1526 9.81152L13.5304 16.0692Z" fill="#2F9106"/>
<path d="M11.5865 15.4561L13.209 9.19922L10.7677 14.8524L11.5865 15.4561Z" fill="#4DA004"/>
<path d="M11.5831 15.4561L12.4021 14.8394L13.2057 9.19922L11.5831 15.4561Z" fill="#2F9106"/>
<path d="M12.1989 15.8947L14.0315 8.82812L11.2741 15.2126L12.1989 15.8947Z" fill="#4DA004"/>
<path d="M12.1788 15.9191L13.104 15.2225L14.0114 8.85254L12.1788 15.9191Z" fill="#2F9106"/>
<path d="M12.9619 16.4799L15.1393 8.08105L11.8624 15.6693L12.9619 16.4799Z" fill="#4DA004"/>
<path d="M12.9422 16.5047L14.0417 15.6766L15.1201 8.10596L12.9422 16.5047Z" fill="#2F9106"/>
<path d="M15.7233 17.7212L17.3459 11.4644L14.9043 17.1175L15.7233 17.7212Z" fill="#6AC414"/>
<path d="M15.7234 17.7212L16.5424 17.1046L17.3459 11.4644L15.7234 17.7212Z" fill="#4BB70B"/>
<path d="M13.7761 17.1093L15.3986 10.8516L12.957 16.5052L13.7761 17.1093Z" fill="#6AC414"/>
<path d="M13.7761 17.1093L14.5951 16.4922L15.3987 10.8516L13.7761 17.1093Z" fill="#4BB70B"/>
<path d="M14.362 17.5528L16.1946 10.4858L13.4375 16.8704L14.362 17.5528Z" fill="#6AC414"/>
<path d="M14.3607 17.5533L15.2858 16.8563L16.1933 10.4863L14.3607 17.5533Z" fill="#4BB70B"/>
<path d="M15.1363 18.1589L17.3138 9.75977L14.0368 17.3479L15.1363 18.1589Z" fill="#6AC414"/>
<path d="M15.1351 18.1589L16.2343 17.3304L17.3126 9.75977L15.1351 18.1589Z" fill="#4BB70B"/>
<path d="M17.1154 18.7466L18.738 12.4888L16.2968 18.1424L17.1154 18.7466Z" fill="#4DA004"/>
<path d="M17.0973 18.7705L17.916 18.1539L18.7195 12.5137L17.0973 18.7705Z" fill="#2F9106"/>
<path d="M15.1533 18.1576L16.7759 11.8999L14.3346 17.5535L15.1533 18.1576Z" fill="#4DA004"/>
<path d="M15.15 18.1576L15.969 17.5405L16.7725 11.8999L15.15 18.1576Z" fill="#2F9106"/>
<path d="M15.7657 18.5969L17.5983 11.5298L14.841 17.9144L15.7657 18.5969Z" fill="#4DA004"/>
<path d="M15.7458 18.6217L16.6709 17.9246L17.5783 11.5547L15.7458 18.6217Z" fill="#2F9106"/>
<path d="M16.5288 19.1828L18.7062 10.7832L15.4293 18.3715L16.5288 19.1828Z" fill="#4DA004"/>
<path d="M16.5091 19.2072L17.6086 18.3787L18.687 10.8081L16.5091 19.2072Z" fill="#2F9106"/>
<path d="M19.2902 20.4242L20.9128 14.1665L18.4712 19.8201L19.2902 20.4242Z" fill="#6AC414"/>
<path d="M19.2903 20.4242L20.1093 19.8071L20.9128 14.1665L19.2903 20.4242Z" fill="#4BB70B"/>
<path d="M17.3429 19.811L18.9655 13.5537L16.5239 19.2069L17.3429 19.811Z" fill="#6AC414"/>
<path d="M17.343 19.811L18.162 19.1939L18.9656 13.5537L17.343 19.811Z" fill="#4BB70B"/>
<path d="M17.9289 20.2545L19.7615 13.188L17.0044 19.5725L17.9289 20.2545Z" fill="#6AC414"/>
<path d="M17.9276 20.2545L18.8527 19.5578L19.7601 13.188L17.9276 20.2545Z" fill="#4BB70B"/>
<path d="M18.7032 20.8606L20.8806 12.4614L17.6037 20.0496L18.7032 20.8606Z" fill="#6AC414"/>
<path d="M18.702 20.8606L19.8012 20.032L20.8795 12.4614L18.702 20.8606Z" fill="#4BB70B"/>
<path d="M20.6827 21.4481L22.3052 15.1904L19.8637 20.8436L20.6827 21.4481Z" fill="#4DA004"/>
<path d="M20.6642 21.473L21.4829 20.856L22.2864 15.2153L20.6642 21.473Z" fill="#2F9106"/>
<path d="M18.7203 20.8603L20.3428 14.603L17.9015 20.2562L18.7203 20.8603Z" fill="#4DA004"/>
<path d="M18.7169 20.8603L19.5359 20.2432L20.3395 14.603L18.7169 20.8603Z" fill="#2F9106"/>
<path d="M19.3326 21.2985L21.1652 14.2319L18.4079 20.6166L19.3326 21.2985Z" fill="#4DA004"/>
<path d="M19.3127 21.3234L20.2378 20.6267L21.1452 14.2568L19.3127 21.3234Z" fill="#2F9106"/>
<path d="M20.0956 21.8845L22.2731 13.4854L18.9962 21.0736L20.0956 21.8845Z" fill="#4DA004"/>
<path d="M20.076 21.9091L21.1755 21.081L22.2538 13.5103L20.076 21.9091Z" fill="#2F9106"/>
<path d="M22.8571 23.1259L24.4796 16.8687L22.0381 22.5218L22.8571 23.1259Z" fill="#6AC414"/>
<path d="M22.8572 23.1259L23.6762 22.5089L24.4797 16.8687L22.8572 23.1259Z" fill="#4BB70B"/>
<path d="M20.9098 22.5135L22.5324 16.2554L20.0908 21.909L20.9098 22.5135Z" fill="#6AC414"/>
<path d="M20.9099 22.5135L21.7289 21.896L22.5325 16.2554L20.9099 22.5135Z" fill="#4BB70B"/>
<path d="M21.4958 22.9566L23.3284 15.8896L20.5713 22.2742L21.4958 22.9566Z" fill="#6AC414"/>
<path d="M21.4945 22.9571L22.4196 22.26L23.327 15.8901L21.4945 22.9571Z" fill="#4BB70B"/>
<path d="M22.27 23.5628L24.4475 15.1636L21.1705 22.7518L22.27 23.5628Z" fill="#6AC414"/>
<path d="M22.2689 23.5628L23.3681 22.7343L24.4464 15.1636L22.2689 23.5628Z" fill="#4BB70B"/>
<path d="M8.54825 14.4189L10.1708 8.16162L7.72952 13.8148L8.54825 14.4189Z" fill="#4DA004"/>
<path d="M8.53003 14.4423L9.34907 13.8253L10.1522 8.18506L8.53003 14.4423Z" fill="#2F9106"/>
<path d="M6.58227 13.8295L8.2048 7.57227L5.76363 13.2259L6.58227 13.8295Z" fill="#4DA004"/>
<path d="M6.58273 13.8295L7.40178 13.2129L8.20526 7.57227L6.58273 13.8295Z" fill="#2F9106"/>
<path d="M7.19857 14.2686L9.03113 7.20166L6.27374 13.5862L7.19857 14.2686Z" fill="#4DA004"/>
<path d="M7.17848 14.2931L8.10363 13.5965L9.01105 7.22656L7.17848 14.2931Z" fill="#2F9106"/>
<path d="M7.96149 14.8547L10.139 6.45508L6.862 14.0433L7.96149 14.8547Z" fill="#4DA004"/>
<path d="M7.94176 14.8787L9.04125 14.0502L10.1195 6.47998L7.94176 14.8787Z" fill="#2F9106"/>
<path d="M10.7192 16.0961L12.3417 9.83838L9.90019 15.492L10.7192 16.0961Z" fill="#6AC414"/>
<path d="M10.7193 16.0961L11.5384 15.479L12.3419 9.83838L10.7193 16.0961Z" fill="#4BB70B"/>
<path d="M8.77562 15.4828L10.3981 9.2251L7.95665 14.8783L8.77562 15.4828Z" fill="#6AC414"/>
<path d="M8.77577 15.4828L9.59474 14.8653L10.3983 9.2251L8.77577 15.4828Z" fill="#4BB70B"/>
<path d="M9.36144 15.9273L11.194 8.86035L8.43694 15.2449L9.36144 15.9273Z" fill="#6AC414"/>
<path d="M9.36032 15.9273L10.2855 15.2303L11.1929 8.86035L9.36032 15.9273Z" fill="#4BB70B"/>
<path d="M10.1359 16.5314L12.3133 8.13184L9.03639 15.72L10.1359 16.5314Z" fill="#6AC414"/>
<path d="M10.1348 16.5314L11.2339 15.7029L12.3122 8.13184L10.1348 16.5314Z" fill="#4BB70B"/>
<path d="M12.1151 17.1201L13.7377 10.8623L11.2964 16.5156L12.1151 17.1201Z" fill="#4DA004"/>
<path d="M12.0969 17.144L12.9156 16.5274L13.7191 10.8867L12.0969 17.144Z" fill="#2F9106"/>
<path d="M10.1492 16.5316L11.7717 10.2739L9.33054 15.9271L10.1492 16.5316Z" fill="#4DA004"/>
<path d="M10.1497 16.5316L10.9687 15.9141L11.7722 10.2739L10.1497 16.5316Z" fill="#2F9106"/>
<path d="M10.7654 16.9705L12.598 9.90381L9.84062 16.2884L10.7654 16.9705Z" fill="#4DA004"/>
<path d="M10.7454 16.9952L11.6705 16.2982L12.5779 9.92822L10.7454 16.9952Z" fill="#2F9106"/>
<path d="M11.5284 17.5565L13.7059 9.15723L10.4289 16.7455L11.5284 17.5565Z" fill="#4DA004"/>
<path d="M11.5087 17.5813L12.6081 16.7532L13.6865 9.18213L11.5087 17.5813Z" fill="#2F9106"/>
<path d="M14.2861 18.7982L15.9086 12.5405L13.4671 18.1937L14.2861 18.7982Z" fill="#6AC414"/>
<path d="M14.2862 18.7982L15.1053 18.1807L15.9087 12.5405L14.2862 18.7982Z" fill="#4BB70B"/>
<path d="M12.3425 18.185L13.965 11.9272L11.5235 17.5808L12.3425 18.185Z" fill="#6AC414"/>
<path d="M12.3427 18.185L13.1617 17.5679L13.9652 11.9272L12.3427 18.185Z" fill="#4BB70B"/>
<path d="M12.9283 18.6286L14.7609 11.562L12.0038 17.9465L12.9283 18.6286Z" fill="#6AC414"/>
<path d="M12.9272 18.6286L13.8524 17.9319L14.7598 11.562L12.9272 18.6286Z" fill="#4BB70B"/>
<path d="M13.7028 19.2341L15.8802 10.835L12.6033 18.4231L13.7028 19.2341Z" fill="#6AC414"/>
<path d="M13.7017 19.2341L14.8008 18.4052L15.8791 10.835L13.7017 19.2341Z" fill="#4BB70B"/>
<path d="M15.6786 19.8224L17.3011 13.5654L14.8596 19.2186L15.6786 19.8224Z" fill="#4DA004"/>
<path d="M15.6638 19.8461L16.4826 19.2291L17.286 13.5889L15.6638 19.8461Z" fill="#2F9106"/>
<path d="M13.7161 19.2338L15.3386 12.9761L12.8974 18.6297L13.7161 19.2338Z" fill="#4DA004"/>
<path d="M13.7166 19.2338L14.5356 18.6167L15.3391 12.9761L13.7166 19.2338Z" fill="#2F9106"/>
<path d="M14.3323 19.6726L16.1649 12.606L13.4075 18.9906L14.3323 19.6726Z" fill="#4DA004"/>
<path d="M14.3123 19.6969L15.2374 19.0002L16.1448 12.6304L14.3123 19.6969Z" fill="#2F9106"/>
<path d="M15.0953 20.2589L17.2728 11.8594L13.9958 19.4476L15.0953 20.2589Z" fill="#4DA004"/>
<path d="M15.0755 20.2831L16.175 19.4546L17.2534 11.8843L15.0755 20.2831Z" fill="#2F9106"/>
<path d="M17.853 21.4999L19.4755 15.2422L17.034 20.8958L17.853 21.4999Z" fill="#6AC414"/>
<path d="M17.8531 21.4999L18.6721 20.8828L19.4756 15.2422L17.8531 21.4999Z" fill="#4BB70B"/>
<path d="M15.9094 20.8862L17.5319 14.6289L15.0904 20.2821L15.9094 20.8862Z" fill="#6AC414"/>
<path d="M15.9096 20.8862L16.7286 20.2687L17.5321 14.6289L15.9096 20.8862Z" fill="#4BB70B"/>
<path d="M16.4952 21.3307L18.3278 14.2642L15.5707 20.6487L16.4952 21.3307Z" fill="#6AC414"/>
<path d="M16.4941 21.3307L17.4193 20.6336L18.3267 14.2642L16.4941 21.3307Z" fill="#4BB70B"/>
<path d="M17.2697 21.9358L19.4471 13.5361L16.1702 21.1244L17.2697 21.9358Z" fill="#6AC414"/>
<path d="M17.2686 21.9358L18.3677 21.1073L19.446 13.5361L17.2686 21.9358Z" fill="#4BB70B"/>
<path d="M19.2455 22.5243L20.868 16.2666L18.4265 21.9202L19.2455 22.5243Z" fill="#4DA004"/>
<path d="M19.2307 22.5487L20.0494 21.9315L20.8529 16.291L19.2307 22.5487Z" fill="#2F9106"/>
<path d="M17.283 21.9359L18.9055 15.6782L16.4643 21.3314L17.283 21.9359Z" fill="#4DA004"/>
<path d="M17.2834 21.9359L18.1025 21.3184L18.906 15.6782L17.2834 21.9359Z" fill="#2F9106"/>
<path d="M17.8993 22.3756L19.7315 15.3091L16.9744 21.6937L17.8993 22.3756Z" fill="#4DA004"/>
<path d="M17.8792 22.3996L18.8043 21.7025L19.7117 15.3325L17.8792 22.3996Z" fill="#2F9106"/>
<path d="M18.6621 22.9607L20.8396 14.5615L17.5627 22.1497L18.6621 22.9607Z" fill="#4DA004"/>
<path d="M18.6425 22.9856L19.7419 22.157L20.8203 14.5859L18.6425 22.9856Z" fill="#2F9106"/>
<path d="M21.4199 24.2016L23.0424 17.9443L20.6009 23.5971L21.4199 24.2016Z" fill="#6AC414"/>
<path d="M21.42 24.2016L22.2391 23.5841L23.0426 17.9443L21.42 24.2016Z" fill="#4BB70B"/>
<path d="M19.4763 23.5883L21.0985 17.3311L18.6573 22.9847L19.4763 23.5883Z" fill="#6AC414"/>
<path d="M19.4765 23.5883L20.2955 22.9713L21.0987 17.3311L19.4765 23.5883Z" fill="#4BB70B"/>
<path d="M20.0621 24.033L21.8947 16.9663L19.1376 23.3509L20.0621 24.033Z" fill="#6AC414"/>
<path d="M20.061 24.033L20.9862 23.3358L21.8936 16.9663L20.061 24.033Z" fill="#4BB70B"/>
<path d="M20.8366 24.6385L23.014 16.2393L19.7371 23.8275L20.8366 24.6385Z" fill="#6AC414"/>
<path d="M20.8354 24.6385L21.9346 23.8095L23.0129 16.2393L20.8354 24.6385Z" fill="#4BB70B"/>
<path d="M7.11097 15.4952L8.7335 9.23779L6.29233 14.8911L7.11097 15.4952Z" fill="#4DA004"/>
<path d="M7.09285 15.5189L7.91149 14.9014L8.71506 9.26074L7.09285 15.5189Z" fill="#2F9106"/>
<path d="M5.14892 14.9047L6.77146 8.64746L4.3302 14.3006L5.14892 14.9047Z" fill="#4DA004"/>
<path d="M5.14928 14.9047L5.96824 14.2877L6.77181 8.64746L5.14928 14.9047Z" fill="#2F9106"/>
<path d="M5.76509 15.344L7.59766 8.27734L4.84027 14.662L5.76509 15.344Z" fill="#4DA004"/>
<path d="M5.74503 15.3688L6.67009 14.6722L7.57759 8.30225L5.74503 15.3688Z" fill="#2F9106"/>
<path d="M6.52431 15.9305L8.70172 7.53125L5.42482 15.1195L6.52431 15.9305Z" fill="#4DA004"/>
<path d="M6.5083 15.9548L7.60779 15.1263L8.68611 7.55566L6.5083 15.9548Z" fill="#2F9106"/>
<path d="M9.28578 17.1714L10.9083 10.9146L8.46674 16.5673L9.28578 17.1714Z" fill="#6AC414"/>
<path d="M9.28584 17.1714L10.1048 16.5543L10.9084 10.9146L9.28584 17.1714Z" fill="#4BB70B"/>
<path d="M7.34222 16.5585L8.96475 10.3008L6.52325 15.9544L7.34222 16.5585Z" fill="#6AC414"/>
<path d="M7.34222 16.5585L8.16127 15.941L8.96476 10.3008L7.34222 16.5585Z" fill="#4BB70B"/>
<path d="M7.92798 17.0025L9.76055 9.93555L7.00348 16.3201L7.92798 17.0025Z" fill="#6AC414"/>
<path d="M7.92685 17.0025L8.85191 16.3054L9.75942 9.93555L7.92685 17.0025Z" fill="#4BB70B"/>
<path d="M8.6987 17.6076L10.8762 9.20801L7.59921 16.7962L8.6987 17.6076Z" fill="#6AC414"/>
<path d="M8.70129 17.6076L9.80046 16.7786L10.8788 9.20801L8.70129 17.6076Z" fill="#4BB70B"/>
<path d="M10.6782 18.1968L12.3008 11.9395L9.85925 17.5931L10.6782 18.1968Z" fill="#4DA004"/>
<path d="M10.6597 18.2202L11.4784 17.6031L12.2819 11.9629L10.6597 18.2202Z" fill="#2F9106"/>
<path d="M8.71579 17.6073L10.3383 11.3496L7.89706 17.0028L8.71579 17.6073Z" fill="#4DA004"/>
<path d="M8.71619 17.6073L9.53515 16.9898L10.3387 11.3496L8.71619 17.6073Z" fill="#2F9106"/>
<path d="M9.33199 18.0465L11.1646 10.9795L8.40717 17.3641L9.33199 18.0465Z" fill="#4DA004"/>
<path d="M9.31192 18.0714L10.2371 17.3742L11.1445 11.0044L9.31192 18.0714Z" fill="#2F9106"/>
<path d="M10.0912 18.6325L12.2686 10.2334L8.99171 17.8217L10.0912 18.6325Z" fill="#4DA004"/>
<path d="M10.0752 18.6575L11.1747 17.8285L12.253 10.2578L10.0752 18.6575Z" fill="#2F9106"/>
<path d="M12.8527 19.8739L14.4752 13.6162L12.0336 19.2698L12.8527 19.8739Z" fill="#6AC414"/>
<path d="M12.8528 19.8739L13.6717 19.2564L14.4753 13.6162L12.8528 19.8739Z" fill="#4BB70B"/>
<path d="M10.9091 19.2598L12.5316 13.0029L10.0901 18.6561L10.9091 19.2598Z" fill="#6AC414"/>
<path d="M10.9092 19.2598L11.7282 18.6427L12.5317 13.0029L10.9092 19.2598Z" fill="#4BB70B"/>
<path d="M11.4949 19.7042L13.3274 12.6377L10.5704 19.0222L11.4949 19.7042Z" fill="#6AC414"/>
<path d="M11.4938 19.7042L12.4188 19.0075L13.3263 12.6377L11.4938 19.7042Z" fill="#4BB70B"/>
<path d="M12.2656 20.3094L14.4431 11.9102L11.1661 19.4984L12.2656 20.3094Z" fill="#6AC414"/>
<path d="M12.2682 20.3094L13.3674 19.4809L14.4457 11.9102L12.2682 20.3094Z" fill="#4BB70B"/>
<path d="M14.2451 20.8989L15.8676 14.6416L13.4261 20.2948L14.2451 20.8989Z" fill="#4DA004"/>
<path d="M14.2267 20.9227L15.0453 20.3052L15.8489 14.665L14.2267 20.9227Z" fill="#2F9106"/>
<path d="M12.2827 20.3101L13.9052 14.0532L11.464 19.7064L12.2827 20.3101Z" fill="#4DA004"/>
<path d="M12.2831 20.3096L13.1021 19.6925L13.9056 14.0527L12.2831 20.3096Z" fill="#2F9106"/>
<path d="M12.8989 20.7482L14.7314 13.6816L11.9741 20.0663L12.8989 20.7482Z" fill="#4DA004"/>
<path d="M12.8788 20.7732L13.804 20.0765L14.7114 13.7065L12.8788 20.7732Z" fill="#2F9106"/>
<path d="M13.6581 21.3343L15.8355 12.9355L12.5586 20.5237L13.6581 21.3343Z" fill="#4DA004"/>
<path d="M13.6421 21.3592L14.7416 20.5306L15.8199 12.96L13.6421 21.3592Z" fill="#2F9106"/>
<path d="M16.4196 22.5752L18.0421 16.3184L15.6005 21.9715L16.4196 22.5752Z" fill="#6AC414"/>
<path d="M16.4196 22.5752L17.2386 21.9581L18.0422 16.3184L16.4196 22.5752Z" fill="#4BB70B"/>
<path d="M14.4761 21.9628L16.0983 15.7051L13.657 21.3587L14.4761 21.9628Z" fill="#6AC414"/>
<path d="M14.4761 21.9628L15.295 21.3457L16.0983 15.7051L14.4761 21.9628Z" fill="#4BB70B"/>
<path d="M15.0618 22.4069L16.8944 15.3398L14.1373 21.7245L15.0618 22.4069Z" fill="#6AC414"/>
<path d="M15.0607 22.4069L15.9857 21.7098L16.8932 15.3398L15.0607 22.4069Z" fill="#4BB70B"/>
<path d="M15.8325 23.0125L18.01 14.6133L14.733 22.2016L15.8325 23.0125Z" fill="#6AC414"/>
<path d="M15.8351 23.0125L16.9343 22.1839L18.0126 14.6133L15.8351 23.0125Z" fill="#4BB70B"/>
<path d="M17.812 23.601L19.4345 17.3438L16.993 22.9973L17.812 23.601Z" fill="#4DA004"/>
<path d="M17.7935 23.6251L18.6122 23.0079L19.4158 17.3682L17.7935 23.6251Z" fill="#2F9106"/>
<path d="M15.8496 23.0131L17.4721 16.7554L15.0309 22.4089L15.8496 23.0131Z" fill="#4DA004"/>
<path d="M15.85 23.0131L16.669 22.3955L17.4725 16.7554L15.85 23.0131Z" fill="#2F9106"/>
<path d="M16.4658 23.4522L18.298 16.3853L15.541 22.7698L16.4658 23.4522Z" fill="#4DA004"/>
<path d="M16.4457 23.4749L17.3709 22.7777L18.2783 16.4082L16.4457 23.4749Z" fill="#2F9106"/>
<path d="M17.225 24.0363L19.4025 15.6372L16.1255 23.2254L17.225 24.0363Z" fill="#4DA004"/>
<path d="M17.209 24.0612L18.3085 23.2322L19.3868 15.6616L17.209 24.0612Z" fill="#2F9106"/>
<path d="M19.9865 25.2783L21.609 19.0205L19.1674 24.6741L19.9865 25.2783Z" fill="#6AC414"/>
<path d="M19.9865 25.2783L20.8055 24.6611L21.6091 19.0205L19.9865 25.2783Z" fill="#4BB70B"/>
<path d="M18.0429 24.6642L19.6651 18.4072L17.2239 24.0605L18.0429 24.6642Z" fill="#6AC414"/>
<path d="M18.043 24.6642L18.862 24.0474L19.6652 18.4072L18.043 24.6642Z" fill="#4BB70B"/>
<path d="M18.6287 25.1086L20.4612 18.042L17.7042 24.4266L18.6287 25.1086Z" fill="#6AC414"/>
<path d="M18.6276 25.1086L19.5527 24.412L20.4601 18.042L18.6276 25.1086Z" fill="#4BB70B"/>
<path d="M19.3994 25.7142L21.5769 17.3154L18.2999 24.9037L19.3994 25.7142Z" fill="#6AC414"/>
<path d="M19.402 25.7142L20.5012 24.8861L21.5795 17.3154L19.402 25.7142Z" fill="#4BB70B"/>
<path d="M5.67761 16.5698L7.30014 10.312L4.85889 15.9656L5.67761 16.5698Z" fill="#4DA004"/>
<path d="M5.65938 16.5942L6.4781 15.9771L7.28159 10.3369L5.65938 16.5942Z" fill="#2F9106"/>
<path d="M3.71534 15.9819L5.33787 9.72461L2.8967 15.3778L3.71534 15.9819Z" fill="#4DA004"/>
<path d="M3.71584 15.9819L4.53488 15.3644L5.33837 9.72461L3.71584 15.9819Z" fill="#2F9106"/>
<path d="M4.3279 16.4211L6.16047 9.35449L3.40308 15.7391L4.3279 16.4211Z" fill="#4DA004"/>
<path d="M4.31155 16.445L5.2367 15.7478L6.14412 9.37842L4.31155 16.445Z" fill="#2F9106"/>
<path d="M5.09082 17.0057L7.26832 8.60693L3.99133 16.1952L5.09082 17.0057Z" fill="#4DA004"/>
<path d="M5.07109 17.0314L6.1705 16.2029L7.24882 8.63184L5.07109 17.0314Z" fill="#2F9106"/>
<path d="M7.85235 18.2475L9.47488 11.9902L7.03339 17.6434L7.85235 18.2475Z" fill="#6AC414"/>
<path d="M7.85236 18.2475L8.6714 17.6304L9.47489 11.9902L7.85236 18.2475Z" fill="#4BB70B"/>
<path d="M5.90877 17.6342L7.5313 11.377L5.08972 17.0306L5.90877 17.6342Z" fill="#6AC414"/>
<path d="M5.90884 17.6342L6.72781 17.0176L7.53138 11.377L5.90884 17.6342Z" fill="#4BB70B"/>
<path d="M6.4908 18.0783L8.32337 11.0117L5.5663 17.3962L6.4908 18.0783Z" fill="#6AC414"/>
<path d="M6.49339 18.0783L7.41854 17.3816L8.32596 11.0117L6.49339 18.0783Z" fill="#4BB70B"/>
<path d="M7.26515 18.684L9.44264 10.2852L6.16574 17.8734L7.26515 18.684Z" fill="#6AC414"/>
<path d="M7.2641 18.684L8.36327 17.8555L9.44159 10.2852L7.2641 18.684Z" fill="#4BB70B"/>
<path d="M9.24483 19.272L10.8674 13.0151L8.42578 18.6683L9.24483 19.272Z" fill="#4DA004"/>
<path d="M9.22629 19.2963L10.045 18.6793L10.8485 13.0391L9.22629 19.2963Z" fill="#2F9106"/>
<path d="M7.28227 18.684L8.9048 12.4268L6.46362 18.0804L7.28227 18.684Z" fill="#4DA004"/>
<path d="M7.28273 18.684L8.10177 18.0674L8.90526 12.4268L7.28273 18.684Z" fill="#2F9106"/>
<path d="M7.89481 19.1226L9.72738 12.0557L6.96999 18.4403L7.89481 19.1226Z" fill="#4DA004"/>
<path d="M7.87845 19.1466L8.80359 18.4499L9.71101 12.0801L7.87845 19.1466Z" fill="#2F9106"/>
<path d="M8.65775 19.7082L10.8352 11.3091L7.55826 18.8972L8.65775 19.7082Z" fill="#4DA004"/>
<path d="M8.638 19.7332L9.73749 18.9046L10.8157 11.334L8.638 19.7332Z" fill="#2F9106"/>
<path d="M11.4192 20.9492L13.0418 14.6919L10.6003 20.3455L11.4192 20.9492Z" fill="#6AC414"/>
<path d="M11.4192 20.9492L12.2383 20.3325L13.0418 14.6919L11.4192 20.9492Z" fill="#4BB70B"/>
<path d="M9.47558 20.3364L11.0981 14.0791L8.65662 19.7323L9.47558 20.3364Z" fill="#6AC414"/>
<path d="M9.47574 20.3364L10.2947 19.7193L11.0983 14.0791L9.47574 20.3364Z" fill="#4BB70B"/>
<path d="M10.0577 20.7809L11.8903 13.7139L9.13321 20.0985L10.0577 20.7809Z" fill="#6AC414"/>
<path d="M10.0603 20.7809L10.9854 20.0838L11.8929 13.7139L10.0603 20.7809Z" fill="#4BB70B"/>
<path d="M10.832 21.3865L13.0095 12.9873L9.73264 20.5756L10.832 21.3865Z" fill="#6AC414"/>
<path d="M10.831 21.3865L11.9302 20.5585L13.0085 12.9873L10.831 21.3865Z" fill="#4BB70B"/>
<path d="M12.8117 21.9744L14.4343 15.7163L11.9927 21.3699L12.8117 21.9744Z" fill="#4DA004"/>
<path d="M12.7932 21.9986L13.6119 21.3814L14.4154 15.7412L12.7932 21.9986Z" fill="#2F9106"/>
<path d="M10.8492 21.3862L12.4717 15.1289L10.0305 20.7821L10.8492 21.3862Z" fill="#4DA004"/>
<path d="M10.8496 21.3862L11.6687 20.769L12.4722 15.1289L10.8496 21.3862Z" fill="#2F9106"/>
<path d="M11.4617 21.8253L13.2943 14.7588L10.5369 21.1433L11.4617 21.8253Z" fill="#4DA004"/>
<path d="M11.4454 21.8493L12.3705 21.1522L13.2779 14.7822L11.4454 21.8493Z" fill="#2F9106"/>
<path d="M12.2246 22.4099L14.4021 14.0107L11.1252 21.5989L12.2246 22.4099Z" fill="#4DA004"/>
<path d="M12.2049 22.4349L13.3044 21.6067L14.3826 14.0356L12.2049 22.4349Z" fill="#2F9106"/>
<path d="M14.9861 23.6514L16.6087 17.394L14.1672 23.0473L14.9861 23.6514Z" fill="#6AC414"/>
<path d="M14.9861 23.6514L15.8052 23.0342L16.6087 17.394L14.9861 23.6514Z" fill="#4BB70B"/>
<path d="M13.0425 23.0385L14.6647 16.7812L12.2235 22.4348L13.0425 23.0385Z" fill="#6AC414"/>
<path d="M13.0426 23.0385L13.8616 22.4218L14.6649 16.7812L13.0426 23.0385Z" fill="#4BB70B"/>
<path d="M13.6246 23.4827L15.4572 16.416L12.7001 22.8006L13.6246 23.4827Z" fill="#6AC414"/>
<path d="M13.6272 23.4827L14.5523 22.786L15.4598 16.416L13.6272 23.4827Z" fill="#4BB70B"/>
<path d="M14.3991 24.0883L16.5765 15.6895L13.2996 23.2777L14.3991 24.0883Z" fill="#6AC414"/>
<path d="M14.3979 24.0883L15.497 23.2597L16.5753 15.6895L14.3979 24.0883Z" fill="#4BB70B"/>
<path d="M16.3786 24.6767L18.0012 18.4194L15.5596 24.0726L16.3786 24.6767Z" fill="#4DA004"/>
<path d="M16.3601 24.7001L17.1788 24.0831L17.9823 18.4429L16.3601 24.7001Z" fill="#2F9106"/>
<path d="M14.416 24.087L16.0386 17.8296L13.5974 23.4832L14.416 24.087Z" fill="#4DA004"/>
<path d="M14.4165 24.087L15.2356 23.4702L16.0391 17.8296L14.4165 24.087Z" fill="#2F9106"/>
<path d="M15.0286 24.5264L16.8608 17.4595L14.1038 23.844L15.0286 24.5264Z" fill="#4DA004"/>
<path d="M15.0123 24.5509L15.9374 23.8543L16.8448 17.4844L15.0123 24.5509Z" fill="#2F9106"/>
<path d="M15.7915 25.1124L17.969 16.7129L14.692 24.3011L15.7915 25.1124Z" fill="#4DA004"/>
<path d="M15.7718 25.1365L16.8713 24.308L17.9496 16.7378L15.7718 25.1365Z" fill="#2F9106"/>
<path d="M18.553 26.3536L20.1756 20.0962L17.7341 25.7498L18.553 26.3536Z" fill="#6AC414"/>
<path d="M18.553 26.3536L19.3721 25.7368L20.1756 20.0962L18.553 26.3536Z" fill="#4BB70B"/>
<path d="M16.6094 25.7412L18.2316 19.4834L15.7904 25.1366L16.6094 25.7412Z" fill="#6AC414"/>
<path d="M16.6095 25.7412L17.4286 25.1236L18.2318 19.4834L16.6095 25.7412Z" fill="#4BB70B"/>
<path d="M17.1915 26.1846L19.0241 19.1177L16.267 25.5023L17.1915 26.1846Z" fill="#6AC414"/>
<path d="M17.1941 26.1846L18.1192 25.4876L19.0267 19.1177L17.1941 26.1846Z" fill="#4BB70B"/>
<path d="M17.9659 26.7902L20.1434 18.3911L16.8665 25.9794L17.9659 26.7902Z" fill="#6AC414"/>
<path d="M17.9648 26.7902L19.0639 25.9622L20.1422 18.3911L17.9648 26.7902Z" fill="#4BB70B"/>
</svg>
