<svg width="40" height="40" viewBox="0 0 40 40" fill="none" xmlns="http://www.w3.org/2000/svg">
<path d="M8.125 23.75H31.875V35H8.125V23.75Z" fill="#68B1FC"/>
<path d="M27.5 30C27.4179 30 27.3366 29.9839 27.2608 29.9525C27.1849 29.9211 27.116 29.8751 27.058 29.817C26.9999 29.759 26.9539 29.6901 26.9225 29.6142C26.8911 29.5384 26.875 29.4571 26.875 29.375V24.375C26.875 24.2092 26.9408 24.0503 27.0581 23.9331C27.1753 23.8158 27.3342 23.75 27.5 23.75C27.6658 23.75 27.8247 23.8158 27.9419 23.9331C28.0592 24.0503 28.125 24.2092 28.125 24.375V29.375C28.125 29.4571 28.1089 29.5384 28.0775 29.6142C28.0461 29.6901 28.0001 29.759 27.942 29.817C27.884 29.8751 27.8151 29.9211 27.7392 29.9525C27.6634 29.9839 27.5821 30 27.5 30Z" fill="#E7EAEF"/>
<path d="M4.375 23.75H9.375V35H4.375V23.75Z" fill="#AA744C"/>
<path d="M30.625 23.75H35.625V35H30.625V23.75Z" fill="#AA744C"/>
<path d="M38.0927 24.1772L36.8427 20.4272C36.8013 20.3028 36.7217 20.1946 36.6154 20.1179C36.509 20.0412 36.3811 19.9999 36.25 20H3.75C3.61886 19.9999 3.49104 20.0412 3.38466 20.1179C3.27828 20.1946 3.19875 20.3028 3.15735 20.4272L1.90735 24.1772C1.87588 24.2712 1.8672 24.3713 1.88205 24.4692C1.8969 24.5672 1.93485 24.6602 1.99275 24.7406C2.05065 24.8209 2.12686 24.8864 2.21506 24.9315C2.30326 24.9766 2.40093 25.0001 2.5 25H37.5C37.5991 25.0001 37.6967 24.9766 37.785 24.9315C37.8731 24.8864 37.9494 24.8209 38.0073 24.7406C38.0652 24.6602 38.1031 24.5672 38.118 24.4692C38.1328 24.3713 38.1241 24.2712 38.0927 24.1772Z" fill="#FCB860"/>
<path d="M38.0927 20.4272L36.8427 16.6772C36.8013 16.5528 36.7217 16.4446 36.6154 16.3679C36.509 16.2912 36.3811 16.2499 36.25 16.25H3.75C3.61886 16.2499 3.49104 16.2912 3.38466 16.3679C3.27828 16.4446 3.19875 16.5528 3.15735 16.6772L1.90735 20.4272C1.87588 20.5212 1.8672 20.6213 1.88205 20.7192C1.8969 20.8172 1.93485 20.9102 1.99275 20.9906C2.05065 21.0709 2.12686 21.1364 2.21506 21.1815C2.30326 21.2266 2.40093 21.2501 2.5 21.25H37.5C37.5991 21.2501 37.6967 21.2266 37.785 21.1815C37.8731 21.1364 37.9494 21.0709 38.0073 20.9906C38.0652 20.9102 38.1031 20.8172 38.118 20.7192C38.1328 20.6213 38.1241 20.5212 38.0927 20.4272Z" fill="#FCC67C"/>
<path d="M38.0927 16.6772L36.8427 12.9272C36.8013 12.8028 36.7217 12.6946 36.6154 12.6179C36.509 12.5412 36.3811 12.4999 36.25 12.5H3.75C3.61886 12.4999 3.49104 12.5412 3.38466 12.6179C3.27828 12.6946 3.19875 12.8028 3.15735 12.9272L1.90735 16.6772C1.87588 16.7712 1.8672 16.8713 1.88205 16.9692C1.8969 17.0672 1.93485 17.1602 1.99275 17.2406C2.05065 17.3209 2.12686 17.3864 2.21506 17.4315C2.30326 17.4766 2.40093 17.5001 2.5 17.5H37.5C37.5991 17.5001 37.6967 17.4766 37.785 17.4315C37.8731 17.3864 37.9494 17.3209 38.0073 17.2406C38.0652 17.1602 38.1031 17.0672 38.118 16.9692C38.1328 16.8713 38.1241 16.7712 38.0927 16.6772Z" fill="#FCB860"/>
<path d="M38.0927 12.9272L36.8427 9.17724C36.8013 9.05281 36.7217 8.94457 36.6154 8.86788C36.509 8.79119 36.3811 8.74995 36.25 8.75H3.75C3.61886 8.74995 3.49104 8.79119 3.38466 8.86788C3.27828 8.94457 3.19875 9.05281 3.15735 9.17724L1.90735 12.9272C1.87588 13.0212 1.8672 13.1213 1.88205 13.2192C1.8969 13.3172 1.93485 13.4102 1.99275 13.4906C2.05065 13.5709 2.12686 13.6364 2.21506 13.6815C2.30326 13.7266 2.40093 13.7501 2.5 13.75H37.5C37.5991 13.7501 37.6967 13.7266 37.785 13.6815C37.8731 13.6364 37.9494 13.5709 38.0073 13.4906C38.0652 13.4102 38.1031 13.3172 38.118 13.2192C38.1328 13.1213 38.1241 13.0212 38.0927 12.9272Z" fill="#FCC67C"/>
<path d="M35.625 33.75H4.375V38.125C4.375 38.2908 4.44085 38.4497 4.55806 38.5669C4.67527 38.6842 4.83424 38.75 5 38.75H35C35.1658 38.75 35.3247 38.6842 35.4419 38.5669C35.5592 38.4497 35.625 38.2908 35.625 38.125V33.75Z" fill="#B38051"/>
<path d="M38.0927 9.17724L36.8427 5.42724C36.8013 5.30281 36.7217 5.19457 36.6154 5.11788C36.509 5.04119 36.3811 4.99995 36.25 5H3.75C3.61886 4.99995 3.49104 5.04119 3.38466 5.11788C3.27828 5.19457 3.19875 5.30281 3.15735 5.42724L1.90735 9.17724C1.87588 9.27118 1.8672 9.37126 1.88205 9.46921C1.8969 9.56716 1.93485 9.66017 1.99275 9.74056C2.05065 9.82094 2.12686 9.8864 2.21506 9.93151C2.30326 9.97662 2.40093 10.0001 2.5 10H37.5C37.5991 10.0001 37.6967 9.97662 37.785 9.93151C37.8731 9.8864 37.9494 9.82094 38.0073 9.74056C38.0652 9.66017 38.1031 9.56716 38.118 9.46921C38.1328 9.37126 38.1241 9.27118 38.0927 9.17724Z" fill="#FCB860"/>
<path d="M6.25 5.625H7.5V25H6.25V5.625Z" fill="#FDD5A6"/>
<path d="M32.5 5.625H33.75V25H32.5V5.625Z" fill="#FDD5A6"/>
<path d="M37.5 1.25H2.5C1.80964 1.25 1.25 1.80964 1.25 2.5V5C1.25 5.69036 1.80964 6.25 2.5 6.25H37.5C38.1904 6.25 38.75 5.69036 38.75 5V2.5C38.75 1.80964 38.1904 1.25 37.5 1.25Z" fill="#FCAA52"/>
<path d="M27.5 32.5C28.5355 32.5 29.375 31.6605 29.375 30.625C29.375 29.5895 28.5355 28.75 27.5 28.75C26.4645 28.75 25.625 29.5895 25.625 30.625C25.625 31.6605 26.4645 32.5 27.5 32.5Z" fill="#FCB860"/>
</svg>
