<svg width="26" height="26" viewBox="0 0 26 26" fill="none" xmlns="http://www.w3.org/2000/svg">
<g clip-path="url(#clip0_1619_86921)">
<path d="M9.62891 23.1113C10.5264 23.1113 11.2539 22.3838 11.2539 21.4863C11.2539 20.5889 10.5264 19.8613 9.62891 19.8613C8.73144 19.8613 8.00391 20.5889 8.00391 21.4863C8.00391 22.3838 8.73144 23.1113 9.62891 23.1113Z" fill="black"/>
<path d="M19.5 23.1113C20.3975 23.1113 21.125 22.3838 21.125 21.4863C21.125 20.5889 20.3975 19.8613 19.5 19.8613C18.6025 19.8613 17.875 20.5889 17.875 21.4863C17.875 22.3838 18.6025 23.1113 19.5 23.1113Z" fill="black"/>
<path d="M23.8898 3.87846C23.8226 3.79561 23.7379 3.72868 23.6417 3.68248C23.5456 3.63627 23.4404 3.61194 23.3337 3.61124H8.29705L8.7665 5.05568H22.3876L20.4593 13.7223H9.62594L6.32538 3.27179C6.28968 3.1609 6.22769 3.06029 6.14469 2.97855C6.06168 2.8968 5.96014 2.83635 5.84872 2.80235L2.88761 1.89235C2.79656 1.86437 2.70089 1.8546 2.60606 1.86359C2.51123 1.87259 2.41911 1.90017 2.33494 1.94477C2.16496 2.03484 2.03772 2.18874 1.98122 2.37263C1.92471 2.55651 1.94357 2.75531 2.03364 2.92529C2.12371 3.09527 2.27761 3.22251 2.46149 3.27902L5.05427 4.07346L8.36927 14.5457L7.18483 15.5135L7.09094 15.6073C6.79796 15.945 6.6319 16.3742 6.62135 16.8211C6.6108 17.268 6.75643 17.7046 7.03316 18.0557C7.23001 18.2951 7.48015 18.4851 7.76357 18.6105C8.047 18.7359 8.35583 18.7932 8.66538 18.7779H20.7193C20.9108 18.7779 21.0945 18.7018 21.23 18.5664C21.3654 18.4309 21.4415 18.2472 21.4415 18.0557C21.4415 17.8641 21.3654 17.6804 21.23 17.545C21.0945 17.4095 20.9108 17.3335 20.7193 17.3335H8.54983C8.46666 17.3306 8.38563 17.3064 8.31457 17.2631C8.24351 17.2198 8.18481 17.1589 8.14415 17.0863C8.10349 17.0137 8.08225 16.9318 8.08246 16.8486C8.08268 16.7654 8.10435 16.6836 8.14538 16.6112L9.88594 15.1668H21.0371C21.204 15.1709 21.3672 15.117 21.4989 15.0143C21.6306 14.9115 21.7226 14.7664 21.7593 14.6035L24.0487 4.49235C24.0707 4.38468 24.0678 4.27342 24.0403 4.16703C24.0127 4.06065 23.9613 3.96195 23.8898 3.87846Z" fill="black"/>
</g>
<defs>
<clipPath id="clip0_1619_86921">
<rect width="26" height="26" fill="white"/>
</clipPath>
</defs>
</svg>
