<svg width="151" height="151" viewBox="0 0 151 151" fill="none" xmlns="http://www.w3.org/2000/svg">
<g filter="url(#filter0_d_1668_42183)">
<g filter="url(#filter1_d_1668_42183)">
<circle cx="75.5" cy="71.5" r="50.5" fill="#2A71F9"/>
</g>
<path d="M75.9039 46.7441C62.0467 46.7441 50.7661 56.6107 50.7661 68.7397C50.7661 80.8687 62.0467 90.7353 75.9039 90.7353C78.4965 90.7323 81.0763 90.3728 83.5709 89.6669L92.2592 95.1972C92.4963 95.3494 92.7701 95.435 93.0517 95.445C93.3334 95.455 93.6125 95.3891 93.8599 95.2541C94.1073 95.1192 94.3138 94.9202 94.4579 94.678C94.6019 94.4358 94.6782 94.1593 94.6787 93.8775V83.3039C96.6445 81.4181 98.2132 79.158 99.2925 76.6568C100.372 74.1556 100.94 71.4637 100.963 68.7397C101.042 56.6107 89.7611 46.7441 75.9039 46.7441ZM88.4728 68.7397C88.4728 69.1564 88.3073 69.556 88.0126 69.8506C87.718 70.1453 87.3184 70.3108 86.9017 70.3108H64.9061C64.4894 70.3108 64.0898 70.1453 63.7952 69.8506C63.5005 69.556 63.335 69.1564 63.335 68.7397C63.335 68.323 63.5005 67.9234 63.7952 67.6288C64.0898 67.3341 64.4894 67.1686 64.9061 67.1686H86.9017C87.3184 67.1686 87.718 67.3341 88.0126 67.6288C88.3073 67.9234 88.4728 68.323 88.4728 68.7397ZM83.3667 76.5953C83.3667 77.0119 83.2011 77.4116 82.9065 77.7062C82.6119 78.0008 82.2122 78.1664 81.7956 78.1664H70.0122C69.5955 78.1664 69.1959 78.0008 68.9013 77.7062C68.6066 77.4116 68.4411 77.0119 68.4411 76.5953C68.4411 76.1786 68.6066 75.7789 68.9013 75.4843C69.1959 75.1897 69.5955 75.0241 70.0122 75.0241H81.7956C82.2122 75.0241 82.6119 75.1897 82.9065 75.4843C83.2011 75.7789 83.3667 76.1786 83.3667 76.5953ZM63.7749 60.8841C63.7749 60.4675 63.9404 60.0678 64.2351 59.7732C64.5297 59.4786 64.9293 59.313 65.346 59.313H86.4618C86.8784 59.313 87.2781 59.4786 87.5727 59.7732C87.8673 60.0678 88.0329 60.4675 88.0329 60.8841C88.0329 61.3008 87.8673 61.7004 87.5727 61.9951C87.2781 62.2897 86.8784 62.4553 86.4618 62.4553H65.346C64.9293 62.4553 64.5297 62.2897 64.2351 61.9951C63.9404 61.7004 63.7749 61.3008 63.7749 60.8841Z" fill="white"/>
</g>
<defs>
<filter id="filter0_d_1668_42183" x="0" y="0" width="151" height="151" filterUnits="userSpaceOnUse" color-interpolation-filters="sRGB">
<feFlood flood-opacity="0" result="BackgroundImageFix"/>
<feColorMatrix in="SourceAlpha" type="matrix" values="0 0 0 0 0 0 0 0 0 0 0 0 0 0 0 0 0 0 127 0" result="hardAlpha"/>
<feOffset dy="4"/>
<feGaussianBlur stdDeviation="12.5"/>
<feComposite in2="hardAlpha" operator="out"/>
<feColorMatrix type="matrix" values="0 0 0 0 0.901961 0 0 0 0 0.756863 0 0 0 0 0.337255 0 0 0 0.32 0"/>
<feBlend mode="normal" in2="BackgroundImageFix" result="effect1_dropShadow_1668_42183"/>
<feBlend mode="normal" in="SourceGraphic" in2="effect1_dropShadow_1668_42183" result="shape"/>
</filter>
<filter id="filter1_d_1668_42183" x="19.05" y="15.75" width="112.9" height="112.9" filterUnits="userSpaceOnUse" color-interpolation-filters="sRGB">
<feFlood flood-opacity="0" result="BackgroundImageFix"/>
<feColorMatrix in="SourceAlpha" type="matrix" values="0 0 0 0 0 0 0 0 0 0 0 0 0 0 0 0 0 0 127 0" result="hardAlpha"/>
<feOffset dy="0.7"/>
<feGaussianBlur stdDeviation="2.975"/>
<feComposite in2="hardAlpha" operator="out"/>
<feColorMatrix type="matrix" values="0 0 0 0 0 0 0 0 0 0 0 0 0 0 0 0 0 0 0.17 0"/>
<feBlend mode="normal" in2="BackgroundImageFix" result="effect1_dropShadow_1668_42183"/>
<feBlend mode="normal" in="SourceGraphic" in2="effect1_dropShadow_1668_42183" result="shape"/>
</filter>
</defs>
</svg>
