<svg width="40" height="40" viewBox="0 0 31 40" fill="none" xmlns="http://www.w3.org/2000/svg">
<path d="M25.5124 33.6927H1.39917C0.626363 33.6927 0 33.1523 0 32.4858V1.20697C0 0.540397 0.626454 0 1.39917 0H25.5124C26.2852 0 26.9115 0.540397 26.9115 1.20697V32.4857C26.9116 33.1523 26.2852 33.6927 25.5124 33.6927Z" fill="#8AC9FE"/>
<path d="M25.51 0H21.8073C22.5801 0 23.2065 0.540397 23.2065 1.20697V32.4857C23.2065 33.1523 22.58 33.6927 21.8073 33.6927H25.51C26.2828 33.6927 26.9091 33.1523 26.9091 32.4857V1.20697C26.9092 0.540397 26.2828 0 25.51 0V0Z" fill="#60B7FF"/>
<path d="M5.17529 6.33888C5.27474 6.3195 5.3778 6.30841 5.48395 6.30841H26.9107V1.20772C26.9107 0.911783 26.7868 0.641155 26.582 0.431152L5.17529 6.33888Z" fill="#FD4755"/>
<path d="M29.6009 40.0003H5.48768C4.71487 40.0003 4.0885 39.4599 4.0885 38.7934V7.51458C4.0885 6.84794 4.71496 6.30762 5.48768 6.30762H29.6009C30.3737 6.30762 31 6.84801 31 7.51458V38.7933C31 39.4599 30.3736 40.0003 29.6009 40.0003Z" fill="#0593FC"/>
<path d="M7.44592 15.6004V9.76844C7.44592 9.45727 7.73836 9.20508 8.099 9.20508H15.3923C15.753 9.20508 16.0454 9.45735 16.0454 9.76844V15.6004C16.0454 15.9116 15.7529 16.1638 15.3923 16.1638H8.099C7.73836 16.1638 7.44592 15.9116 7.44592 15.6004Z" fill="#FFC4C8"/>
<path d="M7.44592 36.5394V30.7074C7.44592 30.3962 7.73836 30.144 8.099 30.144H15.3923C15.753 30.144 16.0454 30.3963 16.0454 30.7074V36.5394C16.0454 36.8505 15.7529 37.1027 15.3923 37.1027H8.099C7.73836 37.1027 7.44592 36.8505 7.44592 36.5394Z" fill="#FFC4C8"/>
<path d="M7.44592 26.3953V20.5634C7.44592 20.2522 7.73836 20 8.099 20H15.3923C15.753 20 16.0454 20.2523 16.0454 20.5634V26.3953C16.0454 26.7065 15.7529 26.9587 15.3923 26.9587H8.099C7.73836 26.9587 7.44592 26.7065 7.44592 26.3953Z" fill="#FFF3BE"/>
<path d="M29.5984 6.30762H25.8958C26.6686 6.30762 27.295 6.84801 27.295 7.51466V38.7934C27.295 39.4599 26.6686 40.0003 25.8958 40.0003H29.5984C30.3712 40.0003 30.9976 39.4599 30.9976 38.7934V7.51458C30.9976 6.84801 30.3711 6.30762 29.5984 6.30762Z" fill="#0182FC"/>
<path d="M22.2288 14.4289H18.9943C18.6079 14.4289 18.2946 14.1586 18.2946 13.8253C18.2946 13.4918 18.6079 13.2217 18.9943 13.2217H22.2288C22.6152 13.2217 22.9285 13.4919 22.9285 13.8253C22.9285 14.1586 22.6152 14.4289 22.2288 14.4289Z" fill="#C4E2FF"/>
<path d="M22.2288 25.2238H18.9943C18.6079 25.2238 18.2946 24.9536 18.2946 24.6202C18.2946 24.2868 18.6079 24.0166 18.9943 24.0166H22.2288C22.6152 24.0166 22.9285 24.2868 22.9285 24.6202C22.9285 24.9536 22.6152 25.2238 22.2288 25.2238Z" fill="#C4E2FF"/>
<path d="M22.2288 35.3678H18.9943C18.6079 35.3678 18.2946 35.0976 18.2946 34.7642C18.2946 34.4309 18.6079 34.1606 18.9943 34.1606H22.2288C22.6152 34.1606 22.9285 34.4309 22.9285 34.7642C22.9285 35.0976 22.6152 35.3678 22.2288 35.3678Z" fill="#C4E2FF"/>
<path d="M27.6415 12.1476H18.9943C18.6079 12.1476 18.2946 11.8774 18.2946 11.544C18.2946 11.2106 18.6079 10.9404 18.9943 10.9404H27.6415C28.028 10.9404 28.3412 11.2107 28.3412 11.544C28.3412 11.8774 28.028 12.1476 27.6415 12.1476Z" fill="#C4E2FF"/>
<path d="M27.6415 22.943H18.9943C18.6079 22.943 18.2946 22.6728 18.2946 22.3394C18.2946 22.0061 18.6079 21.7358 18.9943 21.7358H27.6415C28.028 21.7358 28.3412 22.0061 28.3412 22.3394C28.3412 22.6728 28.028 22.943 27.6415 22.943Z" fill="#C4E2FF"/>
<path d="M27.6415 33.0871H18.9943C18.6079 33.0871 18.2946 32.8168 18.2946 32.4835C18.2946 32.15 18.6079 31.8799 18.9943 31.8799H27.6415C28.028 31.8799 28.3412 32.1501 28.3412 32.4835C28.3412 32.8168 28.028 33.0871 27.6415 33.0871Z" fill="#C4E2FF"/>
<path d="M27.6369 10.9404H27.2931V12.1477H27.6369C28.0233 12.1477 28.3366 11.8775 28.3366 11.5441C28.3366 11.2107 28.0233 10.9404 27.6369 10.9404Z" fill="#B3DAFE"/>
<path d="M27.6369 21.7354H27.2931V22.9426H27.6369C28.0233 22.9426 28.3366 22.6724 28.3366 22.339C28.3366 22.0057 28.0233 21.7354 27.6369 21.7354Z" fill="#B3DAFE"/>
<path d="M27.6369 31.8794H27.2931V33.0867H27.6369C28.0233 33.0867 28.3366 32.8164 28.3366 32.4831C28.3366 32.1496 28.0233 31.8794 27.6369 31.8794Z" fill="#B3DAFE"/>
<path d="M26.58 0.431152L23.7351 1.21632V6.30841H26.9088V1.20765C26.9088 0.911783 26.7849 0.641077 26.58 0.431152Z" fill="#FB2B3A"/>
</svg>
