<svg width="40" height="40" viewBox="0 0 40 40" fill="none" xmlns="http://www.w3.org/2000/svg">
<g clip-path="url(#clip0_1619_86144)">
<path d="M19.6347 1.76955e-07H9.86846C9.45309 0.000369846 9.06277 0.198688 8.81755 0.533952C8.57233 0.869217 8.50159 1.30128 8.62708 1.69724L11.0719 9.43379C11.2429 9.97555 11.7452 10.3441 12.3133 10.3448H15.1719C15.4551 10.3466 15.7313 10.4331 15.965 10.5931L22.1664 14.9379C22.3855 15.0912 22.6466 15.173 22.914 15.1724H26.9712C27.6915 15.1724 28.2754 14.5885 28.2754 13.8683V8.07517C28.2753 7.71102 28.123 7.36349 27.8554 7.11655L20.5188 0.344828C20.2779 0.12293 19.9622 -0.000170361 19.6347 1.76955e-07Z" fill="#CF976A"/>
<path d="M38.6959 0H27.5538C27.017 5.21034e-05 26.535 0.329093 26.3394 0.829064C26.1438 1.32904 26.2746 1.89777 26.669 2.26207L29.4704 4.84965C29.8074 5.16112 30.2833 5.27245 30.7235 5.14276L39.0642 2.68966C39.6193 2.52625 40.0003 2.01659 40 1.43793V1.30414C40 0.958259 39.8626 0.626546 39.6181 0.381973C39.3735 0.1374 39.0418 0 38.6959 0V0Z" fill="#A59078"/>
<path d="M38.3271 5.78258L31.9692 7.65569C31.4147 7.81947 31.0341 8.32858 31.034 8.90672V13.8722C31.0359 14.5911 31.6192 15.1729 32.3381 15.1729H33.6837C33.7195 15.1729 33.7554 15.1715 33.7912 15.1688L38.803 14.755C39.4793 14.699 39.9997 14.1337 39.9995 13.455V7.035C39.9999 6.6237 39.8063 6.2363 39.4771 5.98976C39.1479 5.74322 38.7217 5.66644 38.3271 5.78258Z" fill="#CB8252"/>
<path d="M38.5899 17.5377L35.7554 17.7735C35.2146 17.8183 34.7582 18.1936 34.6099 18.7156L32.7981 25.0694C32.6686 25.5243 32.7952 26.0137 33.1292 26.3487L37.7754 30.999C38.1483 31.3719 38.7092 31.4835 39.1965 31.2816C39.6838 31.0798 40.0015 30.6044 40.0016 30.077V18.8356C40.0011 18.4713 39.8483 18.1238 39.5801 17.8773C39.3119 17.6308 38.9529 17.5076 38.5899 17.5377Z" fill="#CBB292"/>
<path d="M4.23793 0H1.30414C0.583882 0 0 0.583883 0 1.30414V9.04069C0 9.76095 0.583882 10.3448 1.30414 10.3448H6.68345C7.09882 10.3445 7.48914 10.1461 7.73436 9.81087C7.97958 9.47561 8.05032 9.04355 7.92483 8.64759L5.48069 0.911034C5.3095 0.36879 4.80656 9.47448e-05 4.23793 0V0Z" fill="#CBB292"/>
<path d="M1.30414 13.1035C0.583883 13.1035 0 13.6874 0 14.4077V27.7366C6.52345e-05 28.2305 0.279075 28.6819 0.720756 28.9028C1.16244 29.1237 1.69101 29.0762 2.08621 28.7801L4.67517 26.8387C5.08688 26.53 5.27844 26.008 5.16414 25.5063L2.57586 14.1187C2.44094 13.5249 1.91306 13.1035 1.30414 13.1035Z" fill="#A59078"/>
<path d="M6.70276 28.7657L0.521379 33.4022C0.193163 33.6484 0 34.0347 0 34.445V38.696C0 39.4163 0.583883 40.0002 1.30414 40.0002H7.99379C8.42976 40.0002 8.83688 39.7823 9.07862 39.4195L12.5766 34.1698C12.8096 33.821 12.8609 33.3815 12.7145 32.9884L11.6234 30.0815C11.473 29.6807 11.1353 29.3794 10.72 29.2753L7.8069 28.5443C7.42431 28.4475 7.01846 28.5289 6.70276 28.7657Z" fill="#CF976A"/>
<path d="M20.7656 35.1724H15.9194C15.4836 35.1723 15.0766 35.3899 14.8346 35.7524L13.3539 37.9724C13.0866 38.3723 13.0614 38.8869 13.2882 39.3111C13.515 39.7353 13.957 40.0001 14.438 39.9999H20.7656C21.4859 39.9999 22.0697 39.4161 22.0697 38.6958V36.4765C22.0697 35.7562 21.4859 35.1724 20.7656 35.1724Z" fill="#CBB292"/>
<path d="M30.1109 29.0811L25.2074 33.9839C24.9629 34.2284 24.8254 34.5601 24.8254 34.9059V38.699C24.8269 39.4182 25.4103 40.0004 26.1295 40.0004H38.6937C39.4139 40.0004 39.9978 39.4165 39.9978 38.6963V37.6556C39.9979 37.3095 39.8605 36.9775 39.6157 36.7328L31.9543 29.0776C31.7095 28.8335 31.3777 28.6966 31.0319 28.6973C30.6861 28.6979 30.3548 28.836 30.1109 29.0811Z" fill="#CF976A"/>
<path d="M14.3264 13.103H6.80913C6.4125 13.103 6.03742 13.2835 5.79006 13.5936C5.54269 13.9036 5.44996 14.3094 5.5381 14.6961L7.87396 24.9823C7.983 25.4623 8.35293 25.8399 8.83051 25.9589L11.1015 26.5251C11.5895 26.6465 12.1039 26.4767 12.4236 26.0885L19.1581 17.9154C19.3892 17.6348 19.4927 17.2705 19.4436 16.9103C19.3945 16.5501 19.1972 16.2267 18.8995 16.0182L15.074 13.3389C14.855 13.1852 14.5939 13.1028 14.3264 13.103Z" fill="#CB8252"/>
<path d="M30.2377 17.9307H23.3343C22.9445 17.9306 22.5752 18.1049 22.3274 18.4058L14.4653 27.9562C14.1691 28.3161 14.0876 28.8067 14.2515 29.2431L15.1246 31.5679C15.3158 32.0767 15.8025 32.4136 16.346 32.4134H22.3371C22.6829 32.4134 23.0146 32.2759 23.2591 32.0314L29.5695 25.721C29.7259 25.5642 29.84 25.3704 29.9012 25.1576L31.4915 19.5927C31.6038 19.1993 31.525 18.776 31.2786 18.4494C31.0322 18.1228 30.6469 17.9307 30.2377 17.9307Z" fill="#A59078"/>
</g>
<defs>
<clipPath id="clip0_1619_86144">
<rect width="40" height="40" fill="white"/>
</clipPath>
</defs>
</svg>
