<svg width="18" height="22" viewBox="0 0 18 22" fill="none" xmlns="http://www.w3.org/2000/svg">
<path d="M9.04501 18.7287C9.34876 18.7287 10.3238 18.3237 11.7188 17.0337C13.935 14.9937 16.5225 11.4087 16.5225 8.03373C16.5225 6.03864 15.73 4.12526 14.3192 2.71452C12.9085 1.30378 10.9951 0.51123 9.00001 0.51123C7.00492 0.51123 5.09154 1.30378 3.6808 2.71452C2.27006 4.12526 1.47751 6.03864 1.47751 8.03373C1.47751 13.3362 7.65376 18.6162 9.04501 18.7287ZM9.00001 3.55248C9.70906 3.55248 10.4022 3.76274 10.9917 4.15666C11.5813 4.55059 12.0408 5.11049 12.3121 5.76556C12.5835 6.42063 12.6545 7.14146 12.5161 7.83688C12.3778 8.5323 12.0364 9.17109 11.535 9.67246C11.0336 10.1738 10.3948 10.5153 9.69941 10.6536C9.00399 10.7919 8.28317 10.7209 7.62809 10.4496C6.97302 10.1782 6.41312 9.71875 6.01919 9.1292C5.62527 8.53965 5.41501 7.84653 5.41501 7.13748C5.416 6.18698 5.79403 5.2757 6.46613 4.6036C7.13823 3.9315 8.04951 3.55347 9.00001 3.55248ZM17.175 19.4337C17.175 20.135 14.2913 21.4962 9.00001 21.4962C3.70876 21.4962 0.825012 20.135 0.825012 19.4337C0.825012 18.965 2.17501 18.095 5.18251 17.645C5.23477 17.6367 5.28539 17.6203 5.33251 17.5962C6.74251 18.9275 8.12251 19.7825 8.95501 19.8462H9.06001C10.185 19.8462 11.8238 18.4625 12.4838 17.855C12.5663 17.78 12.6488 17.6975 12.7313 17.615C12.7595 17.6242 12.7883 17.6317 12.8175 17.6375C15.825 18.095 17.175 18.965 17.175 19.4337Z" fill="white"/>
</svg>
