<svg width="28" height="30" viewBox="0 0 28 30" fill="none" >
<path d="M21.2505 15.813C21.4771 15.586 21.6021 15.2848 21.6021 14.9643C21.6021 14.6439 21.4771 14.3423 21.2505 14.1161L16.6383 9.50343C16.4117 9.27644 16.1105 9.15186 15.7901 9.15186C15.4692 9.15186 15.168 9.27644 14.9414 9.50343C14.7149 9.72999 14.5898 10.0312 14.5898 10.3521C14.5898 10.6725 14.7149 10.9737 14.9414 11.2003L18.4034 14.6627C18.5702 14.8295 18.5702 15.0992 18.4034 15.266L14.9414 18.728C14.7149 18.9545 14.5898 19.2557 14.5898 19.5766C14.5898 19.897 14.7149 20.1983 14.9414 20.4248C15.3945 20.8779 16.1847 20.8784 16.6387 20.4248L21.2505 15.813Z" fill="#37C3F4"/>
<path d="M14.1218 13.7559H2.46486C1.8031 13.7559 1.26465 14.2939 1.26465 14.9556C1.26465 15.6174 1.8031 16.1559 2.46486 16.1559H14.1218C14.7836 16.1559 15.322 15.6174 15.322 14.9556C15.322 14.2939 14.7836 13.7559 14.1218 13.7559Z" fill="#37C3F4"/>
<path d="M14.1216 17.0093H2.46468C1.33273 17.0093 0.411133 16.0881 0.411133 14.9557C0.411133 13.8238 1.33231 12.9026 2.46468 12.9026H14.1216C15.2536 12.9026 16.1752 13.8238 16.1752 14.9557C16.1752 16.0881 15.2536 17.0093 14.1216 17.0093ZM2.46468 13.7559C1.80292 13.7559 1.26447 14.2939 1.26447 14.9557C1.26447 15.6175 1.80292 16.1559 2.46468 16.1559H14.1216C14.7834 16.1559 15.3219 15.6175 15.3219 14.9557C15.3219 14.2939 14.7834 13.7559 14.1216 13.7559H2.46468Z" fill="black"/>
<path d="M21.2511 15.8128C21.4777 15.5858 21.6027 15.2846 21.6027 14.9642C21.6027 14.6438 21.4777 14.3421 21.2511 14.116L21.1683 14.0332C21.1696 14.0592 21.176 14.0844 21.176 14.1109C21.176 14.5456 21.0066 14.9539 20.6994 15.2611L16.0872 19.8734C15.78 20.1806 15.3712 20.35 14.9373 20.35C14.916 20.35 14.8959 20.3445 14.875 20.3436C14.8976 20.3705 14.9168 20.3999 14.942 20.4251C15.3951 20.8782 16.1853 20.8786 16.6393 20.4251L21.2511 15.8128Z" fill="white"/>
<path d="M15.7899 21.6295C15.2412 21.6295 14.7253 21.4162 14.3379 21.0279C13.9501 20.6401 13.7363 20.1247 13.7363 19.5764C13.7363 19.0277 13.9501 18.5123 14.3379 18.1245L17.4982 14.9642L14.3379 11.8034C13.9501 11.4156 13.7363 10.9002 13.7363 10.3519C13.7363 9.80319 13.9501 9.28778 14.3379 8.89994C14.7253 8.5121 15.2412 8.29834 15.7899 8.29834C16.3381 8.29834 16.854 8.5121 17.2414 8.89994L21.8537 13.5122C22.2415 13.9 22.4553 14.4155 22.4553 14.9642C22.4553 15.5124 22.2415 16.0283 21.8537 16.4161L17.2414 21.0284C16.854 21.4162 16.3386 21.6295 15.7899 21.6295ZM15.7899 9.15167C15.469 9.15167 15.1678 9.27626 14.9412 9.50325C14.7147 9.72981 14.5897 10.031 14.5897 10.3519C14.5897 10.6723 14.7147 10.9735 14.9412 11.2001L18.4032 14.6625C18.57 14.8293 18.57 15.099 18.4032 15.2658L14.9412 18.7278C14.7147 18.9543 14.5897 19.2556 14.5897 19.5764C14.5897 19.8968 14.7147 20.1981 14.9412 20.4246C15.3944 20.8778 16.1845 20.8782 16.6385 20.4246L21.2508 15.8124C21.4773 15.5854 21.6024 15.2842 21.6024 14.9637C21.6024 14.6433 21.4773 14.3416 21.2508 14.1155L16.6385 9.50282C16.4115 9.27626 16.1103 9.15167 15.7899 9.15167Z" fill="black"/>
<path d="M11.3461 28.2625H24.574C25.7661 28.2625 26.7355 27.2931 26.7355 26.101V3.89855C26.7355 2.70687 25.7661 1.73706 24.574 1.73706H11.3461C10.1544 1.73706 9.185 2.70645 9.185 3.89855V9.36074C9.185 10.0694 9.76185 10.6463 10.4705 10.6463C10.8144 10.6463 11.1374 10.5123 11.3798 10.2695C11.6225 10.0263 11.7565 9.70293 11.7561 9.35903L11.7467 4.75103C11.7463 4.51551 11.9366 4.32394 12.1725 4.32351L23.7215 4.29919C23.722 4.29919 23.722 4.29919 23.7224 4.29919C23.8354 4.29919 23.9438 4.34399 24.0236 4.42378C24.1038 4.50399 24.149 4.61237 24.149 4.72543L24.1755 25.2754C24.1755 25.3889 24.1311 25.4977 24.0509 25.5775C23.9707 25.6577 23.8623 25.7025 23.7488 25.7025H12.1985C11.963 25.7025 11.7723 25.5122 11.7719 25.2767L11.7621 20.5684C11.7612 19.858 11.1835 19.2807 10.4731 19.2807C9.7627 19.2807 9.18457 19.8589 9.18457 20.5697V26.1014C9.185 27.2931 10.1544 28.2625 11.3461 28.2625Z" fill="#EF3039"/>
<path d="M24.5734 29.1159H11.3455C9.68316 29.1159 8.33105 27.7634 8.33105 26.1011V20.5698C8.33105 19.3883 9.29191 18.4275 10.4729 18.4275C11.6531 18.4275 12.6144 19.3875 12.6152 20.5672L12.6242 24.8492H23.3207L23.2951 5.15344L12.5999 5.17606L12.6088 9.35782C12.6092 9.9304 12.3869 10.4684 11.9833 10.8725C11.5793 11.277 11.0417 11.4997 10.4699 11.4997C9.29063 11.4997 8.33105 10.5401 8.33105 9.3608V3.89862C8.33105 2.23632 9.68359 0.883789 11.3455 0.883789H24.5734C26.2357 0.883789 27.5882 2.23632 27.5882 3.89862V26.1011C27.5887 27.7638 26.2361 29.1159 24.5734 29.1159ZM10.4725 19.2808C9.76209 19.2808 9.18396 19.8589 9.18396 20.5698V26.1015C9.18396 27.2932 10.1533 28.263 11.345 28.263H24.573C25.7651 28.263 26.7345 27.2936 26.7345 26.1015V3.89862C26.7345 2.70694 25.7651 1.73712 24.573 1.73712H11.3455C10.1538 1.73712 9.18439 2.70651 9.18439 3.89862V9.3608C9.18439 10.0695 9.76124 10.6463 10.4699 10.6463C10.8138 10.6463 11.1368 10.5124 11.3792 10.2696C11.6219 10.0264 11.7559 9.70299 11.7555 9.35909L11.7461 4.7511C11.7457 4.51558 11.936 4.324 12.1719 4.32358L23.7209 4.29926C23.7213 4.29926 23.7213 4.29926 23.7218 4.29926C23.8348 4.29926 23.9432 4.34406 24.023 4.42384C24.1032 4.50406 24.1484 4.61243 24.1484 4.7255L24.1749 25.2755C24.1749 25.389 24.1305 25.4978 24.0503 25.5775C23.9701 25.6578 23.8617 25.7026 23.7482 25.7026H12.1979C11.9624 25.7026 11.7717 25.5123 11.7713 25.2767L11.7615 20.5685C11.7606 19.8585 11.1825 19.2808 10.4725 19.2808Z" fill="black"/>
</svg>
