<svg width="24" height="22" viewBox="0 0 24 22" fill="none" >
<path d="M9.912 5.0479C9.6255 1.7524 6.1875 0.135402 6.042 0.0694017C5.90598 0.00546231 5.75355 -0.0149663 5.6055 0.0109018C1.6365 0.669402 1.0395 2.9794 1.0155 3.0754C0.982847 3.20918 0.98804 3.3494 1.0305 3.4804C5.7645 18.1684 15.603 20.8909 18.837 21.7864C19.086 21.8554 19.2915 21.9109 19.4475 21.9619C19.6255 22.0201 19.8189 22.0088 19.989 21.9304C20.088 21.8854 22.425 20.7844 22.9965 17.1934C23.0218 17.0366 22.9966 16.8759 22.9245 16.7344C22.8735 16.6354 21.651 14.3089 18.261 13.4869C18.146 13.4575 18.0256 13.4565 17.9101 13.4839C17.7946 13.5113 17.6875 13.5664 17.598 13.6444C16.5285 14.5579 15.051 15.5314 14.4135 15.6319C10.14 13.5424 7.7535 9.5329 7.6635 8.7724C7.611 8.3449 8.5905 6.8434 9.717 5.6224C9.7878 5.54556 9.84173 5.45474 9.87532 5.35579C9.9089 5.25685 9.9214 5.15197 9.912 5.0479Z" fill="white"/>
</svg>
