<svg width="40" height="40" viewBox="0 0 34 34" fill="none" xmlns="http://www.w3.org/2000/svg">
<path d="M25.1687 33.7209H8.82782C7.97204 33.7209 7.27826 33.0347 7.27826 32.1882V1.81111C7.27826 0.964591 7.97204 0.27832 8.82782 0.27832H25.1687C26.0245 0.27832 26.7182 0.964591 26.7182 1.81111V32.1882C26.7182 33.0347 26.0245 33.7209 25.1687 33.7209Z" fill="#4671C6"/>
<path d="M24.8887 1.25391H22.2827V1.53259C22.2827 2.14822 21.7781 2.64735 21.1557 2.64735H12.8444C12.222 2.64735 11.7174 2.14822 11.7174 1.53259V1.25391H9.11136C8.64452 1.25391 8.26614 1.62818 8.26614 2.08997V31.9096C8.26614 32.3714 8.64452 32.7457 9.11136 32.7457H24.8887C25.3556 32.7457 25.734 32.3714 25.734 31.9096V2.08997C25.734 1.62818 25.3556 1.25391 24.8887 1.25391Z" fill="#6BDDDD"/>
<path d="M31.4356 14.5677C31.3566 14.1768 31.0098 13.8955 30.6067 13.8955H17.0026H17.0014H3.39738C2.9945 13.8955 2.64754 14.1768 2.56851 14.5677L0.300369 25.7916C0.195843 26.309 0.595913 26.7915 1.12924 26.7915H17.0016H17.0027H32.875C33.4083 26.7915 33.8084 26.3089 33.7039 25.7916L31.4356 14.5677Z" fill="#F9CFCF"/>
<path d="M32.8729 27.0709H1.12716C0.788224 27.0709 0.470563 26.9222 0.255737 26.6629C0.0407704 26.4037 -0.0443147 26.0663 0.0220348 25.7375L2.29017 14.5136C2.39512 13.9941 2.85985 13.6172 3.39529 13.6172H30.6046C31.1401 13.6172 31.6048 13.9941 31.7098 14.5136L33.9779 25.7375C34.0444 26.0662 33.9592 26.4036 33.7442 26.6629C33.5295 26.9222 33.2119 27.0709 32.8729 27.0709ZM3.39529 14.1748C3.12764 14.1748 2.89521 14.3634 2.8428 14.623L0.574666 25.8467C0.54142 26.0113 0.583963 26.1799 0.691446 26.3095C0.79893 26.4392 0.95769 26.5135 1.12716 26.5135H32.8729C33.0424 26.5135 33.2012 26.4392 33.3086 26.3095C33.4161 26.1798 33.4587 26.0112 33.4254 25.8467L31.1573 14.6228C31.1049 14.3632 30.8724 14.1747 30.6048 14.1747H3.39529V14.1748Z" fill="#3762CC"/>
<path d="M25.7341 13.8955H17.0008H16.9996H8.2663V26.7915H16.9996H17.0008H25.7341V13.8955Z" fill="#B9BEFC"/>
<path d="M25.7322 27.0707H8.26434C8.10882 27.0707 7.9826 26.9459 7.9826 26.792V13.8959C7.9826 13.742 8.10882 13.6172 8.26434 13.6172H25.7322C25.8877 13.6172 26.0139 13.742 26.0139 13.8959V26.792C26.0139 26.946 25.8877 27.0707 25.7322 27.0707ZM8.54608 26.5134H25.4504V14.1746H8.54608V26.5134Z" fill="#3762CC"/>
<path d="M5.0422 12.2119C5.0112 12.2646 4.99402 12.3252 4.99402 12.3885V18.6206C4.99402 18.6838 5.0112 18.7444 5.0422 18.797C5.07305 18.8494 5.11742 18.8938 5.17236 18.925C10.3473 21.8456 9.16474 21.1782 10.7137 22.0523C10.8226 22.1136 10.9438 22.1444 11.0649 22.1444V15.6109L5.0422 12.2119Z" fill="#E0EBFC"/>
<path d="M17.0868 12.2119C17.1178 12.2646 17.135 12.3252 17.135 12.3885V18.6206C17.135 18.6838 17.1178 18.7444 17.0868 18.797C17.056 18.8494 17.0116 18.8938 16.9567 18.925C11.7817 21.8456 12.9643 21.1782 11.4153 22.0523C11.3064 22.1136 11.1853 22.1444 11.0641 22.1444V15.6109L17.0868 12.2119Z" fill="#E0EBFC"/>
<path d="M16.9578 12.0837L11.427 8.96243C11.315 8.89931 11.1903 8.86768 11.0657 8.86768C10.941 8.86768 10.8163 8.89931 10.7043 8.96243L5.17352 12.0837C5.1183 12.1148 5.07379 12.1594 5.04294 12.2118L11.0657 15.6108C11.3005 15.4783 16.7822 12.3847 17.0884 12.2118C17.0576 12.1594 17.0129 12.115 16.9578 12.0837Z" fill="#E0EBFC"/>
<path d="M11.063 22.4234C10.8914 22.4234 10.7216 22.3789 10.5723 22.2946L5.0308 19.1673C4.93389 19.1124 4.85289 19.0331 4.79668 18.9377C4.74019 18.8415 4.71033 18.732 4.71033 18.6211V12.3888C4.71033 12.2776 4.74019 12.168 4.79682 12.072C4.87458 11.9398 5.0456 11.8945 5.17999 11.9703L11.2026 15.3693C11.2905 15.4189 11.3447 15.5115 11.3447 15.6114V22.1448C11.3447 22.2985 11.2185 22.4234 11.063 22.4234ZM5.2738 12.6651V18.6209C5.2738 18.6336 5.27719 18.6462 5.28367 18.6572C5.29015 18.6682 5.29916 18.6771 5.31001 18.6832L10.7811 21.7709V15.7732L5.2738 12.6651Z" fill="#3762CC"/>
<path d="M11.0622 22.4225C10.9066 22.4225 10.7804 22.2976 10.7804 22.1438V15.6103C10.7804 15.5103 10.8347 15.4179 10.9226 15.3683L16.9453 11.9693C17.0797 11.8936 17.2506 11.9388 17.3283 12.071C17.3849 12.167 17.4148 12.2767 17.4148 12.3877V18.6199C17.4148 18.7311 17.3849 18.8406 17.3283 18.9366C17.2725 19.0318 17.1915 19.1114 17.0943 19.1661L11.553 22.2934C11.4035 22.378 11.2339 22.4225 11.0622 22.4225ZM11.3439 15.7721V21.7699L16.815 18.6822C16.826 18.676 16.8351 18.6671 16.8415 18.6563C16.848 18.6453 16.8513 18.6327 16.8513 18.6199V12.664L11.3439 15.7721Z" fill="#3762CC"/>
<path d="M11.0635 15.8897C11.0153 15.8897 10.9672 15.8775 10.9239 15.8531L4.90118 12.4542C4.83596 12.4173 4.78821 12.3563 4.76877 12.2844C4.74933 12.2124 4.75961 12.1361 4.7975 12.0719C4.85399 11.976 4.93527 11.8964 5.03233 11.8419L10.5627 8.72076C10.8677 8.54881 11.2596 8.54881 11.5644 8.72076L17.0954 11.8421C17.1925 11.8968 17.2736 11.9764 17.33 12.072C17.3677 12.1362 17.378 12.2129 17.3584 12.2845C17.339 12.3563 17.2912 12.4173 17.226 12.4542L11.2033 15.8532C11.1599 15.8775 11.1117 15.8897 11.0635 15.8897ZM5.5613 12.1849L11.0635 15.2901L16.5659 12.1849L11.2852 9.20484C11.1503 9.12862 10.977 9.12862 10.8419 9.20484L5.5613 12.1849Z" fill="#3762CC"/>
<path d="M25.1687 0.27832H8.82782C7.97204 0.27832 7.27826 0.964591 7.27826 1.81111V32.1882C7.27826 33.0347 7.97204 33.7209 8.82782 33.7209H25.1687C26.0245 33.7209 26.7182 33.0347 26.7182 32.1882V1.81111C26.7182 0.964591 26.0245 0.27832 25.1687 0.27832ZM25.7322 31.9095C25.7322 32.3713 25.3538 32.7455 24.8869 32.7455H9.10956C8.64272 32.7455 8.26435 32.3713 8.26435 31.9095V2.0898C8.26435 1.62801 8.64272 1.25373 9.10956 1.25373H11.7156V1.53242C11.7156 2.14804 12.2202 2.64717 12.8426 2.64717H21.1539C21.7763 2.64717 22.2809 2.14804 22.2809 1.53242V1.25373H24.8869C25.3538 1.25373 25.7322 1.62801 25.7322 2.0898V31.9095Z" fill="#4671C6"/>
<path d="M25.1716 34H8.83075C7.821 34 6.99945 33.1873 6.99945 32.1885V1.81148C6.99945 0.812656 7.821 0 8.83075 0H25.1716C26.1814 0 27.0029 0.812656 27.0029 1.81148V32.1885C27.0029 33.1873 26.1814 34 25.1716 34ZM8.83075 0.557377C8.13176 0.557377 7.56293 1.11991 7.56293 1.81148V32.1885C7.56293 32.8801 8.13176 33.4426 8.83075 33.4426H25.1716C25.8706 33.4426 26.4394 32.8801 26.4394 32.1885V1.81148C26.4394 1.11991 25.8706 0.557377 25.1716 0.557377H8.83075Z" fill="#3762CC"/>
<path d="M24.8869 33.0243H9.10956C8.48819 33.0243 7.9826 32.5242 7.9826 31.9095V2.08985C7.9826 1.4752 8.48819 0.975098 9.10956 0.975098H11.7156C11.8712 0.975098 11.9974 1.09995 11.9974 1.25379V1.53247C11.9974 1.99356 12.3765 2.36854 12.8426 2.36854H21.1539C21.62 2.36854 21.9991 1.99356 21.9991 1.53247V1.25379C21.9991 1.09995 22.1253 0.975098 22.2809 0.975098H24.8869C25.5083 0.975098 26.0139 1.4752 26.0139 2.08985V31.9095C26.0139 32.5242 25.5083 33.0243 24.8869 33.0243ZM9.10956 1.53247C8.7988 1.53247 8.54608 1.78246 8.54608 2.08985V31.9095C8.54608 32.2169 8.7988 32.4669 9.10956 32.4669H24.8869C25.1977 32.4669 25.4504 32.2169 25.4504 31.9095V2.08985C25.4504 1.78246 25.1977 1.53247 24.8869 1.53247H22.5626C22.5626 2.30082 21.9307 2.92592 21.1539 2.92592H12.8426C12.0658 2.92592 11.4339 2.30082 11.4339 1.53247H9.10956Z" fill="#3762CC"/>
<path d="M20.4419 1.88178C20.7342 1.88178 20.9713 1.64734 20.9713 1.35813C20.9713 1.06892 20.7342 0.834473 20.4419 0.834473C20.1495 0.834473 19.9125 1.06892 19.9125 1.35813C19.9125 1.64734 20.1495 1.88178 20.4419 1.88178Z" fill="#A4C9FF"/>
<path d="M18.7493 1.73613C18.9605 1.73613 19.1317 1.56675 19.1317 1.35781C19.1317 1.14887 18.9605 0.979492 18.7493 0.979492C18.5381 0.979492 18.3668 1.14887 18.3668 1.35781C18.3668 1.56675 18.5381 1.73613 18.7493 1.73613Z" fill="#A4C9FF"/>
<path d="M17.183 1.73613H13.1585C12.9472 1.73613 12.7761 1.56669 12.7761 1.35781C12.7761 1.1488 12.9474 0.979492 13.1585 0.979492H17.183C17.3943 0.979492 17.5655 1.14893 17.5655 1.35781C17.5655 1.56683 17.3942 1.73613 17.183 1.73613Z" fill="#A4C9FF"/>
<path d="M14.0556 9.82366C13.9902 9.82366 13.9246 9.80136 13.8713 9.75566C13.7537 9.65491 13.7407 9.47892 13.8426 9.36257L15.7321 7.20273C15.7856 7.14156 15.8635 7.10645 15.9452 7.10645H23.1295C23.285 7.10645 23.4113 7.2313 23.4113 7.38513C23.4113 7.53897 23.285 7.66382 23.1295 7.66382H16.0739L14.2688 9.72737C14.2131 9.79105 14.1345 9.82366 14.0556 9.82366Z" fill="#F9A7A7"/>
<path d="M23.129 6.40961H16.1559C15.9614 6.40961 15.8038 6.25369 15.8038 6.06125C15.8038 5.86882 15.9614 5.71289 16.1559 5.71289H23.129C23.3235 5.71289 23.4812 5.86882 23.4812 6.06125C23.4812 6.25369 23.3235 6.40961 23.129 6.40961Z" fill="#E0EBFC"/>
<path d="M23.129 5.01606H16.1559C15.9614 5.01606 15.8038 4.86013 15.8038 4.6677C15.8038 4.47526 15.9614 4.31934 16.1559 4.31934H23.129C23.3235 4.31934 23.4812 4.47526 23.4812 4.6677C23.4812 4.86013 23.3235 5.01606 23.129 5.01606Z" fill="#E0EBFC"/>
<path d="M23.2861 21.5893H16.1017C16.02 21.5893 15.9421 21.5542 15.8886 21.493L13.9991 19.3332C13.8972 19.2168 13.9102 19.0409 14.0278 18.9401C14.1455 18.8392 14.3235 18.852 14.4252 18.9685L16.2303 21.0321H23.2859C23.4414 21.0321 23.5677 21.1569 23.5677 21.3108C23.5677 21.4646 23.4417 21.5893 23.2861 21.5893Z" fill="#F9A7A7"/>
<path d="M23.2393 18.8032H18.5919C18.3973 18.8032 18.2397 18.6472 18.2397 18.4548C18.2397 18.2624 18.3973 18.1064 18.5919 18.1064H23.2393C23.4338 18.1064 23.5915 18.2624 23.5915 18.4548C23.5915 18.6472 23.4338 18.8032 23.2393 18.8032Z" fill="#E0EBFC"/>
<path d="M23.2393 20.1967H18.5919C18.3973 20.1967 18.2397 20.0408 18.2397 19.8484C18.2397 19.6559 18.3973 19.5 18.5919 19.5H23.2393C23.4338 19.5 23.5915 19.6559 23.5915 19.8484C23.5915 20.0408 23.4338 20.1967 23.2393 20.1967Z" fill="#E0EBFC"/>
<path d="M22.7061 25.2566H19.0144C18.781 25.2566 18.5918 25.0694 18.5918 24.8386V24.1671C18.5918 23.9362 18.781 23.749 19.0144 23.749H22.7061C22.9395 23.749 23.1287 23.9362 23.1287 24.1671V24.8386C23.1287 25.0694 22.9395 25.2566 22.7061 25.2566Z" fill="#F9A7A7"/>
</svg>
