<svg width="20" height="22" viewBox="0 0 20 22" fill="none" xmlns="http://www.w3.org/2000/svg">
<path d="M15.0781 16.4482H4.11226C1.84595 16.4482 0 18.2942 0 20.5603V21.9311H0.913825V20.5603C0.913825 18.7968 2.34852 17.3621 4.11226 17.3621H5.02608V19.4592L9.59521 21.9997L14.1643 19.4592V17.3621H15.0782C16.8417 17.3621 18.2766 18.7968 18.2766 20.5603V21.9311H19.1904V20.5603C19.1904 18.2942 17.3445 16.4482 15.0782 16.4482H15.0781ZM11.1029 17.3621L9.59504 20.0761L8.08733 17.3621H11.1029ZM5.93978 17.3621H7.04091L8.78636 20.5011L5.93978 18.9202V17.3621ZM13.2505 18.9202L10.4039 20.5011L12.1492 17.3621H13.2505V18.9202Z" fill="black"/>
<path d="M2.28471 10.966H3.65554V6.85369C3.65554 3.57756 6.31932 0.914002 9.59523 0.914002C12.8711 0.914002 15.5349 3.57778 15.5349 6.85369V10.966C15.5349 11.4685 15.1237 11.8798 14.6211 11.8798H14.4246C14.5481 11.4411 14.6211 10.9841 14.6211 10.5089V6.85369C14.6211 4.08013 12.3686 1.82756 9.59496 1.82756C6.82158 1.82756 4.56883 4.08008 4.56883 6.85369V10.5089C4.56883 13.2825 6.82153 15.5351 9.59496 15.5351C11.5414 15.5351 13.2321 14.4201 14.0682 12.7936H14.621C15.6308 12.7936 16.4487 11.9756 16.4487 10.966H16.9057C17.6596 10.966 18.2763 10.3491 18.2763 9.59517V7.76752C18.2763 7.01355 17.6596 6.39669 16.9057 6.39669H16.4259C16.1883 2.83274 13.2183 0 9.59519 0C5.97188 0 3.00182 2.83296 2.76448 6.39669H2.28471C1.53093 6.39669 0.914062 7.01355 0.914062 7.76752V9.59517C0.914062 10.3491 1.53093 10.966 2.28471 10.966V10.966ZM9.59541 14.6212C7.3291 14.6212 5.48315 12.7753 5.48315 10.5089V7.76752H8.68158C10.194 7.76752 11.423 6.5383 11.423 5.02591H10.5092C10.5092 6.03573 9.69136 6.85369 8.68154 6.85369H5.4831C5.4831 4.58738 7.32905 2.74143 9.59536 2.74143C11.8617 2.74143 13.7076 4.58738 13.7076 6.85369V10.5089C13.7076 10.9887 13.6208 11.4502 13.4654 11.8798H10.8793C10.692 11.3498 10.1894 10.966 9.59088 10.966C8.83691 10.966 8.22005 11.5826 8.22005 12.3366C8.22005 13.0906 8.83691 13.7074 9.59088 13.7074C10.1848 13.7074 10.6874 13.3236 10.8793 12.7936H13.0086C12.2729 13.8947 11.0164 14.6213 9.59534 14.6213L9.59541 14.6212ZM10.0524 12.3366C10.0524 12.588 9.84679 12.7936 9.59541 12.7936C9.34402 12.7936 9.13858 12.588 9.13858 12.3366C9.13858 12.0854 9.34403 11.8798 9.59541 11.8798C9.84678 11.8798 10.0524 12.0854 10.0524 12.3366ZM17.3631 7.76747V9.59512C17.3631 9.8465 17.1575 10.0519 16.9063 10.0519H16.4493V7.31052H16.9063C17.1575 7.31052 17.3631 7.51614 17.3631 7.76752V7.76747ZM1.82815 7.76747C1.82815 7.5161 2.03377 7.31047 2.28498 7.31047H2.74198V10.0519H2.28498C2.03378 10.0519 1.82815 9.84646 1.82815 9.59508V7.76747Z" fill="black"/>
</svg>
