<svg width="50" height="50" viewBox="0 0 50 50" fill="none" xmlns="http://www.w3.org/2000/svg">
<circle cx="25" cy="25" r="25" fill="#FFD4A9" fill-opacity="0.51"/>
<path d="M33.8363 33.1953H27.9587C27.0968 33.9579 26.5566 35.0513 26.5566 36.2661C26.5566 36.89 26.6993 37.4818 26.9546 38.0133H34.8403C35.0956 37.4818 35.2383 36.89 35.2383 36.2661C35.2383 35.0513 34.6982 33.9579 33.8363 33.1953Z" fill="url(#paint0_linear_661_18862)"/>
<path d="M40.301 25.4844C40.301 26.0521 35.9384 26.6852 35.9384 26.1175C36.0952 29.7364 36.2139 31.1977 36.8134 34.2016C36.8134 36.3128 25.1124 36.3128 25.1124 34.2016C25.5505 31.1991 25.5811 29.7448 25.7449 26.1308C25.6917 26.6852 21.4922 26.0476 21.4922 25.4844L23.2379 21.565C24.5036 17.923 37.1633 17.7534 38.5553 21.565L40.301 25.4844Z" fill="url(#paint1_linear_661_18862)"/>
<path d="M35.4297 40.3666C35.9307 41.4985 37.5415 42.0014 37.7487 41.5406C38.1006 40.7582 35.7564 39.168 35.7564 39.168L35.4297 40.3666Z" fill="url(#paint2_linear_661_18862)"/>
<path d="M22.4424 38.8826C23.7032 39.2367 35.5035 40.6913 35.5035 40.6913C35.8501 40.2369 36.0092 39.7181 35.9353 39.1195C35.9353 39.1195 25.2083 34.263 23.9534 33.9106C20.6073 32.9709 19.0963 37.943 22.4424 38.8826Z" fill="url(#paint3_linear_661_18862)"/>
<path d="M26.6112 40.5992C26.1446 41.7445 24.5497 42.2922 24.3286 41.8374C23.9532 41.0651 26.2484 39.4102 26.2484 39.4102L26.6112 40.5992Z" fill="url(#paint4_linear_661_18862)"/>
<path d="M39.5489 38.7528C38.2992 39.1419 26.5479 40.9252 26.5479 40.9252C26.1878 40.4806 26.013 39.9665 26.0688 39.3661C26.0688 39.3661 36.6446 34.2123 37.8884 33.825C41.2046 32.7924 42.8651 37.7201 39.5489 38.7528Z" fill="url(#paint5_linear_661_18862)"/>
<path d="M29.2836 25.2823C29.2836 25.2823 29.333 24.5683 29.0249 24.6443C28.8127 24.6967 28.8625 25.573 28.8625 25.573" fill="url(#paint6_linear_661_18862)"/>
<path d="M32.8236 16.2196V18.9196C32.8236 19.4099 32.617 19.8539 32.2827 20.175C31.9438 20.501 31.4743 20.7006 30.956 20.6953C29.9403 20.6845 29.1298 19.8738 29.1298 18.8972V18.0656H28.6691C28.2036 18.0656 27.8056 17.7467 27.7179 17.3071C27.2944 15.1862 27.3617 13.043 27.8905 10.8789H32.3646L32.8236 16.2196Z" fill="url(#paint7_linear_661_18862)"/>
<path d="M32.95 18.1093C31.9025 18.4256 32.2517 16.2311 32.2159 15.7357C32.1091 14.2578 31.07 14.7017 30.4743 13.593C30.1109 12.9169 30.1961 12.3421 29.2821 12.0684C28.5355 11.8448 27.7036 12.2156 26.9502 12.1541C25.6778 12.0503 24.369 10.7997 25.5861 9.76356C27.7965 7.88184 33.0001 8.93072 33.859 10.5749C34.6877 12.1615 33.5625 17.9242 32.95 18.1093Z" fill="url(#paint8_linear_661_18862)"/>
<path d="M43.4968 39.2202C42.1259 38.5095 39.0959 38.5983 35.7129 34.2386C34.3475 32.4727 33.6097 30.8312 33.5793 30.758C32.9708 28.4036 33.6477 25.5665 34.1079 24.0858C34.4426 22.9999 33.8379 21.8593 32.7312 21.4863C32.3889 21.3693 32.0085 21.267 31.5978 21.1829C31.2143 21.0984 30.8562 21.3843 30.8562 21.7532V21.7605H30.685C30.6356 21.7605 30.5938 21.8008 30.5938 21.8483V22.0932H31.1947V21.8483C31.1947 21.8008 31.1528 21.7605 31.1034 21.7605H30.9322V21.7532C30.9322 21.4201 31.2481 21.1798 31.5826 21.2487C31.9895 21.3364 32.3698 21.4388 32.7083 21.5522C33.777 21.9141 34.3627 23.0182 34.0357 24.0638C33.5755 25.5555 32.8947 28.4072 33.507 30.7763L33.5108 30.78C34.2989 32.6717 36.2266 35.3662 38.28 36.9404C40.1014 38.3373 41.1299 38.417 43.4336 39.2839C43.4545 39.2625 43.476 39.2417 43.4968 39.2202Z" fill="url(#paint9_linear_661_18862)"/>
<path d="M32.456 25.2843C32.456 25.2843 32.4066 24.5702 32.7147 24.6463C32.9269 24.6986 32.8771 25.5749 32.8771 25.5749" fill="url(#paint10_linear_661_18862)"/>
<path d="M33.3797 23.3539C33.3691 23.4302 33.3405 23.5026 33.311 23.5754C32.8202 24.7881 32.3139 25.659 31.8906 25.659C31.5818 25.659 31.4047 25.2165 31.4026 24.5183C31.2387 24.5358 31.0686 24.5451 30.8942 24.5451C30.7199 24.5451 30.5499 24.5358 30.3861 24.5183C30.3839 25.2165 30.2068 25.659 29.898 25.659C29.4748 25.659 28.9684 24.7881 28.4777 23.5754C28.4481 23.5025 28.4196 23.4302 28.4089 23.3539C28.3063 22.6197 29.4155 21.9785 30.8942 21.9785C32.3732 21.9785 33.4823 22.6197 33.3797 23.3539Z" fill="url(#paint11_linear_661_18862)"/>
<path d="M31.9624 25.9933L31.9648 25.9921C33.3763 27.9052 35.6013 31.176 37.9951 32.069C38.3885 32.2157 38.7913 32.3312 39.2119 32.2316C42.2743 31.5072 39.5746 25.6979 39.0495 24.1816C37.9275 24.6325 36.8056 25.0833 35.6836 25.534C36.358 26.7442 37.0373 27.9732 37.5446 29.2587C36.4283 28.4915 35.1106 27.5962 34.1107 26.6948L32.8735 25.5775L32.8788 25.5752L32.4578 25.2844C32.4578 25.2844 32.0321 24.8082 31.9419 24.3102C31.852 23.8124 30.4313 25.463 31.9624 25.9933Z" fill="url(#paint12_linear_661_18862)"/>
<path d="M38.5561 21.5648C38.1609 20.4826 36.8572 19.7215 35.1641 19.2695V27.1471H35.9859C35.9704 26.823 35.955 26.4812 35.9392 26.1173C35.9392 26.685 40.3018 26.0518 40.3018 25.4842L38.5561 21.5648Z" fill="url(#paint13_linear_661_18862)"/>
<path d="M29.7795 25.9933L29.7771 25.9921C28.3656 27.9052 26.1407 31.176 23.7468 32.069C23.3534 32.2157 22.9506 32.3312 22.53 32.2316C19.4676 31.5072 22.1673 25.6979 22.6924 24.1816C23.8144 24.6325 24.9363 25.0833 26.0583 25.534C25.3839 26.7442 24.7046 27.9732 24.1973 29.2587C25.3136 28.4915 26.6313 27.5962 27.6312 26.6948L28.8684 25.5775L28.8631 25.5752L29.2841 25.2844C29.2841 25.2844 29.7098 24.8082 29.8 24.3102C29.8899 23.8124 31.3106 25.463 29.7795 25.9933Z" fill="url(#paint14_linear_661_18862)"/>
<path d="M26.7257 27.1486V19.2695C24.9634 19.7273 23.6095 20.4971 23.2379 21.5664L21.4922 25.4857C21.4922 26.049 25.6917 26.6865 25.7449 26.1322C25.7287 26.4912 25.7137 26.8286 25.6995 27.1486H26.7257Z" fill="url(#paint15_linear_661_18862)"/>
<path d="M19.323 9.70751L18.7847 9.59614C18.7847 9.59614 18.3704 8.5443 18.5626 8.33792C18.6936 8.1976 18.8663 8.5084 18.9633 8.72228C18.948 8.38925 18.9096 7.67932 18.862 7.60148C18.7993 7.49988 19.6891 7.30652 19.8439 8.03498C19.9984 8.7637 19.323 9.70751 19.323 9.70751Z" fill="url(#paint16_linear_661_18862)"/>
<path d="M7.47727 9.69917L8.02029 9.61117C8.02029 9.61117 8.48333 8.57827 8.30096 8.36381C8.17671 8.21797 7.98963 8.52102 7.88265 8.73043C7.91357 8.39843 7.98511 7.69088 8.0363 7.61516C8.10373 7.51638 7.2239 7.28473 7.03514 8.00573C6.84673 8.72711 7.47727 9.69917 7.47727 9.69917Z" fill="url(#paint17_linear_661_18862)"/>
<path d="M17.2073 26.707C17.5107 29.2551 16.3211 36.2407 15.7008 41.2914L15.0953 41.3114L13.385 30.9284L11.6746 41.3114L11.0692 41.2914C10.5518 36.3852 9.53114 29.6485 9.56324 26.707H17.2073Z" fill="url(#paint18_linear_661_18862)"/>
<path d="M11.8472 41.8207C11.8354 41.9235 11.7446 42.0007 11.6371 42.0007H9.9082C9.9082 41.434 10.6287 41.6395 10.9178 41.2795C10.9435 41.2475 10.9855 41.2311 11.0272 41.2369C11.3053 41.2768 11.5782 41.2738 11.6844 41.2226C11.7119 41.2092 11.746 41.2196 11.759 41.2468C11.8609 41.4614 11.8637 41.6757 11.8472 41.8207Z" fill="url(#paint19_linear_661_18862)"/>
<path d="M14.9236 41.8207C14.9354 41.9235 15.0262 42.0007 15.1337 42.0007H16.8626C16.8626 41.434 16.1421 41.6395 15.853 41.2795C15.8273 41.2475 15.7853 41.2311 15.7436 41.2369C15.4655 41.2768 15.1926 41.2738 15.0864 41.2226C15.0588 41.2092 15.0248 41.2196 15.0118 41.2468C14.9099 41.4614 14.9071 41.6757 14.9236 41.8207Z" fill="url(#paint20_linear_661_18862)"/>
<path d="M11.5854 15.7834C11.4319 15.3432 10.503 14.3539 10.7777 13.8553C10.8935 13.6447 11.1483 13.6884 11.367 13.723L11.408 12.9389C10.934 12.7251 10.11 12.8711 9.86161 13.1317C9.34533 13.6734 9.86055 14.6024 9.99921 15.1718C10.2014 16.0017 10.3578 16.976 10.0279 17.7716C9.74006 18.4655 9.68328 19.0077 9.90885 19.8015C11.5045 19.7502 12.5564 18.5686 11.5854 15.7834Z" fill="url(#paint21_linear_661_18862)"/>
<path d="M17.2612 19.9042C17.2581 19.9021 17.255 19.9003 17.2519 19.8982C17.2793 20.0035 17.2934 20.1134 17.2934 20.2284V27.427C17.2934 28.3367 9.49858 28.3367 9.49858 27.427V20.2284C9.49858 20.1072 9.51456 19.9917 9.54472 19.8814C8.74102 18.4062 7.94284 16.9013 7.70826 15.2367C7.64954 14.82 7.32117 11.2127 7.16406 9.47601C7.49015 9.36026 7.96757 9.32301 8.32191 9.3459C8.65728 11.2018 9.36737 15.0998 9.68205 15.8388C9.68597 15.8485 9.69015 15.858 9.69437 15.8677C10.3114 17.3012 11.7039 18.2307 13.3175 18.2156C13.3743 18.215 13.4315 18.215 13.4887 18.2156C15.1066 18.2334 16.505 17.3053 17.1238 15.8677C17.128 15.8582 17.1319 15.8485 17.1361 15.8388C17.4508 15.0999 18.1609 11.2019 18.4963 9.3459C18.5158 9.19878 19.6741 9.3289 19.6541 9.47601C19.497 11.2127 19.1685 14.82 19.1099 15.2367C18.8747 16.9099 18.0701 18.4216 17.2612 19.9042Z" fill="url(#paint22_linear_661_18862)"/>
<path d="M15.3864 17.7535C15.2734 17.8942 14.8503 17.8681 14.5956 17.7965C14.5976 17.8867 14.5987 18.0073 14.5987 18.1662C14.5984 18.914 13.9677 19.5201 13.19 19.5201C12.4096 19.5201 11.7777 18.91 11.7813 18.1598L11.7971 15.7108C11.7971 15.7108 13.8571 12.0928 15.6023 13.5281C15.6023 13.5281 16.1032 16.8595 15.3864 17.7535Z" fill="url(#paint23_linear_661_18862)"/>
<path d="M11.3673 14.0047C12.0607 14.1741 12.3484 13.0858 11.6551 12.9164C11.2872 12.7671 11.1271 13.0099 11.0474 13.3105C10.968 13.611 10.9995 13.8555 11.3673 14.0047Z" fill="url(#paint24_linear_661_18862)"/>
<path d="M16.1001 12.6096C16.0937 13.1996 14.9525 14.2513 14.3303 14.2904C14.0926 14.3052 13.8949 14.4714 13.8477 14.696C13.7429 15.1921 13.6145 15.8225 13.4316 15.8387C13.2932 15.8509 13.1773 15.7199 13.1132 15.6788C12.9821 15.5953 12.8046 15.6368 12.7431 15.7762C12.5806 16.1434 12.2718 16.7787 11.9916 16.9541C11.7157 17.1262 11.3814 16.1823 11.2135 15.689C10.8688 14.6752 11.0776 13.1599 12.2211 12.458C13.1101 11.9126 16.1139 11.2865 16.1001 12.6096Z" fill="url(#paint25_linear_661_18862)"/>
<defs>
<linearGradient id="paint0_linear_661_18862" x1="30.8976" y1="43.7051" x2="30.8976" y2="42.4471" gradientUnits="userSpaceOnUse">
<stop stop-color="#293577"/>
<stop offset="0.989" stop-color="#12163E"/>
</linearGradient>
<linearGradient id="paint1_linear_661_18862" x1="30.8968" y1="33.9571" x2="30.8968" y2="21.1175" gradientUnits="userSpaceOnUse">
<stop stop-color="#95D6A4"/>
<stop offset="0.996" stop-color="#F4832A"/>
</linearGradient>
<linearGradient id="paint2_linear_661_18862" x1="35.5359" y1="40.01" x2="38.0593" y2="40.932" gradientUnits="userSpaceOnUse">
<stop stop-color="#FBD2C4"/>
<stop offset="0.996" stop-color="#F8AF9A"/>
</linearGradient>
<linearGradient id="paint3_linear_661_18862" x1="11.911" y1="35.6581" x2="35.8444" y2="38.0061" gradientUnits="userSpaceOnUse">
<stop stop-color="#293577"/>
<stop offset="0.989" stop-color="#12163E"/>
</linearGradient>
<linearGradient id="paint4_linear_661_18862" x1="26.6135" y1="40.3308" x2="24.1207" y2="41.3275" gradientUnits="userSpaceOnUse">
<stop stop-color="#FBD2C4"/>
<stop offset="0.996" stop-color="#F8AF9A"/>
</linearGradient>
<linearGradient id="paint5_linear_661_18862" x1="37.9463" y1="34.969" x2="24.0801" y2="47.3653" gradientUnits="userSpaceOnUse">
<stop stop-color="#293577"/>
<stop offset="0.989" stop-color="#12163E"/>
</linearGradient>
<linearGradient id="paint6_linear_661_18862" x1="30.1971" y1="23.9351" x2="20.8277" y2="33.8446" gradientUnits="userSpaceOnUse">
<stop stop-color="#FBD2C4"/>
<stop offset="0.996" stop-color="#F8AF9A"/>
</linearGradient>
<linearGradient id="paint7_linear_661_18862" x1="30.1327" y1="20.0187" x2="30.1327" y2="13.6938" gradientUnits="userSpaceOnUse">
<stop stop-color="#FBD2C4"/>
<stop offset="0.996" stop-color="#F8AF9A"/>
</linearGradient>
<linearGradient id="paint8_linear_661_18862" x1="29.5758" y1="7.44545" x2="29.9647" y2="16.9742" gradientUnits="userSpaceOnUse">
<stop stop-color="#383647"/>
<stop offset="0.993" stop-color="#272535"/>
</linearGradient>
<linearGradient id="paint9_linear_661_18862" x1="37.0453" y1="39.2838" x2="37.0453" y2="21.1681" gradientUnits="userSpaceOnUse">
<stop stop-color="#383647"/>
<stop offset="0.993" stop-color="#272535"/>
</linearGradient>
<linearGradient id="paint10_linear_661_18862" x1="31.5424" y1="23.9371" x2="40.9119" y2="33.8466" gradientUnits="userSpaceOnUse">
<stop stop-color="#FBD2C4"/>
<stop offset="0.996" stop-color="#F8AF9A"/>
</linearGradient>
<linearGradient id="paint11_linear_661_18862" x1="30.8944" y1="22.4183" x2="30.8944" y2="24.7731" gradientUnits="userSpaceOnUse">
<stop stop-color="#383647"/>
<stop offset="0.993" stop-color="#272535"/>
</linearGradient>
<linearGradient id="paint12_linear_661_18862" x1="32.7213" y1="22.8153" x2="42.2616" y2="32.9052" gradientUnits="userSpaceOnUse">
<stop stop-color="#FBD2C4"/>
<stop offset="0.996" stop-color="#F8AF9A"/>
</linearGradient>
<linearGradient id="paint13_linear_661_18862" x1="37.733" y1="33.6148" x2="37.733" y2="21.0643" gradientUnits="userSpaceOnUse">
<stop stop-color="#1FC974"/>
<stop offset="0.996" stop-color="#F4832A"/>
</linearGradient>
<linearGradient id="paint14_linear_661_18862" x1="29.0205" y1="22.8153" x2="19.4802" y2="32.9052" gradientUnits="userSpaceOnUse">
<stop stop-color="#FBD2C4"/>
<stop offset="0.996" stop-color="#F8AF9A"/>
</linearGradient>
<linearGradient id="paint15_linear_661_18862" x1="24.1091" y1="33.6163" x2="24.1091" y2="21.0658" gradientUnits="userSpaceOnUse">
<stop stop-color="#36EA46"/>
<stop offset="0.996" stop-color="#F4832A"/>
</linearGradient>
<linearGradient id="paint16_linear_661_18862" x1="19.2418" y1="7.50494" x2="19.1271" y2="9.69923" gradientUnits="userSpaceOnUse">
<stop stop-color="#FBD2C4"/>
<stop offset="0.996" stop-color="#F8AF9A"/>
</linearGradient>
<linearGradient id="paint17_linear_661_18862" x1="7.29878" y1="7.34904" x2="7.31839" y2="9.546" gradientUnits="userSpaceOnUse">
<stop stop-color="#FBD2C4"/>
<stop offset="0.996" stop-color="#F8AF9A"/>
</linearGradient>
<linearGradient id="paint18_linear_661_18862" x1="13.6929" y1="30.2854" x2="15.2052" y2="44.3772" gradientUnits="userSpaceOnUse">
<stop stop-color="#293577"/>
<stop offset="0.989" stop-color="#12163E"/>
</linearGradient>
<linearGradient id="paint19_linear_661_18862" x1="11.128" y1="44.3658" x2="11.179" y2="44.9366" gradientUnits="userSpaceOnUse">
<stop offset="0.004" stop-color="#E6E6E6"/>
<stop offset="1" stop-color="#F1F1F1"/>
</linearGradient>
<linearGradient id="paint20_linear_661_18862" x1="36.3737" y1="-169.868" x2="36.3227" y2="-169.298" gradientUnits="userSpaceOnUse">
<stop offset="0.004" stop-color="#E6E6E6"/>
<stop offset="1" stop-color="#F1F1F1"/>
</linearGradient>
<linearGradient id="paint21_linear_661_18862" x1="6.05014" y1="23.3472" x2="12.2929" y2="11.8296" gradientUnits="userSpaceOnUse">
<stop stop-color="#383647"/>
<stop offset="0.993" stop-color="#272535"/>
</linearGradient>
<linearGradient id="paint22_linear_661_18862" x1="13.4094" y1="25.5792" x2="13.4094" y2="18.9651" gradientUnits="userSpaceOnUse">
<stop offset="0.004" stop-color="#E6E6E6"/>
<stop offset="1" stop-color="#F1F1F1"/>
</linearGradient>
<linearGradient id="paint23_linear_661_18862" x1="13.7367" y1="19.5266" x2="13.8119" y2="13.1804" gradientUnits="userSpaceOnUse">
<stop stop-color="#FBD2C4"/>
<stop offset="0.996" stop-color="#F8AF9A"/>
</linearGradient>
<linearGradient id="paint24_linear_661_18862" x1="11.6755" y1="13.7296" x2="10.8085" y2="13.0988" gradientUnits="userSpaceOnUse">
<stop stop-color="#ED5C5A"/>
<stop offset="0.993" stop-color="#E24127"/>
</linearGradient>
<linearGradient id="paint25_linear_661_18862" x1="13.5814" y1="15.4982" x2="13.5814" y2="19.6767" gradientUnits="userSpaceOnUse">
<stop stop-color="#383647"/>
<stop offset="0.993" stop-color="#272535"/>
</linearGradient>
</defs>
</svg>
