<svg width="240" height="240" viewBox="0 0 240 240" fill="none" xmlns="http://www.w3.org/2000/svg">
<g filter="url(#filter0_d_2965_43463)">
<circle cx="120" cy="116" r="100" fill="white"/>
</g>
<g clip-path="url(#clip0_2965_43463)">
<path d="M120 166C147.614 166 170 143.614 170 116C170 88.3859 147.614 66 120 66C92.3858 66 70 88.3859 70 116C70 143.614 92.3858 166 120 166Z" fill="#E6C156"/>
<g clip-path="url(#clip1_2965_43463)">
<path d="M136.621 128.909C139.191 125.479 140.671 121.309 140.871 116.999H145.891C146.441 116.999 146.881 116.559 146.881 116.009C146.881 115.459 146.441 115.019 145.891 115.019H140.871C140.671 110.709 139.201 106.539 136.621 103.109L147.611 90.7092C147.785 90.5127 147.875 90.2551 147.86 89.9927C147.845 89.7304 147.727 89.4846 147.531 89.3092C147.334 89.1348 147.077 89.0453 146.814 89.0603C146.552 89.0753 146.306 89.1935 146.131 89.3892L134.591 102.399C134.271 102.759 134.261 103.309 134.561 103.679C137.371 107.129 138.921 111.509 138.921 115.989C138.921 120.479 137.371 124.859 134.561 128.309C134.251 128.689 134.261 129.229 134.591 129.589L146.131 142.609C146.307 142.804 146.552 142.922 146.814 142.937C147.077 142.952 147.334 142.863 147.531 142.689C147.941 142.329 147.981 141.699 147.611 141.289L136.621 128.909ZM105.411 102.399L93.8709 89.3792C93.7848 89.2813 93.68 89.2014 93.5627 89.1443C93.4454 89.0872 93.3179 89.054 93.1877 89.0465C93.0574 89.0391 92.927 89.0576 92.804 89.101C92.6809 89.1443 92.5677 89.2117 92.4709 89.2992C92.0609 89.6592 92.0209 90.2892 92.3909 90.6992L103.381 103.099C100.811 106.529 99.3309 110.699 99.1309 115.009H94.1109C93.5609 115.009 93.1209 115.449 93.1209 115.999C93.1209 116.549 93.5609 116.989 94.1109 116.989H99.1309C99.3309 121.299 100.801 125.469 103.371 128.899L92.3909 141.309C92.2165 141.506 92.127 141.763 92.142 142.026C92.157 142.288 92.2753 142.534 92.4709 142.709C92.6609 142.879 92.8909 142.959 93.1309 142.959C93.4009 142.959 93.6809 142.849 93.8709 142.629L105.411 129.599C105.731 129.239 105.741 128.689 105.441 128.319C102.631 124.869 101.081 120.489 101.081 115.999C101.081 111.509 102.631 107.139 105.441 103.689C105.741 103.309 105.731 102.759 105.411 102.399Z" fill="#EFEFEF"/>
<path d="M148.79 91.0606C150.56 91.0606 152 89.6206 152 87.8506C152 86.0806 150.56 84.6406 148.79 84.6406C147.02 84.6406 145.58 86.0806 145.58 87.8506C145.58 89.6206 147.03 91.0606 148.79 91.0606Z" fill="#E82327"/>
<path d="M148.79 112.801C147.02 112.801 145.58 114.241 145.58 116.011C145.58 117.781 147.02 119.221 148.79 119.221C150.56 119.221 152 117.781 152 116.011C152 114.231 150.56 112.801 148.79 112.801Z" fill="#C97F4C"/>
<path d="M148.79 140.939C147.02 140.939 145.58 142.379 145.58 144.149C145.58 145.919 147.02 147.359 148.79 147.359C150.56 147.359 152 145.919 152 144.149C152 142.379 150.56 140.939 148.79 140.939Z" fill="#4272B7"/>
<path d="M91.21 91.0704C92.9828 91.0704 94.42 89.6332 94.42 87.8604C94.42 86.0876 92.9828 84.6504 91.21 84.6504C89.4372 84.6504 88 86.0876 88 87.8604C88 89.6332 89.4372 91.0704 91.21 91.0704Z" fill="#E82327"/>
<path d="M91.21 119.209C92.9828 119.209 94.42 117.772 94.42 115.999C94.42 114.226 92.9828 112.789 91.21 112.789C89.4372 112.789 88 114.226 88 115.999C88 117.772 89.4372 119.209 91.21 119.209Z" fill="#C97F4C"/>
<path d="M91.21 147.359C92.9828 147.359 94.42 145.922 94.42 144.149C94.42 142.377 92.9828 140.939 91.21 140.939C89.4372 140.939 88 142.377 88 144.149C88 145.922 89.4372 147.359 91.21 147.359Z" fill="#4272B7"/>
<path d="M124.08 102.811L123.74 108.011H116.26L115.92 102.811H124.08ZM128.72 132.241C129.1 129.851 128.27 127.631 126.41 124.361C124.19 120.451 123.59 115.191 123.66 109.971H116.34C116.41 115.181 115.81 120.451 113.59 124.361C111.73 127.631 110.9 129.851 111.28 132.241" fill="#57BB6E"/>
<path d="M131.73 135.121V136.941H108.27V135.121C108.27 134.781 108.61 134.501 109.03 134.501C109.63 134.501 110.12 134.071 110.12 133.541V132.621C110.12 132.281 110.45 132.001 110.87 132.001H129.12C129.54 132.001 129.87 132.271 129.87 132.621V133.541C129.87 134.081 130.36 134.501 130.96 134.501C131.38 134.511 131.73 134.781 131.73 135.121ZM126 108.941C126 109.641 125.44 110.211 124.75 110.211H115.26C114.56 110.211 114.01 109.641 114.01 108.941C114.01 108.231 114.57 107.671 115.26 107.671H124.75C125.44 107.671 126 108.241 126 108.941ZM124.54 103.371H115.46C112.33 99.7205 112.83 95.0605 112.83 95.0605H115.25L116.4 97.5905H118.58V95.0605H121.42V97.5905H123.6L124.75 95.0605H127.17C127.17 95.0605 127.67 99.7205 124.54 103.371Z" fill="#4AAD60"/>
</g>
</g>
<defs>
<filter id="filter0_d_2965_43463" x="0" y="0" width="240" height="240" filterUnits="userSpaceOnUse" color-interpolation-filters="sRGB">
<feFlood flood-opacity="0" result="BackgroundImageFix"/>
<feColorMatrix in="SourceAlpha" type="matrix" values="0 0 0 0 0 0 0 0 0 0 0 0 0 0 0 0 0 0 127 0" result="hardAlpha"/>
<feOffset dy="4"/>
<feGaussianBlur stdDeviation="10"/>
<feComposite in2="hardAlpha" operator="out"/>
<feColorMatrix type="matrix" values="0 0 0 0 0 0 0 0 0 0 0 0 0 0 0 0 0 0 0.15 0"/>
<feBlend mode="normal" in2="BackgroundImageFix" result="effect1_dropShadow_2965_43463"/>
<feBlend mode="normal" in="SourceGraphic" in2="effect1_dropShadow_2965_43463" result="shape"/>
</filter>
<clipPath id="clip0_2965_43463">
<rect width="100" height="100" fill="white" transform="translate(70 66)"/>
</clipPath>
<clipPath id="clip1_2965_43463">
<rect width="64" height="64" fill="white" transform="translate(88 84)"/>
</clipPath>
</defs>
</svg>
