<svg width="36" height="36" viewBox="0 0 36 36" fill="none" >
<path d="M18 0C8.056 0 0 8.056 0 18C0 27.944 8.056 36 18 36C27.944 36 36 27.944 36 18C36 8.056 27.944 0 18 0ZM26.024 13.848C26.024 13.848 26.608 19.176 22.4 23.168C16.504 28.76 8 24.408 8 24.408C12.088 24.456 13.816 22.736 13.816 22.736C10.456 22.16 10.12 19.76 10.12 19.76C10.696 20.12 11.952 19.76 11.952 19.76C8.208 18.04 8.792 15.776 8.792 15.776C9.88 16.384 10.696 16.16 10.696 16.16C7.784 13.632 9.432 10.952 9.432 10.952C14.544 15.816 17.832 14.816 17.832 14.816C17.6 11.392 19.624 10.064 21.808 9.992C23.648 9.928 24.704 11.208 24.704 11.208C26.12 11.328 27.448 10.384 27.448 10.384C27.328 11.528 25.776 12.496 25.776 12.496C26.584 12.568 27.992 12.128 27.992 12.128C27.264 13.464 26.024 13.848 26.024 13.848Z" fill="white"/>
</svg>
