<svg width="50" height="50" viewBox="0 0 50 50" fill="none" xmlns="http://www.w3.org/2000/svg">
<circle cx="25" cy="25" r="25" fill="#FFD4A9" fill-opacity="0.51"/>
<g clip-path="url(#clip0_661_18861)">
<path d="M38.8125 38.2812H27.125L27.1303 31.9062C27.1303 31.3427 27.3542 30.8022 27.7527 30.4036C28.1512 30.0051 28.6917 29.7812 29.2553 29.7812H36.1616C36.866 29.7813 37.5417 30.0611 38.0398 30.5592C38.538 31.0574 38.8178 31.733 38.8178 32.4375L38.8125 38.2812Z" fill="#30B5A5"/>
<path d="M36.6893 38.2825L36.6855 33.4996L37.2205 33.498L37.2242 38.2809L36.6893 38.2825Z" fill="#2BA192"/>
<path d="M28.7147 38.2825L28.7109 33.4996L29.2459 33.498L29.2496 38.2809L28.7147 38.2825Z" fill="#2BA192"/>
<path d="M37.1447 23.8322C38.1912 18.9341 34.7806 19.1944 34.7806 19.1944C34.2232 18.7456 33.5497 18.4645 32.8387 18.3836C32.1277 18.3027 31.4083 18.4254 30.7643 18.7375C28.6022 19.8159 28.294 21.6859 28.7987 23.8322C28.5126 23.9644 28.2804 24.1906 28.1405 24.473C28.0006 24.7555 27.9616 25.0773 28.0298 25.385C28.0981 25.6927 28.2695 25.9678 28.5157 26.1647C28.7618 26.3615 29.0679 26.4683 29.3831 26.4672H29.4522C29.7868 28.3584 31.2372 29.7822 32.9743 29.7822C34.7115 29.7822 36.1618 28.3584 36.4965 26.4672H36.5656C36.8803 26.4671 37.1856 26.3594 37.4308 26.1622C37.676 25.9649 37.8465 25.6898 37.9141 25.3824C37.9816 25.075 37.9422 24.7538 37.8023 24.4718C37.6623 24.1899 37.4303 23.9643 37.1447 23.8322Z" fill="#FFCC8A"/>
<path d="M37.1444 23.8322C36.9627 23.7488 36.7653 23.7053 36.5654 23.7047C36.4698 23.7047 36.0447 23.6887 35.9544 23.7047V22.5731C35.2085 22.3493 34.5617 21.8769 34.1216 21.2344C33.4416 22.35 29.9938 22.5731 29.9938 22.5731V23.7047C29.9035 23.6887 29.4785 23.7047 29.3829 23.7047C29.1812 23.7048 28.9819 23.7482 28.7985 23.8322C28.2938 21.6859 28.6019 19.8159 30.7641 18.7375C31.4081 18.4254 32.1275 18.3027 32.8385 18.3836C33.5495 18.4645 34.2229 18.7456 34.7804 19.1944C34.7804 19.1944 38.191 18.9325 37.1444 23.8322Z" fill="#63758C"/>
<path d="M31.9111 24.6426C31.9111 24.3492 31.6733 24.1113 31.3799 24.1113C31.0865 24.1113 30.8486 24.3492 30.8486 24.6426C30.8486 24.936 31.0865 25.1738 31.3799 25.1738C31.6733 25.1738 31.9111 24.936 31.9111 24.6426Z" fill="#63758C"/>
<path d="M35.0986 24.6426C35.0986 24.3492 34.8608 24.1113 34.5674 24.1113C34.274 24.1113 34.0361 24.3492 34.0361 24.6426C34.0361 24.936 34.274 25.1738 34.5674 25.1738C34.8608 25.1738 35.0986 24.936 35.0986 24.6426Z" fill="#63758C"/>
<path d="M32.9736 28.4531C32.5509 28.4531 32.1456 28.2852 31.8467 27.9863C31.5478 27.6874 31.3799 27.2821 31.3799 26.8594H32.0174C32.0174 27.113 32.1181 27.3562 32.2975 27.5355C32.4768 27.7149 32.72 27.8156 32.9736 27.8156C33.2272 27.8156 33.4705 27.7149 33.6498 27.5355C33.8291 27.3562 33.9299 27.113 33.9299 26.8594H34.5674C34.5674 27.0687 34.5262 27.2759 34.4461 27.4693C34.366 27.6626 34.2486 27.8383 34.1006 27.9863C33.9526 28.1343 33.7769 28.2517 33.5835 28.3318C33.3902 28.4119 33.1829 28.4531 32.9736 28.4531Z" fill="#63758C"/>
<path d="M41.4688 37.75H8.53125V41.4688H41.4688V37.75Z" fill="#90AACC"/>
<path d="M40.4062 37.75V39.875C40.4062 40.0159 40.3503 40.151 40.2507 40.2507C40.151 40.3503 40.0159 40.4062 39.875 40.4062H8.53125V41.4688H41.4688V37.75H40.4062Z" fill="#7E95B3"/>
<path d="M22.8746 37.75H14.9059L16.038 37.9928L14.9914 39.5828C14.9139 39.7012 14.8866 39.8456 14.9156 39.9841C14.9445 40.1227 15.0273 40.244 15.1457 40.3215C15.2642 40.399 15.4085 40.4263 15.547 40.3973C15.6856 40.3684 15.8069 40.2856 15.8844 40.1672L17.1493 38.2308L22.3434 39.3438L22.8746 37.75Z" fill="#879FBF"/>
<path d="M22.875 25V34.5625L16.5531 33.9144L14.9806 33.755L11.1875 33.3672V26.1953L22.875 25Z" fill="#7CB2F8"/>
<path d="M22.3438 25.0531V33.4416C22.3438 33.5158 22.3282 33.5892 22.2981 33.6571C22.2679 33.725 22.2239 33.7857 22.1689 33.8356C22.1138 33.8854 22.0489 33.9231 21.9784 33.9463C21.9079 33.9694 21.8332 33.9776 21.7594 33.9702L16.6711 33.4485C16.9094 32.5079 17.2254 31.5887 17.6156 30.7003C17.726 30.4588 17.742 30.1847 17.6604 29.932C17.5788 29.6793 17.4055 29.4663 17.1747 29.335C17.148 29.3177 17.1195 29.3034 17.0897 29.2925C16.9792 29.2414 16.8604 29.2108 16.7391 29.2022C16.6481 29.2093 16.5607 29.2407 16.486 29.293C16.4113 29.3453 16.3519 29.4167 16.3141 29.4997C15.7743 30.7164 15.3621 31.9858 15.0842 33.2875L14.4467 33.2232L11.1875 32.8901V33.3682L14.9806 33.7561L16.5531 33.9154L22.875 34.5625V25L22.3438 25.0531Z" fill="#6F9FDE"/>
<path d="M13.8438 18.625C16.4844 18.625 18.625 16.4844 18.625 13.8438C18.625 11.2031 16.4844 9.0625 13.8438 9.0625C11.2031 9.0625 9.0625 11.2031 9.0625 13.8438C9.0625 16.4844 11.2031 18.625 13.8438 18.625Z" fill="#D9E1E6"/>
<path d="M16.399 32.4375C15.7877 34.6894 15.4681 37.0105 15.448 39.3438H15.9687C16.1096 39.3438 16.2447 39.3997 16.3443 39.4993C16.444 39.599 16.4999 39.7341 16.4999 39.875C16.4999 40.0159 16.444 40.151 16.3443 40.2507C16.2447 40.3503 16.1096 40.4062 15.9687 40.4062H13.8437C13.7028 40.4062 13.5677 40.3503 13.468 40.2507C13.3684 40.151 13.3124 40.0159 13.3124 39.875C13.3124 39.7341 13.3684 39.599 13.468 39.4993C13.5677 39.3997 13.7028 39.3438 13.8437 39.3438H14.3855C14.4064 37.0136 14.7097 34.6946 15.2887 32.4375C15.5438 31.4301 15.8869 30.4471 16.314 29.4997C16.3518 29.4167 16.4112 29.3453 16.4859 29.293C16.5607 29.2407 16.648 29.2093 16.739 29.2022C16.8494 29.1865 16.9618 29.209 17.0577 29.2659C17.0708 29.2714 17.0819 29.2807 17.0896 29.2925C17.1954 29.361 17.2729 29.4652 17.3081 29.5862C17.3432 29.7072 17.3335 29.8368 17.2809 29.9513C16.9236 30.7562 16.6288 31.5874 16.399 32.4375ZM12.5448 15.8795L11.9551 14.9955L13.3124 14.0908V11.1875H14.3749V14.375C14.3749 14.4624 14.3534 14.5485 14.3121 14.6256C14.2709 14.7027 14.2113 14.7685 14.1385 14.817L12.5448 15.8795Z" fill="#6C8199"/>
<path d="M19.1454 13.6213C19.0948 12.4694 18.67 11.3654 17.9355 10.4767C17.2009 9.58798 16.1967 8.96296 15.0749 8.69638C13.9532 8.4298 12.7751 8.5362 11.7192 8.99944C10.6634 9.46269 9.78738 10.2575 9.22395 11.2635C8.66051 12.2694 8.4404 13.4316 8.59696 14.5739C8.75353 15.7163 9.27823 16.7764 10.0916 17.5936C10.9049 18.4109 11.9625 18.9407 13.104 19.1028C14.2455 19.2649 15.4088 19.0504 16.4175 18.4918L15.9027 17.5616C15.0961 18.0102 14.1654 18.1841 13.2512 18.0569C12.3371 17.9297 11.4892 17.5084 10.8357 16.8566C10.1822 16.2049 9.7586 15.3581 9.62898 14.4443C9.49936 13.5305 9.67073 12.5993 10.1172 11.7915C10.5637 10.9837 11.261 10.3433 12.1037 9.96687C12.9464 9.59049 13.8888 9.49867 14.7883 9.70529C15.6878 9.91191 16.4956 10.4057 17.0897 11.1121C17.6837 11.8185 18.0316 12.6991 18.0808 13.6208H16.5003L18.6253 16.4544L20.7503 13.6208L19.1454 13.6213Z" fill="#D98286"/>
</g>
<defs>
<clipPath id="clip0_661_18861">
<rect width="34" height="34" fill="white" transform="translate(8 8)"/>
</clipPath>
</defs>
</svg>
