<svg  viewBox="0 0 92 60" fill="none" xmlns="http://www.w3.org/2000/svg">
<path d="M40.8294 19.0437C40.2033 18.2985 39.7769 17.436 39.4339 16.5566C39.0907 15.6748 38.8636 14.7612 38.7571 13.8337C38.7447 13.7173 38.739 13.6009 38.7289 13.4845L38.7153 13.3094V13.1343L38.7086 12.7831L38.7221 12.4329C38.7221 12.3155 38.7368 12.1991 38.7503 12.0827L38.7887 11.7325C38.8191 11.4997 38.871 11.2699 38.9127 11.0361C39.1271 10.1171 39.4732 9.22586 39.9427 8.38388C40.4124 7.54558 40.9671 6.74645 41.5999 5.99624C42.2338 5.24898 42.9254 4.54128 43.67 3.87821C44.4105 3.21331 45.1924 2.58526 46.012 1.99695C46.8319 1.40834 47.6895 0.861925 48.5808 0.360422L48.8729 0.197266L48.8865 0.504677C48.9429 1.79798 48.9733 3.09128 48.9993 4.37961C49.0094 5.02527 49.0106 5.67291 48.9993 6.31957C48.9948 6.64322 48.985 6.96688 48.97 7.29054C48.9542 7.61486 48.935 7.93918 48.8865 8.26847C48.8724 8.35468 48.8524 8.44006 48.8267 8.52415L48.7466 8.75496C48.6947 8.90883 48.6402 9.06369 48.583 9.21955C48.4702 9.52895 48.3405 9.83536 48.1916 10.1348C48.0406 10.4348 47.8672 10.7256 47.6726 11.0053C47.4805 11.2865 47.2616 11.5527 47.0183 11.8012C46.535 12.2954 45.9462 12.701 45.2855 12.995C44.9548 13.1384 44.6091 13.2534 44.2533 13.3382C43.8983 13.4195 43.5365 13.4754 43.1714 13.5054C43.5329 13.4602 43.8898 13.3897 44.2386 13.2945C44.5853 13.197 44.9214 13.0721 45.2426 12.9214C45.8769 12.6138 46.4365 12.1994 46.8897 11.7017C47.3363 11.1997 47.7005 10.6448 47.9716 10.0532C48.109 9.75799 48.2295 9.45683 48.3326 9.1509C48.3856 8.9977 48.4352 8.8435 48.4837 8.6883L48.5593 8.45451C48.5782 8.38193 48.5929 8.30855 48.6033 8.23465C48.6417 7.92326 48.653 7.60193 48.6609 7.28159C48.6688 6.96124 48.6699 6.63891 48.6676 6.31658C48.662 5.67291 48.6473 5.02328 48.6315 4.38459C48.5988 3.09128 48.5413 1.80594 48.4849 0.517607L48.7906 0.661861C47.9171 1.15983 47.0768 1.70158 46.2737 2.28446C45.4661 2.86453 44.6937 3.48187 43.96 4.13388C42.5002 5.43912 41.1904 6.8926 40.2609 8.52912C39.7875 9.3426 39.4305 10.2048 39.1982 11.0958C39.153 11.3207 39.0966 11.5435 39.0605 11.7693L39.0154 12.1096C38.9996 12.223 38.9838 12.3364 38.9793 12.4498L38.959 12.7921V13.1353V13.3074L38.968 13.4785C38.9748 13.5929 38.9782 13.7073 38.9883 13.8217C39.0131 14.0505 39.0312 14.2794 39.0707 14.5062C39.1102 14.733 39.1451 14.9598 39.1835 15.1867C39.2798 15.6382 39.4021 16.0852 39.5501 16.5257C39.7008 16.9672 39.8801 17.4007 40.0871 17.824C40.2913 18.2499 40.5398 18.6582 40.8294 19.0437Z" fill="url(#paint0_radial_1623_140426)"/>
<path d="M48.8097 7.34766C49.4482 7.37883 50.0875 7.41398 50.7275 7.45311C51.3649 7.4929 52.0023 7.5327 52.6453 7.57747C53.2883 7.62223 53.9201 7.66501 54.5563 7.71277C55.1926 7.76052 55.83 7.80628 56.4662 7.85801L56.6693 7.87493L56.6276 8.05002C56.5563 8.34819 56.4644 8.64222 56.3523 8.93046C56.023 9.79322 55.5426 10.6052 54.9286 11.337C54.5123 11.8257 54.021 12.2609 53.4688 12.6303C53.1905 12.8128 52.8971 12.9767 52.5911 13.1208C52.5144 13.1576 52.4343 13.1874 52.3565 13.2202C52.2795 13.2549 52.2004 13.2858 52.1196 13.3128L51.6368 13.4759C50.988 13.6722 50.317 13.8056 49.6355 13.8739L49.3816 13.9027C49.297 13.9117 49.2124 13.9137 49.1267 13.9196L48.6179 13.9515C48.2795 13.9564 47.941 13.9694 47.6026 13.9515C47.2641 13.9336 46.9257 13.9246 46.5873 13.9047C46.2488 13.8848 45.9104 13.846 45.5799 13.8052C44.9113 13.7257 44.2489 13.6097 43.5966 13.458C44.2588 13.5625 44.9278 13.6271 45.5957 13.6759C46.2632 13.7239 46.933 13.7422 47.6026 13.7306C47.941 13.7306 48.2693 13.7037 48.6021 13.6908L49.0985 13.646C49.1808 13.6381 49.2632 13.6331 49.3455 13.6222L49.5915 13.5864C50.2451 13.5025 50.8875 13.3611 51.5093 13.1645L51.9605 13.0014C52.0375 12.9748 52.1128 12.9445 52.1861 12.9109C52.2583 12.878 52.3328 12.8482 52.4027 12.8114C52.6895 12.6739 52.9644 12.518 53.2251 12.3448C53.7434 11.992 54.2053 11.5791 54.5981 11.1171C54.9973 10.6539 55.3377 10.1535 55.6134 9.62487C55.893 9.09948 56.1129 8.55096 56.27 7.98735L56.4313 8.17935C55.7961 8.11966 55.1621 8.05499 54.527 7.98933C53.8919 7.92367 53.2579 7.85901 52.6239 7.79037C51.9899 7.72172 51.3547 7.65109 50.7218 7.57846C50.089 7.50584 49.4426 7.42824 48.8097 7.34766Z" fill="url(#paint1_radial_1623_140426)"/>
<path d="M32.4023 7.63447C31.0282 7.74291 29.653 7.84339 28.2767 7.94287C26.9004 8.04236 25.5263 8.14781 24.15 8.24133L24.2516 8.11896C24.4457 8.72628 24.6951 9.31881 24.9973 9.89078C25.2943 10.4648 25.6472 11.015 26.0521 11.5353C26.4527 12.0538 26.9236 12.5272 27.4543 12.945C27.7193 13.1502 28.0018 13.3371 28.2993 13.5041C28.5979 13.6685 28.9115 13.8109 29.2367 13.9299C29.8905 14.1735 30.5743 14.3491 31.2741 14.4532C31.975 14.5564 32.686 14.5967 33.3961 14.5735C34.1077 14.5514 34.8158 14.4752 35.5125 14.3457C35.8611 14.2811 36.2074 14.2035 36.5481 14.1139C36.8864 14.026 37.2189 13.9217 37.5442 13.8015L37.6356 14.1458C36.8221 14.1643 36.0195 13.9779 35.3218 13.6085C34.6369 13.248 34.0364 12.7753 33.5529 12.2157C33.0625 11.6639 32.6811 11.043 32.4248 10.3793C32.2947 10.0429 32.2147 9.69314 32.1868 9.33864C32.1811 9.24818 32.1811 9.15751 32.1868 9.06705L32.1981 8.81237C32.2082 8.64623 32.2093 8.4781 32.2105 8.30997C32.2161 6.96096 32.1462 5.60299 32.0762 4.248C32.0063 2.89302 31.9273 1.53704 31.8348 0.183052L31.8224 0L32.0187 0.051731C32.5102 0.186867 32.9862 0.362745 33.4401 0.577011C33.8914 0.788287 34.326 1.02627 34.7409 1.28932C35.5667 1.81204 36.3431 2.39295 37.0625 3.02633C37.7857 3.65408 38.4659 4.31963 39.1146 5.0011C39.7633 5.68258 40.3803 6.39389 40.9512 7.13008C40.3499 6.41379 39.7102 5.72734 39.0413 5.05781C38.3723 4.38828 37.6762 3.74561 36.9396 3.13974C36.2095 2.53023 35.429 1.96957 34.6044 1.46243C34.1936 1.21076 33.764 0.98407 33.3183 0.783941C32.8774 0.582307 32.4154 0.419041 31.9386 0.296463L32.1225 0.165145C32.2353 1.52112 32.3481 2.87511 32.4327 4.23209C32.5173 5.58906 32.5986 6.94504 32.6064 8.31097C32.6064 8.48208 32.6064 8.65319 32.5963 8.8263L32.5861 9.07998C32.5805 9.15883 32.5805 9.23791 32.5861 9.31676C32.6145 9.64039 32.6904 9.9594 32.8118 10.2658C33.0547 10.8902 33.4151 11.474 33.8778 11.9929C34.3312 12.514 34.8919 12.9552 35.5305 13.2932C36.1599 13.6309 36.8855 13.8034 37.6221 13.7906L38.7322 13.7538L37.7168 14.1348C37.3747 14.2604 37.0248 14.3691 36.6688 14.4601C36.3168 14.553 35.9607 14.6319 35.6005 14.6969C34.8807 14.8295 34.1491 14.9057 33.4142 14.9247C32.6763 14.9443 31.9381 14.8977 31.211 14.7854C30.4839 14.6717 29.7744 14.4834 29.0969 14.2243C28.7546 14.097 28.4255 13.9439 28.1131 13.7667C27.8032 13.5884 27.5098 13.3888 27.2355 13.1698C26.6931 12.7268 26.2142 12.227 25.8095 11.6815C25.4052 11.1435 25.0546 10.5757 24.7615 9.9843C24.4638 9.3957 24.2204 8.78687 24.0338 8.16373L24 8.04932L24.1354 8.04136C25.5117 7.96376 26.8902 7.90208 28.2688 7.83145C29.6474 7.76082 31.0248 7.69515 32.4023 7.63447Z" fill="url(#paint2_radial_1623_140426)"/>
<path d="M55.5547 18.1124V18.2467H55.4655C55.2367 18.2468 55.013 18.3069 54.823 18.4194C54.6329 18.5319 54.4851 18.6917 54.3983 18.8784L50.4928 27.259L50.1611 27.9723L50.0776 27.7942L47.3825 22.0062L44.9368 27.258L44.6051 27.9723L44.5216 27.7942L40.2663 18.6536C40.1535 18.4078 39.436 16.3286 39.436 16.3286C39.436 16.3286 40.6781 18.3909 40.7909 18.6317L44.8522 27.0799L47.2968 21.8291L45.8156 18.6456C45.7599 18.5278 45.6659 18.4271 45.5454 18.3563C45.425 18.2855 45.2835 18.2477 45.1387 18.2477H45.0191V18.1134H46.7463V18.2477C46.6964 18.2476 46.6474 18.2583 46.6034 18.279C46.5594 18.2997 46.5219 18.3296 46.4943 18.3661C46.4666 18.4027 46.4496 18.4446 46.4447 18.4884C46.4399 18.5321 46.4473 18.5762 46.4665 18.6168L47.6307 21.1168L48.7746 18.6655C48.7961 18.6192 48.8043 18.5689 48.7985 18.519C48.7927 18.4692 48.7732 18.4214 48.7415 18.3799C48.7099 18.3383 48.6671 18.3042 48.617 18.2807C48.5669 18.2571 48.511 18.2447 48.4542 18.2447H48.2636V18.1104H49.9908V18.2457H49.7584C49.5743 18.2456 49.3944 18.2938 49.2415 18.3841C49.0887 18.4745 48.9697 18.6029 48.8999 18.7531L47.7187 21.2909L50.4127 27.0789L54.3205 18.6864C54.3429 18.6376 54.3513 18.5847 54.345 18.5323C54.3387 18.48 54.318 18.4297 54.2846 18.3861C54.2511 18.3425 54.2061 18.3068 54.1533 18.2821C54.1006 18.2575 54.0418 18.2446 53.982 18.2447H53.8252V18.1104L55.5547 18.1124Z" fill="url(#paint3_radial_1623_140426)"/>
<path d="M52.3136 23.9821V23.994C53.0017 23.9074 55.373 23.7522 56.8509 25.4465L56.579 24.7501C56.588 24.762 56.5937 24.774 56.6016 24.7859L56.1763 23.7075L56.165 23.6786L54.281 18.8924L54.5067 18.2637L54.756 18.2109C54.6578 18.3303 54.7334 18.3592 54.7876 18.4985L58.2915 27.4173C58.3423 27.5473 58.4379 27.66 58.5649 27.7397C58.6919 27.8195 58.844 27.8622 59 27.862V28.0003H57.2311V27.862C57.2953 27.8619 57.3585 27.8483 57.4156 27.8223C57.4726 27.7963 57.5218 27.7587 57.5591 27.7126C57.5964 27.6665 57.6207 27.6132 57.6299 27.5572C57.6392 27.5011 57.6332 27.444 57.6124 27.3904C56.3105 24.0845 52.8607 24.0298 52.2628 24.1144" fill="url(#paint4_radial_1623_140426)"/>
<path d="M0 32.4988L2.875 32.4236L5.75 32.3684L11.5 32.2556L23 32.1153C26.8337 32.0551 30.6663 32.0677 34.5 32.0451L46 32L57.5 32.0426L63.25 32.0652L66.125 32.0802L69 32.1128L80.5 32.2531L86.25 32.3659L89.125 32.4236L92 32.4988L89.125 32.5764L86.25 32.6316L80.5 32.7444L69 32.8847L66.125 32.9198L63.25 32.9323L57.5 32.9549L46 33L34.5 32.9549C30.6663 32.9323 26.8337 32.9549 23 32.8822L11.5 32.7444L5.75 32.6341L2.875 32.5764L0 32.4988Z" fill="url(#paint5_radial_1623_140426)"/>
<path d="M8.40039 50.2402H7.97852C7.33789 48.3809 6.64258 46.4258 5.89258 44.375C5.52148 43.3594 5.2832 42.7656 5.17773 42.5938C5.12305 42.5039 5.05273 42.4297 4.9668 42.3711C4.83789 42.2891 4.55078 42.1973 4.10547 42.0957V41.75C5.00781 41.793 5.58398 41.8145 5.83398 41.8145C6.16602 41.8145 6.69922 41.793 7.43359 41.75V42.0957C6.96875 42.2129 6.69531 42.3027 6.61328 42.3652C6.53516 42.4277 6.49609 42.5039 6.49609 42.5938C6.49609 42.6758 6.57812 42.9609 6.74219 43.4492C7.46875 45.6562 8.03516 47.2793 8.44141 48.3184L10.0469 44C9.78516 43.2852 9.60742 42.8477 9.51367 42.6875C9.42383 42.5273 9.33008 42.418 9.23242 42.3594C9.13477 42.3008 8.85742 42.2129 8.40039 42.0957V41.75C9.12695 41.793 9.68945 41.8145 10.0879 41.8145C10.5059 41.8145 11.0508 41.793 11.7227 41.75V42.0957L11.5117 42.1484C11.1875 42.2109 10.9785 42.2793 10.8848 42.3535C10.8262 42.4043 10.7969 42.4805 10.7969 42.582C10.7969 42.625 10.8008 42.666 10.8086 42.7051C10.832 42.8066 11.0488 43.4512 11.459 44.6387L12.7188 48.2188C12.9883 47.4766 13.3125 46.5273 13.6914 45.3711L14.5645 42.6992C14.5762 42.6445 14.582 42.5957 14.582 42.5527C14.582 42.4824 14.5605 42.4316 14.5176 42.4004C14.4746 42.3652 14.1836 42.2637 13.6445 42.0957V41.75C14.3711 41.793 14.8457 41.8145 15.0684 41.8145C15.334 41.8145 15.7812 41.793 16.4102 41.75V42.0957C15.9648 42.2129 15.6875 42.3145 15.5781 42.4004C15.5078 42.459 15.4414 42.5566 15.3789 42.6934C15.2773 42.916 14.8203 44.1719 14.0078 46.4609C13.9844 46.5195 13.5547 47.7793 12.7188 50.2402H12.3145L10.873 46.2266C10.7441 45.8672 10.5723 45.416 10.3574 44.873C9.83789 46.2129 9.18555 48.002 8.40039 50.2402ZM19.4336 41.6094H19.8027C20.3301 42.9648 20.9785 44.502 21.748 46.2207L23.1133 49.2031C23.1758 49.3086 23.2441 49.3867 23.3184 49.4375C23.3691 49.4727 23.6562 49.5664 24.1797 49.7188V50.0645C23.4688 50.0215 22.9453 50 22.6094 50C22.2656 50 21.6797 50.0215 20.8516 50.0645V49.7188C21.3242 49.6211 21.5996 49.543 21.6777 49.4844C21.7559 49.4258 21.7949 49.3574 21.7949 49.2793C21.7949 49.1973 21.7539 49.0586 21.6719 48.8633L21.0859 47.4336C20.2539 47.4258 19.6484 47.4219 19.2695 47.4219L17.6582 47.4336L17.0488 48.916C16.9473 49.1543 16.8965 49.3027 16.8965 49.3613C16.8965 49.4121 16.9199 49.4551 16.9668 49.4902C17.0176 49.5215 17.2461 49.5801 17.6523 49.666C17.6953 49.6777 17.7559 49.6953 17.834 49.7188V50.0645C17.166 50.0215 16.6953 50 16.4219 50C16.0742 50 15.6289 50.0215 15.0859 50.0645V49.7188C15.4414 49.6406 15.6855 49.5527 15.8184 49.4551C15.916 49.3809 16.0176 49.2559 16.123 49.0801C16.3457 48.6934 16.9121 47.4492 17.8223 45.3477L19.4336 41.6094ZM17.8867 46.8477C18.4297 46.8633 18.8184 46.8711 19.0527 46.8711C19.123 46.8711 19.7227 46.8633 20.8516 46.8477L19.3691 43.332L17.8867 46.8477ZM24.5664 42.0957V41.75C25.5234 41.793 26.1719 41.8145 26.5117 41.8145C26.7227 41.8145 27.3965 41.793 28.5332 41.75V42.0957C27.8301 42.2168 27.418 42.2969 27.2969 42.3359C27.2109 42.3633 27.1484 42.4062 27.1094 42.4648C27.0508 42.5469 27.0176 42.7168 27.0098 42.9746C27.002 43.2324 26.998 44.6777 26.998 47.3105C26.998 47.8301 27.0039 48.5234 27.0156 49.3906H29.5996C29.9863 49.3906 30.2383 49.3672 30.3555 49.3203C30.4727 49.2734 30.5938 49.1699 30.7188 49.0098C30.8438 48.8496 31.0781 48.4473 31.4219 47.8027H31.9199L31.4512 49.1094C31.3691 49.3516 31.2695 49.6699 31.1523 50.0645C29.5352 50.0215 28.127 50 26.9277 50C26.0801 50 25.293 50.0215 24.5664 50.0645V49.7188C25.1641 49.6094 25.5156 49.5352 25.6211 49.4961C25.7266 49.4531 25.7969 49.3965 25.832 49.3262C25.8711 49.2559 25.8906 49.0508 25.8906 48.7109L25.9199 45.1191L25.9023 42.8047C25.9023 42.6055 25.873 42.4805 25.8145 42.4297C25.7246 42.3516 25.4355 42.2695 24.9473 42.1836C24.8613 42.168 24.7344 42.1387 24.5664 42.0957ZM32.4414 42.0957V41.75C33.3984 41.793 34.0469 41.8145 34.3867 41.8145C34.5977 41.8145 35.2715 41.793 36.4082 41.75V42.0957C35.7051 42.2168 35.293 42.2969 35.1719 42.3359C35.0859 42.3633 35.0234 42.4062 34.9844 42.4648C34.9258 42.5469 34.8926 42.7168 34.8848 42.9746C34.877 43.2324 34.873 44.6777 34.873 47.3105C34.873 47.8301 34.8789 48.5234 34.8906 49.3906H37.4746C37.8613 49.3906 38.1133 49.3672 38.2305 49.3203C38.3477 49.2734 38.4688 49.1699 38.5938 49.0098C38.7188 48.8496 38.9531 48.4473 39.2969 47.8027H39.7949L39.3262 49.1094C39.2441 49.3516 39.1445 49.6699 39.0273 50.0645C37.4102 50.0215 36.002 50 34.8027 50C33.9551 50 33.168 50.0215 32.4414 50.0645V49.7188C33.0391 49.6094 33.3906 49.5352 33.4961 49.4961C33.6016 49.4531 33.6719 49.3965 33.707 49.3262C33.7461 49.2559 33.7656 49.0508 33.7656 48.7109L33.7949 45.1191L33.7773 42.8047C33.7773 42.6055 33.748 42.4805 33.6895 42.4297C33.5996 42.3516 33.3105 42.2695 32.8223 42.1836C32.7363 42.168 32.6094 42.1387 32.4414 42.0957ZM44.4414 41.6094H44.8105C45.3379 42.9648 45.9863 44.502 46.7559 46.2207L48.1211 49.2031C48.1836 49.3086 48.252 49.3867 48.3262 49.4375C48.377 49.4727 48.6641 49.5664 49.1875 49.7188V50.0645C48.4766 50.0215 47.9531 50 47.6172 50C47.2734 50 46.6875 50.0215 45.8594 50.0645V49.7188C46.332 49.6211 46.6074 49.543 46.6855 49.4844C46.7637 49.4258 46.8027 49.3574 46.8027 49.2793C46.8027 49.1973 46.7617 49.0586 46.6797 48.8633L46.0938 47.4336C45.2617 47.4258 44.6562 47.4219 44.2773 47.4219L42.666 47.4336L42.0566 48.916C41.9551 49.1543 41.9043 49.3027 41.9043 49.3613C41.9043 49.4121 41.9277 49.4551 41.9746 49.4902C42.0254 49.5215 42.2539 49.5801 42.6602 49.666C42.7031 49.6777 42.7637 49.6953 42.8418 49.7188V50.0645C42.1738 50.0215 41.7031 50 41.4297 50C41.082 50 40.6367 50.0215 40.0938 50.0645V49.7188C40.4492 49.6406 40.6934 49.5527 40.8262 49.4551C40.9238 49.3809 41.0254 49.2559 41.1309 49.0801C41.3535 48.6934 41.9199 47.4492 42.8301 45.3477L44.4414 41.6094ZM42.8945 46.8477C43.4375 46.8633 43.8262 46.8711 44.0605 46.8711C44.1309 46.8711 44.7305 46.8633 45.8594 46.8477L44.377 43.332L42.8945 46.8477ZM49.2988 42.0957V41.75C49.7949 41.793 50.1855 41.8145 50.4707 41.8145C50.7012 41.8145 51.1133 41.793 51.707 41.75L53.3711 43.8301C53.5234 44.0137 54.6992 45.4375 56.8984 48.1016C56.9023 47.5547 56.9043 47.1582 56.9043 46.9121C56.9043 46.3301 56.8867 45.2656 56.8516 43.7188C56.8359 42.9961 56.8164 42.6035 56.793 42.541C56.7734 42.4785 56.7285 42.4219 56.6582 42.3711C56.5918 42.3203 56.3203 42.25 55.8438 42.1602C55.7812 42.1484 55.6895 42.127 55.5684 42.0957V41.75C56.2637 41.793 56.8164 41.8145 57.2266 41.8145C57.625 41.8145 58.1758 41.793 58.8789 41.75V42.0957C58.7734 42.123 58.6953 42.1406 58.6445 42.1484C58.1211 42.2578 57.8301 42.3301 57.7715 42.3652C57.7285 42.3887 57.6934 42.4238 57.666 42.4707C57.627 42.5332 57.5996 42.6504 57.584 42.8223C57.5801 42.8965 57.5703 43.4297 57.5547 44.4219C57.543 45.4102 57.5371 46.3672 57.5371 47.293C57.5371 48.3867 57.5566 49.3105 57.5957 50.0645L57.2148 50.2402L54.7715 47.2051L51.5664 43.3496L51.5957 46.8125C51.6152 48.3281 51.6367 49.1367 51.6602 49.2383C51.6758 49.3086 51.7109 49.3691 51.7656 49.4199C51.8516 49.498 52.1426 49.5801 52.6387 49.666C52.6973 49.6738 52.7852 49.6914 52.9023 49.7188V50.0645C52.3047 50.0215 51.8008 50 51.3906 50C51.0469 50 50.4473 50.0215 49.5918 50.0645V49.7188C49.7285 49.6875 49.832 49.6641 49.9023 49.6484C50.3711 49.5664 50.6426 49.4902 50.7168 49.4199C50.7598 49.3848 50.791 49.3242 50.8105 49.2383C50.8496 49.0586 50.875 48.3789 50.8867 47.1992C50.9062 45.5273 50.916 44.5391 50.916 44.2344C50.916 43.2539 50.9023 42.709 50.875 42.5996C50.8594 42.5215 50.8086 42.457 50.7227 42.4062C50.6367 42.3516 50.2676 42.2695 49.6152 42.1602C49.5449 42.1484 49.4395 42.127 49.2988 42.0957ZM59.7637 44.0352H59.3125C59.3867 43.3555 59.4531 42.5938 59.5117 41.75C61.2422 41.793 62.4766 41.8145 63.2148 41.8145C63.8281 41.8145 64.9453 41.793 66.5664 41.75C66.6172 42.6211 66.6758 43.3828 66.7422 44.0352H66.3027C66.1191 43.3203 66 42.9023 65.9453 42.7812C65.8906 42.6562 65.8105 42.5684 65.7051 42.5176C65.6035 42.4629 65.3418 42.4355 64.9199 42.4355H63.6191C63.5879 43.4746 63.5723 44.7598 63.5723 46.291C63.5723 47.7129 63.5879 48.6738 63.6191 49.1738C63.627 49.291 63.6562 49.3711 63.707 49.4141C63.7734 49.4688 64.0957 49.5527 64.6738 49.666C64.7285 49.6738 64.8105 49.6914 64.9199 49.7188V50.0645C64.1465 50.0215 63.457 50 62.8516 50C62.2773 50 61.6895 50.0215 61.0879 50.0645V49.7188C61.2246 49.6836 61.3281 49.6602 61.3984 49.6484C61.9336 49.5586 62.2422 49.4824 62.3242 49.4199C62.3594 49.3887 62.3848 49.3457 62.4004 49.291C62.4199 49.2324 62.4355 48.7988 62.4473 47.9902C62.4629 46.7402 62.4707 45.8145 62.4707 45.2129C62.4707 44.1621 62.4629 43.2363 62.4473 42.4355H61.0527L60.8008 42.4414C60.5781 42.4414 60.4316 42.4648 60.3613 42.5117C60.252 42.5781 60.1543 42.7188 60.0684 42.9336C60.002 43.0977 59.9004 43.4648 59.7637 44.0352ZM71.043 41.75V42.0957C70.9062 42.127 70.8047 42.1484 70.7383 42.1602C70.2188 42.25 69.918 42.3359 69.8359 42.418C69.7539 42.4961 69.7129 42.6738 69.7129 42.9512V43.1562L69.6895 45.5117L69.707 48.9336C69.707 49.207 69.7461 49.3809 69.8242 49.4551C69.9062 49.5293 70.1816 49.5938 70.6504 49.6484C70.7402 49.6602 70.8711 49.6836 71.043 49.7188V50.0645C70.4141 50.0215 69.8086 50 69.2266 50C68.625 50 67.9648 50.0215 67.2461 50.0645V49.7188C67.3594 49.6875 67.4453 49.668 67.5039 49.6602C68.0586 49.5703 68.375 49.4883 68.4531 49.4141C68.5352 49.3359 68.5762 49.1426 68.5762 48.834L68.5703 48.541L68.582 46.3906C68.582 44.1797 68.5781 42.957 68.5703 42.7227C68.5625 42.5938 68.5195 42.4941 68.4414 42.4238C68.3672 42.3535 68.0723 42.2695 67.5566 42.1719C67.4863 42.1562 67.3828 42.1309 67.2461 42.0957V41.75C68.0938 41.793 68.7559 41.8145 69.2324 41.8145C69.7637 41.8145 70.3672 41.793 71.043 41.75ZM79.3281 48.6406L79.5742 49.0859C78.9453 49.4805 78.3418 49.7715 77.7637 49.959C77.1855 50.1465 76.5879 50.2402 75.9707 50.2402C75.1855 50.2402 74.4727 50.0625 73.832 49.707C73.1914 49.3477 72.7051 48.8418 72.373 48.1895C72.0449 47.5332 71.8809 46.8066 71.8809 46.0098C71.8809 44.709 72.3047 43.6445 73.1523 42.8164C74.0039 41.9883 75.1289 41.5742 76.5273 41.5742C77.3867 41.5742 78.3438 41.75 79.3984 42.1016C79.3906 42.4453 79.3867 42.7031 79.3867 42.875C79.3867 43.375 79.416 43.9004 79.4746 44.4512H78.9824C78.8379 43.7676 78.6836 43.2969 78.5195 43.0391C78.3555 42.7812 78.0898 42.5762 77.7227 42.4238C77.3555 42.2676 76.9023 42.1895 76.3633 42.1895C75.2305 42.1895 74.377 42.5918 73.8027 43.3965C73.3574 44.0254 73.1348 44.8145 73.1348 45.7637C73.1348 46.8965 73.4473 47.791 74.0723 48.4473C74.7012 49.0996 75.5234 49.4258 76.5391 49.4258C76.9766 49.4258 77.4023 49.3691 77.8164 49.2559C78.2305 49.1426 78.7344 48.9375 79.3281 48.6406ZM85.5449 43.9883H85.0996C84.998 43.4883 84.8828 43.123 84.7539 42.8926C84.625 42.6621 84.4277 42.4824 84.1621 42.3535C83.9004 42.2207 83.6055 42.1543 83.2773 42.1543C82.8125 42.1543 82.4414 42.2832 82.1641 42.541C81.8906 42.7988 81.7539 43.1113 81.7539 43.4785C81.7539 43.8027 81.8672 44.0859 82.0938 44.3281C82.3164 44.5703 82.8594 44.877 83.7227 45.248C84.5898 45.6191 85.1797 46.002 85.4922 46.3965C85.8008 46.7949 85.9551 47.2422 85.9551 47.7383C85.9551 48.1836 85.8379 48.5977 85.6035 48.9805C85.373 49.3633 85.0234 49.6699 84.5547 49.9004C84.0898 50.127 83.5879 50.2402 83.0488 50.2402C82.6816 50.2402 82.3125 50.2051 81.9414 50.1348C81.5742 50.0645 81.1328 49.9434 80.6172 49.7715C80.6719 49.2207 80.6992 48.4902 80.6992 47.5801H81.1504C81.2793 48.166 81.4121 48.5762 81.5488 48.8105C81.6895 49.0449 81.9004 49.2383 82.1816 49.3906C82.4629 49.5391 82.7715 49.6133 83.1074 49.6133C83.5684 49.6133 83.9727 49.4844 84.3203 49.2266C84.668 48.9688 84.8418 48.6074 84.8418 48.1426C84.8418 47.7637 84.7168 47.4277 84.4668 47.1348C84.2129 46.8457 83.6621 46.5195 82.8145 46.1562C81.9707 45.7891 81.4062 45.4375 81.1211 45.1016C80.8359 44.7695 80.6934 44.373 80.6934 43.9121C80.6934 43.5098 80.8086 43.127 81.0391 42.7637C81.2695 42.3965 81.6074 42.1074 82.0527 41.8965C82.502 41.6816 82.9668 41.5742 83.4473 41.5742C84.0254 41.5742 84.7246 41.7129 85.5449 41.9902C85.5254 42.5605 85.5156 42.9043 85.5156 43.0215C85.5156 43.2598 85.5254 43.582 85.5449 43.9883Z" fill="white"/>
<path d="M23.2594 57.1514V59.9597H23V57.1514H23.2594Z" fill="white"/>
<path d="M24.8335 59.9646V57.1562H25.2006C25.5891 57.8241 26.4727 59.3174 26.6277 59.6227C26.6052 59.2381 26.6075 58.8107 26.6075 58.3516V57.1562H26.8657V59.9646H26.5289C26.164 59.3321 25.2568 57.7558 25.0816 57.4432C25.0996 57.7899 25.0973 58.2307 25.0973 58.7399V59.9609L24.8335 59.9646Z" fill="white"/>
<path d="M28.4926 59.1963C28.5667 59.5541 28.789 59.758 29.191 59.758C29.6333 59.758 29.804 59.5235 29.804 59.2354C29.804 58.9472 29.676 58.7555 29.1303 58.6102C28.5555 58.4552 28.3298 58.2439 28.3298 57.8459C28.3298 57.4478 28.5937 57.1133 29.1584 57.1133C29.749 57.1133 29.9949 57.4955 30.0286 57.8459H29.758C29.7041 57.5675 29.5402 57.3575 29.1472 57.3575C28.8003 57.3575 28.6083 57.5309 28.6083 57.8239C28.6083 58.1169 28.7677 58.2256 29.2336 58.3502C29.9668 58.5467 30.0836 58.8618 30.0836 59.2049C30.0836 59.6371 29.7928 59.9936 29.1786 59.9936C28.5297 59.9936 28.2737 59.5944 28.2231 59.1914L28.4926 59.1963Z" fill="white"/>
<path d="M31.4601 57.1514H32.4099C32.8961 57.1514 33.2307 57.4456 33.2307 57.9511C33.2307 58.4762 32.8939 58.7704 32.3864 58.7704H31.7273V59.9646H31.4601V57.1514ZM31.7273 58.5189H32.3886C32.7771 58.5189 32.95 58.3015 32.95 57.9597C32.95 57.5934 32.7254 57.4041 32.3998 57.4041H31.7262L31.7273 58.5189Z" fill="white"/>
<path d="M34.8407 57.1514V59.9597H34.5757V57.1514H34.8407Z" fill="white"/>
<path d="M36.6798 58.6849V59.9646H36.4149V57.1562H37.3793C37.8992 57.1562 38.1754 57.4615 38.1754 57.9023C38.1832 58.0545 38.1406 58.2047 38.0553 58.3256C37.97 58.4466 37.8477 58.5303 37.7105 58.5616C37.9519 58.6276 38.1316 58.8058 38.1316 59.2942V59.4078C38.1316 59.6031 38.1203 59.8595 38.1664 59.9719H37.9036C37.8565 59.8498 37.8632 59.6288 37.8632 59.3773V59.3101C37.8632 58.8766 37.751 58.6923 37.267 58.6923L36.6798 58.6849ZM36.6798 58.4322H37.276C37.7038 58.4322 37.898 58.2588 37.898 57.9133C37.898 57.5885 37.7038 57.4041 37.3243 57.4041H36.6798V58.4322Z" fill="white"/>
<path d="M39.8842 57.1514V59.9597H39.617V57.1514H39.8842Z" fill="white"/>
<path d="M41.4584 59.9646V57.1562H41.8255C42.214 57.8241 43.0965 59.3174 43.2514 59.6227C43.2279 59.2381 43.2312 58.8107 43.2312 58.3516V57.1562H43.4895V59.9646H43.1459C42.781 59.3321 41.8738 57.7558 41.6998 57.4432C41.7189 57.7899 41.7166 58.2307 41.7166 58.7399V59.9609L41.4584 59.9646Z" fill="white"/>
<path d="M47.079 59.9648H46.869C46.845 59.8268 46.8352 59.6864 46.8398 59.546C46.7388 59.7426 46.5266 60.0002 46.0191 60.0002C45.2747 60.0002 44.8873 59.3897 44.8873 58.5851C44.8873 57.7438 45.3028 57.1113 46.0707 57.1113C46.6478 57.1113 47.0206 57.4459 47.0992 57.9575H46.8353C46.7343 57.5912 46.4985 57.3616 46.0629 57.3616C45.4364 57.3616 45.1647 57.8977 45.1647 58.5704C45.1647 59.1809 45.4296 59.7475 46.0404 59.7475C46.6512 59.7475 46.8207 59.3079 46.8207 58.7511V58.7206H46.0348V58.4654H47.0779L47.079 59.9648Z" fill="white"/>
<path d="M50.3339 57.1514H51.2208C51.9383 57.1514 52.4301 57.6898 52.4301 58.5323C52.4301 59.3748 51.9506 59.9646 51.2141 59.9646H50.3339V57.1514ZM50.5977 59.7155H51.1816C51.8316 59.7155 52.1471 59.2149 52.1471 58.5457C52.1471 57.956 51.862 57.409 51.1827 57.409H50.5977V59.7155Z" fill="white"/>
<path d="M55.3863 58.6127H54.0817V59.7116H55.5121L55.4762 59.9655H53.8201V57.1572H55.4481V57.4124H54.0817V58.3648H55.3863V58.6127Z" fill="white"/>
<path d="M56.9459 59.1963C57.0211 59.5541 57.2423 59.758 57.6442 59.758C58.0866 59.758 58.2573 59.5235 58.2573 59.2354C58.2573 58.9472 58.1293 58.7555 57.5836 58.6102C57.0088 58.4552 56.7831 58.2439 56.7831 57.8459C56.7831 57.4478 57.0469 57.1133 57.6117 57.1133C58.2023 57.1133 58.4482 57.4955 58.483 57.8459H58.2101C58.1573 57.5675 57.9923 57.3575 57.5993 57.3575C57.2524 57.3575 57.0604 57.5309 57.0604 57.8239C57.0604 58.1169 57.2198 58.2256 57.6858 58.3502C58.419 58.5467 58.5357 58.8618 58.5357 59.2049C58.5357 59.6371 58.2449 59.9936 57.6308 59.9936C56.9818 59.9936 56.7258 59.5944 56.6753 59.1914L56.9459 59.1963Z" fill="white"/>
<path d="M60.1772 57.1514V59.9597H59.9133V57.1514H60.1772Z" fill="white"/>
<path d="M63.7634 59.9648H63.5523C63.5283 59.8268 63.5189 59.6863 63.5242 59.546C63.422 59.7426 63.2098 60.0002 62.7035 60.0002C61.9591 60.0002 61.5717 59.3897 61.5717 58.5851C61.5717 57.7438 61.986 57.1113 62.754 57.1113C63.3311 57.1113 63.705 57.4459 63.7825 57.9575H63.5186C63.4176 57.5912 63.1818 57.3616 62.7461 57.3616C62.1208 57.3616 61.8479 57.8977 61.8479 58.5704C61.8479 59.1809 62.1118 59.7475 62.7226 59.7475C63.3333 59.7475 63.5029 59.3079 63.5029 58.7511V58.7206H62.7169V58.4654H63.7611L63.7634 59.9648Z" fill="white"/>
<path d="M65.2533 59.9646V57.1562H65.6204C66.0089 57.8241 66.8925 59.3174 67.0464 59.6227C67.0228 59.2381 67.0261 58.8107 67.0261 58.3516V57.1562H67.2844V59.9646H66.9419C66.5759 59.3321 65.6698 57.7558 65.4947 57.4432C65.5138 57.7899 65.5115 58.2307 65.5115 58.7399V59.9609L65.2533 59.9646Z" fill="white"/>
<path d="M68.6261 58.0159C68.7187 57.6856 68.7753 57.3446 68.7945 57H69.0505C69.0225 57.3476 68.9507 57.6895 68.8372 58.0159H68.6261Z" fill="white"/>
<path d="M70.4091 59.1963C70.4843 59.5541 70.7055 59.758 71.1074 59.758C71.5498 59.758 71.7205 59.5235 71.7205 59.2354C71.7205 58.9472 71.5925 58.7555 71.0468 58.6102C70.4719 58.4552 70.2463 58.2439 70.2463 57.8459C70.2463 57.4478 70.5101 57.1133 71.0749 57.1133C71.6654 57.1133 71.9113 57.4955 71.9461 57.8459H71.6744C71.6217 57.5675 71.4566 57.3575 71.0636 57.3575C70.7167 57.3575 70.5247 57.5309 70.5247 57.8239C70.5247 58.1169 70.6841 58.2256 71.1501 58.3502C71.8833 58.5467 72 58.8618 72 59.2049C72 59.6371 71.7092 59.9936 71.0951 59.9936C70.4461 59.9936 70.1901 59.5944 70.1396 59.1914L70.4091 59.1963Z" fill="white"/>
<defs>
<radialGradient id="paint0_radial_1623_140426" cx="0" cy="0" r="1" gradientUnits="userSpaceOnUse" gradientTransform="translate(43.8314 9.67022) scale(8.44625 7.44843)">
<stop stop-color="#CE9C69"/>
<stop offset="1" stop-color="#AF763B"/>
</radialGradient>
<radialGradient id="paint1_radial_1623_140426" cx="0" cy="0" r="1" gradientUnits="userSpaceOnUse" gradientTransform="translate(50.1228 10.5958) scale(5.39468 4.75737)">
<stop stop-color="#CE9C69"/>
<stop offset="1" stop-color="#AF763B"/>
</radialGradient>
<radialGradient id="paint2_radial_1623_140426" cx="0" cy="0" r="1" gradientUnits="userSpaceOnUse" gradientTransform="translate(32.5015 7.42953) scale(8.56584 7.55389)">
<stop stop-color="#CE9C69"/>
<stop offset="1" stop-color="#AF763B"/>
</radialGradient>
<radialGradient id="paint3_radial_1623_140426" cx="0" cy="0" r="1" gradientUnits="userSpaceOnUse" gradientTransform="translate(47.4965 22.1505) scale(7.36551 6.49537)">
<stop stop-color="#CE9C69"/>
<stop offset="1" stop-color="#AF763B"/>
</radialGradient>
<radialGradient id="paint4_radial_1623_140426" cx="0" cy="0" r="1" gradientUnits="userSpaceOnUse" gradientTransform="translate(55.6303 23.1006) scale(4.59033 4.04804)">
<stop stop-color="#CE9C69"/>
<stop offset="1" stop-color="#AF763B"/>
</radialGradient>
<radialGradient id="paint5_radial_1623_140426" cx="0" cy="0" r="1" gradientUnits="userSpaceOnUse" gradientTransform="translate(46 32.4987) scale(32.5269 74.6591)">
<stop stop-color="#CE9C69"/>
<stop offset="1" stop-color="#AF763B"/>
</radialGradient>
</defs>
</svg>
